%TF.GenerationSoftware,KiCad,Pcbnew,8.0.6*%
%TF.CreationDate,2025-04-09T11:05:23-07:00*%
%TF.ProjectId,SF_PCB_Rev1-2,53465f50-4342-45f5-9265-76312d322e6b,rev?*%
%TF.SameCoordinates,Original*%
%TF.FileFunction,Copper,L2,Bot*%
%TF.FilePolarity,Positive*%
%FSLAX46Y46*%
G04 Gerber Fmt 4.6, Leading zero omitted, Abs format (unit mm)*
G04 Created by KiCad (PCBNEW 8.0.6) date 2025-04-09 11:05:23*
%MOMM*%
%LPD*%
G01*
G04 APERTURE LIST*
%TA.AperFunction,SMDPad,CuDef*%
%ADD10R,4.191000X2.667000*%
%TD*%
%TA.AperFunction,ViaPad*%
%ADD11C,1.400000*%
%TD*%
%TA.AperFunction,ViaPad*%
%ADD12C,0.800000*%
%TD*%
G04 APERTURE END LIST*
D10*
%TO.P,J15,4*%
%TO.N,/SMDFilter/GND*%
X206495000Y-81167860D03*
%TO.P,J15,6*%
X206495000Y-74182860D03*
%TD*%
%TO.P,J11,4*%
%TO.N,/SMDFilter/GND*%
X63445000Y-74112860D03*
%TO.P,J11,6*%
X63445000Y-81097860D03*
%TD*%
D11*
%TO.N,/SMDFilter/GND*%
X146035000Y-68029500D03*
X165085000Y-68029500D03*
D12*
X66452500Y-74097860D03*
D11*
X165086000Y-87309500D03*
D12*
X203337500Y-81205360D03*
D11*
X149846000Y-87309500D03*
D12*
X203345000Y-74205360D03*
D11*
X149845000Y-68029500D03*
D12*
X66445000Y-81105360D03*
D11*
X161275000Y-68029500D03*
X153655000Y-68029500D03*
X153656000Y-87309500D03*
X157465000Y-68029500D03*
X161276000Y-87309500D03*
X157466000Y-87309500D03*
X146036000Y-87309500D03*
%TD*%
%TA.AperFunction,Conductor*%
%TO.N,/SMDFilter/GND*%
G36*
X206288736Y-48206086D02*
G01*
X206578799Y-48223631D01*
X206593662Y-48225436D01*
X206875802Y-48277140D01*
X206890324Y-48280719D01*
X207164200Y-48366061D01*
X207178166Y-48371358D01*
X207439746Y-48489084D01*
X207453004Y-48496043D01*
X207698475Y-48644434D01*
X207710784Y-48652930D01*
X207936588Y-48829833D01*
X207947788Y-48839755D01*
X208150619Y-49042583D01*
X208160548Y-49053791D01*
X208337443Y-49279579D01*
X208345949Y-49291902D01*
X208494341Y-49537366D01*
X208501300Y-49550625D01*
X208619021Y-49812185D01*
X208624331Y-49826185D01*
X208709668Y-50100030D01*
X208713252Y-50114569D01*
X208764960Y-50396706D01*
X208766765Y-50411571D01*
X208784274Y-50700969D01*
X208784500Y-50708457D01*
X208784500Y-72227028D01*
X208764815Y-72294067D01*
X208712011Y-72339822D01*
X208647252Y-72350318D01*
X208638345Y-72349360D01*
X206745000Y-72349360D01*
X206745000Y-76016360D01*
X208638328Y-76016360D01*
X208638339Y-76016359D01*
X208647242Y-76015402D01*
X208716002Y-76027806D01*
X208767140Y-76075415D01*
X208784500Y-76138691D01*
X208784500Y-79212028D01*
X208764815Y-79279067D01*
X208712011Y-79324822D01*
X208647252Y-79335318D01*
X208638345Y-79334360D01*
X206745000Y-79334360D01*
X206745000Y-83001360D01*
X208638328Y-83001360D01*
X208638339Y-83001359D01*
X208647242Y-83000402D01*
X208716002Y-83012806D01*
X208767140Y-83060415D01*
X208784500Y-83123691D01*
X208784500Y-104631864D01*
X208784499Y-104631882D01*
X208784499Y-104701619D01*
X208784273Y-104709104D01*
X208766732Y-104999165D01*
X208764927Y-105014030D01*
X208713228Y-105296161D01*
X208709645Y-105310700D01*
X208624312Y-105584551D01*
X208619002Y-105598552D01*
X208501285Y-105860117D01*
X208494326Y-105873376D01*
X208345939Y-106118843D01*
X208337433Y-106131166D01*
X208160545Y-106356951D01*
X208150616Y-106368160D01*
X207947788Y-106570990D01*
X207936580Y-106580919D01*
X207710791Y-106757815D01*
X207698468Y-106766321D01*
X207453008Y-106914710D01*
X207439748Y-106921670D01*
X207178177Y-107039393D01*
X207164177Y-107044702D01*
X206890338Y-107130035D01*
X206875799Y-107133619D01*
X206593662Y-107185323D01*
X206578797Y-107187128D01*
X206289397Y-107204634D01*
X206281910Y-107204860D01*
X63718751Y-107204860D01*
X63711264Y-107204634D01*
X63421207Y-107187088D01*
X63406342Y-107185283D01*
X63124209Y-107133580D01*
X63109670Y-107129996D01*
X62835832Y-107044664D01*
X62821831Y-107039354D01*
X62560276Y-106921636D01*
X62547018Y-106914678D01*
X62301551Y-106766287D01*
X62289227Y-106757780D01*
X62063446Y-106580889D01*
X62052238Y-106570960D01*
X61849413Y-106368133D01*
X61839484Y-106356924D01*
X61662597Y-106131140D01*
X61654093Y-106118820D01*
X61505708Y-105873357D01*
X61498749Y-105860098D01*
X61381034Y-105598539D01*
X61375724Y-105584538D01*
X61290391Y-105310684D01*
X61286810Y-105296152D01*
X61271145Y-105210666D01*
X61235111Y-105014022D01*
X61233307Y-104999160D01*
X61227699Y-104906433D01*
X61215725Y-104708441D01*
X61215500Y-104700957D01*
X61215501Y-104639475D01*
X61215500Y-104639471D01*
X61215500Y-100705360D01*
X63339693Y-100705360D01*
X63358912Y-101121057D01*
X63358912Y-101121062D01*
X63358913Y-101121067D01*
X63416403Y-101533205D01*
X63416405Y-101533213D01*
X63511679Y-101938293D01*
X63643928Y-102332870D01*
X63643931Y-102332877D01*
X63812005Y-102713529D01*
X63812010Y-102713539D01*
X63812014Y-102713548D01*
X63812018Y-102713556D01*
X63812019Y-102713557D01*
X64014506Y-103077090D01*
X64014509Y-103077094D01*
X64014511Y-103077098D01*
X64249687Y-103420413D01*
X64249689Y-103420415D01*
X64249696Y-103420425D01*
X64511760Y-103736015D01*
X64515538Y-103740565D01*
X64809794Y-104034821D01*
X64809805Y-104034830D01*
X65129933Y-104300662D01*
X65129939Y-104300666D01*
X65129946Y-104300672D01*
X65473261Y-104535848D01*
X65836811Y-104738345D01*
X65836828Y-104738352D01*
X65836829Y-104738353D01*
X65911664Y-104771396D01*
X66217495Y-104906433D01*
X66612063Y-105038679D01*
X67017151Y-105133955D01*
X67429302Y-105191447D01*
X67844999Y-105210666D01*
X68260696Y-105191447D01*
X68672847Y-105133955D01*
X69077935Y-105038679D01*
X69472503Y-104906433D01*
X69853187Y-104738345D01*
X70216737Y-104535848D01*
X70560052Y-104300672D01*
X70880204Y-104034821D01*
X71174460Y-103740565D01*
X71440311Y-103420413D01*
X71675487Y-103077098D01*
X71877984Y-102713548D01*
X72046072Y-102332864D01*
X72178318Y-101938296D01*
X72273594Y-101533208D01*
X72331086Y-101121057D01*
X72350305Y-100705360D01*
X198339694Y-100705360D01*
X198358913Y-101121057D01*
X198358913Y-101121062D01*
X198358914Y-101121067D01*
X198416404Y-101533205D01*
X198416406Y-101533213D01*
X198511680Y-101938293D01*
X198643929Y-102332870D01*
X198643932Y-102332877D01*
X198812006Y-102713529D01*
X198812011Y-102713539D01*
X198812015Y-102713548D01*
X198812019Y-102713556D01*
X198812020Y-102713557D01*
X199014507Y-103077090D01*
X199014510Y-103077094D01*
X199014512Y-103077098D01*
X199249688Y-103420413D01*
X199249690Y-103420415D01*
X199249697Y-103420425D01*
X199511761Y-103736015D01*
X199515539Y-103740565D01*
X199809795Y-104034821D01*
X199809806Y-104034830D01*
X200129934Y-104300662D01*
X200129940Y-104300666D01*
X200129947Y-104300672D01*
X200473262Y-104535848D01*
X200836812Y-104738345D01*
X200836829Y-104738352D01*
X200836830Y-104738353D01*
X200911665Y-104771396D01*
X201217496Y-104906433D01*
X201612064Y-105038679D01*
X202017152Y-105133955D01*
X202429303Y-105191447D01*
X202845000Y-105210666D01*
X203260697Y-105191447D01*
X203672848Y-105133955D01*
X204077936Y-105038679D01*
X204472504Y-104906433D01*
X204853188Y-104738345D01*
X205216738Y-104535848D01*
X205560053Y-104300672D01*
X205880205Y-104034821D01*
X206174461Y-103740565D01*
X206440312Y-103420413D01*
X206675488Y-103077098D01*
X206877985Y-102713548D01*
X207046073Y-102332864D01*
X207178319Y-101938296D01*
X207273595Y-101533208D01*
X207331087Y-101121057D01*
X207350306Y-100705360D01*
X207331087Y-100289663D01*
X207273595Y-99877512D01*
X207178319Y-99472424D01*
X207046073Y-99077856D01*
X206877985Y-98697172D01*
X206675488Y-98333622D01*
X206440312Y-97990307D01*
X206440306Y-97990300D01*
X206440302Y-97990294D01*
X206174470Y-97670166D01*
X206174461Y-97670155D01*
X205880205Y-97375899D01*
X205767528Y-97282333D01*
X205560065Y-97110057D01*
X205560055Y-97110050D01*
X205560053Y-97110048D01*
X205216738Y-96874872D01*
X205216734Y-96874870D01*
X205216730Y-96874867D01*
X204853197Y-96672380D01*
X204853196Y-96672379D01*
X204853188Y-96672375D01*
X204853179Y-96672371D01*
X204853169Y-96672366D01*
X204472517Y-96504292D01*
X204472510Y-96504289D01*
X204077933Y-96372040D01*
X203672853Y-96276766D01*
X203672845Y-96276764D01*
X203260707Y-96219274D01*
X203260702Y-96219273D01*
X203260697Y-96219273D01*
X202845000Y-96200054D01*
X202429303Y-96219273D01*
X202429297Y-96219273D01*
X202429292Y-96219274D01*
X202017154Y-96276764D01*
X202017146Y-96276766D01*
X201612066Y-96372040D01*
X201217489Y-96504289D01*
X201217482Y-96504292D01*
X200836830Y-96672366D01*
X200836802Y-96672380D01*
X200473269Y-96874867D01*
X200473263Y-96874871D01*
X200129944Y-97110050D01*
X200129934Y-97110057D01*
X199809806Y-97375889D01*
X199809786Y-97375907D01*
X199515547Y-97670146D01*
X199515529Y-97670166D01*
X199249697Y-97990294D01*
X199249690Y-97990304D01*
X199014511Y-98333623D01*
X199014507Y-98333629D01*
X198812020Y-98697162D01*
X198812006Y-98697190D01*
X198643932Y-99077842D01*
X198643929Y-99077849D01*
X198511680Y-99472426D01*
X198416406Y-99877506D01*
X198416404Y-99877514D01*
X198358914Y-100289652D01*
X198358913Y-100289657D01*
X198358913Y-100289663D01*
X198339694Y-100705360D01*
X72350305Y-100705360D01*
X72331086Y-100289663D01*
X72273594Y-99877512D01*
X72178318Y-99472424D01*
X72046072Y-99077856D01*
X71877984Y-98697172D01*
X71675487Y-98333622D01*
X71440311Y-97990307D01*
X71440305Y-97990300D01*
X71440301Y-97990294D01*
X71174469Y-97670166D01*
X71174460Y-97670155D01*
X70880204Y-97375899D01*
X70767527Y-97282333D01*
X70560064Y-97110057D01*
X70560054Y-97110050D01*
X70560052Y-97110048D01*
X70216737Y-96874872D01*
X70216733Y-96874870D01*
X70216729Y-96874867D01*
X69853196Y-96672380D01*
X69853195Y-96672379D01*
X69853187Y-96672375D01*
X69853178Y-96672371D01*
X69853168Y-96672366D01*
X69472516Y-96504292D01*
X69472509Y-96504289D01*
X69077932Y-96372040D01*
X68672852Y-96276766D01*
X68672844Y-96276764D01*
X68260706Y-96219274D01*
X68260701Y-96219273D01*
X68260696Y-96219273D01*
X67844999Y-96200054D01*
X67429302Y-96219273D01*
X67429296Y-96219273D01*
X67429291Y-96219274D01*
X67017153Y-96276764D01*
X67017145Y-96276766D01*
X66612065Y-96372040D01*
X66217488Y-96504289D01*
X66217481Y-96504292D01*
X65836829Y-96672366D01*
X65836801Y-96672380D01*
X65473268Y-96874867D01*
X65473262Y-96874871D01*
X65129943Y-97110050D01*
X65129933Y-97110057D01*
X64809805Y-97375889D01*
X64809785Y-97375907D01*
X64515546Y-97670146D01*
X64515528Y-97670166D01*
X64249696Y-97990294D01*
X64249689Y-97990304D01*
X64014510Y-98333623D01*
X64014506Y-98333629D01*
X63812019Y-98697162D01*
X63812005Y-98697190D01*
X63643931Y-99077842D01*
X63643928Y-99077849D01*
X63511679Y-99472426D01*
X63416405Y-99877506D01*
X63416403Y-99877514D01*
X63358913Y-100289652D01*
X63358912Y-100289657D01*
X63358912Y-100289663D01*
X63339693Y-100705360D01*
X61215500Y-100705360D01*
X61215500Y-83055360D01*
X61235185Y-82988321D01*
X61287989Y-82942566D01*
X61339500Y-82931360D01*
X63195000Y-82931360D01*
X63695000Y-82931360D01*
X65588328Y-82931360D01*
X65588344Y-82931359D01*
X65647872Y-82924958D01*
X65647879Y-82924956D01*
X65782586Y-82874714D01*
X65782593Y-82874710D01*
X65897687Y-82788550D01*
X65897690Y-82788547D01*
X65983850Y-82673453D01*
X65983854Y-82673446D01*
X66030193Y-82549204D01*
X203899500Y-82549204D01*
X203905901Y-82608732D01*
X203905903Y-82608739D01*
X203956145Y-82743446D01*
X203956149Y-82743453D01*
X204042309Y-82858547D01*
X204042312Y-82858550D01*
X204157406Y-82944710D01*
X204157413Y-82944714D01*
X204292120Y-82994956D01*
X204292127Y-82994958D01*
X204351655Y-83001359D01*
X204351672Y-83001360D01*
X206245000Y-83001360D01*
X206245000Y-81417860D01*
X203899500Y-81417860D01*
X203899500Y-82549204D01*
X66030193Y-82549204D01*
X66034096Y-82538739D01*
X66034098Y-82538732D01*
X66040499Y-82479204D01*
X66040500Y-82479187D01*
X66040500Y-81347860D01*
X63695000Y-81347860D01*
X63695000Y-82931360D01*
X63195000Y-82931360D01*
X63195000Y-80847860D01*
X63695000Y-80847860D01*
X66040500Y-80847860D01*
X66040500Y-79786515D01*
X203899500Y-79786515D01*
X203899500Y-80917860D01*
X206245000Y-80917860D01*
X206245000Y-79334360D01*
X204351655Y-79334360D01*
X204292127Y-79340761D01*
X204292120Y-79340763D01*
X204157413Y-79391005D01*
X204157406Y-79391009D01*
X204042312Y-79477169D01*
X204042309Y-79477172D01*
X203956149Y-79592266D01*
X203956145Y-79592273D01*
X203905903Y-79726980D01*
X203905901Y-79726987D01*
X203899500Y-79786515D01*
X66040500Y-79786515D01*
X66040500Y-79716532D01*
X66040499Y-79716515D01*
X66034098Y-79656987D01*
X66034096Y-79656980D01*
X65983854Y-79522273D01*
X65983850Y-79522266D01*
X65897690Y-79407172D01*
X65897687Y-79407169D01*
X65782593Y-79321009D01*
X65782586Y-79321005D01*
X65647879Y-79270763D01*
X65647872Y-79270761D01*
X65588344Y-79264360D01*
X63695000Y-79264360D01*
X63695000Y-80847860D01*
X63195000Y-80847860D01*
X63195000Y-79264360D01*
X61339500Y-79264360D01*
X61272461Y-79244675D01*
X61226706Y-79191871D01*
X61215500Y-79140360D01*
X61215500Y-76070360D01*
X61235185Y-76003321D01*
X61287989Y-75957566D01*
X61339500Y-75946360D01*
X63195000Y-75946360D01*
X63695000Y-75946360D01*
X65588328Y-75946360D01*
X65588344Y-75946359D01*
X65647872Y-75939958D01*
X65647879Y-75939956D01*
X65782586Y-75889714D01*
X65782593Y-75889710D01*
X65897687Y-75803550D01*
X65897690Y-75803547D01*
X65983850Y-75688453D01*
X65983854Y-75688446D01*
X66030193Y-75564204D01*
X203899500Y-75564204D01*
X203905901Y-75623732D01*
X203905903Y-75623739D01*
X203956145Y-75758446D01*
X203956149Y-75758453D01*
X204042309Y-75873547D01*
X204042312Y-75873550D01*
X204157406Y-75959710D01*
X204157413Y-75959714D01*
X204292120Y-76009956D01*
X204292127Y-76009958D01*
X204351655Y-76016359D01*
X204351672Y-76016360D01*
X206245000Y-76016360D01*
X206245000Y-74432860D01*
X203899500Y-74432860D01*
X203899500Y-75564204D01*
X66030193Y-75564204D01*
X66034096Y-75553739D01*
X66034098Y-75553732D01*
X66040499Y-75494204D01*
X66040500Y-75494187D01*
X66040500Y-74362860D01*
X63695000Y-74362860D01*
X63695000Y-75946360D01*
X63195000Y-75946360D01*
X63195000Y-73862860D01*
X63695000Y-73862860D01*
X66040500Y-73862860D01*
X66040500Y-72801515D01*
X203899500Y-72801515D01*
X203899500Y-73932860D01*
X206245000Y-73932860D01*
X206245000Y-72349360D01*
X204351655Y-72349360D01*
X204292127Y-72355761D01*
X204292120Y-72355763D01*
X204157413Y-72406005D01*
X204157406Y-72406009D01*
X204042312Y-72492169D01*
X204042309Y-72492172D01*
X203956149Y-72607266D01*
X203956145Y-72607273D01*
X203905903Y-72741980D01*
X203905901Y-72741987D01*
X203899500Y-72801515D01*
X66040500Y-72801515D01*
X66040500Y-72731532D01*
X66040499Y-72731515D01*
X66034098Y-72671987D01*
X66034096Y-72671980D01*
X65983854Y-72537273D01*
X65983850Y-72537266D01*
X65897690Y-72422172D01*
X65897687Y-72422169D01*
X65782593Y-72336009D01*
X65782586Y-72336005D01*
X65647879Y-72285763D01*
X65647872Y-72285761D01*
X65588344Y-72279360D01*
X63695000Y-72279360D01*
X63695000Y-73862860D01*
X63195000Y-73862860D01*
X63195000Y-72279360D01*
X61339500Y-72279360D01*
X61272461Y-72259675D01*
X61226706Y-72206871D01*
X61215500Y-72155360D01*
X61215500Y-54705359D01*
X63339693Y-54705359D01*
X63358912Y-55121056D01*
X63358912Y-55121061D01*
X63358913Y-55121066D01*
X63416403Y-55533204D01*
X63416405Y-55533212D01*
X63511679Y-55938292D01*
X63643928Y-56332869D01*
X63643931Y-56332876D01*
X63812005Y-56713528D01*
X63812010Y-56713538D01*
X63812014Y-56713547D01*
X63812018Y-56713555D01*
X63812019Y-56713556D01*
X64014506Y-57077089D01*
X64014509Y-57077093D01*
X64014511Y-57077097D01*
X64249687Y-57420412D01*
X64249689Y-57420414D01*
X64249696Y-57420424D01*
X64511760Y-57736014D01*
X64515538Y-57740564D01*
X64809794Y-58034820D01*
X64809805Y-58034829D01*
X65129933Y-58300661D01*
X65129939Y-58300665D01*
X65129946Y-58300671D01*
X65473261Y-58535847D01*
X65836811Y-58738344D01*
X66217495Y-58906432D01*
X66612063Y-59038678D01*
X67017151Y-59133954D01*
X67429302Y-59191446D01*
X67844999Y-59210665D01*
X68260696Y-59191446D01*
X68672847Y-59133954D01*
X69077935Y-59038678D01*
X69472503Y-58906432D01*
X69853187Y-58738344D01*
X70216737Y-58535847D01*
X70560052Y-58300671D01*
X70880204Y-58034820D01*
X71174460Y-57740564D01*
X71440311Y-57420412D01*
X71675487Y-57077097D01*
X71877984Y-56713547D01*
X72046072Y-56332863D01*
X72178318Y-55938295D01*
X72273594Y-55533207D01*
X72331086Y-55121056D01*
X72350305Y-54705359D01*
X198339694Y-54705359D01*
X198358913Y-55121056D01*
X198358913Y-55121061D01*
X198358914Y-55121066D01*
X198416404Y-55533204D01*
X198416406Y-55533212D01*
X198511680Y-55938292D01*
X198643929Y-56332869D01*
X198643932Y-56332876D01*
X198812006Y-56713528D01*
X198812011Y-56713538D01*
X198812015Y-56713547D01*
X198812019Y-56713555D01*
X198812020Y-56713556D01*
X199014507Y-57077089D01*
X199014510Y-57077093D01*
X199014512Y-57077097D01*
X199249688Y-57420412D01*
X199249690Y-57420414D01*
X199249697Y-57420424D01*
X199511761Y-57736014D01*
X199515539Y-57740564D01*
X199809795Y-58034820D01*
X199809806Y-58034829D01*
X200129934Y-58300661D01*
X200129940Y-58300665D01*
X200129947Y-58300671D01*
X200473262Y-58535847D01*
X200836812Y-58738344D01*
X201217496Y-58906432D01*
X201612064Y-59038678D01*
X202017152Y-59133954D01*
X202429303Y-59191446D01*
X202845000Y-59210665D01*
X203260697Y-59191446D01*
X203672848Y-59133954D01*
X204077936Y-59038678D01*
X204472504Y-58906432D01*
X204853188Y-58738344D01*
X205216738Y-58535847D01*
X205560053Y-58300671D01*
X205880205Y-58034820D01*
X206174461Y-57740564D01*
X206440312Y-57420412D01*
X206675488Y-57077097D01*
X206877985Y-56713547D01*
X207046073Y-56332863D01*
X207178319Y-55938295D01*
X207273595Y-55533207D01*
X207331087Y-55121056D01*
X207350306Y-54705359D01*
X207331087Y-54289662D01*
X207273595Y-53877511D01*
X207178319Y-53472423D01*
X207046073Y-53077855D01*
X206877985Y-52697171D01*
X206675488Y-52333621D01*
X206440312Y-51990306D01*
X206440306Y-51990299D01*
X206440302Y-51990293D01*
X206174470Y-51670165D01*
X206174461Y-51670154D01*
X205880205Y-51375898D01*
X205767528Y-51282332D01*
X205560065Y-51110056D01*
X205560055Y-51110049D01*
X205560053Y-51110047D01*
X205216738Y-50874871D01*
X205216734Y-50874869D01*
X205216730Y-50874866D01*
X204853197Y-50672379D01*
X204853196Y-50672378D01*
X204853188Y-50672374D01*
X204853179Y-50672370D01*
X204853169Y-50672365D01*
X204472517Y-50504291D01*
X204472510Y-50504288D01*
X204077933Y-50372039D01*
X203672853Y-50276765D01*
X203672845Y-50276763D01*
X203260707Y-50219273D01*
X203260702Y-50219272D01*
X203260697Y-50219272D01*
X202845000Y-50200053D01*
X202429303Y-50219272D01*
X202429297Y-50219272D01*
X202429292Y-50219273D01*
X202017154Y-50276763D01*
X202017146Y-50276765D01*
X201612066Y-50372039D01*
X201217489Y-50504288D01*
X201217482Y-50504291D01*
X200836830Y-50672365D01*
X200836802Y-50672379D01*
X200473269Y-50874866D01*
X200473263Y-50874870D01*
X200129944Y-51110049D01*
X200129934Y-51110056D01*
X199809806Y-51375888D01*
X199809786Y-51375906D01*
X199515547Y-51670145D01*
X199515529Y-51670165D01*
X199249697Y-51990293D01*
X199249690Y-51990303D01*
X199014511Y-52333622D01*
X199014507Y-52333628D01*
X198812020Y-52697161D01*
X198812006Y-52697189D01*
X198643932Y-53077841D01*
X198643929Y-53077848D01*
X198511680Y-53472425D01*
X198416406Y-53877505D01*
X198416404Y-53877513D01*
X198358914Y-54289651D01*
X198358913Y-54289656D01*
X198358913Y-54289662D01*
X198339694Y-54705359D01*
X72350305Y-54705359D01*
X72331086Y-54289662D01*
X72273594Y-53877511D01*
X72178318Y-53472423D01*
X72046072Y-53077855D01*
X71877984Y-52697171D01*
X71675487Y-52333621D01*
X71440311Y-51990306D01*
X71440305Y-51990299D01*
X71440301Y-51990293D01*
X71174469Y-51670165D01*
X71174460Y-51670154D01*
X70880204Y-51375898D01*
X70767527Y-51282332D01*
X70560064Y-51110056D01*
X70560054Y-51110049D01*
X70560052Y-51110047D01*
X70216737Y-50874871D01*
X70216733Y-50874869D01*
X70216729Y-50874866D01*
X69853196Y-50672379D01*
X69853195Y-50672378D01*
X69853187Y-50672374D01*
X69853178Y-50672370D01*
X69853168Y-50672365D01*
X69472516Y-50504291D01*
X69472509Y-50504288D01*
X69077932Y-50372039D01*
X68672852Y-50276765D01*
X68672844Y-50276763D01*
X68260706Y-50219273D01*
X68260701Y-50219272D01*
X68260696Y-50219272D01*
X67844999Y-50200053D01*
X67429302Y-50219272D01*
X67429296Y-50219272D01*
X67429291Y-50219273D01*
X67017153Y-50276763D01*
X67017145Y-50276765D01*
X66612065Y-50372039D01*
X66217488Y-50504288D01*
X66217481Y-50504291D01*
X65836829Y-50672365D01*
X65836801Y-50672379D01*
X65473268Y-50874866D01*
X65473262Y-50874870D01*
X65129943Y-51110049D01*
X65129933Y-51110056D01*
X64809805Y-51375888D01*
X64809785Y-51375906D01*
X64515546Y-51670145D01*
X64515528Y-51670165D01*
X64249696Y-51990293D01*
X64249689Y-51990303D01*
X64014510Y-52333622D01*
X64014506Y-52333628D01*
X63812019Y-52697161D01*
X63812005Y-52697189D01*
X63643931Y-53077841D01*
X63643928Y-53077848D01*
X63511679Y-53472425D01*
X63416405Y-53877505D01*
X63416403Y-53877513D01*
X63358913Y-54289651D01*
X63358912Y-54289656D01*
X63358912Y-54289662D01*
X63339693Y-54705359D01*
X61215500Y-54705359D01*
X61215500Y-50709103D01*
X61215726Y-50701616D01*
X61233271Y-50411565D01*
X61235076Y-50396700D01*
X61239596Y-50372039D01*
X61286780Y-50114557D01*
X61290364Y-50100023D01*
X61367096Y-49853782D01*
X61375696Y-49826182D01*
X61380998Y-49812201D01*
X61498731Y-49550609D01*
X61505676Y-49537376D01*
X61654080Y-49291886D01*
X61662567Y-49279590D01*
X61839480Y-49053777D01*
X61849399Y-49042583D01*
X62052226Y-48839755D01*
X62063417Y-48829840D01*
X62289230Y-48652927D01*
X62301526Y-48644440D01*
X62547016Y-48496036D01*
X62560249Y-48489091D01*
X62821841Y-48371358D01*
X62835822Y-48366056D01*
X63109668Y-48280722D01*
X63124197Y-48277140D01*
X63406344Y-48225435D01*
X63421201Y-48223631D01*
X63711264Y-48206086D01*
X63718751Y-48205860D01*
X63780892Y-48205860D01*
X206219108Y-48205860D01*
X206281249Y-48205860D01*
X206288736Y-48206086D01*
G37*
%TD.AperFunction*%
%TD*%
M02*
