G04 #@! TF.GenerationSoftware,KiCad,Pcbnew,8.0.6*
G04 #@! TF.CreationDate,2025-03-29T16:44:26-07:00*
G04 #@! TF.ProjectId,RCA Radio Telescope,52434120-5261-4646-996f-2054656c6573,2.2*
G04 #@! TF.SameCoordinates,Original*
G04 #@! TF.FileFunction,Copper,L2,Bot*
G04 #@! TF.FilePolarity,Positive*
%FSLAX46Y46*%
G04 Gerber Fmt 4.6, Leading zero omitted, Abs format (unit mm)*
G04 Created by KiCad (PCBNEW 8.0.6) date 2025-03-29 16:44:26*
%MOMM*%
%LPD*%
G01*
G04 APERTURE LIST*
G04 #@! TA.AperFunction,ComponentPad*
%ADD10C,1.422400*%
G04 #@! TD*
G04 #@! TA.AperFunction,ComponentPad*
%ADD11C,2.800000*%
G04 #@! TD*
G04 #@! TA.AperFunction,ComponentPad*
%ADD12C,1.360000*%
G04 #@! TD*
G04 #@! TA.AperFunction,ComponentPad*
%ADD13C,1.803400*%
G04 #@! TD*
G04 #@! TA.AperFunction,ComponentPad*
%ADD14C,0.600000*%
G04 #@! TD*
G04 #@! TA.AperFunction,SMDPad,CuDef*
%ADD15C,1.000000*%
G04 #@! TD*
G04 #@! TA.AperFunction,ViaPad*
%ADD16C,0.600000*%
G04 #@! TD*
G04 #@! TA.AperFunction,Conductor*
%ADD17C,1.000000*%
G04 #@! TD*
G04 APERTURE END LIST*
D10*
X57657501Y-27949400D03*
X55157501Y-27949400D03*
X53157500Y-27949400D03*
D11*
X60727500Y-25239400D03*
D10*
X50657500Y-27949400D03*
D11*
X47587501Y-25239400D03*
D12*
X16575000Y-40415000D03*
X21825000Y-40415000D03*
D13*
X19525000Y-34006600D03*
X19525000Y-28926600D03*
X38006600Y-48475001D03*
X32926600Y-48475001D03*
D10*
X50592500Y-40050600D03*
X53092500Y-40050600D03*
X55092501Y-40050600D03*
D11*
X47522501Y-42760600D03*
D10*
X57592501Y-40050600D03*
D11*
X60662500Y-42760600D03*
D14*
X34210001Y-38939998D03*
X34210001Y-37760001D03*
X35389998Y-37760001D03*
X35389998Y-38939998D03*
X34799999Y-38350000D03*
D13*
X35506600Y-19475001D03*
X30426600Y-19475001D03*
D15*
X53100000Y-35700000D03*
D16*
X72250000Y-37000000D03*
X45800000Y-29400000D03*
X54500000Y-42000000D03*
X34600000Y-42200000D03*
X53500000Y-21000000D03*
X39200000Y-28500000D03*
X64000000Y-28000000D03*
X38000000Y-41000000D03*
X31800000Y-44800000D03*
X41600000Y-20400000D03*
X52000000Y-41500000D03*
X17600000Y-32800000D03*
X45800000Y-27000000D03*
X51400000Y-17000000D03*
X26500000Y-25000000D03*
X36200000Y-40400000D03*
X34800000Y-31800000D03*
X40500000Y-34350000D03*
X39800000Y-44900000D03*
X15200000Y-39600000D03*
X23000000Y-25300000D03*
X41200000Y-42800000D03*
X42400000Y-42800000D03*
X34600000Y-21200000D03*
X73000000Y-37000000D03*
X17000000Y-34000000D03*
X45200000Y-24000000D03*
X35000000Y-45000000D03*
X34600000Y-29800000D03*
X50600000Y-37200000D03*
X17600000Y-36200000D03*
X56000000Y-41500000D03*
X40000000Y-50000000D03*
X44800000Y-46800000D03*
X27000000Y-51000000D03*
X50200000Y-32000000D03*
X26400000Y-32600000D03*
X36000000Y-26800000D03*
X26500000Y-28600000D03*
X36600000Y-28800000D03*
X55800000Y-17000000D03*
X43000000Y-48800000D03*
X25000000Y-44800000D03*
X23500000Y-43000000D03*
X21400000Y-36200000D03*
X45700000Y-43900000D03*
X30500000Y-40900000D03*
X52000000Y-43400000D03*
X33500000Y-22000000D03*
X47600000Y-39600000D03*
X46100000Y-41100000D03*
X20600000Y-38400000D03*
X24500000Y-35900000D03*
X29800000Y-30000000D03*
X36200000Y-48000000D03*
X70800000Y-28600000D03*
X34800000Y-33000000D03*
X41400000Y-46200000D03*
X43200000Y-29200000D03*
X51000000Y-31000000D03*
X52000000Y-26600000D03*
X36200000Y-17600000D03*
X57600000Y-41800000D03*
X33000000Y-51000000D03*
X39300000Y-27000000D03*
X56500000Y-28700000D03*
X28500000Y-27000000D03*
X16600000Y-38400000D03*
X59500000Y-31000000D03*
X54600000Y-26200000D03*
X45800000Y-28200000D03*
X57000000Y-33800000D03*
X38700000Y-44900000D03*
X57500000Y-51000000D03*
X33000000Y-41600000D03*
X43700000Y-42800000D03*
X38800000Y-22900000D03*
X44750000Y-51150000D03*
X38400000Y-42800000D03*
X57000000Y-38000000D03*
X44900000Y-34450000D03*
X40800000Y-19600000D03*
X45600000Y-45800000D03*
X37000000Y-41400000D03*
X22500000Y-29000000D03*
X38200000Y-35000000D03*
X22000000Y-34000000D03*
X45000000Y-16800000D03*
X15200000Y-41400000D03*
X66500000Y-35250000D03*
X44000000Y-47800000D03*
X62500000Y-35000000D03*
X36800000Y-44600000D03*
X29500000Y-35300000D03*
X45600000Y-31800000D03*
X42000000Y-49800000D03*
X26000000Y-43000000D03*
X23000000Y-38000000D03*
X26500000Y-46700000D03*
X57000000Y-32000000D03*
X18600000Y-32000000D03*
X68800000Y-31200000D03*
X43500000Y-44400000D03*
X30500000Y-22000000D03*
X45600000Y-32600000D03*
X44000000Y-20000000D03*
X34200000Y-26600000D03*
X49500000Y-21000000D03*
X59400000Y-35300000D03*
X40000000Y-46800000D03*
X42200000Y-24000000D03*
X70000000Y-39800000D03*
X51800000Y-28600000D03*
X41500000Y-16800000D03*
X37400000Y-50200000D03*
X39000000Y-34287500D03*
X50200000Y-35200000D03*
X43200000Y-27200000D03*
X23200000Y-42200000D03*
X67500000Y-32000000D03*
X38600000Y-46600000D03*
X24700000Y-46400000D03*
X56000000Y-43400000D03*
X31600000Y-24800000D03*
X38800000Y-22100000D03*
X30500000Y-17000000D03*
X35600000Y-30600000D03*
X59500000Y-37000000D03*
X56400000Y-26600000D03*
X18000000Y-41600000D03*
X31000000Y-42000000D03*
X48000000Y-44750000D03*
X20400000Y-32000000D03*
X30800000Y-26800000D03*
X57000000Y-30000000D03*
X19800000Y-39400000D03*
X51800000Y-35200000D03*
X62300000Y-30700000D03*
X28600000Y-28400000D03*
X38600000Y-50200000D03*
X32000000Y-26200000D03*
X57500000Y-46000000D03*
X32000000Y-31000000D03*
X29200000Y-47200000D03*
X26400000Y-30600000D03*
X36200000Y-49200000D03*
X34800000Y-34600000D03*
X26500000Y-22000000D03*
X19800000Y-41800000D03*
X37000000Y-18400000D03*
X53500000Y-26200000D03*
X21400000Y-32800000D03*
X32200000Y-33800000D03*
X30800000Y-45000000D03*
X21000000Y-37400000D03*
X35100000Y-26800000D03*
X26100000Y-47200000D03*
X38900000Y-29600000D03*
X42200000Y-21400000D03*
X43200000Y-30200000D03*
X34800000Y-36100000D03*
X72500000Y-42000000D03*
X67500000Y-31300000D03*
X26500000Y-17000000D03*
X34500000Y-17600000D03*
X35200000Y-24200000D03*
X65000000Y-39800000D03*
X33200000Y-42800000D03*
X27600000Y-43000000D03*
X38700000Y-21100000D03*
X66500000Y-36250000D03*
X58500000Y-38000000D03*
X49000000Y-39600000D03*
X33000000Y-29600000D03*
X37400000Y-46600000D03*
X36400000Y-24200000D03*
X62500000Y-23000000D03*
X62500000Y-51000000D03*
X42200000Y-22500000D03*
X70500000Y-37000000D03*
X66500000Y-42200000D03*
X67500000Y-37000000D03*
X17600000Y-35200000D03*
X25000000Y-44000000D03*
X37600000Y-24200000D03*
X51000000Y-30000000D03*
X65500000Y-33250000D03*
X51600000Y-38200000D03*
X62500000Y-46000000D03*
X43200000Y-28200000D03*
X38200000Y-35900000D03*
X32500000Y-36500000D03*
X16500000Y-29000000D03*
X47400000Y-51100000D03*
X57400000Y-21000000D03*
X69500000Y-37000000D03*
X30800000Y-46100000D03*
X43200000Y-24000000D03*
X21400000Y-35200000D03*
X53500000Y-42000000D03*
X51800000Y-32000000D03*
X38100000Y-30500000D03*
X40000000Y-18800000D03*
X44200000Y-26800000D03*
X37400000Y-20700000D03*
X34200000Y-27800000D03*
X44200000Y-22800000D03*
X16600000Y-42400000D03*
X65500000Y-34250000D03*
X50500000Y-46000000D03*
X36400000Y-21200000D03*
X57000000Y-36000000D03*
X31600000Y-29400000D03*
X17600000Y-37400000D03*
X45300000Y-25600000D03*
X28800000Y-46700000D03*
X33200000Y-43600000D03*
X21800000Y-42200000D03*
X20200000Y-40400000D03*
X33400000Y-19500000D03*
X50500000Y-51000000D03*
X72800000Y-30200000D03*
X30100000Y-43800000D03*
X33200000Y-26200000D03*
X29100000Y-43000000D03*
X62500000Y-37000000D03*
D17*
X55250000Y-32250000D02*
X55250000Y-28041899D01*
X53092500Y-35500000D02*
X53092500Y-40050600D01*
X53092500Y-35000000D02*
X53092500Y-35500000D01*
X53092500Y-35000000D02*
X53092500Y-34407500D01*
X55250000Y-28041899D02*
X55157501Y-27949400D01*
X53092500Y-34407500D02*
X55250000Y-32250000D01*
G04 #@! TA.AperFunction,Conductor*
G36*
X72002684Y-14500692D02*
G01*
X72208039Y-14515379D01*
X72218640Y-14516902D01*
X72417213Y-14560099D01*
X72427488Y-14563116D01*
X72564283Y-14614138D01*
X72617877Y-14634128D01*
X72627636Y-14638585D01*
X72805968Y-14735961D01*
X72814995Y-14741762D01*
X72977664Y-14863535D01*
X72985772Y-14870562D01*
X73129437Y-15014227D01*
X73136464Y-15022335D01*
X73258237Y-15185004D01*
X73264038Y-15194031D01*
X73361414Y-15372363D01*
X73365871Y-15382122D01*
X73436882Y-15572508D01*
X73439902Y-15582795D01*
X73483094Y-15781343D01*
X73484620Y-15791963D01*
X73499308Y-15997315D01*
X73499500Y-16002680D01*
X73499500Y-51997319D01*
X73499308Y-52002684D01*
X73484620Y-52208036D01*
X73483094Y-52218656D01*
X73439905Y-52417196D01*
X73436882Y-52427491D01*
X73365871Y-52617877D01*
X73361414Y-52627636D01*
X73264038Y-52805968D01*
X73258237Y-52814995D01*
X73136464Y-52977664D01*
X73129437Y-52985772D01*
X72985772Y-53129437D01*
X72977664Y-53136464D01*
X72814995Y-53258237D01*
X72805968Y-53264038D01*
X72627636Y-53361414D01*
X72617877Y-53365871D01*
X72427491Y-53436882D01*
X72417200Y-53439903D01*
X72218654Y-53483094D01*
X72208036Y-53484620D01*
X72002684Y-53499308D01*
X71997319Y-53499500D01*
X16002681Y-53499500D01*
X15997316Y-53499308D01*
X15791963Y-53484620D01*
X15781347Y-53483094D01*
X15582795Y-53439902D01*
X15572508Y-53436882D01*
X15382122Y-53365871D01*
X15372363Y-53361414D01*
X15194031Y-53264038D01*
X15185004Y-53258237D01*
X15022335Y-53136464D01*
X15014227Y-53129437D01*
X14870562Y-52985772D01*
X14863535Y-52977664D01*
X14741762Y-52814995D01*
X14735961Y-52805968D01*
X14638585Y-52627636D01*
X14634128Y-52617877D01*
X14563117Y-52427491D01*
X14560099Y-52417213D01*
X14516902Y-52218640D01*
X14515379Y-52208036D01*
X14500692Y-52002684D01*
X14500500Y-51997319D01*
X14500500Y-48000000D01*
X16494696Y-48000000D01*
X16513897Y-48366403D01*
X16571293Y-48728786D01*
X16571294Y-48728788D01*
X16571295Y-48728794D01*
X16659430Y-49057716D01*
X16666260Y-49083206D01*
X16797741Y-49425730D01*
X16797742Y-49425731D01*
X16964317Y-49752651D01*
X17164149Y-50060366D01*
X17164155Y-50060375D01*
X17395047Y-50345501D01*
X17395064Y-50345520D01*
X17654479Y-50604935D01*
X17654488Y-50604943D01*
X17654494Y-50604949D01*
X17654498Y-50604952D01*
X17939624Y-50835844D01*
X17939631Y-50835849D01*
X17939634Y-50835851D01*
X18247348Y-51035682D01*
X18574268Y-51202257D01*
X18574269Y-51202258D01*
X18916793Y-51333739D01*
X18916801Y-51333742D01*
X19271206Y-51428705D01*
X19633596Y-51486102D01*
X20000000Y-51505304D01*
X20366404Y-51486102D01*
X20728794Y-51428705D01*
X21083199Y-51333742D01*
X21189364Y-51292989D01*
X21425730Y-51202258D01*
X21425731Y-51202257D01*
X21425731Y-51202256D01*
X21425736Y-51202255D01*
X21752652Y-51035682D01*
X22060366Y-50835851D01*
X22345506Y-50604949D01*
X22604949Y-50345506D01*
X22835851Y-50060366D01*
X23035682Y-49752652D01*
X23202255Y-49425736D01*
X23202257Y-49425731D01*
X23202258Y-49425730D01*
X23292989Y-49189364D01*
X23333742Y-49083199D01*
X23428705Y-48728794D01*
X23468902Y-48475001D01*
X31867400Y-48475001D01*
X31887751Y-48681637D01*
X31948027Y-48880340D01*
X32024547Y-49023499D01*
X32327318Y-48720728D01*
X32352616Y-48781802D01*
X32423499Y-48887886D01*
X32513715Y-48978102D01*
X32619799Y-49048985D01*
X32680870Y-49074281D01*
X32378100Y-49377052D01*
X32521261Y-49453573D01*
X32719965Y-49513849D01*
X32719961Y-49513849D01*
X32926600Y-49534200D01*
X33133236Y-49513849D01*
X33331943Y-49453571D01*
X33475097Y-49377053D01*
X33475098Y-49377052D01*
X33172328Y-49074282D01*
X33233401Y-49048985D01*
X33339485Y-48978102D01*
X33429701Y-48887886D01*
X33500584Y-48781802D01*
X33525881Y-48720729D01*
X33828651Y-49023499D01*
X33828652Y-49023498D01*
X33905170Y-48880344D01*
X33965448Y-48681637D01*
X33985799Y-48475001D01*
X33985799Y-48474998D01*
X36899678Y-48474998D01*
X36899678Y-48475003D01*
X36918525Y-48678401D01*
X36974424Y-48874865D01*
X36974426Y-48874868D01*
X37065473Y-49057716D01*
X37188571Y-49220726D01*
X37188574Y-49220729D01*
X37339527Y-49358342D01*
X37339529Y-49358343D01*
X37339530Y-49358344D01*
X37369746Y-49377053D01*
X37513198Y-49465875D01*
X37513200Y-49465875D01*
X37513202Y-49465877D01*
X37703676Y-49539667D01*
X37904466Y-49577201D01*
X37904471Y-49577201D01*
X38108729Y-49577201D01*
X38108734Y-49577201D01*
X38309524Y-49539667D01*
X38499998Y-49465877D01*
X38673670Y-49358344D01*
X38824625Y-49220730D01*
X38947724Y-49057720D01*
X39038774Y-48874867D01*
X39051952Y-48828554D01*
X39094674Y-48678401D01*
X39094674Y-48678400D01*
X39094675Y-48678397D01*
X39113522Y-48475001D01*
X39094675Y-48271605D01*
X39093753Y-48268364D01*
X39038775Y-48075136D01*
X39038773Y-48075133D01*
X39001361Y-48000000D01*
X64494696Y-48000000D01*
X64513897Y-48366403D01*
X64571293Y-48728786D01*
X64571294Y-48728788D01*
X64571295Y-48728794D01*
X64659430Y-49057716D01*
X64666260Y-49083206D01*
X64797741Y-49425730D01*
X64797742Y-49425731D01*
X64964317Y-49752651D01*
X65164149Y-50060366D01*
X65164155Y-50060375D01*
X65395047Y-50345501D01*
X65395064Y-50345520D01*
X65654479Y-50604935D01*
X65654488Y-50604943D01*
X65654494Y-50604949D01*
X65654498Y-50604952D01*
X65939624Y-50835844D01*
X65939631Y-50835849D01*
X65939634Y-50835851D01*
X66247348Y-51035682D01*
X66574268Y-51202257D01*
X66574269Y-51202258D01*
X66916793Y-51333739D01*
X66916801Y-51333742D01*
X67271206Y-51428705D01*
X67633596Y-51486102D01*
X68000000Y-51505304D01*
X68366404Y-51486102D01*
X68728794Y-51428705D01*
X69083199Y-51333742D01*
X69189364Y-51292989D01*
X69425730Y-51202258D01*
X69425731Y-51202257D01*
X69425731Y-51202256D01*
X69425736Y-51202255D01*
X69752652Y-51035682D01*
X70060366Y-50835851D01*
X70345506Y-50604949D01*
X70604949Y-50345506D01*
X70835851Y-50060366D01*
X71035682Y-49752652D01*
X71202255Y-49425736D01*
X71202257Y-49425731D01*
X71202258Y-49425730D01*
X71292989Y-49189364D01*
X71333742Y-49083199D01*
X71428705Y-48728794D01*
X71486102Y-48366404D01*
X71505304Y-48000000D01*
X71486102Y-47633596D01*
X71428705Y-47271206D01*
X71333742Y-46916801D01*
X71333739Y-46916793D01*
X71202258Y-46574269D01*
X71202257Y-46574268D01*
X71035682Y-46247348D01*
X70835850Y-45939633D01*
X70835844Y-45939624D01*
X70604952Y-45654498D01*
X70604949Y-45654494D01*
X70604943Y-45654488D01*
X70604935Y-45654479D01*
X70345520Y-45395064D01*
X70345510Y-45395055D01*
X70345506Y-45395051D01*
X70335067Y-45386598D01*
X70060375Y-45164155D01*
X70060366Y-45164149D01*
X69752651Y-44964317D01*
X69425731Y-44797742D01*
X69425730Y-44797741D01*
X69083206Y-44666260D01*
X69083199Y-44666258D01*
X68728794Y-44571295D01*
X68728788Y-44571294D01*
X68728786Y-44571293D01*
X68366403Y-44513897D01*
X68000000Y-44494696D01*
X67633596Y-44513897D01*
X67271213Y-44571293D01*
X67271211Y-44571294D01*
X67271209Y-44571294D01*
X67271206Y-44571295D01*
X67022089Y-44638045D01*
X66916793Y-44666260D01*
X66574269Y-44797741D01*
X66574268Y-44797742D01*
X66247348Y-44964317D01*
X65939633Y-45164149D01*
X65939624Y-45164155D01*
X65654498Y-45395047D01*
X65654479Y-45395064D01*
X65395064Y-45654479D01*
X65395047Y-45654498D01*
X65164155Y-45939624D01*
X65164149Y-45939633D01*
X64964317Y-46247348D01*
X64797742Y-46574268D01*
X64797741Y-46574269D01*
X64666260Y-46916793D01*
X64571294Y-47271211D01*
X64571293Y-47271213D01*
X64513897Y-47633596D01*
X64494696Y-48000000D01*
X39001361Y-48000000D01*
X38947726Y-47892285D01*
X38824628Y-47729275D01*
X38824625Y-47729272D01*
X38673672Y-47591659D01*
X38500001Y-47484126D01*
X38309525Y-47410335D01*
X38276059Y-47404079D01*
X38108734Y-47372801D01*
X37904466Y-47372801D01*
X37770606Y-47397823D01*
X37703674Y-47410335D01*
X37513199Y-47484126D01*
X37513198Y-47484126D01*
X37339527Y-47591659D01*
X37188574Y-47729272D01*
X37188571Y-47729275D01*
X37065473Y-47892285D01*
X36974426Y-48075133D01*
X36974424Y-48075136D01*
X36918525Y-48271600D01*
X36899678Y-48474998D01*
X33985799Y-48474998D01*
X33965448Y-48268364D01*
X33905172Y-48069662D01*
X33828651Y-47926501D01*
X33525880Y-48229271D01*
X33500584Y-48168200D01*
X33429701Y-48062116D01*
X33339485Y-47971900D01*
X33233401Y-47901017D01*
X33172327Y-47875719D01*
X33475098Y-47572948D01*
X33331939Y-47496428D01*
X33133234Y-47436152D01*
X33133238Y-47436152D01*
X32926600Y-47415801D01*
X32719963Y-47436152D01*
X32521260Y-47496428D01*
X32378100Y-47572948D01*
X32680871Y-47875719D01*
X32619799Y-47901017D01*
X32513715Y-47971900D01*
X32423499Y-48062116D01*
X32352616Y-48168200D01*
X32327318Y-48229272D01*
X32024547Y-47926501D01*
X31948027Y-48069661D01*
X31887751Y-48268364D01*
X31867400Y-48475001D01*
X23468902Y-48475001D01*
X23486102Y-48366404D01*
X23505304Y-48000000D01*
X23486102Y-47633596D01*
X23428705Y-47271206D01*
X23333742Y-46916801D01*
X23333739Y-46916793D01*
X23202258Y-46574269D01*
X23202257Y-46574268D01*
X23035682Y-46247348D01*
X22835850Y-45939633D01*
X22835844Y-45939624D01*
X22604952Y-45654498D01*
X22604949Y-45654494D01*
X22604943Y-45654488D01*
X22604935Y-45654479D01*
X22345520Y-45395064D01*
X22345510Y-45395055D01*
X22345506Y-45395051D01*
X22335067Y-45386598D01*
X22060375Y-45164155D01*
X22060366Y-45164149D01*
X21752651Y-44964317D01*
X21425731Y-44797742D01*
X21425730Y-44797741D01*
X21083206Y-44666260D01*
X21083199Y-44666258D01*
X20728794Y-44571295D01*
X20728788Y-44571294D01*
X20728786Y-44571293D01*
X20366403Y-44513897D01*
X20000000Y-44494696D01*
X19633596Y-44513897D01*
X19271213Y-44571293D01*
X19271211Y-44571294D01*
X19271209Y-44571294D01*
X19271206Y-44571295D01*
X19022089Y-44638045D01*
X18916793Y-44666260D01*
X18574269Y-44797741D01*
X18574268Y-44797742D01*
X18247348Y-44964317D01*
X17939633Y-45164149D01*
X17939624Y-45164155D01*
X17654498Y-45395047D01*
X17654479Y-45395064D01*
X17395064Y-45654479D01*
X17395047Y-45654498D01*
X17164155Y-45939624D01*
X17164149Y-45939633D01*
X16964317Y-46247348D01*
X16797742Y-46574268D01*
X16797741Y-46574269D01*
X16666260Y-46916793D01*
X16571294Y-47271211D01*
X16571293Y-47271213D01*
X16513897Y-47633596D01*
X16494696Y-48000000D01*
X14500500Y-48000000D01*
X14500500Y-42760597D01*
X45965301Y-42760597D01*
X45965301Y-42760602D01*
X45984472Y-43004197D01*
X45984474Y-43004207D01*
X46041514Y-43241792D01*
X46041517Y-43241803D01*
X46135026Y-43467553D01*
X46259260Y-43670286D01*
X46546332Y-43383214D01*
X46640982Y-43513488D01*
X46769613Y-43642119D01*
X46899884Y-43736767D01*
X46612813Y-44023839D01*
X46815549Y-44148075D01*
X47041297Y-44241583D01*
X47041308Y-44241586D01*
X47278893Y-44298626D01*
X47278903Y-44298628D01*
X47522498Y-44317800D01*
X47522504Y-44317800D01*
X47766098Y-44298628D01*
X47766108Y-44298626D01*
X48003693Y-44241586D01*
X48003704Y-44241583D01*
X48229454Y-44148075D01*
X48229461Y-44148071D01*
X48432186Y-44023840D01*
X48432187Y-44023839D01*
X48145116Y-43736768D01*
X48275389Y-43642119D01*
X48404020Y-43513488D01*
X48498669Y-43383215D01*
X48785740Y-43670286D01*
X48785741Y-43670285D01*
X48909972Y-43467560D01*
X48909976Y-43467553D01*
X49003484Y-43241803D01*
X49003487Y-43241792D01*
X49060527Y-43004207D01*
X49060529Y-43004197D01*
X49079701Y-42760602D01*
X49079701Y-42760597D01*
X59105300Y-42760597D01*
X59105300Y-42760602D01*
X59124471Y-43004197D01*
X59124473Y-43004207D01*
X59181513Y-43241792D01*
X59181516Y-43241803D01*
X59275025Y-43467553D01*
X59399259Y-43670286D01*
X59686331Y-43383214D01*
X59780981Y-43513488D01*
X59909612Y-43642119D01*
X60039883Y-43736767D01*
X59752812Y-44023839D01*
X59955548Y-44148075D01*
X60181296Y-44241583D01*
X60181307Y-44241586D01*
X60418892Y-44298626D01*
X60418902Y-44298628D01*
X60662497Y-44317800D01*
X60662503Y-44317800D01*
X60906097Y-44298628D01*
X60906107Y-44298626D01*
X61143692Y-44241586D01*
X61143703Y-44241583D01*
X61369453Y-44148075D01*
X61369460Y-44148071D01*
X61572185Y-44023840D01*
X61572186Y-44023839D01*
X61285115Y-43736768D01*
X61415388Y-43642119D01*
X61544019Y-43513488D01*
X61638668Y-43383215D01*
X61925739Y-43670286D01*
X61925740Y-43670285D01*
X62049971Y-43467560D01*
X62049975Y-43467553D01*
X62143483Y-43241803D01*
X62143486Y-43241792D01*
X62200526Y-43004207D01*
X62200528Y-43004197D01*
X62219700Y-42760602D01*
X62219700Y-42760597D01*
X62200528Y-42517002D01*
X62200526Y-42516992D01*
X62143486Y-42279407D01*
X62143483Y-42279396D01*
X62049975Y-42053648D01*
X61925739Y-41850912D01*
X61638667Y-42137983D01*
X61544019Y-42007712D01*
X61415388Y-41879081D01*
X61285114Y-41784431D01*
X61572186Y-41497359D01*
X61369453Y-41373125D01*
X61143703Y-41279616D01*
X61143692Y-41279613D01*
X60906107Y-41222573D01*
X60906097Y-41222571D01*
X60662503Y-41203400D01*
X60662497Y-41203400D01*
X60418902Y-41222571D01*
X60418892Y-41222573D01*
X60181307Y-41279613D01*
X60181296Y-41279616D01*
X59955546Y-41373125D01*
X59752812Y-41497359D01*
X60039884Y-41784431D01*
X59909612Y-41879081D01*
X59780981Y-42007712D01*
X59686331Y-42137984D01*
X59399259Y-41850912D01*
X59275025Y-42053646D01*
X59181516Y-42279396D01*
X59181513Y-42279407D01*
X59124473Y-42516992D01*
X59124471Y-42517002D01*
X59105300Y-42760597D01*
X49079701Y-42760597D01*
X49060529Y-42517002D01*
X49060527Y-42516992D01*
X49003487Y-42279407D01*
X49003484Y-42279396D01*
X48909976Y-42053648D01*
X48785740Y-41850912D01*
X48498668Y-42137983D01*
X48404020Y-42007712D01*
X48275389Y-41879081D01*
X48145115Y-41784431D01*
X48432187Y-41497359D01*
X48229454Y-41373125D01*
X48003704Y-41279616D01*
X48003693Y-41279613D01*
X47766108Y-41222573D01*
X47766098Y-41222571D01*
X47522504Y-41203400D01*
X47522498Y-41203400D01*
X47278903Y-41222571D01*
X47278893Y-41222573D01*
X47041308Y-41279613D01*
X47041297Y-41279616D01*
X46815547Y-41373125D01*
X46612813Y-41497359D01*
X46899885Y-41784431D01*
X46769613Y-41879081D01*
X46640982Y-42007712D01*
X46546332Y-42137984D01*
X46259260Y-41850912D01*
X46135026Y-42053646D01*
X46041517Y-42279396D01*
X46041514Y-42279407D01*
X45984474Y-42516992D01*
X45984472Y-42517002D01*
X45965301Y-42760597D01*
X14500500Y-42760597D01*
X14500500Y-40414999D01*
X15689650Y-40414999D01*
X15694088Y-40457224D01*
X15694500Y-40465085D01*
X15694500Y-40501724D01*
X15702870Y-40543804D01*
X15703903Y-40550613D01*
X15708997Y-40599075D01*
X15720178Y-40633490D01*
X15722413Y-40642053D01*
X15728338Y-40671835D01*
X15747156Y-40717267D01*
X15749199Y-40722805D01*
X15766193Y-40775105D01*
X15781144Y-40801002D01*
X15785494Y-40809822D01*
X15794710Y-40832072D01*
X15825510Y-40878168D01*
X15828108Y-40882346D01*
X15858732Y-40935389D01*
X15858734Y-40935392D01*
X15858737Y-40935396D01*
X15874539Y-40952946D01*
X15874541Y-40952948D01*
X15881180Y-40961484D01*
X15891071Y-40976286D01*
X15891076Y-40976291D01*
X15934688Y-41019903D01*
X15937381Y-41022739D01*
X15982585Y-41072943D01*
X15996599Y-41083125D01*
X15996604Y-41083128D01*
X16005577Y-41090793D01*
X16013707Y-41098923D01*
X16013711Y-41098926D01*
X16013714Y-41098929D01*
X16038668Y-41115603D01*
X16070216Y-41136683D01*
X16072629Y-41138364D01*
X16132325Y-41181736D01*
X16142403Y-41186222D01*
X16153591Y-41192392D01*
X16157927Y-41195289D01*
X16226485Y-41223686D01*
X16228248Y-41224443D01*
X16301412Y-41257018D01*
X16306033Y-41258000D01*
X16314610Y-41260663D01*
X16314633Y-41260590D01*
X16318162Y-41261660D01*
X16318168Y-41261663D01*
X16397123Y-41277368D01*
X16397984Y-41277544D01*
X16482456Y-41295500D01*
X16482458Y-41295500D01*
X16667542Y-41295500D01*
X16667544Y-41295500D01*
X16752041Y-41277539D01*
X16752873Y-41277368D01*
X16831832Y-41261663D01*
X16831835Y-41261661D01*
X16835370Y-41260590D01*
X16835392Y-41260663D01*
X16843969Y-41258000D01*
X16846005Y-41257566D01*
X16848588Y-41257018D01*
X16921791Y-41224424D01*
X16923402Y-41223732D01*
X16992073Y-41195289D01*
X16996393Y-41192402D01*
X17007595Y-41186222D01*
X17017675Y-41181736D01*
X17077389Y-41138349D01*
X17079755Y-41136700D01*
X17136286Y-41098929D01*
X17144422Y-41090792D01*
X17153394Y-41083129D01*
X17167415Y-41072943D01*
X17212610Y-41022747D01*
X17215282Y-41019931D01*
X17258929Y-40976286D01*
X17268820Y-40961481D01*
X17275449Y-40952957D01*
X17291263Y-40935396D01*
X17321904Y-40882322D01*
X17324474Y-40878189D01*
X17355289Y-40832073D01*
X17364507Y-40809817D01*
X17368855Y-40801001D01*
X17383807Y-40775104D01*
X17400802Y-40722798D01*
X17402841Y-40717273D01*
X17421661Y-40671838D01*
X17421661Y-40671836D01*
X17421663Y-40671832D01*
X17427589Y-40642037D01*
X17429815Y-40633503D01*
X17441003Y-40599075D01*
X17446096Y-40550613D01*
X17447128Y-40543805D01*
X17447129Y-40543804D01*
X17455500Y-40501722D01*
X17455500Y-40465085D01*
X17455912Y-40457224D01*
X17460350Y-40414999D01*
X20939650Y-40414999D01*
X20944088Y-40457224D01*
X20944500Y-40465085D01*
X20944500Y-40501724D01*
X20952870Y-40543804D01*
X20953903Y-40550613D01*
X20958997Y-40599075D01*
X20970178Y-40633490D01*
X20972413Y-40642053D01*
X20978338Y-40671835D01*
X20997156Y-40717267D01*
X20999199Y-40722805D01*
X21016193Y-40775105D01*
X21031144Y-40801002D01*
X21035494Y-40809822D01*
X21044710Y-40832072D01*
X21075510Y-40878168D01*
X21078108Y-40882346D01*
X21108732Y-40935389D01*
X21108734Y-40935392D01*
X21108737Y-40935396D01*
X21124539Y-40952946D01*
X21124541Y-40952948D01*
X21131180Y-40961484D01*
X21141071Y-40976286D01*
X21141076Y-40976291D01*
X21184688Y-41019903D01*
X21187381Y-41022739D01*
X21232585Y-41072943D01*
X21246599Y-41083125D01*
X21246604Y-41083128D01*
X21255577Y-41090793D01*
X21263707Y-41098923D01*
X21263711Y-41098926D01*
X21263714Y-41098929D01*
X21288668Y-41115603D01*
X21320216Y-41136683D01*
X21322629Y-41138364D01*
X21382325Y-41181736D01*
X21392403Y-41186222D01*
X21403591Y-41192392D01*
X21407927Y-41195289D01*
X21476485Y-41223686D01*
X21478248Y-41224443D01*
X21551412Y-41257018D01*
X21556033Y-41258000D01*
X21564610Y-41260663D01*
X21564633Y-41260590D01*
X21568162Y-41261660D01*
X21568168Y-41261663D01*
X21647123Y-41277368D01*
X21647984Y-41277544D01*
X21732456Y-41295500D01*
X21732458Y-41295500D01*
X21917542Y-41295500D01*
X21917544Y-41295500D01*
X22002041Y-41277539D01*
X22002873Y-41277368D01*
X22081832Y-41261663D01*
X22081835Y-41261661D01*
X22085370Y-41260590D01*
X22085392Y-41260663D01*
X22093969Y-41258000D01*
X22096005Y-41257566D01*
X22098588Y-41257018D01*
X22171791Y-41224424D01*
X22173402Y-41223732D01*
X22242073Y-41195289D01*
X22246393Y-41192402D01*
X22257595Y-41186222D01*
X22267675Y-41181736D01*
X22327389Y-41138349D01*
X22329755Y-41136700D01*
X22386286Y-41098929D01*
X22394422Y-41090792D01*
X22403394Y-41083129D01*
X22417415Y-41072943D01*
X22462610Y-41022747D01*
X22465282Y-41019931D01*
X22508929Y-40976286D01*
X22518820Y-40961481D01*
X22525449Y-40952957D01*
X22541263Y-40935396D01*
X22571904Y-40882322D01*
X22574474Y-40878189D01*
X22605289Y-40832073D01*
X22614507Y-40809817D01*
X22618855Y-40801001D01*
X22633807Y-40775104D01*
X22650802Y-40722798D01*
X22652841Y-40717273D01*
X22671661Y-40671838D01*
X22671661Y-40671836D01*
X22671663Y-40671832D01*
X22677589Y-40642037D01*
X22679815Y-40633503D01*
X22691003Y-40599075D01*
X22696096Y-40550613D01*
X22697128Y-40543805D01*
X22697129Y-40543804D01*
X22705500Y-40501722D01*
X22705500Y-40465085D01*
X22705912Y-40457224D01*
X22710350Y-40414999D01*
X22705912Y-40372774D01*
X22705500Y-40364914D01*
X22705500Y-40328277D01*
X22697128Y-40286192D01*
X22696095Y-40279380D01*
X22691003Y-40230929D01*
X22691003Y-40230928D01*
X22691003Y-40230925D01*
X22679818Y-40196504D01*
X22677585Y-40187943D01*
X22671663Y-40158169D01*
X22671663Y-40158168D01*
X22652839Y-40112723D01*
X22650801Y-40107200D01*
X22633807Y-40054896D01*
X22631327Y-40050600D01*
X49675778Y-40050600D01*
X49695810Y-40241193D01*
X49695810Y-40241195D01*
X49695811Y-40241197D01*
X49752754Y-40416451D01*
X49755034Y-40423466D01*
X49850855Y-40589436D01*
X49979094Y-40731858D01*
X49979095Y-40731859D01*
X50117028Y-40832073D01*
X50134139Y-40844505D01*
X50309217Y-40922454D01*
X50496676Y-40962300D01*
X50496678Y-40962300D01*
X50688322Y-40962300D01*
X50688324Y-40962300D01*
X50875783Y-40922454D01*
X51050861Y-40844505D01*
X51205907Y-40731857D01*
X51334144Y-40589436D01*
X51429967Y-40423464D01*
X51489189Y-40241197D01*
X51509222Y-40050600D01*
X52175778Y-40050600D01*
X52195810Y-40241193D01*
X52195810Y-40241195D01*
X52195811Y-40241197D01*
X52252754Y-40416451D01*
X52255034Y-40423466D01*
X52350855Y-40589436D01*
X52479094Y-40731858D01*
X52479095Y-40731859D01*
X52617028Y-40832073D01*
X52634139Y-40844505D01*
X52809217Y-40922454D01*
X52996676Y-40962300D01*
X52996678Y-40962300D01*
X53188322Y-40962300D01*
X53188324Y-40962300D01*
X53375783Y-40922454D01*
X53550861Y-40844505D01*
X53705907Y-40731857D01*
X53834144Y-40589436D01*
X53929967Y-40423464D01*
X53989189Y-40241197D01*
X54009222Y-40050600D01*
X54175779Y-40050600D01*
X54195811Y-40241193D01*
X54195811Y-40241195D01*
X54195812Y-40241197D01*
X54252755Y-40416451D01*
X54255035Y-40423466D01*
X54350856Y-40589436D01*
X54479095Y-40731858D01*
X54479096Y-40731859D01*
X54617029Y-40832073D01*
X54634140Y-40844505D01*
X54809218Y-40922454D01*
X54996677Y-40962300D01*
X54996679Y-40962300D01*
X55188323Y-40962300D01*
X55188325Y-40962300D01*
X55375784Y-40922454D01*
X55550862Y-40844505D01*
X55705908Y-40731857D01*
X55834145Y-40589436D01*
X55929968Y-40423464D01*
X55989190Y-40241197D01*
X56009223Y-40050600D01*
X56724144Y-40050600D01*
X56743119Y-40231138D01*
X56799217Y-40403793D01*
X56830890Y-40458654D01*
X57144483Y-40145061D01*
X57166459Y-40227073D01*
X57226650Y-40331327D01*
X57311774Y-40416451D01*
X57416028Y-40476642D01*
X57498036Y-40498616D01*
X57183032Y-40813620D01*
X57324162Y-40876456D01*
X57501735Y-40914200D01*
X57683267Y-40914200D01*
X57860843Y-40876455D01*
X58001967Y-40813621D01*
X58001968Y-40813620D01*
X57686965Y-40498616D01*
X57768974Y-40476642D01*
X57873228Y-40416451D01*
X57958352Y-40331327D01*
X58018543Y-40227073D01*
X58040517Y-40145063D01*
X58354108Y-40458654D01*
X58354110Y-40458654D01*
X58385783Y-40403795D01*
X58441882Y-40231138D01*
X58460857Y-40050600D01*
X58441882Y-39870061D01*
X58385783Y-39697404D01*
X58354110Y-39642544D01*
X58354108Y-39642544D01*
X58040517Y-39956135D01*
X58018543Y-39874127D01*
X57958352Y-39769873D01*
X57873228Y-39684749D01*
X57768974Y-39624558D01*
X57686964Y-39602583D01*
X58001968Y-39287578D01*
X57860839Y-39224743D01*
X57683267Y-39187000D01*
X57501735Y-39187000D01*
X57324162Y-39224743D01*
X57183032Y-39287578D01*
X57498037Y-39602583D01*
X57416028Y-39624558D01*
X57311774Y-39684749D01*
X57226650Y-39769873D01*
X57166459Y-39874127D01*
X57144484Y-39956136D01*
X56830891Y-39642544D01*
X56830890Y-39642544D01*
X56799217Y-39697407D01*
X56743119Y-39870061D01*
X56724144Y-40050600D01*
X56009223Y-40050600D01*
X55989190Y-39860003D01*
X55929968Y-39677736D01*
X55869489Y-39572982D01*
X55834145Y-39511763D01*
X55705906Y-39369341D01*
X55705905Y-39369340D01*
X55550861Y-39256694D01*
X55375787Y-39178747D01*
X55375785Y-39178746D01*
X55375784Y-39178746D01*
X55188325Y-39138900D01*
X54996677Y-39138900D01*
X54809218Y-39178746D01*
X54809217Y-39178746D01*
X54809214Y-39178747D01*
X54634140Y-39256694D01*
X54479096Y-39369340D01*
X54479095Y-39369341D01*
X54350856Y-39511763D01*
X54255035Y-39677733D01*
X54255034Y-39677735D01*
X54255034Y-39677736D01*
X54248643Y-39697407D01*
X54195811Y-39860006D01*
X54175779Y-40050600D01*
X54009222Y-40050600D01*
X53989189Y-39860003D01*
X53929967Y-39677736D01*
X53869488Y-39572982D01*
X53834144Y-39511763D01*
X53812316Y-39487521D01*
X53793046Y-39439827D01*
X53793000Y-39437202D01*
X53793000Y-35808690D01*
X53793548Y-35799626D01*
X53793679Y-35798540D01*
X53805645Y-35700000D01*
X53793548Y-35600373D01*
X53793000Y-35591309D01*
X53793000Y-34728805D01*
X53810593Y-34680467D01*
X53815026Y-34675631D01*
X55794109Y-32696548D01*
X55794114Y-32696543D01*
X55870775Y-32581811D01*
X55923580Y-32454328D01*
X55950500Y-32318994D01*
X55950500Y-32181006D01*
X55950500Y-28419434D01*
X55960574Y-28381835D01*
X55994968Y-28322264D01*
X56054190Y-28139997D01*
X56074223Y-27949400D01*
X56740779Y-27949400D01*
X56760811Y-28139993D01*
X56760811Y-28139995D01*
X56760812Y-28139997D01*
X56817755Y-28315251D01*
X56820035Y-28322266D01*
X56915856Y-28488236D01*
X57044095Y-28630658D01*
X57044096Y-28630659D01*
X57191388Y-28737673D01*
X57199140Y-28743305D01*
X57374218Y-28821254D01*
X57561677Y-28861100D01*
X57561679Y-28861100D01*
X57753323Y-28861100D01*
X57753325Y-28861100D01*
X57940784Y-28821254D01*
X58115862Y-28743305D01*
X58270908Y-28630657D01*
X58399145Y-28488236D01*
X58494968Y-28322264D01*
X58554190Y-28139997D01*
X58574223Y-27949400D01*
X58554190Y-27758803D01*
X58494968Y-27576536D01*
X58446277Y-27492200D01*
X58399145Y-27410563D01*
X58270906Y-27268141D01*
X58270905Y-27268140D01*
X58115861Y-27155494D01*
X57940787Y-27077547D01*
X57940785Y-27077546D01*
X57940784Y-27077546D01*
X57753325Y-27037700D01*
X57561677Y-27037700D01*
X57374218Y-27077546D01*
X57374217Y-27077546D01*
X57374214Y-27077547D01*
X57199140Y-27155494D01*
X57044096Y-27268140D01*
X57044095Y-27268141D01*
X56915856Y-27410563D01*
X56820035Y-27576533D01*
X56820034Y-27576535D01*
X56820034Y-27576536D01*
X56813643Y-27596207D01*
X56760811Y-27758806D01*
X56740779Y-27949400D01*
X56074223Y-27949400D01*
X56054190Y-27758803D01*
X55994968Y-27576536D01*
X55946277Y-27492200D01*
X55899145Y-27410563D01*
X55770906Y-27268141D01*
X55770905Y-27268140D01*
X55615861Y-27155494D01*
X55440787Y-27077547D01*
X55440785Y-27077546D01*
X55440784Y-27077546D01*
X55253325Y-27037700D01*
X55061677Y-27037700D01*
X54874218Y-27077546D01*
X54874217Y-27077546D01*
X54874214Y-27077547D01*
X54699140Y-27155494D01*
X54544096Y-27268140D01*
X54544095Y-27268141D01*
X54415856Y-27410563D01*
X54320035Y-27576533D01*
X54320034Y-27576535D01*
X54320034Y-27576536D01*
X54313643Y-27596207D01*
X54260811Y-27758806D01*
X54240779Y-27949400D01*
X54260811Y-28139993D01*
X54260811Y-28139995D01*
X54260812Y-28139997D01*
X54317755Y-28315251D01*
X54320035Y-28322266D01*
X54415856Y-28488236D01*
X54530184Y-28615208D01*
X54549454Y-28662902D01*
X54549500Y-28665527D01*
X54549500Y-31928694D01*
X54531907Y-31977032D01*
X54527474Y-31981868D01*
X52548391Y-33960950D01*
X52548387Y-33960955D01*
X52517890Y-34006599D01*
X52517889Y-34006600D01*
X52471726Y-34075686D01*
X52418921Y-34203168D01*
X52418920Y-34203170D01*
X52392000Y-34338505D01*
X52392000Y-39437202D01*
X52374407Y-39485540D01*
X52372684Y-39487521D01*
X52350855Y-39511763D01*
X52255034Y-39677733D01*
X52255033Y-39677735D01*
X52255033Y-39677736D01*
X52248642Y-39697407D01*
X52195810Y-39860006D01*
X52175778Y-40050600D01*
X51509222Y-40050600D01*
X51489189Y-39860003D01*
X51429967Y-39677736D01*
X51369488Y-39572982D01*
X51334144Y-39511763D01*
X51205905Y-39369341D01*
X51205904Y-39369340D01*
X51050860Y-39256694D01*
X50875786Y-39178747D01*
X50875784Y-39178746D01*
X50875783Y-39178746D01*
X50688324Y-39138900D01*
X50496676Y-39138900D01*
X50309217Y-39178746D01*
X50309216Y-39178746D01*
X50309213Y-39178747D01*
X50134139Y-39256694D01*
X49979095Y-39369340D01*
X49979094Y-39369341D01*
X49850855Y-39511763D01*
X49755034Y-39677733D01*
X49755033Y-39677735D01*
X49755033Y-39677736D01*
X49748642Y-39697407D01*
X49695810Y-39860006D01*
X49675778Y-40050600D01*
X22631327Y-40050600D01*
X22618852Y-40028993D01*
X22614506Y-40020179D01*
X22605289Y-39997927D01*
X22594187Y-39981312D01*
X22574484Y-39951823D01*
X22571886Y-39947644D01*
X22541269Y-39894613D01*
X22541264Y-39894606D01*
X22541263Y-39894604D01*
X22525455Y-39877047D01*
X22518814Y-39868508D01*
X22513131Y-39860003D01*
X22508929Y-39853714D01*
X22465290Y-39810075D01*
X22462599Y-39807239D01*
X22428954Y-39769873D01*
X22417415Y-39757057D01*
X22407702Y-39750000D01*
X33500000Y-39750000D01*
X36250000Y-39750000D01*
X36250000Y-37000000D01*
X33500000Y-37000000D01*
X33500000Y-39750000D01*
X22407702Y-39750000D01*
X22403390Y-39746867D01*
X22394422Y-39739207D01*
X22386286Y-39731071D01*
X22329783Y-39693316D01*
X22327377Y-39691640D01*
X22315579Y-39683068D01*
X22267675Y-39648264D01*
X22257588Y-39643773D01*
X22246404Y-39637605D01*
X22242073Y-39634711D01*
X22242071Y-39634710D01*
X22242068Y-39634708D01*
X22173508Y-39606309D01*
X22171701Y-39605533D01*
X22098588Y-39572981D01*
X22093960Y-39571998D01*
X22085395Y-39569338D01*
X22085373Y-39569411D01*
X22081834Y-39568338D01*
X22081832Y-39568337D01*
X22027523Y-39557533D01*
X22002913Y-39552638D01*
X22001951Y-39552440D01*
X21944013Y-39540126D01*
X21917544Y-39534500D01*
X21732456Y-39534500D01*
X21732454Y-39534500D01*
X21648060Y-39552437D01*
X21647100Y-39552635D01*
X21611890Y-39559639D01*
X21568168Y-39568337D01*
X21568165Y-39568338D01*
X21568161Y-39568339D01*
X21564630Y-39569410D01*
X21564608Y-39569338D01*
X21556045Y-39571997D01*
X21551412Y-39572982D01*
X21478297Y-39605533D01*
X21476491Y-39606309D01*
X21407935Y-39634707D01*
X21407924Y-39634712D01*
X21403594Y-39637606D01*
X21392411Y-39643773D01*
X21382326Y-39648263D01*
X21382324Y-39648265D01*
X21322632Y-39691632D01*
X21320212Y-39693319D01*
X21263712Y-39731072D01*
X21263704Y-39731079D01*
X21255571Y-39739211D01*
X21246607Y-39746867D01*
X21232593Y-39757049D01*
X21232585Y-39757057D01*
X21187407Y-39807230D01*
X21184700Y-39810083D01*
X21141072Y-39853712D01*
X21141067Y-39853718D01*
X21131181Y-39868513D01*
X21124544Y-39877047D01*
X21108735Y-39894605D01*
X21078103Y-39947660D01*
X21075507Y-39951835D01*
X21044710Y-39997927D01*
X21044708Y-39997931D01*
X21035489Y-40020185D01*
X21031143Y-40028999D01*
X21016194Y-40054893D01*
X20999196Y-40107203D01*
X20997153Y-40112739D01*
X20978338Y-40158164D01*
X20972413Y-40187947D01*
X20970178Y-40196509D01*
X20958998Y-40230920D01*
X20958996Y-40230928D01*
X20953903Y-40279387D01*
X20952870Y-40286196D01*
X20944500Y-40328275D01*
X20944500Y-40364914D01*
X20944088Y-40372774D01*
X20939650Y-40414999D01*
X17460350Y-40414999D01*
X17455912Y-40372774D01*
X17455500Y-40364914D01*
X17455500Y-40328277D01*
X17447128Y-40286192D01*
X17446095Y-40279380D01*
X17441003Y-40230929D01*
X17441003Y-40230928D01*
X17441003Y-40230925D01*
X17429818Y-40196504D01*
X17427585Y-40187943D01*
X17421663Y-40158169D01*
X17421663Y-40158168D01*
X17402839Y-40112723D01*
X17400801Y-40107200D01*
X17383807Y-40054896D01*
X17368852Y-40028993D01*
X17364506Y-40020179D01*
X17355289Y-39997927D01*
X17344187Y-39981312D01*
X17324484Y-39951823D01*
X17321886Y-39947644D01*
X17291269Y-39894613D01*
X17291264Y-39894606D01*
X17291263Y-39894604D01*
X17275455Y-39877047D01*
X17268814Y-39868508D01*
X17263131Y-39860003D01*
X17258929Y-39853714D01*
X17215290Y-39810075D01*
X17212599Y-39807239D01*
X17178954Y-39769873D01*
X17167415Y-39757057D01*
X17153390Y-39746867D01*
X17144422Y-39739207D01*
X17136286Y-39731071D01*
X17079783Y-39693316D01*
X17077377Y-39691640D01*
X17065579Y-39683068D01*
X17017675Y-39648264D01*
X17007588Y-39643773D01*
X16996404Y-39637605D01*
X16992073Y-39634711D01*
X16992071Y-39634710D01*
X16992068Y-39634708D01*
X16923508Y-39606309D01*
X16921701Y-39605533D01*
X16848588Y-39572981D01*
X16843960Y-39571998D01*
X16835395Y-39569338D01*
X16835373Y-39569411D01*
X16831834Y-39568338D01*
X16831832Y-39568337D01*
X16777523Y-39557533D01*
X16752913Y-39552638D01*
X16751951Y-39552440D01*
X16694013Y-39540126D01*
X16667544Y-39534500D01*
X16482456Y-39534500D01*
X16482454Y-39534500D01*
X16398060Y-39552437D01*
X16397100Y-39552635D01*
X16361890Y-39559639D01*
X16318168Y-39568337D01*
X16318165Y-39568338D01*
X16318161Y-39568339D01*
X16314630Y-39569410D01*
X16314608Y-39569338D01*
X16306045Y-39571997D01*
X16301412Y-39572982D01*
X16228297Y-39605533D01*
X16226491Y-39606309D01*
X16157935Y-39634707D01*
X16157924Y-39634712D01*
X16153594Y-39637606D01*
X16142411Y-39643773D01*
X16132326Y-39648263D01*
X16132324Y-39648265D01*
X16072632Y-39691632D01*
X16070212Y-39693319D01*
X16013712Y-39731072D01*
X16013704Y-39731079D01*
X16005571Y-39739211D01*
X15996607Y-39746867D01*
X15982593Y-39757049D01*
X15982585Y-39757057D01*
X15937407Y-39807230D01*
X15934700Y-39810083D01*
X15891072Y-39853712D01*
X15891067Y-39853718D01*
X15881181Y-39868513D01*
X15874544Y-39877047D01*
X15858735Y-39894605D01*
X15828103Y-39947660D01*
X15825507Y-39951835D01*
X15794710Y-39997927D01*
X15794708Y-39997931D01*
X15785489Y-40020185D01*
X15781143Y-40028999D01*
X15766194Y-40054893D01*
X15749196Y-40107203D01*
X15747153Y-40112739D01*
X15728338Y-40158164D01*
X15722413Y-40187947D01*
X15720178Y-40196509D01*
X15708998Y-40230920D01*
X15708996Y-40230928D01*
X15703903Y-40279387D01*
X15702870Y-40286196D01*
X15694500Y-40328275D01*
X15694500Y-40364914D01*
X15694088Y-40372774D01*
X15689650Y-40414999D01*
X14500500Y-40414999D01*
X14500500Y-34006597D01*
X18418078Y-34006597D01*
X18418078Y-34006599D01*
X18436925Y-34210000D01*
X18492824Y-34406464D01*
X18492826Y-34406467D01*
X18583873Y-34589315D01*
X18706971Y-34752325D01*
X18706974Y-34752328D01*
X18857927Y-34889941D01*
X19031598Y-34997474D01*
X19031600Y-34997474D01*
X19031602Y-34997476D01*
X19222076Y-35071266D01*
X19422866Y-35108800D01*
X19422871Y-35108800D01*
X19627129Y-35108800D01*
X19627134Y-35108800D01*
X19827924Y-35071266D01*
X20018398Y-34997476D01*
X20192070Y-34889943D01*
X20343025Y-34752329D01*
X20466124Y-34589319D01*
X20557174Y-34406466D01*
X20613075Y-34209996D01*
X20631922Y-34006600D01*
X20627692Y-33960955D01*
X20625490Y-33937193D01*
X20613075Y-33803204D01*
X20613074Y-33803199D01*
X20557175Y-33606735D01*
X20557173Y-33606732D01*
X20466126Y-33423884D01*
X20343028Y-33260874D01*
X20343025Y-33260871D01*
X20192072Y-33123258D01*
X20018401Y-33015725D01*
X19827925Y-32941934D01*
X19794459Y-32935678D01*
X19627134Y-32904400D01*
X19422866Y-32904400D01*
X19289006Y-32929422D01*
X19222074Y-32941934D01*
X19031599Y-33015725D01*
X19031598Y-33015725D01*
X18857927Y-33123258D01*
X18706974Y-33260871D01*
X18706971Y-33260874D01*
X18583873Y-33423884D01*
X18492826Y-33606732D01*
X18492824Y-33606735D01*
X18436925Y-33803199D01*
X18418078Y-34006597D01*
X14500500Y-34006597D01*
X14500500Y-28926600D01*
X18465800Y-28926600D01*
X18486151Y-29133236D01*
X18546427Y-29331939D01*
X18622947Y-29475098D01*
X18925718Y-29172327D01*
X18951016Y-29233401D01*
X19021899Y-29339485D01*
X19112115Y-29429701D01*
X19218199Y-29500584D01*
X19279270Y-29525880D01*
X18976500Y-29828651D01*
X19119661Y-29905172D01*
X19318365Y-29965448D01*
X19318361Y-29965448D01*
X19525000Y-29985799D01*
X19731636Y-29965448D01*
X19930343Y-29905170D01*
X20073497Y-29828652D01*
X20073498Y-29828651D01*
X19770728Y-29525881D01*
X19831801Y-29500584D01*
X19937885Y-29429701D01*
X20028101Y-29339485D01*
X20098984Y-29233401D01*
X20124281Y-29172328D01*
X20427051Y-29475098D01*
X20427052Y-29475097D01*
X20503570Y-29331943D01*
X20563848Y-29133236D01*
X20584199Y-28926600D01*
X20563848Y-28719963D01*
X20503572Y-28521261D01*
X20427051Y-28378100D01*
X20124280Y-28680870D01*
X20098984Y-28619799D01*
X20028101Y-28513715D01*
X19937885Y-28423499D01*
X19831801Y-28352616D01*
X19770727Y-28327318D01*
X20073498Y-28024547D01*
X19932908Y-27949400D01*
X49789143Y-27949400D01*
X49808118Y-28129938D01*
X49864216Y-28302593D01*
X49895889Y-28357454D01*
X50209482Y-28043861D01*
X50231458Y-28125873D01*
X50291649Y-28230127D01*
X50376773Y-28315251D01*
X50481027Y-28375442D01*
X50563035Y-28397416D01*
X50248031Y-28712420D01*
X50389161Y-28775256D01*
X50566734Y-28813000D01*
X50748266Y-28813000D01*
X50925842Y-28775255D01*
X51066966Y-28712421D01*
X51066967Y-28712420D01*
X50751964Y-28397416D01*
X50833973Y-28375442D01*
X50938227Y-28315251D01*
X51023351Y-28230127D01*
X51083542Y-28125873D01*
X51105516Y-28043863D01*
X51419107Y-28357454D01*
X51419109Y-28357454D01*
X51450782Y-28302595D01*
X51506881Y-28129938D01*
X51525856Y-27949400D01*
X52240778Y-27949400D01*
X52260810Y-28139993D01*
X52260810Y-28139995D01*
X52260811Y-28139997D01*
X52317754Y-28315251D01*
X52320034Y-28322266D01*
X52415855Y-28488236D01*
X52544094Y-28630658D01*
X52544095Y-28630659D01*
X52691387Y-28737673D01*
X52699139Y-28743305D01*
X52874217Y-28821254D01*
X53061676Y-28861100D01*
X53061678Y-28861100D01*
X53253322Y-28861100D01*
X53253324Y-28861100D01*
X53440783Y-28821254D01*
X53615861Y-28743305D01*
X53770907Y-28630657D01*
X53899144Y-28488236D01*
X53994967Y-28322264D01*
X54054189Y-28139997D01*
X54074222Y-27949400D01*
X54054189Y-27758803D01*
X53994967Y-27576536D01*
X53946276Y-27492200D01*
X53899144Y-27410563D01*
X53770905Y-27268141D01*
X53770904Y-27268140D01*
X53615860Y-27155494D01*
X53440786Y-27077547D01*
X53440784Y-27077546D01*
X53440783Y-27077546D01*
X53253324Y-27037700D01*
X53061676Y-27037700D01*
X52874217Y-27077546D01*
X52874216Y-27077546D01*
X52874213Y-27077547D01*
X52699139Y-27155494D01*
X52544095Y-27268140D01*
X52544094Y-27268141D01*
X52415855Y-27410563D01*
X52320034Y-27576533D01*
X52320033Y-27576535D01*
X52320033Y-27576536D01*
X52313642Y-27596207D01*
X52260810Y-27758806D01*
X52240778Y-27949400D01*
X51525856Y-27949400D01*
X51506881Y-27768861D01*
X51450782Y-27596204D01*
X51419109Y-27541344D01*
X51419107Y-27541344D01*
X51105516Y-27854935D01*
X51083542Y-27772927D01*
X51023351Y-27668673D01*
X50938227Y-27583549D01*
X50833973Y-27523358D01*
X50751963Y-27501383D01*
X51066967Y-27186378D01*
X50925838Y-27123543D01*
X50748266Y-27085800D01*
X50566734Y-27085800D01*
X50389161Y-27123543D01*
X50248031Y-27186378D01*
X50563036Y-27501383D01*
X50481027Y-27523358D01*
X50376773Y-27583549D01*
X50291649Y-27668673D01*
X50231458Y-27772927D01*
X50209483Y-27854936D01*
X49895890Y-27541344D01*
X49895889Y-27541344D01*
X49864216Y-27596207D01*
X49808118Y-27768861D01*
X49789143Y-27949400D01*
X19932908Y-27949400D01*
X19930339Y-27948027D01*
X19731634Y-27887751D01*
X19731638Y-27887751D01*
X19525000Y-27867400D01*
X19318363Y-27887751D01*
X19119660Y-27948027D01*
X18976500Y-28024547D01*
X19279271Y-28327318D01*
X19218199Y-28352616D01*
X19112115Y-28423499D01*
X19021899Y-28513715D01*
X18951016Y-28619799D01*
X18925718Y-28680871D01*
X18622947Y-28378100D01*
X18546427Y-28521260D01*
X18486151Y-28719963D01*
X18465800Y-28926600D01*
X14500500Y-28926600D01*
X14500500Y-25239397D01*
X46030301Y-25239397D01*
X46030301Y-25239402D01*
X46049472Y-25482997D01*
X46049474Y-25483007D01*
X46106514Y-25720592D01*
X46106517Y-25720603D01*
X46200026Y-25946353D01*
X46324260Y-26149086D01*
X46611332Y-25862014D01*
X46705982Y-25992288D01*
X46834613Y-26120919D01*
X46964884Y-26215567D01*
X46677813Y-26502639D01*
X46880549Y-26626875D01*
X47106297Y-26720383D01*
X47106308Y-26720386D01*
X47343893Y-26777426D01*
X47343903Y-26777428D01*
X47587498Y-26796600D01*
X47587504Y-26796600D01*
X47831098Y-26777428D01*
X47831108Y-26777426D01*
X48068693Y-26720386D01*
X48068704Y-26720383D01*
X48294454Y-26626875D01*
X48294461Y-26626871D01*
X48497186Y-26502640D01*
X48497187Y-26502639D01*
X48210116Y-26215568D01*
X48340389Y-26120919D01*
X48469020Y-25992288D01*
X48563669Y-25862015D01*
X48850740Y-26149086D01*
X48850741Y-26149085D01*
X48974972Y-25946360D01*
X48974976Y-25946353D01*
X49068484Y-25720603D01*
X49068487Y-25720592D01*
X49125527Y-25483007D01*
X49125529Y-25482997D01*
X49144701Y-25239402D01*
X49144701Y-25239397D01*
X59170300Y-25239397D01*
X59170300Y-25239402D01*
X59189471Y-25482997D01*
X59189473Y-25483007D01*
X59246513Y-25720592D01*
X59246516Y-25720603D01*
X59340025Y-25946353D01*
X59464259Y-26149086D01*
X59751331Y-25862014D01*
X59845981Y-25992288D01*
X59974612Y-26120919D01*
X60104883Y-26215567D01*
X59817812Y-26502639D01*
X60020548Y-26626875D01*
X60246296Y-26720383D01*
X60246307Y-26720386D01*
X60483892Y-26777426D01*
X60483902Y-26777428D01*
X60727497Y-26796600D01*
X60727503Y-26796600D01*
X60971097Y-26777428D01*
X60971107Y-26777426D01*
X61208692Y-26720386D01*
X61208703Y-26720383D01*
X61434453Y-26626875D01*
X61434460Y-26626871D01*
X61637185Y-26502640D01*
X61637186Y-26502639D01*
X61350115Y-26215568D01*
X61480388Y-26120919D01*
X61609019Y-25992288D01*
X61703668Y-25862015D01*
X61990739Y-26149086D01*
X61990740Y-26149085D01*
X62114971Y-25946360D01*
X62114975Y-25946353D01*
X62208483Y-25720603D01*
X62208486Y-25720592D01*
X62265526Y-25483007D01*
X62265528Y-25482997D01*
X62284700Y-25239402D01*
X62284700Y-25239397D01*
X62265528Y-24995802D01*
X62265526Y-24995792D01*
X62208486Y-24758207D01*
X62208483Y-24758196D01*
X62114975Y-24532448D01*
X61990739Y-24329712D01*
X61703667Y-24616783D01*
X61609019Y-24486512D01*
X61480388Y-24357881D01*
X61350114Y-24263231D01*
X61637186Y-23976159D01*
X61434453Y-23851925D01*
X61208703Y-23758416D01*
X61208692Y-23758413D01*
X60971107Y-23701373D01*
X60971097Y-23701371D01*
X60727503Y-23682200D01*
X60727497Y-23682200D01*
X60483902Y-23701371D01*
X60483892Y-23701373D01*
X60246307Y-23758413D01*
X60246296Y-23758416D01*
X60020546Y-23851925D01*
X59817812Y-23976159D01*
X60104884Y-24263231D01*
X59974612Y-24357881D01*
X59845981Y-24486512D01*
X59751331Y-24616784D01*
X59464259Y-24329712D01*
X59340025Y-24532446D01*
X59246516Y-24758196D01*
X59246513Y-24758207D01*
X59189473Y-24995792D01*
X59189471Y-24995802D01*
X59170300Y-25239397D01*
X49144701Y-25239397D01*
X49125529Y-24995802D01*
X49125527Y-24995792D01*
X49068487Y-24758207D01*
X49068484Y-24758196D01*
X48974976Y-24532448D01*
X48850740Y-24329712D01*
X48563668Y-24616783D01*
X48469020Y-24486512D01*
X48340389Y-24357881D01*
X48210115Y-24263231D01*
X48497187Y-23976159D01*
X48294454Y-23851925D01*
X48068704Y-23758416D01*
X48068693Y-23758413D01*
X47831108Y-23701373D01*
X47831098Y-23701371D01*
X47587504Y-23682200D01*
X47587498Y-23682200D01*
X47343903Y-23701371D01*
X47343893Y-23701373D01*
X47106308Y-23758413D01*
X47106297Y-23758416D01*
X46880547Y-23851925D01*
X46677813Y-23976159D01*
X46964885Y-24263231D01*
X46834613Y-24357881D01*
X46705982Y-24486512D01*
X46611332Y-24616784D01*
X46324260Y-24329712D01*
X46200026Y-24532446D01*
X46106517Y-24758196D01*
X46106514Y-24758207D01*
X46049474Y-24995792D01*
X46049472Y-24995802D01*
X46030301Y-25239397D01*
X14500500Y-25239397D01*
X14500500Y-20000000D01*
X16494696Y-20000000D01*
X16513897Y-20366403D01*
X16571293Y-20728786D01*
X16571294Y-20728788D01*
X16571295Y-20728794D01*
X16666258Y-21083199D01*
X16666260Y-21083206D01*
X16797741Y-21425730D01*
X16797742Y-21425731D01*
X16964317Y-21752651D01*
X17164149Y-22060366D01*
X17164155Y-22060375D01*
X17395047Y-22345501D01*
X17395064Y-22345520D01*
X17654479Y-22604935D01*
X17654488Y-22604943D01*
X17654494Y-22604949D01*
X17654498Y-22604952D01*
X17939624Y-22835844D01*
X17939631Y-22835849D01*
X17939634Y-22835851D01*
X18247348Y-23035682D01*
X18574268Y-23202257D01*
X18574269Y-23202258D01*
X18916793Y-23333739D01*
X18916801Y-23333742D01*
X19271206Y-23428705D01*
X19633596Y-23486102D01*
X20000000Y-23505304D01*
X20366404Y-23486102D01*
X20728794Y-23428705D01*
X21083199Y-23333742D01*
X21189364Y-23292989D01*
X21425730Y-23202258D01*
X21425731Y-23202257D01*
X21425731Y-23202256D01*
X21425736Y-23202255D01*
X21752652Y-23035682D01*
X22060366Y-22835851D01*
X22345506Y-22604949D01*
X22604949Y-22345506D01*
X22835851Y-22060366D01*
X23035682Y-21752652D01*
X23202255Y-21425736D01*
X23202257Y-21425731D01*
X23202258Y-21425730D01*
X23333739Y-21083206D01*
X23333742Y-21083199D01*
X23428705Y-20728794D01*
X23486102Y-20366404D01*
X23505304Y-20000000D01*
X23486102Y-19633596D01*
X23460983Y-19475001D01*
X29367400Y-19475001D01*
X29387751Y-19681637D01*
X29448027Y-19880340D01*
X29524547Y-20023499D01*
X29827318Y-19720728D01*
X29852616Y-19781802D01*
X29923499Y-19887886D01*
X30013715Y-19978102D01*
X30119799Y-20048985D01*
X30180870Y-20074281D01*
X29878100Y-20377052D01*
X30021261Y-20453573D01*
X30219965Y-20513849D01*
X30219961Y-20513849D01*
X30426600Y-20534200D01*
X30633236Y-20513849D01*
X30831943Y-20453571D01*
X30975097Y-20377053D01*
X30975098Y-20377052D01*
X30672328Y-20074282D01*
X30733401Y-20048985D01*
X30839485Y-19978102D01*
X30929701Y-19887886D01*
X31000584Y-19781802D01*
X31025881Y-19720729D01*
X31328651Y-20023499D01*
X31328652Y-20023498D01*
X31405170Y-19880344D01*
X31465448Y-19681637D01*
X31485799Y-19475001D01*
X31485799Y-19474998D01*
X34399678Y-19474998D01*
X34399678Y-19475003D01*
X34418525Y-19678401D01*
X34474424Y-19874865D01*
X34474426Y-19874868D01*
X34565473Y-20057716D01*
X34688571Y-20220726D01*
X34688574Y-20220729D01*
X34839527Y-20358342D01*
X34839529Y-20358343D01*
X34839530Y-20358344D01*
X34869746Y-20377053D01*
X35013198Y-20465875D01*
X35013200Y-20465875D01*
X35013202Y-20465877D01*
X35203676Y-20539667D01*
X35404466Y-20577201D01*
X35404471Y-20577201D01*
X35608729Y-20577201D01*
X35608734Y-20577201D01*
X35809524Y-20539667D01*
X35999998Y-20465877D01*
X36173670Y-20358344D01*
X36324625Y-20220730D01*
X36447724Y-20057720D01*
X36476465Y-20000000D01*
X64494696Y-20000000D01*
X64513897Y-20366403D01*
X64571293Y-20728786D01*
X64571294Y-20728788D01*
X64571295Y-20728794D01*
X64666258Y-21083199D01*
X64666260Y-21083206D01*
X64797741Y-21425730D01*
X64797742Y-21425731D01*
X64964317Y-21752651D01*
X65164149Y-22060366D01*
X65164155Y-22060375D01*
X65395047Y-22345501D01*
X65395064Y-22345520D01*
X65654479Y-22604935D01*
X65654488Y-22604943D01*
X65654494Y-22604949D01*
X65654498Y-22604952D01*
X65939624Y-22835844D01*
X65939631Y-22835849D01*
X65939634Y-22835851D01*
X66247348Y-23035682D01*
X66574268Y-23202257D01*
X66574269Y-23202258D01*
X66916793Y-23333739D01*
X66916801Y-23333742D01*
X67271206Y-23428705D01*
X67633596Y-23486102D01*
X68000000Y-23505304D01*
X68366404Y-23486102D01*
X68728794Y-23428705D01*
X69083199Y-23333742D01*
X69189364Y-23292989D01*
X69425730Y-23202258D01*
X69425731Y-23202257D01*
X69425731Y-23202256D01*
X69425736Y-23202255D01*
X69752652Y-23035682D01*
X70060366Y-22835851D01*
X70345506Y-22604949D01*
X70604949Y-22345506D01*
X70835851Y-22060366D01*
X71035682Y-21752652D01*
X71202255Y-21425736D01*
X71202257Y-21425731D01*
X71202258Y-21425730D01*
X71333739Y-21083206D01*
X71333742Y-21083199D01*
X71428705Y-20728794D01*
X71486102Y-20366404D01*
X71505304Y-20000000D01*
X71486102Y-19633596D01*
X71428705Y-19271206D01*
X71333742Y-18916801D01*
X71308941Y-18852192D01*
X71202258Y-18574269D01*
X71202257Y-18574268D01*
X71118728Y-18410335D01*
X71035682Y-18247348D01*
X70835851Y-17939634D01*
X70835849Y-17939631D01*
X70835844Y-17939624D01*
X70604952Y-17654498D01*
X70604949Y-17654494D01*
X70604943Y-17654488D01*
X70604935Y-17654479D01*
X70345520Y-17395064D01*
X70345510Y-17395055D01*
X70345506Y-17395051D01*
X70335067Y-17386598D01*
X70060375Y-17164155D01*
X70060366Y-17164149D01*
X69752651Y-16964317D01*
X69425731Y-16797742D01*
X69425730Y-16797741D01*
X69083206Y-16666260D01*
X69083199Y-16666258D01*
X68728794Y-16571295D01*
X68728788Y-16571294D01*
X68728786Y-16571293D01*
X68366403Y-16513897D01*
X68000000Y-16494696D01*
X67633596Y-16513897D01*
X67271213Y-16571293D01*
X67271211Y-16571294D01*
X67271209Y-16571294D01*
X67271206Y-16571295D01*
X67022089Y-16638045D01*
X66916793Y-16666260D01*
X66574269Y-16797741D01*
X66574268Y-16797742D01*
X66247348Y-16964317D01*
X65939633Y-17164149D01*
X65939624Y-17164155D01*
X65654498Y-17395047D01*
X65654479Y-17395064D01*
X65395064Y-17654479D01*
X65395047Y-17654498D01*
X65164155Y-17939624D01*
X65164149Y-17939633D01*
X64964317Y-18247348D01*
X64797742Y-18574268D01*
X64797741Y-18574269D01*
X64666260Y-18916793D01*
X64571294Y-19271211D01*
X64571293Y-19271213D01*
X64513897Y-19633596D01*
X64494696Y-20000000D01*
X36476465Y-20000000D01*
X36538774Y-19874867D01*
X36551952Y-19828554D01*
X36594674Y-19678401D01*
X36594674Y-19678400D01*
X36594675Y-19678397D01*
X36613522Y-19475001D01*
X36594675Y-19271605D01*
X36594674Y-19271600D01*
X36538775Y-19075136D01*
X36538773Y-19075133D01*
X36447726Y-18892285D01*
X36324628Y-18729275D01*
X36324625Y-18729272D01*
X36173672Y-18591659D01*
X36000001Y-18484126D01*
X35809525Y-18410335D01*
X35776059Y-18404079D01*
X35608734Y-18372801D01*
X35404466Y-18372801D01*
X35270606Y-18397823D01*
X35203674Y-18410335D01*
X35013199Y-18484126D01*
X35013198Y-18484126D01*
X34839527Y-18591659D01*
X34688574Y-18729272D01*
X34688571Y-18729275D01*
X34565473Y-18892285D01*
X34474426Y-19075133D01*
X34474424Y-19075136D01*
X34418525Y-19271600D01*
X34399678Y-19474998D01*
X31485799Y-19474998D01*
X31465448Y-19268364D01*
X31405172Y-19069662D01*
X31328651Y-18926501D01*
X31025880Y-19229271D01*
X31000584Y-19168200D01*
X30929701Y-19062116D01*
X30839485Y-18971900D01*
X30733401Y-18901017D01*
X30672327Y-18875719D01*
X30975098Y-18572948D01*
X30831939Y-18496428D01*
X30633234Y-18436152D01*
X30633238Y-18436152D01*
X30426600Y-18415801D01*
X30219963Y-18436152D01*
X30021260Y-18496428D01*
X29878100Y-18572948D01*
X30180871Y-18875719D01*
X30119799Y-18901017D01*
X30013715Y-18971900D01*
X29923499Y-19062116D01*
X29852616Y-19168200D01*
X29827318Y-19229272D01*
X29524547Y-18926501D01*
X29448027Y-19069661D01*
X29387751Y-19268364D01*
X29367400Y-19475001D01*
X23460983Y-19475001D01*
X23428705Y-19271206D01*
X23333742Y-18916801D01*
X23308941Y-18852192D01*
X23202258Y-18574269D01*
X23202257Y-18574268D01*
X23118728Y-18410335D01*
X23035682Y-18247348D01*
X22835851Y-17939634D01*
X22835849Y-17939631D01*
X22835844Y-17939624D01*
X22604952Y-17654498D01*
X22604949Y-17654494D01*
X22604943Y-17654488D01*
X22604935Y-17654479D01*
X22345520Y-17395064D01*
X22345510Y-17395055D01*
X22345506Y-17395051D01*
X22335067Y-17386598D01*
X22060375Y-17164155D01*
X22060366Y-17164149D01*
X21752651Y-16964317D01*
X21425731Y-16797742D01*
X21425730Y-16797741D01*
X21083206Y-16666260D01*
X21083199Y-16666258D01*
X20728794Y-16571295D01*
X20728788Y-16571294D01*
X20728786Y-16571293D01*
X20366403Y-16513897D01*
X20000000Y-16494696D01*
X19633596Y-16513897D01*
X19271213Y-16571293D01*
X19271211Y-16571294D01*
X19271209Y-16571294D01*
X19271206Y-16571295D01*
X19022089Y-16638045D01*
X18916793Y-16666260D01*
X18574269Y-16797741D01*
X18574268Y-16797742D01*
X18247348Y-16964317D01*
X17939633Y-17164149D01*
X17939624Y-17164155D01*
X17654498Y-17395047D01*
X17654479Y-17395064D01*
X17395064Y-17654479D01*
X17395047Y-17654498D01*
X17164155Y-17939624D01*
X17164149Y-17939633D01*
X16964317Y-18247348D01*
X16797742Y-18574268D01*
X16797741Y-18574269D01*
X16666260Y-18916793D01*
X16571294Y-19271211D01*
X16571293Y-19271213D01*
X16513897Y-19633596D01*
X16494696Y-20000000D01*
X14500500Y-20000000D01*
X14500500Y-16002680D01*
X14500692Y-15997315D01*
X14515379Y-15791963D01*
X14516902Y-15781361D01*
X14560099Y-15582782D01*
X14563114Y-15572515D01*
X14634129Y-15382118D01*
X14638585Y-15372363D01*
X14702815Y-15254734D01*
X14735965Y-15194024D01*
X14741757Y-15185010D01*
X14863540Y-15022328D01*
X14870555Y-15014234D01*
X15014234Y-14870555D01*
X15022328Y-14863540D01*
X15185010Y-14741757D01*
X15194024Y-14735965D01*
X15372367Y-14638582D01*
X15382118Y-14634129D01*
X15572515Y-14563114D01*
X15582782Y-14560099D01*
X15781361Y-14516902D01*
X15791958Y-14515379D01*
X15997316Y-14500692D01*
X16002681Y-14500500D01*
X16065892Y-14500500D01*
X71934108Y-14500500D01*
X71997319Y-14500500D01*
X72002684Y-14500692D01*
G37*
G04 #@! TD.AperFunction*
G04 #@! TA.AperFunction,Conductor*
G36*
X33860702Y-37034663D02*
G01*
X33860692Y-37034668D01*
X33846892Y-37043338D01*
X33846892Y-37043339D01*
X34210001Y-37406447D01*
X34210002Y-37406447D01*
X34573108Y-37043339D01*
X34559305Y-37034666D01*
X34460235Y-37000000D01*
X35139763Y-37000000D01*
X35040699Y-37034663D01*
X35040689Y-37034668D01*
X35026889Y-37043338D01*
X35026889Y-37043339D01*
X35389998Y-37406447D01*
X35389999Y-37406447D01*
X35753105Y-37043339D01*
X35739302Y-37034666D01*
X35640232Y-37000000D01*
X36250000Y-37000000D01*
X36250000Y-39750000D01*
X33500000Y-39750000D01*
X33500000Y-39656658D01*
X33846893Y-39656658D01*
X33846893Y-39656659D01*
X33860693Y-39665331D01*
X33860692Y-39665331D01*
X34030862Y-39724876D01*
X34209998Y-39745060D01*
X34210004Y-39745060D01*
X34389139Y-39724876D01*
X34389142Y-39724875D01*
X34559306Y-39665332D01*
X34559307Y-39665332D01*
X34573107Y-39656659D01*
X34573107Y-39656658D01*
X35026890Y-39656658D01*
X35026890Y-39656659D01*
X35040690Y-39665331D01*
X35040689Y-39665331D01*
X35210859Y-39724876D01*
X35389995Y-39745060D01*
X35390001Y-39745060D01*
X35569136Y-39724876D01*
X35569139Y-39724875D01*
X35739303Y-39665332D01*
X35739304Y-39665332D01*
X35753104Y-39656659D01*
X35753104Y-39656658D01*
X35389999Y-39293551D01*
X35389998Y-39293551D01*
X35026890Y-39656658D01*
X34573107Y-39656658D01*
X34210002Y-39293551D01*
X34210001Y-39293551D01*
X33846893Y-39656658D01*
X33500000Y-39656658D01*
X33500000Y-39296444D01*
X33856447Y-38939998D01*
X33856447Y-38939997D01*
X33826611Y-38910161D01*
X34060001Y-38910161D01*
X34060001Y-38969835D01*
X34082837Y-39024966D01*
X34125033Y-39067162D01*
X34180164Y-39089998D01*
X34239838Y-39089998D01*
X34294969Y-39067162D01*
X34337165Y-39024966D01*
X34360001Y-38969835D01*
X34360001Y-38939998D01*
X34563554Y-38939998D01*
X34799999Y-39176442D01*
X35036443Y-38939999D01*
X35036443Y-38939997D01*
X35006607Y-38910161D01*
X35239998Y-38910161D01*
X35239998Y-38969835D01*
X35262834Y-39024966D01*
X35305030Y-39067162D01*
X35360161Y-39089998D01*
X35419835Y-39089998D01*
X35474966Y-39067162D01*
X35517162Y-39024966D01*
X35539998Y-38969835D01*
X35539998Y-38939998D01*
X35743551Y-38939998D01*
X36106658Y-39303104D01*
X36106659Y-39303104D01*
X36115332Y-39289304D01*
X36115332Y-39289303D01*
X36174875Y-39119139D01*
X36174876Y-39119136D01*
X36195060Y-38940000D01*
X36195060Y-38939995D01*
X36174876Y-38760859D01*
X36174875Y-38760856D01*
X36115331Y-38590690D01*
X36106659Y-38576890D01*
X36106658Y-38576890D01*
X35743551Y-38939998D01*
X35539998Y-38939998D01*
X35539998Y-38910161D01*
X35517162Y-38855030D01*
X35474966Y-38812834D01*
X35419835Y-38789998D01*
X35360161Y-38789998D01*
X35305030Y-38812834D01*
X35262834Y-38855030D01*
X35239998Y-38910161D01*
X35006607Y-38910161D01*
X34799999Y-38703553D01*
X34742699Y-38760854D01*
X34742698Y-38760856D01*
X34563554Y-38939998D01*
X34360001Y-38939998D01*
X34360001Y-38910161D01*
X34337165Y-38855030D01*
X34294969Y-38812834D01*
X34239838Y-38789998D01*
X34180164Y-38789998D01*
X34125033Y-38812834D01*
X34082837Y-38855030D01*
X34060001Y-38910161D01*
X33826611Y-38910161D01*
X33500000Y-38583550D01*
X33500000Y-38349998D01*
X33973556Y-38349998D01*
X34210000Y-38586443D01*
X34358394Y-38438050D01*
X34446444Y-38349998D01*
X34416609Y-38320163D01*
X34649999Y-38320163D01*
X34649999Y-38379837D01*
X34672835Y-38434968D01*
X34715031Y-38477164D01*
X34770162Y-38500000D01*
X34829836Y-38500000D01*
X34884967Y-38477164D01*
X34927163Y-38434968D01*
X34949999Y-38379837D01*
X34949999Y-38349999D01*
X35153553Y-38349999D01*
X35389997Y-38586443D01*
X35626442Y-38349998D01*
X35389998Y-38113554D01*
X35336424Y-38167129D01*
X35336423Y-38167131D01*
X35153553Y-38349999D01*
X34949999Y-38349999D01*
X34949999Y-38320163D01*
X34927163Y-38265032D01*
X34884967Y-38222836D01*
X34829836Y-38200000D01*
X34770162Y-38200000D01*
X34715031Y-38222836D01*
X34672835Y-38265032D01*
X34649999Y-38320163D01*
X34416609Y-38320163D01*
X34209999Y-38113555D01*
X33973556Y-38349998D01*
X33500000Y-38349998D01*
X33500000Y-38116447D01*
X33856447Y-37760001D01*
X33856447Y-37760000D01*
X33826611Y-37730164D01*
X34060001Y-37730164D01*
X34060001Y-37789838D01*
X34082837Y-37844969D01*
X34125033Y-37887165D01*
X34180164Y-37910001D01*
X34239838Y-37910001D01*
X34294969Y-37887165D01*
X34337165Y-37844969D01*
X34360001Y-37789838D01*
X34360001Y-37760000D01*
X34563554Y-37760000D01*
X34799999Y-37996444D01*
X34918220Y-37878223D01*
X34918221Y-37878223D01*
X35036444Y-37760000D01*
X35006608Y-37730164D01*
X35239998Y-37730164D01*
X35239998Y-37789838D01*
X35262834Y-37844969D01*
X35305030Y-37887165D01*
X35360161Y-37910001D01*
X35419835Y-37910001D01*
X35474966Y-37887165D01*
X35517162Y-37844969D01*
X35539998Y-37789838D01*
X35539998Y-37760001D01*
X35743551Y-37760001D01*
X36106658Y-38123107D01*
X36106659Y-38123107D01*
X36115332Y-38109307D01*
X36115332Y-38109306D01*
X36174875Y-37939142D01*
X36174876Y-37939139D01*
X36195060Y-37760003D01*
X36195060Y-37759998D01*
X36174876Y-37580862D01*
X36115331Y-37410693D01*
X36106659Y-37396893D01*
X36106658Y-37396893D01*
X35743551Y-37760001D01*
X35539998Y-37760001D01*
X35539998Y-37730164D01*
X35517162Y-37675033D01*
X35474966Y-37632837D01*
X35419835Y-37610001D01*
X35360161Y-37610001D01*
X35305030Y-37632837D01*
X35262834Y-37675033D01*
X35239998Y-37730164D01*
X35006608Y-37730164D01*
X34799998Y-37523556D01*
X34563554Y-37760000D01*
X34360001Y-37760000D01*
X34360001Y-37730164D01*
X34337165Y-37675033D01*
X34294969Y-37632837D01*
X34239838Y-37610001D01*
X34180164Y-37610001D01*
X34125033Y-37632837D01*
X34082837Y-37675033D01*
X34060001Y-37730164D01*
X33826611Y-37730164D01*
X33500000Y-37403553D01*
X33500000Y-37000000D01*
X33959766Y-37000000D01*
X33860702Y-37034663D01*
G37*
G04 #@! TD.AperFunction*
M02*
