G04 #@! TF.GenerationSoftware,KiCad,Pcbnew,8.0.6*
G04 #@! TF.CreationDate,2025-03-29T16:44:26-07:00*
G04 #@! TF.ProjectId,RCA Radio Telescope,52434120-5261-4646-996f-2054656c6573,2.2*
G04 #@! TF.SameCoordinates,Original*
G04 #@! TF.FileFunction,Copper,L1,Top*
G04 #@! TF.FilePolarity,Positive*
%FSLAX46Y46*%
G04 Gerber Fmt 4.6, Leading zero omitted, Abs format (unit mm)*
G04 Created by KiCad (PCBNEW 8.0.6) date 2025-03-29 16:44:26*
%MOMM*%
%LPD*%
G01*
G04 APERTURE LIST*
G04 Aperture macros list*
%AMRoundRect*
0 Rectangle with rounded corners*
0 $1 Rounding radius*
0 $2 $3 $4 $5 $6 $7 $8 $9 X,Y pos of 4 corners*
0 Add a 4 corners polygon primitive as box body*
4,1,4,$2,$3,$4,$5,$6,$7,$8,$9,$2,$3,0*
0 Add four circle primitives for the rounded corners*
1,1,$1+$1,$2,$3*
1,1,$1+$1,$4,$5*
1,1,$1+$1,$6,$7*
1,1,$1+$1,$8,$9*
0 Add four rect primitives between the rounded corners*
20,1,$1+$1,$2,$3,$4,$5,0*
20,1,$1+$1,$4,$5,$6,$7,0*
20,1,$1+$1,$6,$7,$8,$9,0*
20,1,$1+$1,$8,$9,$2,$3,0*%
G04 Aperture macros list end*
G04 #@! TA.AperFunction,Conductor*
%ADD10C,0.200000*%
G04 #@! TD*
G04 #@! TA.AperFunction,ComponentPad*
%ADD11C,1.422400*%
G04 #@! TD*
G04 #@! TA.AperFunction,ComponentPad*
%ADD12C,2.800000*%
G04 #@! TD*
G04 #@! TA.AperFunction,SMDPad,CuDef*
%ADD13C,1.000000*%
G04 #@! TD*
G04 #@! TA.AperFunction,SMDPad,CuDef*
%ADD14RoundRect,0.250000X0.250000X0.475000X-0.250000X0.475000X-0.250000X-0.475000X0.250000X-0.475000X0*%
G04 #@! TD*
G04 #@! TA.AperFunction,SMDPad,CuDef*
%ADD15R,4.000000X4.000000*%
G04 #@! TD*
G04 #@! TA.AperFunction,SMDPad,CuDef*
%ADD16RoundRect,0.250000X0.475000X-0.250000X0.475000X0.250000X-0.475000X0.250000X-0.475000X-0.250000X0*%
G04 #@! TD*
G04 #@! TA.AperFunction,ComponentPad*
%ADD17C,1.360000*%
G04 #@! TD*
G04 #@! TA.AperFunction,SMDPad,CuDef*
%ADD18R,0.406400X0.508000*%
G04 #@! TD*
G04 #@! TA.AperFunction,SMDPad,CuDef*
%ADD19R,0.279400X0.914400*%
G04 #@! TD*
G04 #@! TA.AperFunction,ComponentPad*
%ADD20C,1.803400*%
G04 #@! TD*
G04 #@! TA.AperFunction,SMDPad,CuDef*
%ADD21R,1.257300X3.251200*%
G04 #@! TD*
G04 #@! TA.AperFunction,SMDPad,CuDef*
%ADD22RoundRect,0.250000X-0.475000X0.250000X-0.475000X-0.250000X0.475000X-0.250000X0.475000X0.250000X0*%
G04 #@! TD*
G04 #@! TA.AperFunction,SMDPad,CuDef*
%ADD23RoundRect,0.250000X-0.262500X-0.450000X0.262500X-0.450000X0.262500X0.450000X-0.262500X0.450000X0*%
G04 #@! TD*
G04 #@! TA.AperFunction,SMDPad,CuDef*
%ADD24RoundRect,0.250000X0.262500X0.450000X-0.262500X0.450000X-0.262500X-0.450000X0.262500X-0.450000X0*%
G04 #@! TD*
G04 #@! TA.AperFunction,SMDPad,CuDef*
%ADD25RoundRect,0.250000X-0.450000X0.262500X-0.450000X-0.262500X0.450000X-0.262500X0.450000X0.262500X0*%
G04 #@! TD*
G04 #@! TA.AperFunction,SMDPad,CuDef*
%ADD26R,0.599999X0.240000*%
G04 #@! TD*
G04 #@! TA.AperFunction,SMDPad,CuDef*
%ADD27R,0.240000X0.599999*%
G04 #@! TD*
G04 #@! TA.AperFunction,SMDPad,CuDef*
%ADD28R,1.679999X1.679999*%
G04 #@! TD*
G04 #@! TA.AperFunction,ComponentPad*
%ADD29C,0.600000*%
G04 #@! TD*
G04 #@! TA.AperFunction,SMDPad,CuDef*
%ADD30R,0.375000X1.170000*%
G04 #@! TD*
G04 #@! TA.AperFunction,SMDPad,CuDef*
%ADD31R,0.300000X1.170000*%
G04 #@! TD*
G04 #@! TA.AperFunction,SMDPad,CuDef*
%ADD32R,0.400000X1.170000*%
G04 #@! TD*
G04 #@! TA.AperFunction,SMDPad,CuDef*
%ADD33RoundRect,0.250000X-0.250000X-0.475000X0.250000X-0.475000X0.250000X0.475000X-0.250000X0.475000X0*%
G04 #@! TD*
G04 #@! TA.AperFunction,SMDPad,CuDef*
%ADD34R,2.210000X2.180400*%
G04 #@! TD*
G04 #@! TA.AperFunction,SMDPad,CuDef*
%ADD35R,1.498600X0.990600*%
G04 #@! TD*
G04 #@! TA.AperFunction,ViaPad*
%ADD36C,0.600000*%
G04 #@! TD*
G04 #@! TA.AperFunction,Conductor*
%ADD37C,0.500000*%
G04 #@! TD*
G04 #@! TA.AperFunction,Conductor*
%ADD38C,0.250000*%
G04 #@! TD*
G04 #@! TA.AperFunction,Conductor*
%ADD39C,0.400000*%
G04 #@! TD*
G04 #@! TA.AperFunction,Conductor*
%ADD40C,1.500000*%
G04 #@! TD*
G04 #@! TA.AperFunction,Conductor*
%ADD41C,1.000000*%
G04 #@! TD*
G04 APERTURE END LIST*
D10*
X42800000Y-32450000D02*
X40000000Y-32450000D01*
X40000000Y-31150000D01*
X42800000Y-31150000D01*
X42800000Y-32450000D01*
G04 #@! TA.AperFunction,Conductor*
G36*
X42800000Y-32450000D02*
G01*
X40000000Y-32450000D01*
X40000000Y-31150000D01*
X42800000Y-31150000D01*
X42800000Y-32450000D01*
G37*
G04 #@! TD.AperFunction*
X48000000Y-38200000D02*
X46900000Y-38200000D01*
X46000000Y-40200000D01*
X44500000Y-40200000D01*
X44500000Y-36700000D01*
X46400000Y-33600000D01*
X48000000Y-33600000D01*
X48000000Y-38200000D01*
G04 #@! TA.AperFunction,Conductor*
G36*
X48000000Y-38200000D02*
G01*
X46900000Y-38200000D01*
X46000000Y-40200000D01*
X44500000Y-40200000D01*
X44500000Y-36700000D01*
X46400000Y-33600000D01*
X48000000Y-33600000D01*
X48000000Y-38200000D01*
G37*
G04 #@! TD.AperFunction*
X30000000Y-37600000D02*
X32000000Y-37600000D01*
X33000000Y-38580000D01*
X33605000Y-38580000D01*
X33605000Y-39120000D01*
X28800000Y-39120000D01*
X27785000Y-38370000D01*
X27790000Y-36480000D01*
X27860000Y-36351769D01*
X27860000Y-35640000D01*
X28700000Y-35640000D01*
X30000000Y-37600000D01*
G04 #@! TA.AperFunction,Conductor*
G36*
X30000000Y-37600000D02*
G01*
X32000000Y-37600000D01*
X33000000Y-38580000D01*
X33605000Y-38580000D01*
X33605000Y-39120000D01*
X28800000Y-39120000D01*
X27785000Y-38370000D01*
X27790000Y-36480000D01*
X27860000Y-36351769D01*
X27860000Y-35640000D01*
X28700000Y-35640000D01*
X30000000Y-37600000D01*
G37*
G04 #@! TD.AperFunction*
X41000000Y-24450000D02*
X40750000Y-24950000D01*
X40750000Y-28300000D01*
X40200000Y-28300000D01*
X40200000Y-26900000D01*
X39900000Y-26350000D01*
X38300000Y-26350000D01*
X38300000Y-24950000D01*
X39450000Y-23400000D01*
X41000000Y-23400000D01*
X41000000Y-24450000D01*
G04 #@! TA.AperFunction,Conductor*
G36*
X41000000Y-24450000D02*
G01*
X40750000Y-24950000D01*
X40750000Y-28300000D01*
X40200000Y-28300000D01*
X40200000Y-26900000D01*
X39900000Y-26350000D01*
X38300000Y-26350000D01*
X38300000Y-24950000D01*
X39450000Y-23400000D01*
X41000000Y-23400000D01*
X41000000Y-24450000D01*
G37*
G04 #@! TD.AperFunction*
X38600000Y-40200000D02*
X37400000Y-40200000D01*
X37000000Y-39120000D01*
X36000000Y-39120000D01*
X36000000Y-38080000D01*
X37000000Y-38080000D01*
X37400000Y-36800000D01*
X38600000Y-36800000D01*
X38600000Y-40200000D01*
G04 #@! TA.AperFunction,Conductor*
G36*
X38600000Y-40200000D02*
G01*
X37400000Y-40200000D01*
X37000000Y-39120000D01*
X36000000Y-39120000D01*
X36000000Y-38080000D01*
X37000000Y-38080000D01*
X37400000Y-36800000D01*
X38600000Y-36800000D01*
X38600000Y-40200000D01*
G37*
G04 #@! TD.AperFunction*
D11*
X57657501Y-27949400D03*
X55157501Y-27949400D03*
X53157500Y-27949400D03*
D12*
X60727500Y-25239400D03*
D11*
X50657500Y-27949400D03*
D12*
X47587501Y-25239400D03*
D13*
X41900000Y-44600000D03*
D14*
X38750000Y-25700000D03*
X36850000Y-25700000D03*
D15*
X70800000Y-34000000D03*
D13*
X29280000Y-38200000D03*
D16*
X31100000Y-36650000D03*
X31100000Y-34750000D03*
D13*
X55100000Y-36100000D03*
D17*
X16575000Y-40415000D03*
X21825000Y-40415000D03*
D18*
X26600001Y-36895001D03*
X27250000Y-36895001D03*
X26600001Y-35094999D03*
X27250000Y-35094999D03*
X27899999Y-35094999D03*
X27899999Y-36895001D03*
D19*
X27900000Y-35995000D03*
D20*
X19525000Y-34006600D03*
X19525000Y-28926600D03*
D13*
X38000000Y-27700000D03*
D21*
X37974150Y-38500000D03*
X45225850Y-38500000D03*
D13*
X64500000Y-31000000D03*
D16*
X47200000Y-34150000D03*
X47200000Y-32250000D03*
D22*
X33400000Y-33600000D03*
X33400000Y-35500000D03*
X32000000Y-38650000D03*
X32000000Y-40550000D03*
D23*
X29587500Y-32800000D03*
X31412500Y-32800000D03*
D24*
X49112500Y-36200000D03*
X47287500Y-36200000D03*
D25*
X36200000Y-33587500D03*
X36200000Y-35412500D03*
D20*
X38006600Y-48475001D03*
X32926600Y-48475001D03*
D11*
X50592500Y-40050600D03*
X53092500Y-40050600D03*
X55092501Y-40050600D03*
D12*
X47522501Y-42760600D03*
D11*
X57592501Y-40050600D03*
D12*
X60662500Y-42760600D03*
D26*
X36199999Y-39100001D03*
X36199999Y-38600002D03*
X36199999Y-38100000D03*
X36199999Y-37600001D03*
D27*
X35549998Y-36950000D03*
X35049999Y-36950000D03*
X34549997Y-36950000D03*
X34049998Y-36950000D03*
D26*
X33400000Y-37600001D03*
X33400000Y-38100000D03*
X33400000Y-38600002D03*
X33400000Y-39100001D03*
D27*
X34049998Y-39749999D03*
X34549997Y-39749999D03*
X35049999Y-39749999D03*
X35549998Y-39749999D03*
D28*
X34799997Y-38350000D03*
D29*
X34210001Y-38939998D03*
X34210001Y-37760001D03*
X35389998Y-37760001D03*
X35389998Y-38939998D03*
X34799999Y-38350000D03*
D30*
X40462500Y-29640000D03*
D31*
X41150000Y-29640000D03*
D30*
X41812500Y-29640000D03*
D32*
X41800000Y-27700000D03*
X40500000Y-27700000D03*
D13*
X44400000Y-31000000D03*
D33*
X40250000Y-25700000D03*
X42150000Y-25700000D03*
D34*
X27600000Y-41100000D03*
X27600000Y-44814400D03*
D20*
X35506600Y-19475001D03*
X30426600Y-19475001D03*
D13*
X27800000Y-31300000D03*
D35*
X40250000Y-23892200D03*
X40250000Y-21707800D03*
D14*
X40450000Y-31800000D03*
X38550000Y-31800000D03*
D13*
X32600000Y-28200000D03*
X24100000Y-40400000D03*
D25*
X42150000Y-31737500D03*
X42150000Y-33562500D03*
D33*
X49100000Y-33800000D03*
X51000000Y-33800000D03*
D36*
X72250000Y-37000000D03*
X45800000Y-29400000D03*
X54500000Y-42000000D03*
X34600000Y-42200000D03*
X53500000Y-21000000D03*
X39200000Y-28500000D03*
X64000000Y-28000000D03*
X38000000Y-41000000D03*
X31800000Y-44800000D03*
X41600000Y-20400000D03*
X52000000Y-41500000D03*
X17600000Y-32800000D03*
X45800000Y-27000000D03*
X51400000Y-17000000D03*
X26500000Y-25000000D03*
X36200000Y-40400000D03*
X34800000Y-31800000D03*
X40500000Y-34350000D03*
X39800000Y-44900000D03*
X15200000Y-39600000D03*
X23000000Y-25300000D03*
X41200000Y-42800000D03*
X42400000Y-42800000D03*
X34600000Y-21200000D03*
X73000000Y-37000000D03*
X17000000Y-34000000D03*
X45200000Y-24000000D03*
X35000000Y-45000000D03*
X34600000Y-29800000D03*
X50600000Y-37200000D03*
X17600000Y-36200000D03*
X56000000Y-41500000D03*
X40000000Y-50000000D03*
X44800000Y-46800000D03*
X27000000Y-51000000D03*
X50200000Y-32000000D03*
X26400000Y-32600000D03*
X36000000Y-26800000D03*
X26500000Y-28600000D03*
X36600000Y-28800000D03*
X55800000Y-17000000D03*
X43000000Y-48800000D03*
X25000000Y-44800000D03*
X23500000Y-43000000D03*
X21400000Y-36200000D03*
X45700000Y-43900000D03*
X30500000Y-40900000D03*
X52000000Y-43400000D03*
X33500000Y-22000000D03*
X47600000Y-39600000D03*
X46100000Y-41100000D03*
X20600000Y-38400000D03*
X24500000Y-35900000D03*
X29800000Y-30000000D03*
X36200000Y-48000000D03*
X70800000Y-28600000D03*
X34800000Y-33000000D03*
X41400000Y-46200000D03*
X43200000Y-29200000D03*
X51000000Y-31000000D03*
X52000000Y-26600000D03*
X36200000Y-17600000D03*
X57600000Y-41800000D03*
X33000000Y-51000000D03*
X39300000Y-27000000D03*
X56500000Y-28700000D03*
X28500000Y-27000000D03*
X16600000Y-38400000D03*
X59500000Y-31000000D03*
X54600000Y-26200000D03*
X45800000Y-28200000D03*
X57000000Y-33800000D03*
X38700000Y-44900000D03*
X57500000Y-51000000D03*
X33000000Y-41600000D03*
X43700000Y-42800000D03*
X38800000Y-22900000D03*
X44750000Y-51150000D03*
X38400000Y-42800000D03*
X57000000Y-38000000D03*
X44900000Y-34450000D03*
X40800000Y-19600000D03*
X45600000Y-45800000D03*
X37000000Y-41400000D03*
X22500000Y-29000000D03*
X38200000Y-35000000D03*
X22000000Y-34000000D03*
X45000000Y-16800000D03*
X15200000Y-41400000D03*
X66500000Y-35250000D03*
X44000000Y-47800000D03*
X62500000Y-35000000D03*
X36800000Y-44600000D03*
X29500000Y-35300000D03*
X45600000Y-31800000D03*
X42000000Y-49800000D03*
X26000000Y-43000000D03*
X23000000Y-38000000D03*
X26500000Y-46700000D03*
X57000000Y-32000000D03*
X18600000Y-32000000D03*
X68800000Y-31200000D03*
X43500000Y-44400000D03*
X30500000Y-22000000D03*
X45600000Y-32600000D03*
X44000000Y-20000000D03*
X34200000Y-26600000D03*
X49500000Y-21000000D03*
X59400000Y-35300000D03*
X40000000Y-46800000D03*
X42200000Y-24000000D03*
X70000000Y-39800000D03*
X51800000Y-28600000D03*
X41500000Y-16800000D03*
X37400000Y-50200000D03*
X39000000Y-34287500D03*
X50200000Y-35200000D03*
X43200000Y-27200000D03*
X23200000Y-42200000D03*
X67500000Y-32000000D03*
X38600000Y-46600000D03*
X24700000Y-46400000D03*
X56000000Y-43400000D03*
X31600000Y-24800000D03*
X38800000Y-22100000D03*
X30500000Y-17000000D03*
X35600000Y-30600000D03*
X59500000Y-37000000D03*
X56400000Y-26600000D03*
X18000000Y-41600000D03*
X31000000Y-42000000D03*
X48000000Y-44750000D03*
X20400000Y-32000000D03*
X30800000Y-26800000D03*
X57000000Y-30000000D03*
X19800000Y-39400000D03*
X51800000Y-35200000D03*
X62300000Y-30700000D03*
X28600000Y-28400000D03*
X38600000Y-50200000D03*
X32000000Y-26200000D03*
X57500000Y-46000000D03*
X32000000Y-31000000D03*
X29200000Y-47200000D03*
X26400000Y-30600000D03*
X36200000Y-49200000D03*
X34800000Y-34600000D03*
X26500000Y-22000000D03*
X19800000Y-41800000D03*
X37000000Y-18400000D03*
X53500000Y-26200000D03*
X21400000Y-32800000D03*
X32200000Y-33800000D03*
X30800000Y-45000000D03*
X21000000Y-37400000D03*
X35100000Y-26800000D03*
X26100000Y-47200000D03*
X38900000Y-29600000D03*
X42200000Y-21400000D03*
X43200000Y-30200000D03*
X34800000Y-36100000D03*
X72500000Y-42000000D03*
X67500000Y-31300000D03*
X26500000Y-17000000D03*
X34500000Y-17600000D03*
X35200000Y-24200000D03*
X65000000Y-39800000D03*
X33200000Y-42800000D03*
X27600000Y-43000000D03*
X38700000Y-21100000D03*
X66500000Y-36250000D03*
X58500000Y-38000000D03*
X49000000Y-39600000D03*
X33000000Y-29600000D03*
X37400000Y-46600000D03*
X36400000Y-24200000D03*
X62500000Y-23000000D03*
X62500000Y-51000000D03*
X42200000Y-22500000D03*
X70500000Y-37000000D03*
X66500000Y-42200000D03*
X67500000Y-37000000D03*
X17600000Y-35200000D03*
X25000000Y-44000000D03*
X37600000Y-24200000D03*
X51000000Y-30000000D03*
X65500000Y-33250000D03*
X51600000Y-38200000D03*
X62500000Y-46000000D03*
X43200000Y-28200000D03*
X38200000Y-35900000D03*
X32500000Y-36500000D03*
X16500000Y-29000000D03*
X47400000Y-51100000D03*
X57400000Y-21000000D03*
X69500000Y-37000000D03*
X30800000Y-46100000D03*
X43200000Y-24000000D03*
X21400000Y-35200000D03*
X53500000Y-42000000D03*
X51800000Y-32000000D03*
X38100000Y-30500000D03*
X40000000Y-18800000D03*
X44200000Y-26800000D03*
X37400000Y-20700000D03*
X34200000Y-27800000D03*
X44200000Y-22800000D03*
X16600000Y-42400000D03*
X65500000Y-34250000D03*
X50500000Y-46000000D03*
X36400000Y-21200000D03*
X57000000Y-36000000D03*
X31600000Y-29400000D03*
X17600000Y-37400000D03*
X45300000Y-25600000D03*
X28800000Y-46700000D03*
X33200000Y-43600000D03*
X21800000Y-42200000D03*
X20200000Y-40400000D03*
X33400000Y-19500000D03*
X50500000Y-51000000D03*
X72800000Y-30200000D03*
X30100000Y-43800000D03*
X33200000Y-26200000D03*
X29100000Y-43000000D03*
X62500000Y-37000000D03*
D10*
X38799999Y-31499999D02*
X38800000Y-31500000D01*
D37*
X35506600Y-19475001D02*
X39075001Y-19475001D01*
X40250000Y-20650000D02*
X40250000Y-21707800D01*
X39075001Y-19475001D02*
X40250000Y-20650000D01*
D38*
X42125000Y-33587500D02*
X42150000Y-33562500D01*
D39*
X37450000Y-33587500D02*
X42125000Y-33587500D01*
D10*
X41900000Y-43600000D02*
X37830001Y-43600000D01*
D39*
X42700000Y-46700000D02*
X43250000Y-46150000D01*
X44800000Y-43600000D02*
X44800000Y-44600000D01*
D38*
X35200000Y-28800000D02*
X37450000Y-31050000D01*
D39*
X42150000Y-33562500D02*
X45762500Y-33562500D01*
D10*
X44800000Y-43600000D02*
X41900000Y-43600000D01*
D38*
X37450000Y-31050000D02*
X37450000Y-33587500D01*
X33200000Y-28800000D02*
X35200000Y-28800000D01*
D10*
X37830001Y-43600000D02*
X34549997Y-40319996D01*
D39*
X44800000Y-43600000D02*
X44800000Y-40000000D01*
X36200000Y-33587500D02*
X37450000Y-33587500D01*
D38*
X32600000Y-28200000D02*
X33200000Y-28800000D01*
D10*
X34549997Y-40319996D02*
X34549997Y-39749999D01*
D39*
X38006600Y-48475001D02*
X40924999Y-48475001D01*
X44800000Y-44600000D02*
X43250000Y-46150000D01*
X40924999Y-48475001D02*
X42700000Y-46700000D01*
X45762500Y-33562500D02*
X46150000Y-33950000D01*
D10*
X41900000Y-44600000D02*
X41900000Y-43600000D01*
D38*
X29587500Y-34237500D02*
X28825002Y-34999998D01*
X29587500Y-32800000D02*
X29587500Y-34237500D01*
X27999998Y-34999998D02*
X28825002Y-34999998D01*
D10*
X29587500Y-32800000D02*
X29300000Y-32800000D01*
D38*
X29300000Y-32800000D02*
X27800000Y-31300000D01*
D40*
X19400000Y-34131600D02*
X19525000Y-34006600D01*
D41*
X19525000Y-37465000D02*
X16575000Y-40415000D01*
X19525000Y-34006600D02*
X19525000Y-37465000D01*
X53157500Y-32657500D02*
X53157500Y-31000000D01*
X53157500Y-31000000D02*
X53157500Y-27949400D01*
X55092501Y-34592501D02*
X53157500Y-32657500D01*
X55092501Y-40050600D02*
X55092501Y-34592501D01*
D10*
X33400000Y-39600000D02*
X33549999Y-39749999D01*
X31100000Y-36650000D02*
X31575000Y-36650000D01*
X33549999Y-39749999D02*
X34049998Y-39749999D01*
X31575000Y-36650000D02*
X33025000Y-38100000D01*
X31100000Y-36650000D02*
X31100000Y-37650000D01*
X33025000Y-38100000D02*
X33400000Y-38100000D01*
X33400000Y-39100001D02*
X33400000Y-39600000D01*
X33400000Y-35500000D02*
X33400000Y-37600001D01*
X36200000Y-35412500D02*
X36200000Y-37600000D01*
X40500000Y-27700000D02*
X38000000Y-27700000D01*
X42150000Y-26650000D02*
X42150000Y-25700000D01*
X41800000Y-27000000D02*
X42150000Y-26650000D01*
X41800000Y-27700000D02*
X41800000Y-27000000D01*
D38*
X44400000Y-31000000D02*
X43650000Y-31750000D01*
X40475000Y-29640000D02*
X40475000Y-31175000D01*
X43650000Y-31750000D02*
X42400000Y-31750000D01*
D10*
X40500000Y-31750000D02*
X40450000Y-31800000D01*
D38*
X41825000Y-29640000D02*
X41825000Y-31175000D01*
X40475000Y-31175000D02*
X40450000Y-31200000D01*
X41825000Y-31175000D02*
X41850000Y-31200000D01*
D37*
X57100000Y-25300000D02*
X51200000Y-25300000D01*
X50592500Y-38992500D02*
X49112500Y-37512500D01*
X57657501Y-27949400D02*
X57657501Y-25857501D01*
D39*
X49112500Y-31112500D02*
X49100000Y-31100000D01*
D37*
X49112500Y-37512500D02*
X49112500Y-36500000D01*
X57657501Y-25857501D02*
X57100000Y-25300000D01*
D38*
X61449400Y-27949400D02*
X64500000Y-31000000D01*
D37*
X50592500Y-40050600D02*
X50592500Y-38992500D01*
X49100000Y-31100000D02*
X49100000Y-27400000D01*
X49112500Y-36500000D02*
X49112500Y-31112500D01*
X51200000Y-25300000D02*
X49100000Y-27400000D01*
D38*
X57657501Y-27949400D02*
X61449400Y-27949400D01*
G04 #@! TA.AperFunction,Conductor*
G36*
X27282263Y-34801445D02*
G01*
X27301289Y-34805229D01*
X27336867Y-34812306D01*
X27363969Y-34823531D01*
X27403989Y-34850272D01*
X27424727Y-34871010D01*
X27451467Y-34911028D01*
X27462694Y-34938132D01*
X27473555Y-34992735D01*
X27475000Y-35007406D01*
X27475000Y-38500000D01*
X28689583Y-39600000D01*
X28728418Y-39635171D01*
X28738871Y-39646840D01*
X28773492Y-39694709D01*
X28786127Y-39723197D01*
X28798368Y-39780992D01*
X28800000Y-39796574D01*
X28800000Y-41992593D01*
X28798555Y-42007264D01*
X28787694Y-42061867D01*
X28776466Y-42088973D01*
X28749731Y-42128985D01*
X28728986Y-42149729D01*
X28688973Y-42176466D01*
X28661867Y-42187694D01*
X28607265Y-42198555D01*
X28592594Y-42200000D01*
X26407406Y-42200000D01*
X26392735Y-42198555D01*
X26338131Y-42187693D01*
X26311028Y-42176467D01*
X26271010Y-42149727D01*
X26250272Y-42128989D01*
X26223531Y-42088969D01*
X26212306Y-42061867D01*
X26201445Y-42007264D01*
X26201445Y-42007262D01*
X26200000Y-41992593D01*
X26200000Y-41599999D01*
X26200000Y-41400000D01*
X26000001Y-41400000D01*
X21057406Y-41400000D01*
X21042735Y-41398555D01*
X20988131Y-41387693D01*
X20961028Y-41376467D01*
X20921010Y-41349727D01*
X20900272Y-41328989D01*
X20873531Y-41288969D01*
X20862306Y-41261867D01*
X20856507Y-41232717D01*
X20851445Y-41207262D01*
X20850000Y-41192593D01*
X20850000Y-39607406D01*
X20851445Y-39592737D01*
X20854545Y-39577148D01*
X20862306Y-39538130D01*
X20873530Y-39511032D01*
X20900274Y-39471007D01*
X20921007Y-39450274D01*
X20961032Y-39423530D01*
X20988130Y-39412306D01*
X21027148Y-39404545D01*
X21042737Y-39401445D01*
X21057406Y-39400000D01*
X24679996Y-39400000D01*
X24680000Y-39400000D01*
X24800000Y-39400000D01*
X24856469Y-39294119D01*
X24856471Y-39294118D01*
X25576471Y-37944118D01*
X25576472Y-37944113D01*
X25600000Y-37900000D01*
X25600000Y-35466093D01*
X25600811Y-35455078D01*
X25606951Y-35413611D01*
X25613335Y-35392528D01*
X25631227Y-35354621D01*
X25636658Y-35345012D01*
X25935477Y-34896783D01*
X25947496Y-34882823D01*
X25998703Y-34836339D01*
X26030954Y-34819078D01*
X26098032Y-34802257D01*
X26116323Y-34800000D01*
X27267594Y-34800000D01*
X27282263Y-34801445D01*
G37*
G04 #@! TD.AperFunction*
G04 #@! TA.AperFunction,Conductor*
G36*
X35899500Y-37170653D02*
G01*
X35792324Y-37310806D01*
X35755446Y-37335448D01*
X35711131Y-37401770D01*
X35711130Y-37401771D01*
X35707040Y-37422331D01*
X35640000Y-37510000D01*
X33960000Y-37510000D01*
X33893301Y-37424061D01*
X33888868Y-37401771D01*
X33888867Y-37401770D01*
X33844552Y-37335448D01*
X33802955Y-37307654D01*
X33700500Y-37175644D01*
X33700500Y-36449994D01*
X35899500Y-36425005D01*
X35899500Y-37170653D01*
G37*
G04 #@! TD.AperFunction*
G04 #@! TA.AperFunction,Conductor*
G36*
X35701918Y-39251918D02*
G01*
X35711130Y-39298230D01*
X35711131Y-39298231D01*
X35755446Y-39364553D01*
X35821768Y-39408868D01*
X35821769Y-39408869D01*
X35868080Y-39418080D01*
X35880000Y-39430000D01*
X35875000Y-40200000D01*
X34925000Y-40240000D01*
X34925000Y-39175000D01*
X35625000Y-39175000D01*
X35701918Y-39251918D01*
G37*
G04 #@! TD.AperFunction*
G04 #@! TA.AperFunction,Conductor*
G36*
X35980104Y-39421781D02*
G01*
X35983026Y-39422327D01*
X36000000Y-39425500D01*
X36735028Y-39425500D01*
X36783366Y-39443093D01*
X36805545Y-39474580D01*
X37111257Y-40300000D01*
X37113524Y-40306120D01*
X37126528Y-40336174D01*
X37126530Y-40336176D01*
X37194185Y-40425766D01*
X37194184Y-40425766D01*
X37289638Y-40484869D01*
X37289639Y-40484869D01*
X37289641Y-40484870D01*
X37400000Y-40505500D01*
X37400004Y-40505500D01*
X38578400Y-40505500D01*
X38626738Y-40523093D01*
X38652458Y-40567642D01*
X38653600Y-40580700D01*
X38653600Y-42246500D01*
X44324300Y-42246500D01*
X44372638Y-42264093D01*
X44398358Y-42308642D01*
X44399500Y-42321700D01*
X44399500Y-43224300D01*
X44381907Y-43272638D01*
X44337358Y-43298358D01*
X44324300Y-43299500D01*
X37985620Y-43299500D01*
X37937282Y-43281907D01*
X37932446Y-43277474D01*
X34946859Y-40291887D01*
X34925119Y-40245267D01*
X34926547Y-40239934D01*
X35875000Y-40200000D01*
X35880000Y-39430000D01*
X35876363Y-39426363D01*
X35884540Y-39421643D01*
X35897598Y-39420501D01*
X35966288Y-39420501D01*
X35980104Y-39421781D01*
G37*
G04 #@! TD.AperFunction*
G04 #@! TA.AperFunction,Conductor*
G36*
X34683904Y-37533303D02*
G01*
X34705643Y-37579923D01*
X34692329Y-37629610D01*
X34683903Y-37639651D01*
X34563554Y-37760000D01*
X34701547Y-37897993D01*
X34701548Y-37897995D01*
X34799999Y-37996446D01*
X34973523Y-37822922D01*
X35036444Y-37760000D01*
X35006608Y-37730164D01*
X35239998Y-37730164D01*
X35239998Y-37789838D01*
X35262834Y-37844969D01*
X35305030Y-37887165D01*
X35360161Y-37910001D01*
X35419835Y-37910001D01*
X35474966Y-37887165D01*
X35517162Y-37844969D01*
X35539998Y-37789838D01*
X35539998Y-37730164D01*
X35517162Y-37675033D01*
X35474966Y-37632837D01*
X35419835Y-37610001D01*
X35360161Y-37610001D01*
X35305030Y-37632837D01*
X35262834Y-37675033D01*
X35239998Y-37730164D01*
X35006608Y-37730164D01*
X34916095Y-37639652D01*
X34894355Y-37593031D01*
X34907669Y-37543344D01*
X34916094Y-37533303D01*
X34939396Y-37510000D01*
X35493550Y-37510000D01*
X35677872Y-37694322D01*
X35697742Y-37736334D01*
X35698779Y-37736128D01*
X35702326Y-37753964D01*
X35694498Y-37804805D01*
X35681745Y-37821806D01*
X35216475Y-38287078D01*
X35216474Y-38287079D01*
X35153552Y-38350000D01*
X35227050Y-38423497D01*
X35672474Y-38868921D01*
X35694214Y-38915541D01*
X35694500Y-38922095D01*
X35694500Y-38957901D01*
X35676907Y-39006239D01*
X35672474Y-39011075D01*
X35508549Y-39175000D01*
X34925000Y-39175000D01*
X34925000Y-39175601D01*
X34916094Y-39166695D01*
X34894355Y-39120075D01*
X34907669Y-39070388D01*
X34916095Y-39060346D01*
X35036444Y-38939997D01*
X35006608Y-38910161D01*
X35239998Y-38910161D01*
X35239998Y-38969835D01*
X35262834Y-39024966D01*
X35305030Y-39067162D01*
X35360161Y-39089998D01*
X35419835Y-39089998D01*
X35474966Y-39067162D01*
X35517162Y-39024966D01*
X35539998Y-38969835D01*
X35539998Y-38910161D01*
X35517162Y-38855030D01*
X35474966Y-38812834D01*
X35419835Y-38789998D01*
X35360161Y-38789998D01*
X35305030Y-38812834D01*
X35262834Y-38855030D01*
X35239998Y-38910161D01*
X35006608Y-38910161D01*
X34938002Y-38841556D01*
X34937991Y-38841546D01*
X34799999Y-38703553D01*
X34626476Y-38877077D01*
X34626475Y-38877078D01*
X34271805Y-39231746D01*
X34225185Y-39253485D01*
X34203961Y-39252326D01*
X34186123Y-39248778D01*
X34186329Y-39247742D01*
X34144322Y-39227872D01*
X33932526Y-39016076D01*
X33910786Y-38969456D01*
X33910500Y-38962902D01*
X33910500Y-38917094D01*
X33913023Y-38910161D01*
X34060001Y-38910161D01*
X34060001Y-38969835D01*
X34082837Y-39024966D01*
X34125033Y-39067162D01*
X34180164Y-39089998D01*
X34239838Y-39089998D01*
X34294969Y-39067162D01*
X34337165Y-39024966D01*
X34360001Y-38969835D01*
X34360001Y-38910161D01*
X34337165Y-38855030D01*
X34294969Y-38812834D01*
X34239838Y-38789998D01*
X34180164Y-38789998D01*
X34125033Y-38812834D01*
X34082837Y-38855030D01*
X34060001Y-38910161D01*
X33913023Y-38910161D01*
X33928093Y-38868756D01*
X33932526Y-38863920D01*
X34383525Y-38412921D01*
X34383525Y-38412920D01*
X34446445Y-38349999D01*
X34416609Y-38320163D01*
X34649999Y-38320163D01*
X34649999Y-38379837D01*
X34672835Y-38434968D01*
X34715031Y-38477164D01*
X34770162Y-38500000D01*
X34829836Y-38500000D01*
X34884967Y-38477164D01*
X34927163Y-38434968D01*
X34949999Y-38379837D01*
X34949999Y-38320163D01*
X34927163Y-38265032D01*
X34884967Y-38222836D01*
X34829836Y-38200000D01*
X34770162Y-38200000D01*
X34715031Y-38222836D01*
X34672835Y-38265032D01*
X34649999Y-38320163D01*
X34416609Y-38320163D01*
X34283499Y-38187054D01*
X34283497Y-38187050D01*
X33918253Y-37821806D01*
X33896513Y-37775186D01*
X33897672Y-37753963D01*
X33900500Y-37739749D01*
X33901222Y-37736121D01*
X33902266Y-37736328D01*
X33905180Y-37730164D01*
X34060001Y-37730164D01*
X34060001Y-37789838D01*
X34082837Y-37844969D01*
X34125033Y-37887165D01*
X34180164Y-37910001D01*
X34239838Y-37910001D01*
X34294969Y-37887165D01*
X34337165Y-37844969D01*
X34360001Y-37789838D01*
X34360001Y-37730164D01*
X34337165Y-37675033D01*
X34294969Y-37632837D01*
X34239838Y-37610001D01*
X34180164Y-37610001D01*
X34125033Y-37632837D01*
X34082837Y-37675033D01*
X34060001Y-37730164D01*
X33905180Y-37730164D01*
X33922126Y-37694321D01*
X34106448Y-37510000D01*
X34660601Y-37510000D01*
X34683904Y-37533303D01*
G37*
G04 #@! TD.AperFunction*
G04 #@! TA.AperFunction,Conductor*
G36*
X72002684Y-14500692D02*
G01*
X72208039Y-14515379D01*
X72218640Y-14516902D01*
X72417213Y-14560099D01*
X72427488Y-14563116D01*
X72564283Y-14614138D01*
X72617877Y-14634128D01*
X72627636Y-14638585D01*
X72805968Y-14735961D01*
X72814995Y-14741762D01*
X72977664Y-14863535D01*
X72985772Y-14870562D01*
X73129437Y-15014227D01*
X73136464Y-15022335D01*
X73258237Y-15185004D01*
X73264038Y-15194031D01*
X73361414Y-15372363D01*
X73365871Y-15382122D01*
X73436882Y-15572508D01*
X73439902Y-15582795D01*
X73483094Y-15781343D01*
X73484620Y-15791963D01*
X73499308Y-15997315D01*
X73499500Y-16002680D01*
X73499500Y-51997319D01*
X73499308Y-52002684D01*
X73484620Y-52208036D01*
X73483094Y-52218656D01*
X73439905Y-52417196D01*
X73436882Y-52427491D01*
X73365871Y-52617877D01*
X73361414Y-52627636D01*
X73264038Y-52805968D01*
X73258237Y-52814995D01*
X73136464Y-52977664D01*
X73129437Y-52985772D01*
X72985772Y-53129437D01*
X72977664Y-53136464D01*
X72814995Y-53258237D01*
X72805968Y-53264038D01*
X72627636Y-53361414D01*
X72617877Y-53365871D01*
X72427491Y-53436882D01*
X72417200Y-53439903D01*
X72218654Y-53483094D01*
X72208036Y-53484620D01*
X72002684Y-53499308D01*
X71997319Y-53499500D01*
X16002681Y-53499500D01*
X15997316Y-53499308D01*
X15791963Y-53484620D01*
X15781347Y-53483094D01*
X15582795Y-53439902D01*
X15572508Y-53436882D01*
X15382122Y-53365871D01*
X15372363Y-53361414D01*
X15194031Y-53264038D01*
X15185004Y-53258237D01*
X15022335Y-53136464D01*
X15014227Y-53129437D01*
X14870562Y-52985772D01*
X14863535Y-52977664D01*
X14741762Y-52814995D01*
X14735961Y-52805968D01*
X14638585Y-52627636D01*
X14634128Y-52617877D01*
X14563117Y-52427491D01*
X14560099Y-52417213D01*
X14516902Y-52218640D01*
X14515379Y-52208036D01*
X14500692Y-52002684D01*
X14500500Y-51997319D01*
X14500500Y-48000000D01*
X16494696Y-48000000D01*
X16513897Y-48366403D01*
X16571293Y-48728786D01*
X16571294Y-48728788D01*
X16571295Y-48728794D01*
X16659430Y-49057716D01*
X16666260Y-49083206D01*
X16797741Y-49425730D01*
X16797742Y-49425731D01*
X16964317Y-49752651D01*
X17164149Y-50060366D01*
X17164155Y-50060375D01*
X17395047Y-50345501D01*
X17395064Y-50345520D01*
X17654479Y-50604935D01*
X17654488Y-50604943D01*
X17654494Y-50604949D01*
X17654498Y-50604952D01*
X17939624Y-50835844D01*
X17939631Y-50835849D01*
X17939634Y-50835851D01*
X18247348Y-51035682D01*
X18574268Y-51202257D01*
X18574269Y-51202258D01*
X18916793Y-51333739D01*
X18916801Y-51333742D01*
X19271206Y-51428705D01*
X19633596Y-51486102D01*
X20000000Y-51505304D01*
X20366404Y-51486102D01*
X20728794Y-51428705D01*
X21083199Y-51333742D01*
X21189364Y-51292989D01*
X21425730Y-51202258D01*
X21425731Y-51202257D01*
X21425731Y-51202256D01*
X21425736Y-51202255D01*
X21752652Y-51035682D01*
X22060366Y-50835851D01*
X22345506Y-50604949D01*
X22604949Y-50345506D01*
X22835851Y-50060366D01*
X23035682Y-49752652D01*
X23202255Y-49425736D01*
X23202257Y-49425731D01*
X23202258Y-49425730D01*
X23292989Y-49189364D01*
X23333742Y-49083199D01*
X23428705Y-48728794D01*
X23468902Y-48475001D01*
X31867400Y-48475001D01*
X31887751Y-48681637D01*
X31948027Y-48880340D01*
X32024547Y-49023499D01*
X32327318Y-48720728D01*
X32352616Y-48781802D01*
X32423499Y-48887886D01*
X32513715Y-48978102D01*
X32619799Y-49048985D01*
X32680870Y-49074281D01*
X32378100Y-49377052D01*
X32521261Y-49453573D01*
X32719965Y-49513849D01*
X32719961Y-49513849D01*
X32926600Y-49534200D01*
X33133236Y-49513849D01*
X33331943Y-49453571D01*
X33475097Y-49377053D01*
X33475098Y-49377052D01*
X33172328Y-49074282D01*
X33233401Y-49048985D01*
X33339485Y-48978102D01*
X33429701Y-48887886D01*
X33500584Y-48781802D01*
X33525881Y-48720729D01*
X33828651Y-49023499D01*
X33828652Y-49023498D01*
X33905170Y-48880344D01*
X33965448Y-48681637D01*
X33985799Y-48475001D01*
X33965448Y-48268364D01*
X33905172Y-48069662D01*
X33828651Y-47926501D01*
X33525880Y-48229271D01*
X33500584Y-48168200D01*
X33429701Y-48062116D01*
X33339485Y-47971900D01*
X33233401Y-47901017D01*
X33172327Y-47875719D01*
X33475098Y-47572948D01*
X33331939Y-47496428D01*
X33133234Y-47436152D01*
X33133238Y-47436152D01*
X32926600Y-47415801D01*
X32719963Y-47436152D01*
X32521260Y-47496428D01*
X32378100Y-47572948D01*
X32680871Y-47875719D01*
X32619799Y-47901017D01*
X32513715Y-47971900D01*
X32423499Y-48062116D01*
X32352616Y-48168200D01*
X32327318Y-48229272D01*
X32024547Y-47926501D01*
X31948027Y-48069661D01*
X31887751Y-48268364D01*
X31867400Y-48475001D01*
X23468902Y-48475001D01*
X23486102Y-48366404D01*
X23505304Y-48000000D01*
X23486102Y-47633596D01*
X23428705Y-47271206D01*
X23333742Y-46916801D01*
X23333739Y-46916793D01*
X23202258Y-46574269D01*
X23202257Y-46574268D01*
X23035682Y-46247348D01*
X22851716Y-45964064D01*
X22835851Y-45939634D01*
X22835849Y-45939631D01*
X22835844Y-45939624D01*
X22819638Y-45919612D01*
X26342600Y-45919612D01*
X26351441Y-45964062D01*
X26351442Y-45964064D01*
X26385126Y-46014473D01*
X26435535Y-46048157D01*
X26435537Y-46048158D01*
X26479987Y-46057000D01*
X27350000Y-46057000D01*
X27850000Y-46057000D01*
X28720013Y-46057000D01*
X28764462Y-46048158D01*
X28764464Y-46048157D01*
X28814873Y-46014473D01*
X28848557Y-45964064D01*
X28848558Y-45964062D01*
X28857400Y-45919612D01*
X28857400Y-45064400D01*
X27850000Y-45064400D01*
X27850000Y-46057000D01*
X27350000Y-46057000D01*
X27350000Y-45064400D01*
X26342600Y-45064400D01*
X26342600Y-45919612D01*
X22819638Y-45919612D01*
X22604952Y-45654498D01*
X22604949Y-45654494D01*
X22604943Y-45654488D01*
X22604935Y-45654479D01*
X22345520Y-45395064D01*
X22345510Y-45395055D01*
X22345506Y-45395051D01*
X22335067Y-45386598D01*
X22060375Y-45164155D01*
X22060366Y-45164149D01*
X21752651Y-44964317D01*
X21425731Y-44797742D01*
X21425730Y-44797741D01*
X21083206Y-44666260D01*
X21083199Y-44666258D01*
X20728794Y-44571295D01*
X20728788Y-44571294D01*
X20728786Y-44571293D01*
X20366403Y-44513897D01*
X20000000Y-44494696D01*
X19633596Y-44513897D01*
X19271213Y-44571293D01*
X19271211Y-44571294D01*
X19271209Y-44571294D01*
X19271206Y-44571295D01*
X19022089Y-44638045D01*
X18916793Y-44666260D01*
X18574269Y-44797741D01*
X18574268Y-44797742D01*
X18247348Y-44964317D01*
X17939633Y-45164149D01*
X17939624Y-45164155D01*
X17654498Y-45395047D01*
X17654479Y-45395064D01*
X17395064Y-45654479D01*
X17395047Y-45654498D01*
X17164155Y-45939624D01*
X17164149Y-45939633D01*
X16964317Y-46247348D01*
X16797742Y-46574268D01*
X16797741Y-46574269D01*
X16666260Y-46916793D01*
X16571294Y-47271211D01*
X16571293Y-47271213D01*
X16513897Y-47633596D01*
X16494696Y-48000000D01*
X14500500Y-48000000D01*
X14500500Y-43709187D01*
X26342600Y-43709187D01*
X26342600Y-44564400D01*
X27350000Y-44564400D01*
X27850000Y-44564400D01*
X28857400Y-44564400D01*
X28857400Y-43709187D01*
X28848558Y-43664737D01*
X28848557Y-43664735D01*
X28814873Y-43614326D01*
X28764464Y-43580642D01*
X28764462Y-43580641D01*
X28720013Y-43571800D01*
X27850000Y-43571800D01*
X27850000Y-44564400D01*
X27350000Y-44564400D01*
X27350000Y-43571800D01*
X26479987Y-43571800D01*
X26435537Y-43580641D01*
X26435535Y-43580642D01*
X26385126Y-43614326D01*
X26351442Y-43664735D01*
X26351441Y-43664737D01*
X26342600Y-43709187D01*
X14500500Y-43709187D01*
X14500500Y-40414999D01*
X15689650Y-40414999D01*
X15694088Y-40457224D01*
X15694500Y-40465085D01*
X15694500Y-40501724D01*
X15702870Y-40543804D01*
X15703903Y-40550613D01*
X15708997Y-40599075D01*
X15720178Y-40633490D01*
X15722413Y-40642053D01*
X15728338Y-40671835D01*
X15747156Y-40717267D01*
X15749199Y-40722805D01*
X15766193Y-40775105D01*
X15781144Y-40801002D01*
X15785494Y-40809822D01*
X15794710Y-40832072D01*
X15825510Y-40878168D01*
X15828108Y-40882346D01*
X15858732Y-40935389D01*
X15858734Y-40935392D01*
X15858737Y-40935396D01*
X15874539Y-40952946D01*
X15874541Y-40952948D01*
X15881180Y-40961484D01*
X15891071Y-40976286D01*
X15891076Y-40976291D01*
X15934688Y-41019903D01*
X15937381Y-41022739D01*
X15982585Y-41072943D01*
X15996599Y-41083125D01*
X15996604Y-41083128D01*
X16005577Y-41090793D01*
X16013707Y-41098923D01*
X16013711Y-41098926D01*
X16013714Y-41098929D01*
X16038668Y-41115603D01*
X16070216Y-41136683D01*
X16072629Y-41138364D01*
X16132325Y-41181736D01*
X16142403Y-41186222D01*
X16153591Y-41192392D01*
X16157927Y-41195289D01*
X16226485Y-41223686D01*
X16228248Y-41224443D01*
X16301412Y-41257018D01*
X16306033Y-41258000D01*
X16314610Y-41260663D01*
X16314633Y-41260590D01*
X16318162Y-41261660D01*
X16318168Y-41261663D01*
X16397123Y-41277368D01*
X16397984Y-41277544D01*
X16482456Y-41295500D01*
X16482458Y-41295500D01*
X16667542Y-41295500D01*
X16667544Y-41295500D01*
X16752041Y-41277539D01*
X16752873Y-41277368D01*
X16831832Y-41261663D01*
X16831835Y-41261661D01*
X16835370Y-41260590D01*
X16835392Y-41260663D01*
X16843969Y-41258000D01*
X16846005Y-41257566D01*
X16848588Y-41257018D01*
X16921791Y-41224424D01*
X16923402Y-41223732D01*
X16992073Y-41195289D01*
X16996393Y-41192402D01*
X17007595Y-41186222D01*
X17017675Y-41181736D01*
X17077389Y-41138349D01*
X17079755Y-41136700D01*
X17136286Y-41098929D01*
X17144422Y-41090792D01*
X17153394Y-41083129D01*
X17167415Y-41072943D01*
X17212610Y-41022747D01*
X17215282Y-41019931D01*
X17258929Y-40976286D01*
X17268820Y-40961481D01*
X17275449Y-40952957D01*
X17291263Y-40935396D01*
X17321904Y-40882322D01*
X17324474Y-40878189D01*
X17355289Y-40832073D01*
X17364507Y-40809817D01*
X17368855Y-40801001D01*
X17369433Y-40800000D01*
X17383807Y-40775104D01*
X17400802Y-40722798D01*
X17402841Y-40717273D01*
X17421661Y-40671838D01*
X17421661Y-40671836D01*
X17421663Y-40671832D01*
X17427589Y-40642037D01*
X17429815Y-40633503D01*
X17441003Y-40599075D01*
X17445197Y-40559158D01*
X17466810Y-40513845D01*
X18373283Y-39607373D01*
X20644500Y-39607373D01*
X20644500Y-41192625D01*
X20645488Y-41212708D01*
X20645490Y-41212739D01*
X20646935Y-41227408D01*
X20646939Y-41227440D01*
X20646940Y-41227442D01*
X20649888Y-41247321D01*
X20649891Y-41247338D01*
X20649892Y-41247343D01*
X20654954Y-41272798D01*
X20654957Y-41272813D01*
X20660756Y-41301963D01*
X20672446Y-41340502D01*
X20672448Y-41340508D01*
X20683668Y-41367598D01*
X20683670Y-41367602D01*
X20683671Y-41367604D01*
X20702665Y-41403140D01*
X20729406Y-41443160D01*
X20729409Y-41443164D01*
X20729410Y-41443165D01*
X20754961Y-41474299D01*
X20775699Y-41495037D01*
X20806837Y-41520591D01*
X20806849Y-41520600D01*
X20846847Y-41547327D01*
X20846856Y-41547333D01*
X20882385Y-41566324D01*
X20893130Y-41570774D01*
X20909492Y-41577551D01*
X20948038Y-41589244D01*
X21002642Y-41600106D01*
X21002661Y-41600108D01*
X21002668Y-41600110D01*
X21007024Y-41600756D01*
X21022592Y-41603065D01*
X21037263Y-41604510D01*
X21049029Y-41605088D01*
X21057375Y-41605499D01*
X21057397Y-41605499D01*
X21057406Y-41605500D01*
X25919300Y-41605500D01*
X25967638Y-41623093D01*
X25993358Y-41667642D01*
X25994500Y-41680700D01*
X25994500Y-41992625D01*
X25995488Y-42012708D01*
X25995490Y-42012741D01*
X25999134Y-42049733D01*
X26000978Y-42052809D01*
X26010753Y-42101956D01*
X26022444Y-42140497D01*
X26022448Y-42140508D01*
X26033668Y-42167598D01*
X26033670Y-42167602D01*
X26033671Y-42167604D01*
X26052665Y-42203140D01*
X26079406Y-42243160D01*
X26079409Y-42243164D01*
X26079410Y-42243165D01*
X26104961Y-42274299D01*
X26125699Y-42295037D01*
X26156837Y-42320591D01*
X26156849Y-42320600D01*
X26196847Y-42347327D01*
X26196856Y-42347333D01*
X26232385Y-42366324D01*
X26243130Y-42370774D01*
X26259492Y-42377551D01*
X26298038Y-42389244D01*
X26352642Y-42400106D01*
X26352661Y-42400108D01*
X26352668Y-42400110D01*
X26357024Y-42400756D01*
X26372592Y-42403065D01*
X26387263Y-42404510D01*
X26399029Y-42405088D01*
X26407375Y-42405499D01*
X26407397Y-42405499D01*
X26407406Y-42405500D01*
X26407414Y-42405500D01*
X28592586Y-42405500D01*
X28592594Y-42405500D01*
X28592603Y-42405499D01*
X28592624Y-42405499D01*
X28600186Y-42405126D01*
X28612737Y-42404510D01*
X28627408Y-42403065D01*
X28647356Y-42400106D01*
X28687379Y-42392145D01*
X28702050Y-42390700D01*
X28724749Y-42390700D01*
X28744242Y-42386822D01*
X28783231Y-42379067D01*
X28849552Y-42334752D01*
X28875578Y-42295800D01*
X28884929Y-42284405D01*
X28895038Y-42274299D01*
X28920598Y-42243154D01*
X28947333Y-42203142D01*
X28966322Y-42167616D01*
X28977550Y-42140510D01*
X28977553Y-42140502D01*
X28978887Y-42136101D01*
X28989246Y-42101957D01*
X29000107Y-42047354D01*
X29003065Y-42027407D01*
X29004510Y-42012736D01*
X29005126Y-42000185D01*
X29005499Y-41992623D01*
X29005500Y-41992585D01*
X29005500Y-40831671D01*
X31122600Y-40831671D01*
X31137524Y-40925899D01*
X31195394Y-41039474D01*
X31285525Y-41129605D01*
X31399101Y-41187475D01*
X31399099Y-41187475D01*
X31493328Y-41202399D01*
X31493336Y-41202400D01*
X31750000Y-41202400D01*
X32250000Y-41202400D01*
X32506664Y-41202400D01*
X32506671Y-41202399D01*
X32600899Y-41187475D01*
X32714474Y-41129605D01*
X32804605Y-41039474D01*
X32862475Y-40925899D01*
X32877399Y-40831671D01*
X32877400Y-40831664D01*
X32877400Y-40800000D01*
X32250000Y-40800000D01*
X32250000Y-41202400D01*
X31750000Y-41202400D01*
X31750000Y-40800000D01*
X31122600Y-40800000D01*
X31122600Y-40831671D01*
X29005500Y-40831671D01*
X29005500Y-40268328D01*
X31122600Y-40268328D01*
X31122600Y-40300000D01*
X31750000Y-40300000D01*
X32250000Y-40300000D01*
X32877400Y-40300000D01*
X32877400Y-40268336D01*
X32877399Y-40268328D01*
X32862475Y-40174100D01*
X32804605Y-40060525D01*
X32714474Y-39970394D01*
X32600898Y-39912524D01*
X32600900Y-39912524D01*
X32506671Y-39897600D01*
X32250000Y-39897600D01*
X32250000Y-40300000D01*
X31750000Y-40300000D01*
X31750000Y-39897600D01*
X31493328Y-39897600D01*
X31399100Y-39912524D01*
X31285525Y-39970394D01*
X31195394Y-40060525D01*
X31137524Y-40174100D01*
X31122600Y-40268328D01*
X29005500Y-40268328D01*
X29005500Y-39796585D01*
X29005500Y-39796574D01*
X29004382Y-39775168D01*
X29002750Y-39759586D01*
X28999408Y-39738412D01*
X28987167Y-39680617D01*
X28973980Y-39639881D01*
X28971687Y-39634712D01*
X28961346Y-39611395D01*
X28959053Y-39607406D01*
X28940006Y-39574279D01*
X28918662Y-39544768D01*
X28904592Y-39495292D01*
X28925616Y-39448345D01*
X28971898Y-39425895D01*
X28979597Y-39425500D01*
X33024300Y-39425500D01*
X33072638Y-39443093D01*
X33098358Y-39487642D01*
X33099500Y-39500700D01*
X33099500Y-39639562D01*
X33114903Y-39697046D01*
X33119979Y-39715989D01*
X33119979Y-39715991D01*
X33127657Y-39729287D01*
X33128687Y-39731071D01*
X33151089Y-39769873D01*
X33159541Y-39784512D01*
X33159543Y-39784515D01*
X33365487Y-39990459D01*
X33365486Y-39990459D01*
X33434003Y-40030017D01*
X33434006Y-40030018D01*
X33434011Y-40030021D01*
X33510437Y-40050499D01*
X33663954Y-40050499D01*
X33712292Y-40068092D01*
X33737709Y-40111027D01*
X33741130Y-40128228D01*
X33741131Y-40128230D01*
X33785446Y-40194551D01*
X33851767Y-40238866D01*
X33863466Y-40241193D01*
X33910249Y-40250499D01*
X34174297Y-40250499D01*
X34222635Y-40268092D01*
X34248355Y-40312641D01*
X34249497Y-40325699D01*
X34249497Y-40359558D01*
X34267238Y-40425766D01*
X34269976Y-40435984D01*
X34269976Y-40435986D01*
X34289845Y-40470399D01*
X34289845Y-40470400D01*
X34309533Y-40504502D01*
X34309540Y-40504511D01*
X37589541Y-43784511D01*
X37645490Y-43840460D01*
X37714012Y-43880021D01*
X37790439Y-43900500D01*
X37869563Y-43900500D01*
X41434921Y-43900500D01*
X41483259Y-43918093D01*
X41508979Y-43962642D01*
X41500046Y-44013300D01*
X41484788Y-44031988D01*
X41371821Y-44132066D01*
X41371816Y-44132072D01*
X41275182Y-44272069D01*
X41275181Y-44272072D01*
X41214861Y-44431124D01*
X41214860Y-44431126D01*
X41214860Y-44431128D01*
X41194355Y-44600000D01*
X41214860Y-44768872D01*
X41275182Y-44927930D01*
X41371817Y-45067929D01*
X41371820Y-45067932D01*
X41371825Y-45067937D01*
X41499144Y-45180731D01*
X41499146Y-45180732D01*
X41499148Y-45180734D01*
X41649775Y-45259790D01*
X41814944Y-45300500D01*
X41814946Y-45300500D01*
X41985054Y-45300500D01*
X41985056Y-45300500D01*
X42150225Y-45259790D01*
X42300852Y-45180734D01*
X42428183Y-45067929D01*
X42524818Y-44927930D01*
X42585140Y-44768872D01*
X42605645Y-44600000D01*
X42585140Y-44431128D01*
X42524818Y-44272070D01*
X42428183Y-44132071D01*
X42428179Y-44132068D01*
X42428178Y-44132066D01*
X42315212Y-44031988D01*
X42290698Y-43986766D01*
X42300987Y-43936365D01*
X42341265Y-43904370D01*
X42365079Y-43900500D01*
X44324300Y-43900500D01*
X44372638Y-43918093D01*
X44398358Y-43962642D01*
X44399500Y-43975700D01*
X44399500Y-44402959D01*
X44381907Y-44451297D01*
X44377474Y-44456133D01*
X40781132Y-48052475D01*
X40734512Y-48074215D01*
X40727958Y-48074501D01*
X39085020Y-48074501D01*
X39036682Y-48056908D01*
X39017704Y-48032820D01*
X38947726Y-47892285D01*
X38824628Y-47729275D01*
X38824625Y-47729272D01*
X38673672Y-47591659D01*
X38500001Y-47484126D01*
X38309525Y-47410335D01*
X38276059Y-47404079D01*
X38108734Y-47372801D01*
X37904466Y-47372801D01*
X37770606Y-47397823D01*
X37703674Y-47410335D01*
X37513199Y-47484126D01*
X37513198Y-47484126D01*
X37339527Y-47591659D01*
X37188574Y-47729272D01*
X37188571Y-47729275D01*
X37065473Y-47892285D01*
X36974426Y-48075133D01*
X36974424Y-48075136D01*
X36918525Y-48271600D01*
X36899678Y-48474998D01*
X36899678Y-48475003D01*
X36918525Y-48678401D01*
X36974424Y-48874865D01*
X36974426Y-48874868D01*
X37065473Y-49057716D01*
X37188571Y-49220726D01*
X37188574Y-49220729D01*
X37339527Y-49358342D01*
X37339529Y-49358343D01*
X37339530Y-49358344D01*
X37369746Y-49377053D01*
X37513198Y-49465875D01*
X37513200Y-49465875D01*
X37513202Y-49465877D01*
X37703676Y-49539667D01*
X37904466Y-49577201D01*
X37904471Y-49577201D01*
X38108729Y-49577201D01*
X38108734Y-49577201D01*
X38309524Y-49539667D01*
X38499998Y-49465877D01*
X38673670Y-49358344D01*
X38824625Y-49220730D01*
X38947724Y-49057720D01*
X38947726Y-49057716D01*
X39017704Y-48917182D01*
X39054998Y-48881754D01*
X39085020Y-48875501D01*
X40977724Y-48875501D01*
X40977726Y-48875501D01*
X41079587Y-48848208D01*
X41170912Y-48795481D01*
X41966393Y-48000000D01*
X64494696Y-48000000D01*
X64513897Y-48366403D01*
X64571293Y-48728786D01*
X64571294Y-48728788D01*
X64571295Y-48728794D01*
X64659430Y-49057716D01*
X64666260Y-49083206D01*
X64797741Y-49425730D01*
X64797742Y-49425731D01*
X64964317Y-49752651D01*
X65164149Y-50060366D01*
X65164155Y-50060375D01*
X65395047Y-50345501D01*
X65395064Y-50345520D01*
X65654479Y-50604935D01*
X65654488Y-50604943D01*
X65654494Y-50604949D01*
X65654498Y-50604952D01*
X65939624Y-50835844D01*
X65939631Y-50835849D01*
X65939634Y-50835851D01*
X66247348Y-51035682D01*
X66574268Y-51202257D01*
X66574269Y-51202258D01*
X66916793Y-51333739D01*
X66916801Y-51333742D01*
X67271206Y-51428705D01*
X67633596Y-51486102D01*
X68000000Y-51505304D01*
X68366404Y-51486102D01*
X68728794Y-51428705D01*
X69083199Y-51333742D01*
X69189364Y-51292989D01*
X69425730Y-51202258D01*
X69425731Y-51202257D01*
X69425731Y-51202256D01*
X69425736Y-51202255D01*
X69752652Y-51035682D01*
X70060366Y-50835851D01*
X70345506Y-50604949D01*
X70604949Y-50345506D01*
X70835851Y-50060366D01*
X71035682Y-49752652D01*
X71202255Y-49425736D01*
X71202257Y-49425731D01*
X71202258Y-49425730D01*
X71292989Y-49189364D01*
X71333742Y-49083199D01*
X71428705Y-48728794D01*
X71486102Y-48366404D01*
X71505304Y-48000000D01*
X71486102Y-47633596D01*
X71428705Y-47271206D01*
X71333742Y-46916801D01*
X71333739Y-46916793D01*
X71202258Y-46574269D01*
X71202257Y-46574268D01*
X71035682Y-46247348D01*
X70851716Y-45964064D01*
X70835851Y-45939634D01*
X70835849Y-45939631D01*
X70835844Y-45939624D01*
X70604952Y-45654498D01*
X70604949Y-45654494D01*
X70604943Y-45654488D01*
X70604935Y-45654479D01*
X70345520Y-45395064D01*
X70345510Y-45395055D01*
X70345506Y-45395051D01*
X70335067Y-45386598D01*
X70060375Y-45164155D01*
X70060366Y-45164149D01*
X69752651Y-44964317D01*
X69425731Y-44797742D01*
X69425730Y-44797741D01*
X69083206Y-44666260D01*
X69083199Y-44666258D01*
X68728794Y-44571295D01*
X68728788Y-44571294D01*
X68728786Y-44571293D01*
X68366403Y-44513897D01*
X68000000Y-44494696D01*
X67633596Y-44513897D01*
X67271213Y-44571293D01*
X67271211Y-44571294D01*
X67271209Y-44571294D01*
X67271206Y-44571295D01*
X67022089Y-44638045D01*
X66916793Y-44666260D01*
X66574269Y-44797741D01*
X66574268Y-44797742D01*
X66247348Y-44964317D01*
X65939633Y-45164149D01*
X65939624Y-45164155D01*
X65654498Y-45395047D01*
X65654479Y-45395064D01*
X65395064Y-45654479D01*
X65395047Y-45654498D01*
X65164155Y-45939624D01*
X65164149Y-45939633D01*
X64964317Y-46247348D01*
X64797742Y-46574268D01*
X64797741Y-46574269D01*
X64666260Y-46916793D01*
X64571294Y-47271211D01*
X64571293Y-47271213D01*
X64513897Y-47633596D01*
X64494696Y-48000000D01*
X41966393Y-48000000D01*
X43020480Y-46945913D01*
X43570480Y-46395913D01*
X45120480Y-44845913D01*
X45173207Y-44754588D01*
X45200500Y-44652727D01*
X45200500Y-44547273D01*
X45200500Y-43547273D01*
X45200500Y-42760597D01*
X45965301Y-42760597D01*
X45965301Y-42760602D01*
X45984472Y-43004197D01*
X45984474Y-43004207D01*
X46041514Y-43241792D01*
X46041517Y-43241803D01*
X46135026Y-43467553D01*
X46259260Y-43670286D01*
X46546332Y-43383214D01*
X46640982Y-43513488D01*
X46769613Y-43642119D01*
X46899884Y-43736767D01*
X46612813Y-44023839D01*
X46815549Y-44148075D01*
X47041297Y-44241583D01*
X47041308Y-44241586D01*
X47278893Y-44298626D01*
X47278903Y-44298628D01*
X47522498Y-44317800D01*
X47522504Y-44317800D01*
X47766098Y-44298628D01*
X47766108Y-44298626D01*
X48003693Y-44241586D01*
X48003704Y-44241583D01*
X48229454Y-44148075D01*
X48229461Y-44148071D01*
X48432186Y-44023840D01*
X48432187Y-44023839D01*
X48145116Y-43736768D01*
X48275389Y-43642119D01*
X48404020Y-43513488D01*
X48498669Y-43383215D01*
X48785740Y-43670286D01*
X48785741Y-43670285D01*
X48909972Y-43467560D01*
X48909976Y-43467553D01*
X49003484Y-43241803D01*
X49003487Y-43241792D01*
X49060527Y-43004207D01*
X49060529Y-43004197D01*
X49079701Y-42760602D01*
X49079701Y-42760597D01*
X59105300Y-42760597D01*
X59105300Y-42760602D01*
X59124471Y-43004197D01*
X59124473Y-43004207D01*
X59181513Y-43241792D01*
X59181516Y-43241803D01*
X59275025Y-43467553D01*
X59399259Y-43670286D01*
X59686331Y-43383214D01*
X59780981Y-43513488D01*
X59909612Y-43642119D01*
X60039883Y-43736767D01*
X59752812Y-44023839D01*
X59955548Y-44148075D01*
X60181296Y-44241583D01*
X60181307Y-44241586D01*
X60418892Y-44298626D01*
X60418902Y-44298628D01*
X60662497Y-44317800D01*
X60662503Y-44317800D01*
X60906097Y-44298628D01*
X60906107Y-44298626D01*
X61143692Y-44241586D01*
X61143703Y-44241583D01*
X61369453Y-44148075D01*
X61369460Y-44148071D01*
X61572185Y-44023840D01*
X61572186Y-44023839D01*
X61285115Y-43736768D01*
X61415388Y-43642119D01*
X61544019Y-43513488D01*
X61638668Y-43383215D01*
X61925739Y-43670286D01*
X61925740Y-43670285D01*
X62049971Y-43467560D01*
X62049975Y-43467553D01*
X62143483Y-43241803D01*
X62143486Y-43241792D01*
X62200526Y-43004207D01*
X62200528Y-43004197D01*
X62219700Y-42760602D01*
X62219700Y-42760597D01*
X62200528Y-42517002D01*
X62200526Y-42516992D01*
X62143486Y-42279407D01*
X62143483Y-42279396D01*
X62049975Y-42053648D01*
X61925739Y-41850912D01*
X61638667Y-42137983D01*
X61544019Y-42007712D01*
X61415388Y-41879081D01*
X61285114Y-41784431D01*
X61572186Y-41497359D01*
X61369453Y-41373125D01*
X61143703Y-41279616D01*
X61143692Y-41279613D01*
X60906107Y-41222573D01*
X60906097Y-41222571D01*
X60662503Y-41203400D01*
X60662497Y-41203400D01*
X60418902Y-41222571D01*
X60418892Y-41222573D01*
X60181307Y-41279613D01*
X60181296Y-41279616D01*
X59955546Y-41373125D01*
X59752812Y-41497359D01*
X60039884Y-41784431D01*
X59909612Y-41879081D01*
X59780981Y-42007712D01*
X59686331Y-42137984D01*
X59399259Y-41850912D01*
X59275025Y-42053646D01*
X59181516Y-42279396D01*
X59181513Y-42279407D01*
X59124473Y-42516992D01*
X59124471Y-42517002D01*
X59105300Y-42760597D01*
X49079701Y-42760597D01*
X49060529Y-42517002D01*
X49060527Y-42516992D01*
X49003487Y-42279407D01*
X49003484Y-42279396D01*
X48909976Y-42053648D01*
X48785740Y-41850912D01*
X48498668Y-42137983D01*
X48404020Y-42007712D01*
X48275389Y-41879081D01*
X48145115Y-41784431D01*
X48432187Y-41497359D01*
X48229454Y-41373125D01*
X48003704Y-41279616D01*
X48003693Y-41279613D01*
X47766108Y-41222573D01*
X47766098Y-41222571D01*
X47522504Y-41203400D01*
X47522498Y-41203400D01*
X47278903Y-41222571D01*
X47278893Y-41222573D01*
X47041308Y-41279613D01*
X47041297Y-41279616D01*
X46815547Y-41373125D01*
X46612813Y-41497359D01*
X46899885Y-41784431D01*
X46769613Y-41879081D01*
X46640982Y-42007712D01*
X46546332Y-42137984D01*
X46259260Y-41850912D01*
X46135026Y-42053646D01*
X46041517Y-42279396D01*
X46041514Y-42279407D01*
X45984474Y-42516992D01*
X45984472Y-42517002D01*
X45965301Y-42760597D01*
X45200500Y-42760597D01*
X45200500Y-40580700D01*
X45218093Y-40532362D01*
X45262642Y-40506642D01*
X45275700Y-40505500D01*
X45999978Y-40505500D01*
X46000000Y-40505500D01*
X46011956Y-40505266D01*
X46121423Y-40480333D01*
X46214492Y-40417540D01*
X46278592Y-40325366D01*
X47077579Y-38549839D01*
X47113458Y-38512980D01*
X47146155Y-38505500D01*
X47999997Y-38505500D01*
X48000000Y-38505500D01*
X48028188Y-38504197D01*
X48136173Y-38473472D01*
X48225767Y-38405814D01*
X48284870Y-38310359D01*
X48305500Y-38200000D01*
X48305500Y-36897979D01*
X48323093Y-36849641D01*
X48367642Y-36823921D01*
X48418300Y-36832854D01*
X48443274Y-36858781D01*
X48443861Y-36858348D01*
X48447150Y-36862805D01*
X48447187Y-36862843D01*
X48447206Y-36862879D01*
X48447207Y-36862882D01*
X48527850Y-36972150D01*
X48624036Y-37043138D01*
X48631456Y-37048614D01*
X48659900Y-37091474D01*
X48662000Y-37109120D01*
X48662000Y-37571809D01*
X48665466Y-37584743D01*
X48680155Y-37639564D01*
X48680179Y-37639652D01*
X48688130Y-37669329D01*
X48692701Y-37686386D01*
X48692704Y-37686394D01*
X48752010Y-37789114D01*
X50119974Y-39157077D01*
X50141714Y-39203697D01*
X50142000Y-39210251D01*
X50142000Y-39212667D01*
X50124407Y-39261005D01*
X50111002Y-39273505D01*
X49979095Y-39369340D01*
X49979094Y-39369341D01*
X49850855Y-39511763D01*
X49755034Y-39677733D01*
X49755033Y-39677735D01*
X49755033Y-39677736D01*
X49748642Y-39697407D01*
X49695810Y-39860006D01*
X49675778Y-40050600D01*
X49695810Y-40241193D01*
X49695810Y-40241195D01*
X49695811Y-40241197D01*
X49753108Y-40417540D01*
X49755034Y-40423466D01*
X49850855Y-40589436D01*
X49979094Y-40731858D01*
X49979095Y-40731859D01*
X50117028Y-40832073D01*
X50134139Y-40844505D01*
X50309217Y-40922454D01*
X50496676Y-40962300D01*
X50496678Y-40962300D01*
X50688322Y-40962300D01*
X50688324Y-40962300D01*
X50875783Y-40922454D01*
X51050861Y-40844505D01*
X51205907Y-40731857D01*
X51334144Y-40589436D01*
X51429967Y-40423464D01*
X51489189Y-40241197D01*
X51509222Y-40050600D01*
X52175778Y-40050600D01*
X52195810Y-40241193D01*
X52195810Y-40241195D01*
X52195811Y-40241197D01*
X52253108Y-40417540D01*
X52255034Y-40423466D01*
X52350855Y-40589436D01*
X52479094Y-40731858D01*
X52479095Y-40731859D01*
X52617028Y-40832073D01*
X52634139Y-40844505D01*
X52809217Y-40922454D01*
X52996676Y-40962300D01*
X52996678Y-40962300D01*
X53188322Y-40962300D01*
X53188324Y-40962300D01*
X53375783Y-40922454D01*
X53550861Y-40844505D01*
X53705907Y-40731857D01*
X53834144Y-40589436D01*
X53929967Y-40423464D01*
X53989189Y-40241197D01*
X54009222Y-40050600D01*
X53989189Y-39860003D01*
X53929967Y-39677736D01*
X53877749Y-39587290D01*
X53834144Y-39511763D01*
X53705905Y-39369341D01*
X53705904Y-39369340D01*
X53550860Y-39256694D01*
X53375786Y-39178747D01*
X53375784Y-39178746D01*
X53375783Y-39178746D01*
X53188324Y-39138900D01*
X52996676Y-39138900D01*
X52809217Y-39178746D01*
X52809216Y-39178746D01*
X52809213Y-39178747D01*
X52634139Y-39256694D01*
X52479095Y-39369340D01*
X52479094Y-39369341D01*
X52350855Y-39511763D01*
X52255034Y-39677733D01*
X52255033Y-39677735D01*
X52255033Y-39677736D01*
X52248642Y-39697407D01*
X52195810Y-39860006D01*
X52175778Y-40050600D01*
X51509222Y-40050600D01*
X51489189Y-39860003D01*
X51429967Y-39677736D01*
X51377749Y-39587290D01*
X51334144Y-39511763D01*
X51205905Y-39369341D01*
X51205904Y-39369340D01*
X51073998Y-39273505D01*
X51045234Y-39230859D01*
X51043000Y-39212667D01*
X51043000Y-38933193D01*
X51043000Y-38933191D01*
X51012299Y-38818614D01*
X51012299Y-38818613D01*
X50995778Y-38789998D01*
X50952989Y-38715885D01*
X49585026Y-37347922D01*
X49563286Y-37301302D01*
X49563000Y-37294748D01*
X49563000Y-37109120D01*
X49580593Y-37060782D01*
X49593544Y-37048614D01*
X49600964Y-37043138D01*
X49697150Y-36972150D01*
X49777793Y-36862882D01*
X49822646Y-36734699D01*
X49825068Y-36708877D01*
X49825500Y-36704273D01*
X49825500Y-35695726D01*
X49823869Y-35678343D01*
X49822646Y-35665301D01*
X49788560Y-35567889D01*
X49777794Y-35537120D01*
X49777792Y-35537117D01*
X49697150Y-35427850D01*
X49593543Y-35351385D01*
X49565100Y-35308526D01*
X49563000Y-35290880D01*
X49563000Y-34715668D01*
X49580593Y-34667330D01*
X49593545Y-34655162D01*
X49593552Y-34655157D01*
X49672150Y-34597150D01*
X49752793Y-34487882D01*
X49797646Y-34359699D01*
X49799073Y-34344482D01*
X49800500Y-34329273D01*
X49800500Y-34306671D01*
X50347600Y-34306671D01*
X50362524Y-34400899D01*
X50420394Y-34514474D01*
X50510525Y-34604605D01*
X50624101Y-34662475D01*
X50624099Y-34662475D01*
X50718328Y-34677399D01*
X50718336Y-34677400D01*
X50750000Y-34677400D01*
X51250000Y-34677400D01*
X51281664Y-34677400D01*
X51281671Y-34677399D01*
X51375899Y-34662475D01*
X51489474Y-34604605D01*
X51579605Y-34514474D01*
X51637475Y-34400899D01*
X51652399Y-34306671D01*
X51652400Y-34306664D01*
X51652400Y-34050000D01*
X51250000Y-34050000D01*
X51250000Y-34677400D01*
X50750000Y-34677400D01*
X50750000Y-34050000D01*
X50347600Y-34050000D01*
X50347600Y-34306671D01*
X49800500Y-34306671D01*
X49800500Y-33293328D01*
X50347600Y-33293328D01*
X50347600Y-33550000D01*
X50750000Y-33550000D01*
X51250000Y-33550000D01*
X51652400Y-33550000D01*
X51652400Y-33293336D01*
X51652399Y-33293328D01*
X51637475Y-33199100D01*
X51579605Y-33085525D01*
X51489474Y-32995394D01*
X51375898Y-32937524D01*
X51375900Y-32937524D01*
X51281671Y-32922600D01*
X51250000Y-32922600D01*
X51250000Y-33550000D01*
X50750000Y-33550000D01*
X50750000Y-32922600D01*
X50718328Y-32922600D01*
X50624100Y-32937524D01*
X50510525Y-32995394D01*
X50420394Y-33085525D01*
X50362524Y-33199100D01*
X50347600Y-33293328D01*
X49800500Y-33293328D01*
X49800500Y-33270726D01*
X49797807Y-33242019D01*
X49797646Y-33240301D01*
X49752793Y-33112118D01*
X49672150Y-33002850D01*
X49672148Y-33002848D01*
X49593545Y-32944837D01*
X49565100Y-32901977D01*
X49563000Y-32884331D01*
X49563000Y-31053192D01*
X49559368Y-31039638D01*
X49553062Y-31016101D01*
X49550500Y-30996639D01*
X49550500Y-27949400D01*
X49789143Y-27949400D01*
X49808118Y-28129938D01*
X49864216Y-28302593D01*
X49895889Y-28357454D01*
X50209482Y-28043861D01*
X50231458Y-28125873D01*
X50291649Y-28230127D01*
X50376773Y-28315251D01*
X50481027Y-28375442D01*
X50563035Y-28397416D01*
X50248031Y-28712420D01*
X50389161Y-28775256D01*
X50566734Y-28813000D01*
X50748266Y-28813000D01*
X50925842Y-28775255D01*
X51066966Y-28712421D01*
X51066967Y-28712420D01*
X50751964Y-28397416D01*
X50833973Y-28375442D01*
X50938227Y-28315251D01*
X51023351Y-28230127D01*
X51083542Y-28125873D01*
X51105516Y-28043863D01*
X51419107Y-28357454D01*
X51419109Y-28357454D01*
X51450782Y-28302595D01*
X51506881Y-28129938D01*
X51525856Y-27949400D01*
X52240778Y-27949400D01*
X52260810Y-28139993D01*
X52260810Y-28139995D01*
X52260811Y-28139997D01*
X52320032Y-28322262D01*
X52320034Y-28322266D01*
X52415853Y-28488232D01*
X52415854Y-28488234D01*
X52415856Y-28488236D01*
X52437683Y-28512477D01*
X52456954Y-28560170D01*
X52457000Y-28562796D01*
X52457000Y-32726495D01*
X52483920Y-32861829D01*
X52483921Y-32861831D01*
X52531978Y-32977850D01*
X52536725Y-32989311D01*
X52613386Y-33104043D01*
X52613387Y-33104044D01*
X52613390Y-33104048D01*
X52613391Y-33104049D01*
X54369975Y-34860632D01*
X54391715Y-34907252D01*
X54392001Y-34913806D01*
X54392001Y-39437202D01*
X54374408Y-39485540D01*
X54372685Y-39487521D01*
X54350856Y-39511763D01*
X54255035Y-39677733D01*
X54255034Y-39677735D01*
X54255034Y-39677736D01*
X54248643Y-39697407D01*
X54195811Y-39860006D01*
X54175779Y-40050600D01*
X54195811Y-40241193D01*
X54195811Y-40241195D01*
X54195812Y-40241197D01*
X54253109Y-40417540D01*
X54255035Y-40423466D01*
X54350856Y-40589436D01*
X54479095Y-40731858D01*
X54479096Y-40731859D01*
X54617029Y-40832073D01*
X54634140Y-40844505D01*
X54809218Y-40922454D01*
X54996677Y-40962300D01*
X54996679Y-40962300D01*
X55188323Y-40962300D01*
X55188325Y-40962300D01*
X55375784Y-40922454D01*
X55550862Y-40844505D01*
X55705908Y-40731857D01*
X55834145Y-40589436D01*
X55929968Y-40423464D01*
X55989190Y-40241197D01*
X56009223Y-40050600D01*
X56724144Y-40050600D01*
X56743119Y-40231138D01*
X56799217Y-40403793D01*
X56830890Y-40458654D01*
X57144483Y-40145061D01*
X57166459Y-40227073D01*
X57226650Y-40331327D01*
X57311774Y-40416451D01*
X57416028Y-40476642D01*
X57498036Y-40498616D01*
X57183032Y-40813620D01*
X57324162Y-40876456D01*
X57501735Y-40914200D01*
X57683267Y-40914200D01*
X57860843Y-40876455D01*
X58001967Y-40813621D01*
X58001968Y-40813620D01*
X57686965Y-40498616D01*
X57768974Y-40476642D01*
X57873228Y-40416451D01*
X57958352Y-40331327D01*
X58018543Y-40227073D01*
X58040517Y-40145063D01*
X58354108Y-40458654D01*
X58354110Y-40458654D01*
X58385783Y-40403795D01*
X58441882Y-40231138D01*
X58460857Y-40050600D01*
X58441882Y-39870061D01*
X58385783Y-39697404D01*
X58354110Y-39642544D01*
X58354108Y-39642544D01*
X58040517Y-39956135D01*
X58018543Y-39874127D01*
X57958352Y-39769873D01*
X57873228Y-39684749D01*
X57768974Y-39624558D01*
X57686964Y-39602583D01*
X58001968Y-39287578D01*
X57860839Y-39224743D01*
X57683267Y-39187000D01*
X57501735Y-39187000D01*
X57324162Y-39224743D01*
X57183032Y-39287578D01*
X57498037Y-39602583D01*
X57416028Y-39624558D01*
X57311774Y-39684749D01*
X57226650Y-39769873D01*
X57166459Y-39874127D01*
X57144484Y-39956136D01*
X56830891Y-39642544D01*
X56830890Y-39642544D01*
X56799217Y-39697407D01*
X56743119Y-39870061D01*
X56724144Y-40050600D01*
X56009223Y-40050600D01*
X55989190Y-39860003D01*
X55929968Y-39677736D01*
X55877750Y-39587290D01*
X55834145Y-39511763D01*
X55812317Y-39487521D01*
X55793047Y-39439827D01*
X55793001Y-39437202D01*
X55793001Y-36208682D01*
X55793549Y-36199618D01*
X55795003Y-36187642D01*
X55805645Y-36100000D01*
X55795326Y-36015012D01*
X68647600Y-36015012D01*
X68656441Y-36059462D01*
X68656442Y-36059464D01*
X68690126Y-36109873D01*
X68740535Y-36143557D01*
X68740537Y-36143558D01*
X68784987Y-36152400D01*
X70550000Y-36152400D01*
X71050000Y-36152400D01*
X72815013Y-36152400D01*
X72859462Y-36143558D01*
X72859464Y-36143557D01*
X72909873Y-36109873D01*
X72943557Y-36059464D01*
X72943558Y-36059462D01*
X72952400Y-36015012D01*
X72952400Y-34250000D01*
X71050000Y-34250000D01*
X71050000Y-36152400D01*
X70550000Y-36152400D01*
X70550000Y-34250000D01*
X68647600Y-34250000D01*
X68647600Y-36015012D01*
X55795326Y-36015012D01*
X55793549Y-36000381D01*
X55793001Y-35991317D01*
X55793001Y-34523507D01*
X55785914Y-34487882D01*
X55785914Y-34487881D01*
X55769720Y-34406467D01*
X55766081Y-34388173D01*
X55713276Y-34260690D01*
X55636615Y-34145958D01*
X55636612Y-34145955D01*
X55636610Y-34145952D01*
X53880026Y-32389368D01*
X53858286Y-32342748D01*
X53858000Y-32336194D01*
X53858000Y-31984987D01*
X68647600Y-31984987D01*
X68647600Y-33750000D01*
X70550000Y-33750000D01*
X71050000Y-33750000D01*
X72952400Y-33750000D01*
X72952400Y-31984987D01*
X72943558Y-31940537D01*
X72943557Y-31940535D01*
X72909873Y-31890126D01*
X72859464Y-31856442D01*
X72859462Y-31856441D01*
X72815013Y-31847600D01*
X71050000Y-31847600D01*
X71050000Y-33750000D01*
X70550000Y-33750000D01*
X70550000Y-31847600D01*
X68784987Y-31847600D01*
X68740537Y-31856441D01*
X68740535Y-31856442D01*
X68690126Y-31890126D01*
X68656442Y-31940535D01*
X68656441Y-31940537D01*
X68647600Y-31984987D01*
X53858000Y-31984987D01*
X53858000Y-28562796D01*
X53875593Y-28514458D01*
X53877296Y-28512499D01*
X53899144Y-28488236D01*
X53994967Y-28322264D01*
X54054189Y-28139997D01*
X54074222Y-27949400D01*
X54240779Y-27949400D01*
X54260811Y-28139993D01*
X54260811Y-28139995D01*
X54260812Y-28139997D01*
X54320033Y-28322262D01*
X54320035Y-28322266D01*
X54415856Y-28488236D01*
X54544095Y-28630658D01*
X54544096Y-28630659D01*
X54691388Y-28737673D01*
X54699140Y-28743305D01*
X54874218Y-28821254D01*
X55061677Y-28861100D01*
X55061679Y-28861100D01*
X55253323Y-28861100D01*
X55253325Y-28861100D01*
X55440784Y-28821254D01*
X55615862Y-28743305D01*
X55770908Y-28630657D01*
X55899145Y-28488236D01*
X55994968Y-28322264D01*
X56054190Y-28139997D01*
X56074223Y-27949400D01*
X56054190Y-27758803D01*
X55994968Y-27576536D01*
X55946277Y-27492200D01*
X55899145Y-27410563D01*
X55770906Y-27268141D01*
X55770905Y-27268140D01*
X55615861Y-27155494D01*
X55440787Y-27077547D01*
X55440785Y-27077546D01*
X55440784Y-27077546D01*
X55253325Y-27037700D01*
X55061677Y-27037700D01*
X54874218Y-27077546D01*
X54874217Y-27077546D01*
X54874214Y-27077547D01*
X54699140Y-27155494D01*
X54544096Y-27268140D01*
X54544095Y-27268141D01*
X54415856Y-27410563D01*
X54320035Y-27576533D01*
X54320034Y-27576535D01*
X54320034Y-27576536D01*
X54313643Y-27596207D01*
X54260811Y-27758806D01*
X54240779Y-27949400D01*
X54074222Y-27949400D01*
X54054189Y-27758803D01*
X53994967Y-27576536D01*
X53946276Y-27492200D01*
X53899144Y-27410563D01*
X53770905Y-27268141D01*
X53770904Y-27268140D01*
X53615860Y-27155494D01*
X53440786Y-27077547D01*
X53440784Y-27077546D01*
X53440783Y-27077546D01*
X53253324Y-27037700D01*
X53061676Y-27037700D01*
X52874217Y-27077546D01*
X52874216Y-27077546D01*
X52874213Y-27077547D01*
X52699139Y-27155494D01*
X52544095Y-27268140D01*
X52544094Y-27268141D01*
X52415855Y-27410563D01*
X52320034Y-27576533D01*
X52320033Y-27576535D01*
X52320033Y-27576536D01*
X52313642Y-27596207D01*
X52260810Y-27758806D01*
X52240778Y-27949400D01*
X51525856Y-27949400D01*
X51506881Y-27768861D01*
X51450782Y-27596204D01*
X51419109Y-27541344D01*
X51419107Y-27541344D01*
X51105516Y-27854935D01*
X51083542Y-27772927D01*
X51023351Y-27668673D01*
X50938227Y-27583549D01*
X50833973Y-27523358D01*
X50751963Y-27501383D01*
X51066967Y-27186378D01*
X50925838Y-27123543D01*
X50748266Y-27085800D01*
X50566734Y-27085800D01*
X50389161Y-27123543D01*
X50248031Y-27186378D01*
X50563036Y-27501383D01*
X50481027Y-27523358D01*
X50376773Y-27583549D01*
X50291649Y-27668673D01*
X50231458Y-27772927D01*
X50209483Y-27854936D01*
X49895890Y-27541344D01*
X49895889Y-27541344D01*
X49864216Y-27596207D01*
X49808118Y-27768861D01*
X49789143Y-27949400D01*
X49550500Y-27949400D01*
X49550500Y-27617751D01*
X49568093Y-27569413D01*
X49572526Y-27564577D01*
X51364577Y-25772526D01*
X51411197Y-25750786D01*
X51417751Y-25750500D01*
X56882249Y-25750500D01*
X56930587Y-25768093D01*
X56935423Y-25772526D01*
X57184975Y-26022078D01*
X57206715Y-26068698D01*
X57207001Y-26075252D01*
X57207001Y-27111467D01*
X57189408Y-27159805D01*
X57176003Y-27172305D01*
X57044096Y-27268140D01*
X57044095Y-27268141D01*
X56915856Y-27410563D01*
X56820035Y-27576533D01*
X56820034Y-27576535D01*
X56820034Y-27576536D01*
X56813643Y-27596207D01*
X56760811Y-27758806D01*
X56740779Y-27949400D01*
X56760811Y-28139993D01*
X56760811Y-28139995D01*
X56760812Y-28139997D01*
X56820033Y-28322262D01*
X56820035Y-28322266D01*
X56915856Y-28488236D01*
X57044095Y-28630658D01*
X57044096Y-28630659D01*
X57191388Y-28737673D01*
X57199140Y-28743305D01*
X57374218Y-28821254D01*
X57561677Y-28861100D01*
X57561679Y-28861100D01*
X57753323Y-28861100D01*
X57753325Y-28861100D01*
X57940784Y-28821254D01*
X58115862Y-28743305D01*
X58270908Y-28630657D01*
X58399145Y-28488236D01*
X58494968Y-28322264D01*
X58494969Y-28322262D01*
X58496195Y-28319510D01*
X58531930Y-28282509D01*
X58564892Y-28274900D01*
X61283425Y-28274900D01*
X61331763Y-28292493D01*
X61336599Y-28296926D01*
X63795930Y-30756257D01*
X63817670Y-30802877D01*
X63815775Y-30827411D01*
X63814862Y-30831118D01*
X63814861Y-30831124D01*
X63814860Y-30831128D01*
X63794355Y-31000000D01*
X63814860Y-31168872D01*
X63814860Y-31168874D01*
X63814861Y-31168875D01*
X63816265Y-31172577D01*
X63875182Y-31327930D01*
X63971817Y-31467929D01*
X63971820Y-31467932D01*
X63971825Y-31467937D01*
X64099144Y-31580731D01*
X64099146Y-31580732D01*
X64099148Y-31580734D01*
X64249775Y-31659790D01*
X64414944Y-31700500D01*
X64414946Y-31700500D01*
X64585054Y-31700500D01*
X64585056Y-31700500D01*
X64750225Y-31659790D01*
X64900852Y-31580734D01*
X65028183Y-31467929D01*
X65124818Y-31327930D01*
X65185140Y-31168872D01*
X65205645Y-31000000D01*
X65185140Y-30831128D01*
X65124818Y-30672070D01*
X65028183Y-30532071D01*
X65028178Y-30532067D01*
X65028174Y-30532062D01*
X64900855Y-30419268D01*
X64900852Y-30419266D01*
X64750225Y-30340210D01*
X64585056Y-30299500D01*
X64414944Y-30299500D01*
X64331677Y-30320022D01*
X64280534Y-30314507D01*
X64260508Y-30300181D01*
X61649262Y-27688934D01*
X61649263Y-27688934D01*
X61575046Y-27646085D01*
X61575040Y-27646083D01*
X61575039Y-27646082D01*
X61492253Y-27623900D01*
X61492251Y-27623900D01*
X58564892Y-27623900D01*
X58516554Y-27606307D01*
X58496195Y-27579290D01*
X58494969Y-27576537D01*
X58399145Y-27410563D01*
X58270906Y-27268141D01*
X58270905Y-27268140D01*
X58138999Y-27172305D01*
X58110235Y-27129659D01*
X58108001Y-27111467D01*
X58108001Y-25798194D01*
X58108001Y-25798192D01*
X58077300Y-25683615D01*
X58052232Y-25640197D01*
X58017990Y-25580887D01*
X58017988Y-25580885D01*
X58017986Y-25580882D01*
X57676501Y-25239397D01*
X59170300Y-25239397D01*
X59170300Y-25239402D01*
X59189471Y-25482997D01*
X59189473Y-25483007D01*
X59246513Y-25720592D01*
X59246516Y-25720603D01*
X59340025Y-25946353D01*
X59464259Y-26149086D01*
X59751331Y-25862014D01*
X59845981Y-25992288D01*
X59974612Y-26120919D01*
X60104883Y-26215567D01*
X59817812Y-26502639D01*
X60020548Y-26626875D01*
X60246296Y-26720383D01*
X60246307Y-26720386D01*
X60483892Y-26777426D01*
X60483902Y-26777428D01*
X60727497Y-26796600D01*
X60727503Y-26796600D01*
X60971097Y-26777428D01*
X60971107Y-26777426D01*
X61208692Y-26720386D01*
X61208703Y-26720383D01*
X61434453Y-26626875D01*
X61434460Y-26626871D01*
X61637185Y-26502640D01*
X61637186Y-26502639D01*
X61350115Y-26215568D01*
X61480388Y-26120919D01*
X61609019Y-25992288D01*
X61703668Y-25862015D01*
X61990739Y-26149086D01*
X61990740Y-26149085D01*
X62114971Y-25946360D01*
X62114975Y-25946353D01*
X62208483Y-25720603D01*
X62208486Y-25720592D01*
X62265526Y-25483007D01*
X62265528Y-25482997D01*
X62284700Y-25239402D01*
X62284700Y-25239397D01*
X62265528Y-24995802D01*
X62265526Y-24995792D01*
X62208486Y-24758207D01*
X62208483Y-24758196D01*
X62114975Y-24532448D01*
X61990739Y-24329712D01*
X61703667Y-24616783D01*
X61609019Y-24486512D01*
X61480388Y-24357881D01*
X61350114Y-24263231D01*
X61637186Y-23976159D01*
X61434453Y-23851925D01*
X61208703Y-23758416D01*
X61208692Y-23758413D01*
X60971107Y-23701373D01*
X60971097Y-23701371D01*
X60727503Y-23682200D01*
X60727497Y-23682200D01*
X60483902Y-23701371D01*
X60483892Y-23701373D01*
X60246307Y-23758413D01*
X60246296Y-23758416D01*
X60020546Y-23851925D01*
X59817812Y-23976159D01*
X60104884Y-24263231D01*
X59974612Y-24357881D01*
X59845981Y-24486512D01*
X59751331Y-24616784D01*
X59464259Y-24329712D01*
X59340025Y-24532446D01*
X59246516Y-24758196D01*
X59246513Y-24758207D01*
X59189473Y-24995792D01*
X59189471Y-24995802D01*
X59170300Y-25239397D01*
X57676501Y-25239397D01*
X57376614Y-24939510D01*
X57273888Y-24880201D01*
X57261780Y-24876957D01*
X57249673Y-24873713D01*
X57249672Y-24873712D01*
X57206601Y-24862171D01*
X57159309Y-24849500D01*
X51140691Y-24849500D01*
X51026114Y-24880201D01*
X51026112Y-24880201D01*
X50986885Y-24902850D01*
X50923387Y-24939510D01*
X50923381Y-24939514D01*
X48739510Y-27123385D01*
X48680200Y-27226113D01*
X48680201Y-27226114D01*
X48649500Y-27340691D01*
X48649500Y-31159309D01*
X48659265Y-31195752D01*
X48659438Y-31196397D01*
X48662000Y-31215860D01*
X48662000Y-32865880D01*
X48644407Y-32914218D01*
X48631457Y-32926384D01*
X48527850Y-33002850D01*
X48527849Y-33002851D01*
X48447207Y-33112117D01*
X48447205Y-33112120D01*
X48402355Y-33240298D01*
X48402353Y-33240307D01*
X48399500Y-33270726D01*
X48399500Y-33406349D01*
X48381907Y-33454687D01*
X48337358Y-33480407D01*
X48286700Y-33471474D01*
X48264289Y-33451667D01*
X48243308Y-33423884D01*
X48205814Y-33374233D01*
X48205815Y-33374233D01*
X48110361Y-33315130D01*
X48064434Y-33306545D01*
X48000000Y-33294500D01*
X46400000Y-33294500D01*
X46315062Y-33306544D01*
X46208565Y-33360179D01*
X46207958Y-33358975D01*
X46166120Y-33372018D01*
X46118660Y-33352180D01*
X46116469Y-33350075D01*
X46008413Y-33242019D01*
X45917088Y-33189293D01*
X45908530Y-33187000D01*
X45815227Y-33162000D01*
X45815225Y-33162000D01*
X43082353Y-33162000D01*
X43034015Y-33144407D01*
X43011373Y-33111637D01*
X43002794Y-33087120D01*
X43002792Y-33087117D01*
X42978945Y-33054805D01*
X42922150Y-32977850D01*
X42812882Y-32897207D01*
X42807898Y-32894573D01*
X42809297Y-32891925D01*
X42778085Y-32866299D01*
X42768612Y-32815739D01*
X42793855Y-32770919D01*
X42824387Y-32756727D01*
X42824006Y-32755387D01*
X42879933Y-32739474D01*
X42936173Y-32723472D01*
X43025767Y-32655814D01*
X43084870Y-32560359D01*
X43090233Y-32531671D01*
X46322600Y-32531671D01*
X46337524Y-32625899D01*
X46395394Y-32739474D01*
X46485525Y-32829605D01*
X46599101Y-32887475D01*
X46599099Y-32887475D01*
X46693328Y-32902399D01*
X46693336Y-32902400D01*
X46950000Y-32902400D01*
X47450000Y-32902400D01*
X47706664Y-32902400D01*
X47706671Y-32902399D01*
X47800899Y-32887475D01*
X47914474Y-32829605D01*
X48004605Y-32739474D01*
X48062475Y-32625899D01*
X48077399Y-32531671D01*
X48077400Y-32531664D01*
X48077400Y-32500000D01*
X47450000Y-32500000D01*
X47450000Y-32902400D01*
X46950000Y-32902400D01*
X46950000Y-32500000D01*
X46322600Y-32500000D01*
X46322600Y-32531671D01*
X43090233Y-32531671D01*
X43105500Y-32450000D01*
X43105500Y-32150700D01*
X43123093Y-32102362D01*
X43167642Y-32076642D01*
X43180700Y-32075500D01*
X43692851Y-32075500D01*
X43692853Y-32075500D01*
X43775639Y-32053318D01*
X43849862Y-32010465D01*
X43891999Y-31968328D01*
X46322600Y-31968328D01*
X46322600Y-32000000D01*
X46950000Y-32000000D01*
X47450000Y-32000000D01*
X48077400Y-32000000D01*
X48077400Y-31968336D01*
X48077399Y-31968328D01*
X48062475Y-31874100D01*
X48004605Y-31760525D01*
X47914474Y-31670394D01*
X47800898Y-31612524D01*
X47800900Y-31612524D01*
X47706671Y-31597600D01*
X47450000Y-31597600D01*
X47450000Y-32000000D01*
X46950000Y-32000000D01*
X46950000Y-31597600D01*
X46693328Y-31597600D01*
X46599100Y-31612524D01*
X46485525Y-31670394D01*
X46395394Y-31760525D01*
X46337524Y-31874100D01*
X46322600Y-31968328D01*
X43891999Y-31968328D01*
X44160508Y-31699817D01*
X44207129Y-31678078D01*
X44231679Y-31679977D01*
X44314944Y-31700500D01*
X44314946Y-31700500D01*
X44485054Y-31700500D01*
X44485056Y-31700500D01*
X44650225Y-31659790D01*
X44800852Y-31580734D01*
X44928183Y-31467929D01*
X45024818Y-31327930D01*
X45085140Y-31168872D01*
X45105645Y-31000000D01*
X45085140Y-30831128D01*
X45024818Y-30672070D01*
X44928183Y-30532071D01*
X44928178Y-30532067D01*
X44928174Y-30532062D01*
X44800855Y-30419268D01*
X44800852Y-30419266D01*
X44650225Y-30340210D01*
X44485056Y-30299500D01*
X44314944Y-30299500D01*
X44231682Y-30320022D01*
X44149774Y-30340210D01*
X43999147Y-30419266D01*
X43999144Y-30419268D01*
X43871825Y-30532062D01*
X43871816Y-30532072D01*
X43775182Y-30672069D01*
X43775181Y-30672072D01*
X43714861Y-30831124D01*
X43714860Y-30831126D01*
X43714860Y-30831128D01*
X43694355Y-31000000D01*
X43714860Y-31168872D01*
X43714860Y-31168873D01*
X43714861Y-31168876D01*
X43715773Y-31172577D01*
X43710253Y-31223720D01*
X43695931Y-31243740D01*
X43537199Y-31402474D01*
X43490579Y-31424214D01*
X43484024Y-31424500D01*
X43180700Y-31424500D01*
X43132362Y-31406907D01*
X43106642Y-31362358D01*
X43105500Y-31349300D01*
X43105500Y-31150002D01*
X43105500Y-31150000D01*
X43104197Y-31121812D01*
X43073472Y-31013827D01*
X43005814Y-30924233D01*
X43005815Y-30924233D01*
X42910361Y-30865130D01*
X42873572Y-30858253D01*
X42800000Y-30844500D01*
X42799996Y-30844500D01*
X42225700Y-30844500D01*
X42177362Y-30826907D01*
X42151642Y-30782358D01*
X42150500Y-30769300D01*
X42150500Y-30383462D01*
X42163174Y-30341683D01*
X42188865Y-30303234D01*
X42188865Y-30303233D01*
X42188867Y-30303231D01*
X42200500Y-30244748D01*
X42200500Y-29035252D01*
X42188867Y-28976769D01*
X42144552Y-28910448D01*
X42078231Y-28866133D01*
X42078229Y-28866132D01*
X42019749Y-28854500D01*
X42019748Y-28854500D01*
X41605252Y-28854500D01*
X41605251Y-28854500D01*
X41546770Y-28866132D01*
X41546768Y-28866133D01*
X41480445Y-28910450D01*
X41475211Y-28915685D01*
X41472689Y-28913163D01*
X41442614Y-28935007D01*
X41391300Y-28931410D01*
X41380119Y-28925243D01*
X41359467Y-28911443D01*
X41359462Y-28911441D01*
X41315013Y-28902600D01*
X41300000Y-28902600D01*
X41300000Y-30377400D01*
X41315013Y-30377400D01*
X41359462Y-30368558D01*
X41359465Y-30368557D01*
X41380117Y-30354757D01*
X41430083Y-30342529D01*
X41474898Y-30364628D01*
X41475211Y-30364316D01*
X41476131Y-30365236D01*
X41476218Y-30365279D01*
X41476397Y-30365502D01*
X41477474Y-30366579D01*
X41477768Y-30367210D01*
X41484422Y-30375499D01*
X41484561Y-30375707D01*
X41482403Y-30377149D01*
X41499214Y-30413199D01*
X41499500Y-30419753D01*
X41499500Y-30769300D01*
X41481907Y-30817638D01*
X41437358Y-30843358D01*
X41424300Y-30844500D01*
X40875700Y-30844500D01*
X40827362Y-30826907D01*
X40801642Y-30782358D01*
X40800500Y-30769300D01*
X40800500Y-30415677D01*
X40818093Y-30367339D01*
X40862642Y-30341619D01*
X40913300Y-30350552D01*
X40917481Y-30353152D01*
X40940534Y-30368557D01*
X40940537Y-30368558D01*
X40984987Y-30377400D01*
X41000000Y-30377400D01*
X41000000Y-28902600D01*
X40984987Y-28902600D01*
X40940537Y-28911441D01*
X40940536Y-28911442D01*
X40902596Y-28936793D01*
X40852630Y-28949019D01*
X40806495Y-28926267D01*
X40798298Y-28916054D01*
X40794552Y-28910448D01*
X40728231Y-28866133D01*
X40728229Y-28866132D01*
X40669749Y-28854500D01*
X40669748Y-28854500D01*
X40255252Y-28854500D01*
X40255251Y-28854500D01*
X40196770Y-28866132D01*
X40196768Y-28866133D01*
X40130448Y-28910448D01*
X40086133Y-28976768D01*
X40086132Y-28976770D01*
X40074500Y-29035251D01*
X40074500Y-30244748D01*
X40086132Y-30303229D01*
X40086134Y-30303234D01*
X40134563Y-30375711D01*
X40132404Y-30377153D01*
X40149214Y-30413199D01*
X40149500Y-30419753D01*
X40149500Y-30769300D01*
X40131907Y-30817638D01*
X40087358Y-30843358D01*
X40074300Y-30844500D01*
X40000000Y-30844500D01*
X39983087Y-30845281D01*
X39971810Y-30845803D01*
X39863827Y-30876527D01*
X39774233Y-30944185D01*
X39715130Y-31039638D01*
X39706553Y-31085525D01*
X39694500Y-31150000D01*
X39694500Y-31150002D01*
X39694500Y-31150004D01*
X39694500Y-32449997D01*
X39695803Y-32478189D01*
X39726527Y-32586172D01*
X39794185Y-32675766D01*
X39794184Y-32675766D01*
X39889638Y-32734869D01*
X39889639Y-32734869D01*
X39889641Y-32734870D01*
X40000000Y-32755500D01*
X40000004Y-32755500D01*
X41452020Y-32755500D01*
X41500358Y-32773093D01*
X41526078Y-32817642D01*
X41517145Y-32868300D01*
X41491219Y-32893274D01*
X41491652Y-32893861D01*
X41487198Y-32897147D01*
X41487161Y-32897184D01*
X41487120Y-32897205D01*
X41377850Y-32977850D01*
X41297207Y-33087117D01*
X41297204Y-33087122D01*
X41279880Y-33136636D01*
X41247310Y-33176451D01*
X41208900Y-33187000D01*
X37850700Y-33187000D01*
X37802362Y-33169407D01*
X37776642Y-33124858D01*
X37775500Y-33111800D01*
X37775500Y-32445204D01*
X37793093Y-32396866D01*
X37837642Y-32371146D01*
X37888300Y-32380079D01*
X37917704Y-32411064D01*
X37970394Y-32514474D01*
X38060525Y-32604605D01*
X38174101Y-32662475D01*
X38174099Y-32662475D01*
X38268328Y-32677399D01*
X38268336Y-32677400D01*
X38300000Y-32677400D01*
X38800000Y-32677400D01*
X38831664Y-32677400D01*
X38831671Y-32677399D01*
X38925899Y-32662475D01*
X39039474Y-32604605D01*
X39129605Y-32514474D01*
X39187475Y-32400899D01*
X39202399Y-32306671D01*
X39202400Y-32306664D01*
X39202400Y-32050000D01*
X38800000Y-32050000D01*
X38800000Y-32677400D01*
X38300000Y-32677400D01*
X38300000Y-31550000D01*
X38800000Y-31550000D01*
X39202400Y-31550000D01*
X39202400Y-31293336D01*
X39202399Y-31293328D01*
X39187475Y-31199100D01*
X39129605Y-31085525D01*
X39039474Y-30995394D01*
X38925898Y-30937524D01*
X38925900Y-30937524D01*
X38831671Y-30922600D01*
X38800000Y-30922600D01*
X38800000Y-31550000D01*
X38300000Y-31550000D01*
X38300000Y-30922600D01*
X38268328Y-30922600D01*
X38174100Y-30937524D01*
X38060525Y-30995394D01*
X37970394Y-31085525D01*
X37917704Y-31188935D01*
X37880083Y-31224017D01*
X37828713Y-31226709D01*
X37787632Y-31195752D01*
X37775500Y-31154795D01*
X37775500Y-31098921D01*
X37775501Y-31098908D01*
X37775501Y-31007149D01*
X37775338Y-31006540D01*
X37753318Y-30924362D01*
X37719962Y-30866588D01*
X37710465Y-30850138D01*
X37710463Y-30850136D01*
X37710461Y-30850133D01*
X37647247Y-30786919D01*
X37647224Y-30786898D01*
X35399862Y-28539534D01*
X35399863Y-28539534D01*
X35325646Y-28496685D01*
X35325640Y-28496683D01*
X35325639Y-28496682D01*
X35242853Y-28474500D01*
X35242851Y-28474500D01*
X33365975Y-28474500D01*
X33317637Y-28456907D01*
X33312801Y-28452474D01*
X33304068Y-28443741D01*
X33282328Y-28397121D01*
X33284229Y-28372563D01*
X33285136Y-28368881D01*
X33285140Y-28368872D01*
X33305645Y-28200000D01*
X33285140Y-28031128D01*
X33224818Y-27872070D01*
X33128183Y-27732071D01*
X33128178Y-27732067D01*
X33128174Y-27732062D01*
X33000855Y-27619268D01*
X33000852Y-27619266D01*
X32850225Y-27540210D01*
X32813361Y-27531124D01*
X32685056Y-27499500D01*
X32514944Y-27499500D01*
X32418147Y-27523358D01*
X32349774Y-27540210D01*
X32199147Y-27619266D01*
X32199144Y-27619268D01*
X32071825Y-27732062D01*
X32071816Y-27732072D01*
X31975182Y-27872069D01*
X31975181Y-27872072D01*
X31914861Y-28031124D01*
X31914860Y-28031126D01*
X31914860Y-28031128D01*
X31894355Y-28200000D01*
X31914860Y-28368872D01*
X31914860Y-28368874D01*
X31914861Y-28368875D01*
X31935577Y-28423499D01*
X31975182Y-28527930D01*
X32071817Y-28667929D01*
X32071820Y-28667932D01*
X32071825Y-28667937D01*
X32199144Y-28780731D01*
X32199146Y-28780732D01*
X32199148Y-28780734D01*
X32349775Y-28859790D01*
X32514944Y-28900500D01*
X32514946Y-28900500D01*
X32685053Y-28900500D01*
X32685056Y-28900500D01*
X32768322Y-28879976D01*
X32819462Y-28885490D01*
X32839487Y-28899814D01*
X32930066Y-28990393D01*
X33000139Y-29060466D01*
X33074353Y-29103314D01*
X33074356Y-29103315D01*
X33074361Y-29103318D01*
X33157147Y-29125500D01*
X33242853Y-29125500D01*
X35034025Y-29125500D01*
X35082363Y-29143093D01*
X35087199Y-29147526D01*
X37102474Y-31162800D01*
X37124214Y-31209420D01*
X37124500Y-31215974D01*
X37124500Y-32980747D01*
X37106907Y-33029085D01*
X37062358Y-33054805D01*
X37011700Y-33045872D01*
X36988795Y-33025403D01*
X36981651Y-33015724D01*
X36972150Y-33002850D01*
X36862882Y-32922207D01*
X36862879Y-32922205D01*
X36754638Y-32884331D01*
X36734699Y-32877354D01*
X36734694Y-32877353D01*
X36734692Y-32877353D01*
X36704273Y-32874500D01*
X36704266Y-32874500D01*
X35695734Y-32874500D01*
X35695727Y-32874500D01*
X35665307Y-32877353D01*
X35665303Y-32877353D01*
X35665301Y-32877354D01*
X35665298Y-32877354D01*
X35665298Y-32877355D01*
X35537120Y-32922205D01*
X35537117Y-32922207D01*
X35427850Y-33002850D01*
X35347207Y-33112117D01*
X35347205Y-33112120D01*
X35302355Y-33240298D01*
X35302353Y-33240307D01*
X35299500Y-33270726D01*
X35299500Y-33904273D01*
X35302353Y-33934692D01*
X35302354Y-33934699D01*
X35302355Y-33934701D01*
X35347205Y-34062879D01*
X35347207Y-34062882D01*
X35427850Y-34172150D01*
X35536586Y-34252400D01*
X35537117Y-34252792D01*
X35537120Y-34252794D01*
X35559215Y-34260525D01*
X35665301Y-34297646D01*
X35679347Y-34298963D01*
X35695727Y-34300500D01*
X35695734Y-34300500D01*
X36704272Y-34300500D01*
X36718312Y-34299182D01*
X36734699Y-34297646D01*
X36862882Y-34252793D01*
X36972150Y-34172150D01*
X37052793Y-34062882D01*
X37057301Y-34050000D01*
X37061373Y-34038363D01*
X37093944Y-33998548D01*
X37132353Y-33988000D01*
X37397273Y-33988000D01*
X41226395Y-33988000D01*
X41274733Y-34005593D01*
X41293859Y-34033274D01*
X41294573Y-34032898D01*
X41297207Y-34037882D01*
X41377850Y-34147150D01*
X41463011Y-34210001D01*
X41487117Y-34227792D01*
X41487120Y-34227794D01*
X41514788Y-34237475D01*
X41615301Y-34272646D01*
X41629347Y-34273963D01*
X41645727Y-34275500D01*
X41645734Y-34275500D01*
X42654272Y-34275500D01*
X42668312Y-34274182D01*
X42684699Y-34272646D01*
X42812882Y-34227793D01*
X42922150Y-34147150D01*
X43002793Y-34037882D01*
X43004537Y-34032898D01*
X43011373Y-34013363D01*
X43043944Y-33973548D01*
X43082353Y-33963000D01*
X45565458Y-33963000D01*
X45613796Y-33980593D01*
X45618632Y-33985025D01*
X45692691Y-34059083D01*
X45714431Y-34105703D01*
X45703633Y-34151555D01*
X44685716Y-35812368D01*
X44645456Y-35844387D01*
X44594034Y-35843036D01*
X44555510Y-35808948D01*
X44546400Y-35773071D01*
X44546400Y-34753500D01*
X38653600Y-34753500D01*
X38653600Y-36419300D01*
X38636007Y-36467638D01*
X38591458Y-36493358D01*
X38578400Y-36494500D01*
X37399998Y-36494500D01*
X37351600Y-36498358D01*
X37351591Y-36498360D01*
X37245900Y-36536213D01*
X37245899Y-36536213D01*
X37161016Y-36609692D01*
X37161012Y-36609698D01*
X37108405Y-36708877D01*
X36847476Y-37543853D01*
X36816265Y-37584743D01*
X36766073Y-37596004D01*
X36720385Y-37572368D01*
X36700579Y-37524895D01*
X36700499Y-37521423D01*
X36700499Y-37460252D01*
X36688866Y-37401771D01*
X36688865Y-37401769D01*
X36644551Y-37335449D01*
X36578230Y-37291134D01*
X36567086Y-37288917D01*
X36561027Y-37287712D01*
X36517052Y-37261025D01*
X36500500Y-37213957D01*
X36500500Y-36200700D01*
X36518093Y-36152362D01*
X36562642Y-36126642D01*
X36575700Y-36125500D01*
X36704272Y-36125500D01*
X36718312Y-36124182D01*
X36734699Y-36122646D01*
X36862882Y-36077793D01*
X36972150Y-35997150D01*
X37052793Y-35887882D01*
X37097646Y-35759699D01*
X37099073Y-35744482D01*
X37100500Y-35729273D01*
X37100500Y-35095726D01*
X37098869Y-35078343D01*
X37097646Y-35065301D01*
X37052793Y-34937118D01*
X36972150Y-34827850D01*
X36862882Y-34747207D01*
X36862879Y-34747205D01*
X36757762Y-34710424D01*
X36734699Y-34702354D01*
X36734694Y-34702353D01*
X36734692Y-34702353D01*
X36704273Y-34699500D01*
X36704266Y-34699500D01*
X35695734Y-34699500D01*
X35695727Y-34699500D01*
X35665307Y-34702353D01*
X35665303Y-34702353D01*
X35665301Y-34702354D01*
X35665298Y-34702354D01*
X35665298Y-34702355D01*
X35537120Y-34747205D01*
X35537117Y-34747207D01*
X35427850Y-34827850D01*
X35347207Y-34937117D01*
X35347205Y-34937120D01*
X35302355Y-35065298D01*
X35302353Y-35065307D01*
X35299500Y-35095726D01*
X35299500Y-35729273D01*
X35302353Y-35759692D01*
X35302354Y-35759699D01*
X35302355Y-35759701D01*
X35347205Y-35887879D01*
X35347207Y-35887882D01*
X35427850Y-35997150D01*
X35529471Y-36072149D01*
X35537117Y-36077792D01*
X35537120Y-36077794D01*
X35567889Y-36088560D01*
X35665301Y-36122646D01*
X35679347Y-36123963D01*
X35695727Y-36125500D01*
X35695734Y-36125500D01*
X35824300Y-36125500D01*
X35872638Y-36143093D01*
X35898358Y-36187642D01*
X35899500Y-36200700D01*
X35899500Y-36425005D01*
X33700500Y-36449994D01*
X33700500Y-36275700D01*
X33718093Y-36227362D01*
X33762642Y-36201642D01*
X33775700Y-36200500D01*
X33929272Y-36200500D01*
X33943312Y-36199182D01*
X33959699Y-36197646D01*
X34087882Y-36152793D01*
X34197150Y-36072150D01*
X34277793Y-35962882D01*
X34322646Y-35834699D01*
X34324073Y-35819482D01*
X34325500Y-35804273D01*
X34325500Y-35195726D01*
X34323869Y-35178343D01*
X34322646Y-35165301D01*
X34277793Y-35037118D01*
X34197150Y-34927850D01*
X34087882Y-34847207D01*
X34087879Y-34847205D01*
X33990470Y-34813121D01*
X33959699Y-34802354D01*
X33959694Y-34802353D01*
X33959692Y-34802353D01*
X33929273Y-34799500D01*
X33929266Y-34799500D01*
X32870734Y-34799500D01*
X32870727Y-34799500D01*
X32840307Y-34802353D01*
X32840303Y-34802353D01*
X32840301Y-34802354D01*
X32840298Y-34802354D01*
X32840298Y-34802355D01*
X32712120Y-34847205D01*
X32712117Y-34847207D01*
X32602850Y-34927850D01*
X32522207Y-35037117D01*
X32522205Y-35037120D01*
X32477355Y-35165298D01*
X32477353Y-35165307D01*
X32474500Y-35195726D01*
X32474500Y-35804273D01*
X32477353Y-35834692D01*
X32477354Y-35834699D01*
X32477355Y-35834701D01*
X32522205Y-35962879D01*
X32522207Y-35962882D01*
X32602850Y-36072150D01*
X32698975Y-36143093D01*
X32712117Y-36152792D01*
X32712120Y-36152794D01*
X32742889Y-36163560D01*
X32840301Y-36197646D01*
X32854347Y-36198963D01*
X32870727Y-36200500D01*
X32870734Y-36200500D01*
X33024300Y-36200500D01*
X33072638Y-36218093D01*
X33098358Y-36262642D01*
X33099500Y-36275700D01*
X33099500Y-37213957D01*
X33081907Y-37262295D01*
X33038972Y-37287712D01*
X33021770Y-37291133D01*
X33021768Y-37291134D01*
X32955448Y-37335449D01*
X32911133Y-37401769D01*
X32908299Y-37408613D01*
X32905604Y-37407496D01*
X32885444Y-37440713D01*
X32836732Y-37457243D01*
X32788792Y-37438595D01*
X32785206Y-37435235D01*
X32047526Y-36697555D01*
X32025786Y-36650935D01*
X32025500Y-36644381D01*
X32025500Y-36345726D01*
X32023869Y-36328343D01*
X32022646Y-36315301D01*
X31981476Y-36197644D01*
X31977794Y-36187120D01*
X31977792Y-36187117D01*
X31897150Y-36077850D01*
X31787882Y-35997207D01*
X31787879Y-35997205D01*
X31689778Y-35962879D01*
X31659699Y-35952354D01*
X31659694Y-35952353D01*
X31659692Y-35952353D01*
X31629273Y-35949500D01*
X31629266Y-35949500D01*
X30570734Y-35949500D01*
X30570727Y-35949500D01*
X30540307Y-35952353D01*
X30540303Y-35952353D01*
X30540301Y-35952354D01*
X30540298Y-35952354D01*
X30540298Y-35952355D01*
X30412120Y-35997205D01*
X30412117Y-35997207D01*
X30302850Y-36077850D01*
X30222207Y-36187117D01*
X30222205Y-36187120D01*
X30177355Y-36315298D01*
X30177353Y-36315307D01*
X30174500Y-36345726D01*
X30174500Y-36954273D01*
X30176177Y-36972150D01*
X30177354Y-36984699D01*
X30204227Y-37061499D01*
X30223340Y-37116120D01*
X30222699Y-37167556D01*
X30189145Y-37206546D01*
X30138379Y-37214846D01*
X30094155Y-37188573D01*
X30089692Y-37182523D01*
X29356963Y-36077794D01*
X28954590Y-35471139D01*
X28914585Y-35424466D01*
X28896487Y-35376319D01*
X28913572Y-35327800D01*
X28946629Y-35306499D01*
X28946091Y-35305200D01*
X28950633Y-35303318D01*
X28950641Y-35303316D01*
X29024864Y-35260463D01*
X29253656Y-35031671D01*
X30222600Y-35031671D01*
X30237524Y-35125899D01*
X30295394Y-35239474D01*
X30385525Y-35329605D01*
X30499101Y-35387475D01*
X30499099Y-35387475D01*
X30593328Y-35402399D01*
X30593336Y-35402400D01*
X30850000Y-35402400D01*
X31350000Y-35402400D01*
X31606664Y-35402400D01*
X31606671Y-35402399D01*
X31700899Y-35387475D01*
X31814474Y-35329605D01*
X31904605Y-35239474D01*
X31962475Y-35125899D01*
X31977399Y-35031671D01*
X31977400Y-35031664D01*
X31977400Y-35000000D01*
X31350000Y-35000000D01*
X31350000Y-35402400D01*
X30850000Y-35402400D01*
X30850000Y-35000000D01*
X30222600Y-35000000D01*
X30222600Y-35031671D01*
X29253656Y-35031671D01*
X29816999Y-34468328D01*
X30222600Y-34468328D01*
X30222600Y-34500000D01*
X30850000Y-34500000D01*
X31350000Y-34500000D01*
X31977400Y-34500000D01*
X31977400Y-34468336D01*
X31977399Y-34468328D01*
X31962475Y-34374100D01*
X31904605Y-34260525D01*
X31814474Y-34170394D01*
X31700898Y-34112524D01*
X31700900Y-34112524D01*
X31606671Y-34097600D01*
X31350000Y-34097600D01*
X31350000Y-34500000D01*
X30850000Y-34500000D01*
X30850000Y-34097600D01*
X30593328Y-34097600D01*
X30499100Y-34112524D01*
X30385525Y-34170394D01*
X30295394Y-34260525D01*
X30237524Y-34374100D01*
X30222600Y-34468328D01*
X29816999Y-34468328D01*
X29847965Y-34437362D01*
X29890818Y-34363139D01*
X29913000Y-34280353D01*
X29913000Y-34194647D01*
X29913000Y-33881671D01*
X32522600Y-33881671D01*
X32537524Y-33975899D01*
X32595394Y-34089474D01*
X32685525Y-34179605D01*
X32799101Y-34237475D01*
X32799099Y-34237475D01*
X32893328Y-34252399D01*
X32893336Y-34252400D01*
X33150000Y-34252400D01*
X33650000Y-34252400D01*
X33906664Y-34252400D01*
X33906671Y-34252399D01*
X34000899Y-34237475D01*
X34114474Y-34179605D01*
X34204605Y-34089474D01*
X34262475Y-33975899D01*
X34277399Y-33881671D01*
X34277400Y-33881664D01*
X34277400Y-33850000D01*
X33650000Y-33850000D01*
X33650000Y-34252400D01*
X33150000Y-34252400D01*
X33150000Y-33850000D01*
X32522600Y-33850000D01*
X32522600Y-33881671D01*
X29913000Y-33881671D01*
X29913000Y-33758596D01*
X29930593Y-33710258D01*
X29963363Y-33687616D01*
X30062879Y-33652794D01*
X30062878Y-33652794D01*
X30062882Y-33652793D01*
X30172150Y-33572150D01*
X30252793Y-33462882D01*
X30297646Y-33334699D01*
X30299481Y-33315130D01*
X30300500Y-33304273D01*
X30300500Y-33281671D01*
X30747600Y-33281671D01*
X30762524Y-33375899D01*
X30820394Y-33489474D01*
X30910525Y-33579605D01*
X31024101Y-33637475D01*
X31024099Y-33637475D01*
X31118328Y-33652399D01*
X31118336Y-33652400D01*
X31162500Y-33652400D01*
X31662500Y-33652400D01*
X31706664Y-33652400D01*
X31706671Y-33652399D01*
X31800899Y-33637475D01*
X31914474Y-33579605D01*
X32004605Y-33489474D01*
X32062475Y-33375899D01*
X32071593Y-33318328D01*
X32522600Y-33318328D01*
X32522600Y-33350000D01*
X33150000Y-33350000D01*
X33650000Y-33350000D01*
X34277400Y-33350000D01*
X34277400Y-33318336D01*
X34277399Y-33318328D01*
X34262475Y-33224100D01*
X34204605Y-33110525D01*
X34114474Y-33020394D01*
X34000898Y-32962524D01*
X34000900Y-32962524D01*
X33906671Y-32947600D01*
X33650000Y-32947600D01*
X33650000Y-33350000D01*
X33150000Y-33350000D01*
X33150000Y-32947600D01*
X32893328Y-32947600D01*
X32799100Y-32962524D01*
X32685525Y-33020394D01*
X32595394Y-33110525D01*
X32537524Y-33224100D01*
X32522600Y-33318328D01*
X32071593Y-33318328D01*
X32077399Y-33281671D01*
X32077400Y-33281664D01*
X32077400Y-33050000D01*
X31662500Y-33050000D01*
X31662500Y-33652400D01*
X31162500Y-33652400D01*
X31162500Y-33050000D01*
X30747600Y-33050000D01*
X30747600Y-33281671D01*
X30300500Y-33281671D01*
X30300500Y-32318328D01*
X30747600Y-32318328D01*
X30747600Y-32550000D01*
X31162500Y-32550000D01*
X31662500Y-32550000D01*
X32077400Y-32550000D01*
X32077400Y-32318336D01*
X32077399Y-32318328D01*
X32062475Y-32224100D01*
X32004605Y-32110525D01*
X31914474Y-32020394D01*
X31800898Y-31962524D01*
X31800900Y-31962524D01*
X31706671Y-31947600D01*
X31662500Y-31947600D01*
X31662500Y-32550000D01*
X31162500Y-32550000D01*
X31162500Y-31947600D01*
X31118328Y-31947600D01*
X31024100Y-31962524D01*
X30910525Y-32020394D01*
X30820394Y-32110525D01*
X30762524Y-32224100D01*
X30747600Y-32318328D01*
X30300500Y-32318328D01*
X30300500Y-32295726D01*
X30298869Y-32278343D01*
X30297646Y-32265301D01*
X30252793Y-32137118D01*
X30172150Y-32027850D01*
X30062882Y-31947207D01*
X30062879Y-31947205D01*
X29965470Y-31913121D01*
X29934699Y-31902354D01*
X29934694Y-31902353D01*
X29934692Y-31902353D01*
X29904273Y-31899500D01*
X29904266Y-31899500D01*
X29270734Y-31899500D01*
X29270727Y-31899500D01*
X29240307Y-31902353D01*
X29240303Y-31902353D01*
X29240301Y-31902354D01*
X29240298Y-31902354D01*
X29240298Y-31902355D01*
X29112120Y-31947205D01*
X29112117Y-31947207D01*
X29046476Y-31995652D01*
X28997136Y-32010200D01*
X28949988Y-31989629D01*
X28948647Y-31988320D01*
X28504068Y-31543741D01*
X28482328Y-31497121D01*
X28484229Y-31472563D01*
X28485136Y-31468881D01*
X28485140Y-31468872D01*
X28505645Y-31300000D01*
X28485140Y-31131128D01*
X28424818Y-30972070D01*
X28328183Y-30832071D01*
X28328178Y-30832067D01*
X28328174Y-30832062D01*
X28200855Y-30719268D01*
X28200852Y-30719266D01*
X28050225Y-30640210D01*
X27885056Y-30599500D01*
X27714944Y-30599500D01*
X27604831Y-30626640D01*
X27549774Y-30640210D01*
X27399147Y-30719266D01*
X27399144Y-30719268D01*
X27271825Y-30832062D01*
X27271816Y-30832072D01*
X27175182Y-30972069D01*
X27175181Y-30972072D01*
X27114861Y-31131124D01*
X27114860Y-31131126D01*
X27114860Y-31131128D01*
X27094355Y-31300000D01*
X27114860Y-31468872D01*
X27175182Y-31627930D01*
X27271817Y-31767929D01*
X27271820Y-31767932D01*
X27271825Y-31767937D01*
X27399144Y-31880731D01*
X27399146Y-31880732D01*
X27399148Y-31880734D01*
X27549775Y-31959790D01*
X27714944Y-32000500D01*
X27714946Y-32000500D01*
X27885053Y-32000500D01*
X27885056Y-32000500D01*
X27968322Y-31979976D01*
X28019462Y-31985490D01*
X28039490Y-31999817D01*
X28852474Y-32812801D01*
X28874214Y-32859421D01*
X28874500Y-32865975D01*
X28874500Y-33304273D01*
X28875819Y-33318336D01*
X28877354Y-33334699D01*
X28877355Y-33334701D01*
X28922205Y-33462879D01*
X28922207Y-33462882D01*
X29002850Y-33572150D01*
X29111586Y-33652400D01*
X29112117Y-33652792D01*
X29112120Y-33652794D01*
X29211637Y-33687616D01*
X29251451Y-33720187D01*
X29262000Y-33758596D01*
X29262000Y-34071525D01*
X29244407Y-34119863D01*
X29239974Y-34124699D01*
X28712201Y-34652472D01*
X28665581Y-34674212D01*
X28659027Y-34674498D01*
X27957145Y-34674498D01*
X27920974Y-34684190D01*
X27874357Y-34696680D01*
X27850554Y-34710424D01*
X27812954Y-34720499D01*
X27684928Y-34720499D01*
X27671442Y-34723181D01*
X27620602Y-34715353D01*
X27604283Y-34700395D01*
X27602992Y-34701687D01*
X27597753Y-34696448D01*
X27569834Y-34677793D01*
X27531431Y-34652132D01*
X27531429Y-34652131D01*
X27472947Y-34640498D01*
X27469273Y-34640137D01*
X27469338Y-34639469D01*
X27444508Y-34633896D01*
X27444309Y-34634377D01*
X27415505Y-34622447D01*
X27415502Y-34622446D01*
X27376959Y-34610755D01*
X27376956Y-34610754D01*
X27376955Y-34610754D01*
X27340302Y-34603463D01*
X27340226Y-34603448D01*
X27322349Y-34599893D01*
X27322337Y-34599891D01*
X27322331Y-34599890D01*
X27322316Y-34599887D01*
X27302423Y-34596937D01*
X27302421Y-34596936D01*
X27302409Y-34596935D01*
X27287740Y-34595490D01*
X27287730Y-34595489D01*
X27287709Y-34595488D01*
X27267626Y-34594500D01*
X27267594Y-34594500D01*
X26116323Y-34594500D01*
X26116318Y-34594500D01*
X26091179Y-34596044D01*
X26091175Y-34596044D01*
X26072847Y-34598306D01*
X26048051Y-34602927D01*
X26048041Y-34602929D01*
X25980984Y-34619745D01*
X25980977Y-34619747D01*
X25933988Y-34637894D01*
X25901735Y-34655155D01*
X25860585Y-34684176D01*
X25860568Y-34684190D01*
X25809393Y-34730644D01*
X25809358Y-34730678D01*
X25791770Y-34748733D01*
X25779748Y-34762696D01*
X25779748Y-34762697D01*
X25764490Y-34782791D01*
X25465678Y-35231011D01*
X25457759Y-35243891D01*
X25452324Y-35253508D01*
X25445379Y-35266921D01*
X25427499Y-35304802D01*
X25427493Y-35304816D01*
X25416659Y-35332955D01*
X25416657Y-35332963D01*
X25416654Y-35332972D01*
X25411079Y-35351386D01*
X25410265Y-35354073D01*
X25403671Y-35383489D01*
X25403667Y-35383512D01*
X25397526Y-35424978D01*
X25395864Y-35440002D01*
X25395055Y-35450996D01*
X25394500Y-35466090D01*
X25394500Y-37829825D01*
X25385653Y-37865213D01*
X24697933Y-39154688D01*
X24659662Y-39189060D01*
X24631580Y-39194500D01*
X21057373Y-39194500D01*
X21037290Y-39195488D01*
X21037266Y-39195489D01*
X21037260Y-39195490D01*
X21022591Y-39196935D01*
X21022564Y-39196938D01*
X21022556Y-39196940D01*
X21002677Y-39199888D01*
X21002636Y-39199895D01*
X20988644Y-39202677D01*
X20988638Y-39202679D01*
X20987060Y-39202992D01*
X20987058Y-39202993D01*
X20972314Y-39205925D01*
X20948048Y-39210752D01*
X20948036Y-39210755D01*
X20909486Y-39222449D01*
X20882400Y-39233668D01*
X20882397Y-39233669D01*
X20846868Y-39252659D01*
X20846867Y-39252660D01*
X20846864Y-39252661D01*
X20846862Y-39252663D01*
X20826716Y-39266123D01*
X20806835Y-39279408D01*
X20775697Y-39304963D01*
X20775687Y-39304972D01*
X20754972Y-39325687D01*
X20754963Y-39325697D01*
X20729408Y-39356835D01*
X20702660Y-39396867D01*
X20702659Y-39396868D01*
X20683669Y-39432397D01*
X20683668Y-39432400D01*
X20672449Y-39459486D01*
X20660755Y-39498036D01*
X20660751Y-39498052D01*
X20652991Y-39537067D01*
X20652992Y-39537068D01*
X20649890Y-39552660D01*
X20649888Y-39552677D01*
X20647407Y-39569410D01*
X20646935Y-39572591D01*
X20646769Y-39574279D01*
X20645490Y-39587262D01*
X20645488Y-39587290D01*
X20644500Y-39607373D01*
X18373283Y-39607373D01*
X20069114Y-37911543D01*
X20145775Y-37796811D01*
X20198580Y-37669328D01*
X20225500Y-37533994D01*
X20225500Y-37396006D01*
X20225500Y-34892671D01*
X20243093Y-34844333D01*
X20250038Y-34837098D01*
X20288151Y-34802353D01*
X20343025Y-34752329D01*
X20466124Y-34589319D01*
X20557174Y-34406466D01*
X20570481Y-34359699D01*
X20613074Y-34210000D01*
X20613074Y-34209999D01*
X20613075Y-34209996D01*
X20631922Y-34006600D01*
X20630198Y-33988000D01*
X20622440Y-33904273D01*
X20613075Y-33803204D01*
X20600383Y-33758596D01*
X20557175Y-33606735D01*
X20557173Y-33606732D01*
X20466126Y-33423884D01*
X20343028Y-33260874D01*
X20343025Y-33260871D01*
X20192072Y-33123258D01*
X20018401Y-33015725D01*
X19827925Y-32941934D01*
X19794459Y-32935678D01*
X19627134Y-32904400D01*
X19422866Y-32904400D01*
X19305251Y-32926386D01*
X19222074Y-32941934D01*
X19031599Y-33015725D01*
X19031598Y-33015725D01*
X18857927Y-33123258D01*
X18706974Y-33260871D01*
X18706971Y-33260874D01*
X18583873Y-33423884D01*
X18492826Y-33606732D01*
X18492824Y-33606735D01*
X18436925Y-33803199D01*
X18418078Y-34006597D01*
X18418078Y-34006602D01*
X18436925Y-34209996D01*
X18436926Y-34210001D01*
X18467820Y-34318581D01*
X18469246Y-34324489D01*
X18485552Y-34406464D01*
X18486028Y-34408853D01*
X18518762Y-34487881D01*
X18557677Y-34581830D01*
X18661698Y-34737508D01*
X18661700Y-34737510D01*
X18661702Y-34737513D01*
X18794086Y-34869897D01*
X18796948Y-34872246D01*
X18795477Y-34874038D01*
X18821390Y-34909013D01*
X18824500Y-34930415D01*
X18824500Y-37143694D01*
X18806907Y-37192032D01*
X18802474Y-37196868D01*
X16475840Y-39523501D01*
X16438301Y-39543884D01*
X16398062Y-39552437D01*
X16397100Y-39552635D01*
X16361890Y-39559639D01*
X16318168Y-39568337D01*
X16318165Y-39568338D01*
X16318161Y-39568339D01*
X16314630Y-39569410D01*
X16314608Y-39569338D01*
X16306045Y-39571997D01*
X16301412Y-39572982D01*
X16228297Y-39605533D01*
X16226491Y-39606309D01*
X16157935Y-39634707D01*
X16157924Y-39634712D01*
X16153594Y-39637606D01*
X16142411Y-39643773D01*
X16132326Y-39648263D01*
X16132324Y-39648265D01*
X16072632Y-39691632D01*
X16070212Y-39693319D01*
X16013712Y-39731072D01*
X16013704Y-39731079D01*
X16005571Y-39739211D01*
X15996607Y-39746867D01*
X15982593Y-39757049D01*
X15982585Y-39757057D01*
X15937407Y-39807230D01*
X15934700Y-39810083D01*
X15891072Y-39853712D01*
X15891067Y-39853718D01*
X15881181Y-39868513D01*
X15874544Y-39877047D01*
X15858735Y-39894605D01*
X15828103Y-39947660D01*
X15825507Y-39951835D01*
X15794710Y-39997927D01*
X15794708Y-39997931D01*
X15785489Y-40020185D01*
X15781143Y-40028999D01*
X15766194Y-40054893D01*
X15749196Y-40107203D01*
X15747153Y-40112739D01*
X15728338Y-40158164D01*
X15728337Y-40158167D01*
X15728337Y-40158168D01*
X15722413Y-40187947D01*
X15720178Y-40196509D01*
X15708998Y-40230920D01*
X15708996Y-40230928D01*
X15703903Y-40279387D01*
X15702870Y-40286196D01*
X15694500Y-40328275D01*
X15694500Y-40364914D01*
X15694088Y-40372774D01*
X15689650Y-40414999D01*
X14500500Y-40414999D01*
X14500500Y-28926600D01*
X18465800Y-28926600D01*
X18486151Y-29133236D01*
X18546427Y-29331939D01*
X18622947Y-29475098D01*
X18925718Y-29172327D01*
X18951016Y-29233401D01*
X19021899Y-29339485D01*
X19112115Y-29429701D01*
X19218199Y-29500584D01*
X19279270Y-29525880D01*
X18976500Y-29828651D01*
X19119661Y-29905172D01*
X19318365Y-29965448D01*
X19318361Y-29965448D01*
X19525000Y-29985799D01*
X19731636Y-29965448D01*
X19930343Y-29905170D01*
X20073497Y-29828652D01*
X20073498Y-29828651D01*
X19770728Y-29525881D01*
X19831801Y-29500584D01*
X19937885Y-29429701D01*
X20028101Y-29339485D01*
X20098984Y-29233401D01*
X20124281Y-29172328D01*
X20427051Y-29475098D01*
X20427052Y-29475097D01*
X20503570Y-29331943D01*
X20563848Y-29133236D01*
X20584199Y-28926600D01*
X20563848Y-28719963D01*
X20503572Y-28521261D01*
X20427051Y-28378100D01*
X20124280Y-28680870D01*
X20098984Y-28619799D01*
X20028101Y-28513715D01*
X19937885Y-28423499D01*
X19831801Y-28352616D01*
X19770727Y-28327318D01*
X20073498Y-28024547D01*
X19930339Y-27948027D01*
X19731634Y-27887751D01*
X19731638Y-27887751D01*
X19525000Y-27867400D01*
X19318363Y-27887751D01*
X19119660Y-27948027D01*
X18976500Y-28024547D01*
X19279271Y-28327318D01*
X19218199Y-28352616D01*
X19112115Y-28423499D01*
X19021899Y-28513715D01*
X18951016Y-28619799D01*
X18925718Y-28680871D01*
X18622947Y-28378100D01*
X18546427Y-28521260D01*
X18486151Y-28719963D01*
X18465800Y-28926600D01*
X14500500Y-28926600D01*
X14500500Y-26206671D01*
X36197600Y-26206671D01*
X36212524Y-26300899D01*
X36270394Y-26414474D01*
X36360525Y-26504605D01*
X36474101Y-26562475D01*
X36474099Y-26562475D01*
X36568328Y-26577399D01*
X36568336Y-26577400D01*
X36600000Y-26577400D01*
X37100000Y-26577400D01*
X37131664Y-26577400D01*
X37131671Y-26577399D01*
X37225899Y-26562475D01*
X37339474Y-26504605D01*
X37429605Y-26414474D01*
X37487475Y-26300899D01*
X37502399Y-26206671D01*
X37502400Y-26206664D01*
X37502400Y-25950000D01*
X37100000Y-25950000D01*
X37100000Y-26577400D01*
X36600000Y-26577400D01*
X36600000Y-25950000D01*
X36197600Y-25950000D01*
X36197600Y-26206671D01*
X14500500Y-26206671D01*
X14500500Y-25193328D01*
X36197600Y-25193328D01*
X36197600Y-25450000D01*
X36600000Y-25450000D01*
X37100000Y-25450000D01*
X37502400Y-25450000D01*
X37502400Y-25193336D01*
X37502399Y-25193328D01*
X37487475Y-25099100D01*
X37429605Y-24985525D01*
X37339474Y-24895394D01*
X37225898Y-24837524D01*
X37225900Y-24837524D01*
X37131671Y-24822600D01*
X37100000Y-24822600D01*
X37100000Y-25450000D01*
X36600000Y-25450000D01*
X36600000Y-24822600D01*
X36568328Y-24822600D01*
X36474100Y-24837524D01*
X36360525Y-24895394D01*
X36270394Y-24985525D01*
X36212524Y-25099100D01*
X36197600Y-25193328D01*
X14500500Y-25193328D01*
X14500500Y-20000000D01*
X16494696Y-20000000D01*
X16513897Y-20366403D01*
X16571293Y-20728786D01*
X16571294Y-20728788D01*
X16571295Y-20728794D01*
X16666258Y-21083199D01*
X16666260Y-21083206D01*
X16797741Y-21425730D01*
X16797742Y-21425731D01*
X16964317Y-21752651D01*
X17164149Y-22060366D01*
X17164155Y-22060375D01*
X17395047Y-22345501D01*
X17395064Y-22345520D01*
X17654479Y-22604935D01*
X17654488Y-22604943D01*
X17654494Y-22604949D01*
X17654498Y-22604952D01*
X17939624Y-22835844D01*
X17939631Y-22835849D01*
X17939634Y-22835851D01*
X18222122Y-23019300D01*
X18247348Y-23035682D01*
X18574268Y-23202257D01*
X18574269Y-23202258D01*
X18916793Y-23333739D01*
X18916801Y-23333742D01*
X19271206Y-23428705D01*
X19633596Y-23486102D01*
X20000000Y-23505304D01*
X20366404Y-23486102D01*
X20728794Y-23428705D01*
X21083199Y-23333742D01*
X21265335Y-23263827D01*
X21425730Y-23202258D01*
X21425731Y-23202257D01*
X21425731Y-23202256D01*
X21425736Y-23202255D01*
X21752652Y-23035682D01*
X22060366Y-22835851D01*
X22345506Y-22604949D01*
X22604949Y-22345506D01*
X22835851Y-22060366D01*
X23035682Y-21752652D01*
X23202255Y-21425736D01*
X23202257Y-21425731D01*
X23202258Y-21425730D01*
X23314138Y-21134269D01*
X23333742Y-21083199D01*
X23428705Y-20728794D01*
X23486102Y-20366404D01*
X23505304Y-20000000D01*
X23486102Y-19633596D01*
X23460983Y-19475001D01*
X29367400Y-19475001D01*
X29387751Y-19681637D01*
X29448027Y-19880340D01*
X29524547Y-20023499D01*
X29827318Y-19720728D01*
X29852616Y-19781802D01*
X29923499Y-19887886D01*
X30013715Y-19978102D01*
X30119799Y-20048985D01*
X30180870Y-20074281D01*
X29878100Y-20377052D01*
X30021261Y-20453573D01*
X30219965Y-20513849D01*
X30219961Y-20513849D01*
X30426600Y-20534200D01*
X30633236Y-20513849D01*
X30831943Y-20453571D01*
X30975097Y-20377053D01*
X30975098Y-20377052D01*
X30672328Y-20074282D01*
X30733401Y-20048985D01*
X30839485Y-19978102D01*
X30929701Y-19887886D01*
X31000584Y-19781802D01*
X31025881Y-19720729D01*
X31328651Y-20023499D01*
X31328652Y-20023498D01*
X31405170Y-19880344D01*
X31465448Y-19681637D01*
X31485799Y-19475001D01*
X31485799Y-19474998D01*
X34399678Y-19474998D01*
X34399678Y-19475003D01*
X34418525Y-19678401D01*
X34474424Y-19874865D01*
X34474426Y-19874868D01*
X34565473Y-20057716D01*
X34688571Y-20220726D01*
X34688574Y-20220729D01*
X34839527Y-20358342D01*
X34839529Y-20358343D01*
X34839530Y-20358344D01*
X34869746Y-20377053D01*
X35013198Y-20465875D01*
X35013200Y-20465875D01*
X35013202Y-20465877D01*
X35203676Y-20539667D01*
X35404466Y-20577201D01*
X35404471Y-20577201D01*
X35608729Y-20577201D01*
X35608734Y-20577201D01*
X35809524Y-20539667D01*
X35999998Y-20465877D01*
X36173670Y-20358344D01*
X36324625Y-20220730D01*
X36447724Y-20057720D01*
X36447726Y-20057716D01*
X36492807Y-19967182D01*
X36530101Y-19931754D01*
X36560123Y-19925501D01*
X38857250Y-19925501D01*
X38905588Y-19943094D01*
X38910424Y-19947527D01*
X39777474Y-20814577D01*
X39799214Y-20861197D01*
X39799500Y-20867751D01*
X39799500Y-20936800D01*
X39781907Y-20985138D01*
X39737358Y-21010858D01*
X39724300Y-21012000D01*
X39480951Y-21012000D01*
X39422470Y-21023632D01*
X39422468Y-21023633D01*
X39356148Y-21067948D01*
X39311833Y-21134268D01*
X39311832Y-21134270D01*
X39300200Y-21192751D01*
X39300200Y-22222848D01*
X39311832Y-22281329D01*
X39311833Y-22281331D01*
X39356148Y-22347652D01*
X39422469Y-22391967D01*
X39480952Y-22403600D01*
X39480966Y-22403600D01*
X39483661Y-22403866D01*
X39530044Y-22426107D01*
X39551280Y-22472959D01*
X39551500Y-22478705D01*
X39551500Y-23019300D01*
X39533907Y-23067638D01*
X39489358Y-23093358D01*
X39476300Y-23094500D01*
X39449994Y-23094500D01*
X39391324Y-23100187D01*
X39391318Y-23100188D01*
X39286978Y-23141631D01*
X39204656Y-23217965D01*
X38054652Y-24767971D01*
X38054651Y-24767971D01*
X38015130Y-24839639D01*
X38015130Y-24839641D01*
X37994500Y-24950000D01*
X37994500Y-24950003D01*
X37994500Y-26349997D01*
X37995803Y-26378189D01*
X38026527Y-26486172D01*
X38094185Y-26575766D01*
X38094184Y-26575766D01*
X38189638Y-26634869D01*
X38189639Y-26634869D01*
X38189641Y-26634870D01*
X38300000Y-26655500D01*
X39674003Y-26655500D01*
X39722341Y-26673093D01*
X39740021Y-26694690D01*
X39816288Y-26834511D01*
X39880645Y-26952500D01*
X39885318Y-26961066D01*
X39894500Y-26997076D01*
X39894500Y-27324300D01*
X39876907Y-27372638D01*
X39832358Y-27398358D01*
X39819300Y-27399500D01*
X38683219Y-27399500D01*
X38634881Y-27381907D01*
X38621333Y-27367021D01*
X38528183Y-27232071D01*
X38528174Y-27232062D01*
X38400855Y-27119268D01*
X38400852Y-27119266D01*
X38250225Y-27040210D01*
X38234645Y-27036370D01*
X38085056Y-26999500D01*
X37914944Y-26999500D01*
X37812317Y-27024795D01*
X37749774Y-27040210D01*
X37599147Y-27119266D01*
X37599144Y-27119268D01*
X37471825Y-27232062D01*
X37471816Y-27232072D01*
X37375182Y-27372069D01*
X37375181Y-27372072D01*
X37314861Y-27531124D01*
X37314860Y-27531126D01*
X37314860Y-27531128D01*
X37294355Y-27700000D01*
X37314860Y-27868872D01*
X37314860Y-27868874D01*
X37314861Y-27868875D01*
X37322020Y-27887751D01*
X37375182Y-28027930D01*
X37471817Y-28167929D01*
X37471820Y-28167932D01*
X37471825Y-28167937D01*
X37599144Y-28280731D01*
X37599146Y-28280732D01*
X37599148Y-28280734D01*
X37749775Y-28359790D01*
X37914944Y-28400500D01*
X37914946Y-28400500D01*
X38085054Y-28400500D01*
X38085056Y-28400500D01*
X38250225Y-28359790D01*
X38400852Y-28280734D01*
X38528183Y-28167929D01*
X38621332Y-28032980D01*
X38663269Y-28003195D01*
X38683219Y-28000500D01*
X39819300Y-28000500D01*
X39867638Y-28018093D01*
X39893358Y-28062642D01*
X39894500Y-28075700D01*
X39894500Y-28300000D01*
X39895205Y-28315251D01*
X39895803Y-28328189D01*
X39926527Y-28436172D01*
X39994185Y-28525766D01*
X39994184Y-28525766D01*
X40089638Y-28584869D01*
X40089639Y-28584869D01*
X40089641Y-28584870D01*
X40200000Y-28605500D01*
X40200004Y-28605500D01*
X40749997Y-28605500D01*
X40750000Y-28605500D01*
X40778188Y-28604197D01*
X40886173Y-28573472D01*
X40975767Y-28505814D01*
X41034870Y-28410359D01*
X41055500Y-28300000D01*
X41055500Y-27095251D01*
X41399500Y-27095251D01*
X41399500Y-28304748D01*
X41411132Y-28363229D01*
X41411133Y-28363231D01*
X41455448Y-28429552D01*
X41521769Y-28473867D01*
X41551010Y-28479683D01*
X41580251Y-28485500D01*
X41580252Y-28485500D01*
X42019749Y-28485500D01*
X42039242Y-28481622D01*
X42078231Y-28473867D01*
X42144552Y-28429552D01*
X42188867Y-28363231D01*
X42200500Y-28304748D01*
X42200500Y-27095252D01*
X42196598Y-27075636D01*
X42204423Y-27024795D01*
X42217175Y-27007794D01*
X42390460Y-26834511D01*
X42430022Y-26765988D01*
X42450500Y-26689562D01*
X42450500Y-26687969D01*
X42450828Y-26687065D01*
X42451144Y-26684673D01*
X42451674Y-26684742D01*
X42468093Y-26639631D01*
X42500862Y-26616990D01*
X42581497Y-26588775D01*
X42612877Y-26577795D01*
X42612878Y-26577794D01*
X42612882Y-26577793D01*
X42722150Y-26497150D01*
X42802793Y-26387882D01*
X42847646Y-26259699D01*
X42849073Y-26244482D01*
X42850500Y-26229273D01*
X42850500Y-25239397D01*
X46030301Y-25239397D01*
X46030301Y-25239402D01*
X46049472Y-25482997D01*
X46049474Y-25483007D01*
X46106514Y-25720592D01*
X46106517Y-25720603D01*
X46200026Y-25946353D01*
X46324260Y-26149086D01*
X46611332Y-25862014D01*
X46705982Y-25992288D01*
X46834613Y-26120919D01*
X46964884Y-26215567D01*
X46677813Y-26502639D01*
X46880549Y-26626875D01*
X47106297Y-26720383D01*
X47106308Y-26720386D01*
X47343893Y-26777426D01*
X47343903Y-26777428D01*
X47587498Y-26796600D01*
X47587504Y-26796600D01*
X47831098Y-26777428D01*
X47831108Y-26777426D01*
X48068693Y-26720386D01*
X48068704Y-26720383D01*
X48294454Y-26626875D01*
X48294461Y-26626871D01*
X48497186Y-26502640D01*
X48497187Y-26502639D01*
X48210116Y-26215568D01*
X48340389Y-26120919D01*
X48469020Y-25992288D01*
X48563669Y-25862015D01*
X48850740Y-26149086D01*
X48850741Y-26149085D01*
X48974972Y-25946360D01*
X48974976Y-25946353D01*
X49068484Y-25720603D01*
X49068487Y-25720592D01*
X49125527Y-25483007D01*
X49125529Y-25482997D01*
X49144701Y-25239402D01*
X49144701Y-25239397D01*
X49125529Y-24995802D01*
X49125527Y-24995792D01*
X49068487Y-24758207D01*
X49068484Y-24758196D01*
X48974976Y-24532448D01*
X48850740Y-24329712D01*
X48563668Y-24616783D01*
X48469020Y-24486512D01*
X48340389Y-24357881D01*
X48210115Y-24263231D01*
X48497187Y-23976159D01*
X48294454Y-23851925D01*
X48068704Y-23758416D01*
X48068693Y-23758413D01*
X47831108Y-23701373D01*
X47831098Y-23701371D01*
X47587504Y-23682200D01*
X47587498Y-23682200D01*
X47343903Y-23701371D01*
X47343893Y-23701373D01*
X47106308Y-23758413D01*
X47106297Y-23758416D01*
X46880547Y-23851925D01*
X46677813Y-23976159D01*
X46964885Y-24263231D01*
X46834613Y-24357881D01*
X46705982Y-24486512D01*
X46611332Y-24616784D01*
X46324260Y-24329712D01*
X46200026Y-24532446D01*
X46106517Y-24758196D01*
X46106514Y-24758207D01*
X46049474Y-24995792D01*
X46049472Y-24995802D01*
X46030301Y-25239397D01*
X42850500Y-25239397D01*
X42850500Y-25170726D01*
X42848869Y-25153343D01*
X42847646Y-25140301D01*
X42802793Y-25012118D01*
X42722150Y-24902850D01*
X42612882Y-24822207D01*
X42612879Y-24822205D01*
X42515470Y-24788121D01*
X42484699Y-24777354D01*
X42484694Y-24777353D01*
X42484692Y-24777353D01*
X42454273Y-24774500D01*
X42454266Y-24774500D01*
X41845734Y-24774500D01*
X41845727Y-24774500D01*
X41815307Y-24777353D01*
X41815303Y-24777353D01*
X41815301Y-24777354D01*
X41815298Y-24777354D01*
X41815298Y-24777355D01*
X41687120Y-24822205D01*
X41687117Y-24822207D01*
X41577850Y-24902850D01*
X41497207Y-25012117D01*
X41497205Y-25012120D01*
X41452355Y-25140298D01*
X41452353Y-25140307D01*
X41449500Y-25170726D01*
X41449500Y-26229273D01*
X41452353Y-26259692D01*
X41452354Y-26259699D01*
X41452355Y-26259701D01*
X41497205Y-26387879D01*
X41497207Y-26387882D01*
X41577850Y-26497150D01*
X41666363Y-26562475D01*
X41680166Y-26572662D01*
X41708611Y-26615522D01*
X41702852Y-26666638D01*
X41688686Y-26686342D01*
X41615489Y-26759540D01*
X41615488Y-26759540D01*
X41559543Y-26815484D01*
X41559539Y-26815490D01*
X41519980Y-26884009D01*
X41519979Y-26884011D01*
X41513166Y-26909438D01*
X41483661Y-26951574D01*
X41482308Y-26952500D01*
X41455446Y-26970449D01*
X41411134Y-27036765D01*
X41411132Y-27036770D01*
X41399500Y-27095251D01*
X41055500Y-27095251D01*
X41055500Y-25039872D01*
X41063438Y-25006242D01*
X41273248Y-24586624D01*
X41284870Y-24560359D01*
X41305500Y-24450000D01*
X41305500Y-23400000D01*
X41304197Y-23371812D01*
X41273472Y-23263827D01*
X41205814Y-23174233D01*
X41205815Y-23174233D01*
X41110361Y-23115130D01*
X41075532Y-23108619D01*
X41009880Y-23096346D01*
X40965600Y-23070172D01*
X40948500Y-23022428D01*
X40948500Y-22478705D01*
X40966093Y-22430367D01*
X41010642Y-22404647D01*
X41016339Y-22403866D01*
X41019033Y-22403600D01*
X41019048Y-22403600D01*
X41077531Y-22391967D01*
X41143852Y-22347652D01*
X41188167Y-22281331D01*
X41199800Y-22222848D01*
X41199800Y-21192752D01*
X41188167Y-21134269D01*
X41143852Y-21067948D01*
X41077531Y-21023633D01*
X41077529Y-21023632D01*
X41019049Y-21012000D01*
X41019048Y-21012000D01*
X40775700Y-21012000D01*
X40727362Y-20994407D01*
X40701642Y-20949858D01*
X40700500Y-20936800D01*
X40700500Y-20590693D01*
X40700500Y-20590691D01*
X40669799Y-20476114D01*
X40645970Y-20434841D01*
X40610490Y-20373387D01*
X40610488Y-20373385D01*
X40610486Y-20373382D01*
X40237104Y-20000000D01*
X64494696Y-20000000D01*
X64513897Y-20366403D01*
X64571293Y-20728786D01*
X64571294Y-20728788D01*
X64571295Y-20728794D01*
X64666258Y-21083199D01*
X64666260Y-21083206D01*
X64797741Y-21425730D01*
X64797742Y-21425731D01*
X64964317Y-21752651D01*
X65164149Y-22060366D01*
X65164155Y-22060375D01*
X65395047Y-22345501D01*
X65395064Y-22345520D01*
X65654479Y-22604935D01*
X65654488Y-22604943D01*
X65654494Y-22604949D01*
X65654498Y-22604952D01*
X65939624Y-22835844D01*
X65939631Y-22835849D01*
X65939634Y-22835851D01*
X66222122Y-23019300D01*
X66247348Y-23035682D01*
X66574268Y-23202257D01*
X66574269Y-23202258D01*
X66916793Y-23333739D01*
X66916801Y-23333742D01*
X67271206Y-23428705D01*
X67633596Y-23486102D01*
X68000000Y-23505304D01*
X68366404Y-23486102D01*
X68728794Y-23428705D01*
X69083199Y-23333742D01*
X69265335Y-23263827D01*
X69425730Y-23202258D01*
X69425731Y-23202257D01*
X69425731Y-23202256D01*
X69425736Y-23202255D01*
X69752652Y-23035682D01*
X70060366Y-22835851D01*
X70345506Y-22604949D01*
X70604949Y-22345506D01*
X70835851Y-22060366D01*
X71035682Y-21752652D01*
X71202255Y-21425736D01*
X71202257Y-21425731D01*
X71202258Y-21425730D01*
X71314138Y-21134269D01*
X71333742Y-21083199D01*
X71428705Y-20728794D01*
X71486102Y-20366404D01*
X71505304Y-20000000D01*
X71486102Y-19633596D01*
X71428705Y-19271206D01*
X71333742Y-18916801D01*
X71308941Y-18852192D01*
X71202258Y-18574269D01*
X71202257Y-18574268D01*
X71118728Y-18410335D01*
X71035682Y-18247348D01*
X70835851Y-17939634D01*
X70835849Y-17939631D01*
X70835844Y-17939624D01*
X70604952Y-17654498D01*
X70604949Y-17654494D01*
X70604943Y-17654488D01*
X70604935Y-17654479D01*
X70345520Y-17395064D01*
X70345510Y-17395055D01*
X70345506Y-17395051D01*
X70335067Y-17386598D01*
X70060375Y-17164155D01*
X70060366Y-17164149D01*
X69752651Y-16964317D01*
X69425731Y-16797742D01*
X69425730Y-16797741D01*
X69083206Y-16666260D01*
X69083199Y-16666258D01*
X68728794Y-16571295D01*
X68728788Y-16571294D01*
X68728786Y-16571293D01*
X68366403Y-16513897D01*
X68000000Y-16494696D01*
X67633596Y-16513897D01*
X67271213Y-16571293D01*
X67271211Y-16571294D01*
X67271209Y-16571294D01*
X67271206Y-16571295D01*
X67022089Y-16638045D01*
X66916793Y-16666260D01*
X66574269Y-16797741D01*
X66574268Y-16797742D01*
X66247348Y-16964317D01*
X65939633Y-17164149D01*
X65939624Y-17164155D01*
X65654498Y-17395047D01*
X65654479Y-17395064D01*
X65395064Y-17654479D01*
X65395047Y-17654498D01*
X65164155Y-17939624D01*
X65164149Y-17939633D01*
X64964317Y-18247348D01*
X64797742Y-18574268D01*
X64797741Y-18574269D01*
X64666260Y-18916793D01*
X64571294Y-19271211D01*
X64571293Y-19271213D01*
X64513897Y-19633596D01*
X64494696Y-20000000D01*
X40237104Y-20000000D01*
X39351615Y-19114511D01*
X39248889Y-19055202D01*
X39236781Y-19051958D01*
X39224674Y-19048714D01*
X39224673Y-19048713D01*
X39181602Y-19037172D01*
X39134310Y-19024501D01*
X39134307Y-19024501D01*
X36560123Y-19024501D01*
X36511785Y-19006908D01*
X36492807Y-18982820D01*
X36447726Y-18892285D01*
X36324628Y-18729275D01*
X36324625Y-18729272D01*
X36173672Y-18591659D01*
X36000001Y-18484126D01*
X35809525Y-18410335D01*
X35776059Y-18404079D01*
X35608734Y-18372801D01*
X35404466Y-18372801D01*
X35270606Y-18397823D01*
X35203674Y-18410335D01*
X35013199Y-18484126D01*
X35013198Y-18484126D01*
X34839527Y-18591659D01*
X34688574Y-18729272D01*
X34688571Y-18729275D01*
X34565473Y-18892285D01*
X34474426Y-19075133D01*
X34474424Y-19075136D01*
X34418525Y-19271600D01*
X34399678Y-19474998D01*
X31485799Y-19474998D01*
X31465448Y-19268364D01*
X31405172Y-19069662D01*
X31328651Y-18926501D01*
X31025880Y-19229271D01*
X31000584Y-19168200D01*
X30929701Y-19062116D01*
X30839485Y-18971900D01*
X30733401Y-18901017D01*
X30672327Y-18875719D01*
X30975098Y-18572948D01*
X30831939Y-18496428D01*
X30633234Y-18436152D01*
X30633238Y-18436152D01*
X30426600Y-18415801D01*
X30219963Y-18436152D01*
X30021260Y-18496428D01*
X29878100Y-18572948D01*
X30180871Y-18875719D01*
X30119799Y-18901017D01*
X30013715Y-18971900D01*
X29923499Y-19062116D01*
X29852616Y-19168200D01*
X29827318Y-19229272D01*
X29524547Y-18926501D01*
X29448027Y-19069661D01*
X29387751Y-19268364D01*
X29367400Y-19475001D01*
X23460983Y-19475001D01*
X23428705Y-19271206D01*
X23333742Y-18916801D01*
X23308941Y-18852192D01*
X23202258Y-18574269D01*
X23202257Y-18574268D01*
X23118728Y-18410335D01*
X23035682Y-18247348D01*
X22835851Y-17939634D01*
X22835849Y-17939631D01*
X22835844Y-17939624D01*
X22604952Y-17654498D01*
X22604949Y-17654494D01*
X22604943Y-17654488D01*
X22604935Y-17654479D01*
X22345520Y-17395064D01*
X22345510Y-17395055D01*
X22345506Y-17395051D01*
X22335067Y-17386598D01*
X22060375Y-17164155D01*
X22060366Y-17164149D01*
X21752651Y-16964317D01*
X21425731Y-16797742D01*
X21425730Y-16797741D01*
X21083206Y-16666260D01*
X21083199Y-16666258D01*
X20728794Y-16571295D01*
X20728788Y-16571294D01*
X20728786Y-16571293D01*
X20366403Y-16513897D01*
X20000000Y-16494696D01*
X19633596Y-16513897D01*
X19271213Y-16571293D01*
X19271211Y-16571294D01*
X19271209Y-16571294D01*
X19271206Y-16571295D01*
X19022089Y-16638045D01*
X18916793Y-16666260D01*
X18574269Y-16797741D01*
X18574268Y-16797742D01*
X18247348Y-16964317D01*
X17939633Y-17164149D01*
X17939624Y-17164155D01*
X17654498Y-17395047D01*
X17654479Y-17395064D01*
X17395064Y-17654479D01*
X17395047Y-17654498D01*
X17164155Y-17939624D01*
X17164149Y-17939633D01*
X16964317Y-18247348D01*
X16797742Y-18574268D01*
X16797741Y-18574269D01*
X16666260Y-18916793D01*
X16571294Y-19271211D01*
X16571293Y-19271213D01*
X16513897Y-19633596D01*
X16494696Y-20000000D01*
X14500500Y-20000000D01*
X14500500Y-16002680D01*
X14500692Y-15997315D01*
X14515379Y-15791963D01*
X14516902Y-15781361D01*
X14560099Y-15582782D01*
X14563114Y-15572515D01*
X14634129Y-15382118D01*
X14638585Y-15372363D01*
X14702815Y-15254734D01*
X14735965Y-15194024D01*
X14741757Y-15185010D01*
X14863540Y-15022328D01*
X14870555Y-15014234D01*
X15014234Y-14870555D01*
X15022328Y-14863540D01*
X15185010Y-14741757D01*
X15194024Y-14735965D01*
X15372367Y-14638582D01*
X15382118Y-14634129D01*
X15572515Y-14563114D01*
X15582782Y-14560099D01*
X15781361Y-14516902D01*
X15791958Y-14515379D01*
X15997316Y-14500692D01*
X16002681Y-14500500D01*
X16065892Y-14500500D01*
X71934108Y-14500500D01*
X71997319Y-14500500D01*
X72002684Y-14500692D01*
G37*
G04 #@! TD.AperFunction*
M02*
