G04 #@! TF.GenerationSoftware,KiCad,Pcbnew,8.0.6*
G04 #@! TF.CreationDate,2025-03-29T16:44:26-07:00*
G04 #@! TF.ProjectId,RCA Radio Telescope,52434120-5261-4646-996f-2054656c6573,2.2*
G04 #@! TF.SameCoordinates,Original*
G04 #@! TF.FileFunction,Paste,Top*
G04 #@! TF.FilePolarity,Positive*
%FSLAX46Y46*%
G04 Gerber Fmt 4.6, Leading zero omitted, Abs format (unit mm)*
G04 Created by KiCad (PCBNEW 8.0.6) date 2025-03-29 16:44:26*
%MOMM*%
%LPD*%
G01*
G04 APERTURE LIST*
G04 Aperture macros list*
%AMRoundRect*
0 Rectangle with rounded corners*
0 $1 Rounding radius*
0 $2 $3 $4 $5 $6 $7 $8 $9 X,Y pos of 4 corners*
0 Add a 4 corners polygon primitive as box body*
4,1,4,$2,$3,$4,$5,$6,$7,$8,$9,$2,$3,0*
0 Add four circle primitives for the rounded corners*
1,1,$1+$1,$2,$3*
1,1,$1+$1,$4,$5*
1,1,$1+$1,$6,$7*
1,1,$1+$1,$8,$9*
0 Add four rect primitives between the rounded corners*
20,1,$1+$1,$2,$3,$4,$5,0*
20,1,$1+$1,$4,$5,$6,$7,0*
20,1,$1+$1,$6,$7,$8,$9,0*
20,1,$1+$1,$8,$9,$2,$3,0*%
G04 Aperture macros list end*
%ADD10C,0.000000*%
%ADD11RoundRect,0.250000X0.250000X0.475000X-0.250000X0.475000X-0.250000X-0.475000X0.250000X-0.475000X0*%
%ADD12RoundRect,0.250000X0.475000X-0.250000X0.475000X0.250000X-0.475000X0.250000X-0.475000X-0.250000X0*%
%ADD13R,0.406400X0.508000*%
%ADD14R,0.279400X0.914400*%
%ADD15R,1.257300X3.251200*%
%ADD16RoundRect,0.250000X-0.475000X0.250000X-0.475000X-0.250000X0.475000X-0.250000X0.475000X0.250000X0*%
%ADD17RoundRect,0.250000X-0.262500X-0.450000X0.262500X-0.450000X0.262500X0.450000X-0.262500X0.450000X0*%
%ADD18RoundRect,0.250000X0.262500X0.450000X-0.262500X0.450000X-0.262500X-0.450000X0.262500X-0.450000X0*%
%ADD19RoundRect,0.250000X-0.450000X0.262500X-0.450000X-0.262500X0.450000X-0.262500X0.450000X0.262500X0*%
%ADD20R,0.599999X0.240000*%
%ADD21R,0.240000X0.599999*%
%ADD22R,0.375000X1.170000*%
%ADD23R,0.300000X1.170000*%
%ADD24R,0.400000X1.170000*%
%ADD25RoundRect,0.250000X-0.250000X-0.475000X0.250000X-0.475000X0.250000X0.475000X-0.250000X0.475000X0*%
%ADD26R,2.210000X2.180400*%
%ADD27R,1.498600X0.990600*%
G04 APERTURE END LIST*
D10*
G36*
X27453200Y-36795100D02*
G01*
X26396801Y-36795100D01*
X26396801Y-35194900D01*
X27453200Y-35194900D01*
X27453200Y-36795100D01*
G37*
G36*
X35537570Y-37575894D02*
G01*
X35546295Y-37578541D01*
X35554334Y-37582836D01*
X35561380Y-37588619D01*
X35567163Y-37595665D01*
X35571458Y-37603704D01*
X35574105Y-37612429D01*
X35574999Y-37621500D01*
X35574999Y-39078499D01*
X35574105Y-39087570D01*
X35571458Y-39096295D01*
X35567163Y-39104334D01*
X35561380Y-39111380D01*
X35554334Y-39117163D01*
X35546295Y-39121458D01*
X35537570Y-39124105D01*
X35528499Y-39124999D01*
X34071500Y-39124999D01*
X34062429Y-39124105D01*
X34053704Y-39121458D01*
X34045665Y-39117163D01*
X34038619Y-39111380D01*
X34032836Y-39104334D01*
X34028541Y-39096295D01*
X34025894Y-39087570D01*
X34025000Y-39078499D01*
X34025000Y-37621500D01*
X34025894Y-37612429D01*
X34028541Y-37603704D01*
X34032836Y-37595665D01*
X34038619Y-37588619D01*
X34045665Y-37582836D01*
X34053704Y-37578541D01*
X34062429Y-37575894D01*
X34071500Y-37575000D01*
X35528499Y-37575000D01*
X35537570Y-37575894D01*
G37*
D11*
X38750000Y-25700000D03*
X36850000Y-25700000D03*
D12*
X31100000Y-36650000D03*
X31100000Y-34750000D03*
D13*
X26600001Y-36895001D03*
X27250000Y-36895001D03*
X26600001Y-35094999D03*
X27250000Y-35094999D03*
X27899999Y-35094999D03*
X27899999Y-36895001D03*
D14*
X27900000Y-35995000D03*
D15*
X37974150Y-38500000D03*
X45225850Y-38500000D03*
D12*
X47200000Y-34150000D03*
X47200000Y-32250000D03*
D16*
X33400000Y-33600000D03*
X33400000Y-35500000D03*
X32000000Y-38650000D03*
X32000000Y-40550000D03*
D17*
X29587500Y-32800000D03*
X31412500Y-32800000D03*
D18*
X49112500Y-36200000D03*
X47287500Y-36200000D03*
D19*
X36200000Y-33587500D03*
X36200000Y-35412500D03*
D20*
X36199999Y-39100001D03*
X36199999Y-38600002D03*
X36199999Y-38100000D03*
X36199999Y-37600001D03*
D21*
X35549998Y-36950000D03*
X35049999Y-36950000D03*
X34549997Y-36950000D03*
X34049998Y-36950000D03*
D20*
X33400000Y-37600001D03*
X33400000Y-38100000D03*
X33400000Y-38600002D03*
X33400000Y-39100001D03*
D21*
X34049998Y-39749999D03*
X34549997Y-39749999D03*
X35049999Y-39749999D03*
X35549998Y-39749999D03*
D22*
X40462500Y-29640000D03*
D23*
X41150000Y-29640000D03*
D22*
X41812500Y-29640000D03*
D24*
X41800000Y-27700000D03*
X40500000Y-27700000D03*
D25*
X40250000Y-25700000D03*
X42150000Y-25700000D03*
D26*
X27600000Y-41100000D03*
X27600000Y-44814400D03*
D27*
X40250000Y-23892200D03*
X40250000Y-21707800D03*
D11*
X40450000Y-31800000D03*
X38550000Y-31800000D03*
D19*
X42150000Y-31737500D03*
X42150000Y-33562500D03*
D25*
X49100000Y-33800000D03*
X51000000Y-33800000D03*
M02*
