%TF.GenerationSoftware,KiCad,Pcbnew,8.0.6*%
%TF.CreationDate,2025-03-29T16:44:28-07:00*%
%TF.ProjectId,RCA Radio Telescope,52434120-5261-4646-996f-2054656c6573,2.2*%
%TF.SameCoordinates,Original*%
%TF.FileFunction,Drillmap*%
%TF.FilePolarity,Positive*%
%FSLAX45Y45*%
G04 Gerber Fmt 4.5, Leading zero omitted, Abs format (unit mm)*
G04 Created by KiCad (PCBNEW 8.0.6) date 2025-03-29 16:44:28*
%MOMM*%
%LPD*%
G01*
G04 APERTURE LIST*
%ADD10C,3.100000*%
%ADD11C,0.200000*%
G04 APERTURE END LIST*
D10*
X2155000Y-2000000D02*
G75*
G02*
X1845000Y-2000000I-155000J0D01*
G01*
X1845000Y-2000000D02*
G75*
G02*
X2155000Y-2000000I155000J0D01*
G01*
D11*
X7200000Y-1400000D02*
G75*
G02*
X7400000Y-1600000I0J-200000D01*
G01*
X1400000Y-1600000D02*
G75*
G02*
X1600000Y-1400000I200000J0D01*
G01*
X1600000Y-1400000D02*
X7200000Y-1400000D01*
X7400000Y-5200000D02*
G75*
G02*
X7200000Y-5400000I-200000J0D01*
G01*
X7400000Y-1600000D02*
X7400000Y-5200000D01*
D10*
X6955000Y-2000000D02*
G75*
G02*
X6645000Y-2000000I-155000J0D01*
G01*
X6645000Y-2000000D02*
G75*
G02*
X6955000Y-2000000I155000J0D01*
G01*
X6955000Y-4800000D02*
G75*
G02*
X6645000Y-4800000I-155000J0D01*
G01*
X6645000Y-4800000D02*
G75*
G02*
X6955000Y-4800000I155000J0D01*
G01*
D11*
X1600000Y-5400000D02*
G75*
G02*
X1400000Y-5200000I0J200000D01*
G01*
X7200000Y-5400000D02*
X1600000Y-5400000D01*
D10*
X2155000Y-4800000D02*
G75*
G02*
X1845000Y-4800000I-155000J0D01*
G01*
X1845000Y-4800000D02*
G75*
G02*
X2155000Y-4800000I155000J0D01*
G01*
D11*
X1400000Y-5200000D02*
X1400000Y-1600000D01*
X1650777Y-5721484D02*
X1650777Y-5521484D01*
X1650777Y-5521484D02*
X1698396Y-5521484D01*
X1698396Y-5521484D02*
X1726967Y-5531008D01*
X1726967Y-5531008D02*
X1746015Y-5550055D01*
X1746015Y-5550055D02*
X1755539Y-5569103D01*
X1755539Y-5569103D02*
X1765062Y-5607198D01*
X1765062Y-5607198D02*
X1765062Y-5635769D01*
X1765062Y-5635769D02*
X1755539Y-5673865D01*
X1755539Y-5673865D02*
X1746015Y-5692912D01*
X1746015Y-5692912D02*
X1726967Y-5711960D01*
X1726967Y-5711960D02*
X1698396Y-5721484D01*
X1698396Y-5721484D02*
X1650777Y-5721484D01*
X1850777Y-5721484D02*
X1850777Y-5588150D01*
X1850777Y-5626246D02*
X1860301Y-5607198D01*
X1860301Y-5607198D02*
X1869824Y-5597674D01*
X1869824Y-5597674D02*
X1888872Y-5588150D01*
X1888872Y-5588150D02*
X1907920Y-5588150D01*
X1974586Y-5721484D02*
X1974586Y-5588150D01*
X1974586Y-5521484D02*
X1965062Y-5531008D01*
X1965062Y-5531008D02*
X1974586Y-5540531D01*
X1974586Y-5540531D02*
X1984110Y-5531008D01*
X1984110Y-5531008D02*
X1974586Y-5521484D01*
X1974586Y-5521484D02*
X1974586Y-5540531D01*
X2098396Y-5721484D02*
X2079348Y-5711960D01*
X2079348Y-5711960D02*
X2069824Y-5692912D01*
X2069824Y-5692912D02*
X2069824Y-5521484D01*
X2203158Y-5721484D02*
X2184110Y-5711960D01*
X2184110Y-5711960D02*
X2174586Y-5692912D01*
X2174586Y-5692912D02*
X2174586Y-5521484D01*
X2431729Y-5721484D02*
X2431729Y-5521484D01*
X2431729Y-5521484D02*
X2498396Y-5664341D01*
X2498396Y-5664341D02*
X2565063Y-5521484D01*
X2565063Y-5521484D02*
X2565063Y-5721484D01*
X2746015Y-5721484D02*
X2746015Y-5616722D01*
X2746015Y-5616722D02*
X2736491Y-5597674D01*
X2736491Y-5597674D02*
X2717444Y-5588150D01*
X2717444Y-5588150D02*
X2679348Y-5588150D01*
X2679348Y-5588150D02*
X2660301Y-5597674D01*
X2746015Y-5711960D02*
X2726967Y-5721484D01*
X2726967Y-5721484D02*
X2679348Y-5721484D01*
X2679348Y-5721484D02*
X2660301Y-5711960D01*
X2660301Y-5711960D02*
X2650777Y-5692912D01*
X2650777Y-5692912D02*
X2650777Y-5673865D01*
X2650777Y-5673865D02*
X2660301Y-5654817D01*
X2660301Y-5654817D02*
X2679348Y-5645293D01*
X2679348Y-5645293D02*
X2726967Y-5645293D01*
X2726967Y-5645293D02*
X2746015Y-5635769D01*
X2841253Y-5588150D02*
X2841253Y-5788150D01*
X2841253Y-5597674D02*
X2860301Y-5588150D01*
X2860301Y-5588150D02*
X2898396Y-5588150D01*
X2898396Y-5588150D02*
X2917443Y-5597674D01*
X2917443Y-5597674D02*
X2926967Y-5607198D01*
X2926967Y-5607198D02*
X2936491Y-5626246D01*
X2936491Y-5626246D02*
X2936491Y-5683388D01*
X2936491Y-5683388D02*
X2926967Y-5702436D01*
X2926967Y-5702436D02*
X2917443Y-5711960D01*
X2917443Y-5711960D02*
X2898396Y-5721484D01*
X2898396Y-5721484D02*
X2860301Y-5721484D01*
X2860301Y-5721484D02*
X2841253Y-5711960D01*
X3022205Y-5702436D02*
X3031729Y-5711960D01*
X3031729Y-5711960D02*
X3022205Y-5721484D01*
X3022205Y-5721484D02*
X3012682Y-5711960D01*
X3012682Y-5711960D02*
X3022205Y-5702436D01*
X3022205Y-5702436D02*
X3022205Y-5721484D01*
X3022205Y-5597674D02*
X3031729Y-5607198D01*
X3031729Y-5607198D02*
X3022205Y-5616722D01*
X3022205Y-5616722D02*
X3012682Y-5607198D01*
X3012682Y-5607198D02*
X3022205Y-5597674D01*
X3022205Y-5597674D02*
X3022205Y-5616722D01*
M02*
