M48
; DRILL file {KiCad 8.0.6} date 2025-03-29T16:44:27-0700
; FORMAT={-:-/ absolute / inch / decimal}
; #@! TF.CreationDate,2025-03-29T16:44:27-07:00
; #@! TF.GenerationSoftware,Kicad,Pcbnew,8.0.6
; #@! TF.FileFunction,Plated,1,2,PTH
FMAT,2
INCH
; #@! TA.AperFunction,Plated,PTH,ViaDrill
T1C0.0118
; #@! TA.AperFunction,Plated,PTH,ComponentDrill
T2C0.0118
; #@! TA.AperFunction,Plated,PTH,ComponentDrill
T3C0.0360
; #@! TA.AperFunction,Plated,PTH,ComponentDrill
T4C0.0417
; #@! TA.AperFunction,Plated,PTH,ComponentDrill
T5C0.0510
; #@! TA.AperFunction,Plated,PTH,ComponentDrill
T6C0.0910
%
G90
G05
T1
X0.5984Y-1.5591
X0.5984Y-1.6299
X0.6496Y-1.1417
X0.6535Y-1.5118
X0.6535Y-1.6693
X0.6693Y-1.3386
X0.6929Y-1.2913
X0.6929Y-1.3858
X0.6929Y-1.4252
X0.6929Y-1.4724
X0.7087Y-1.6378
X0.7323Y-1.2598
X0.7795Y-1.5512
X0.7795Y-1.6457
X0.7953Y-1.5906
X0.8031Y-1.2598
X0.811Y-1.5118
X0.8268Y-1.4724
X0.8425Y-1.2913
X0.8425Y-1.3858
X0.8425Y-1.4252
X0.8583Y-1.6614
X0.8661Y-1.3386
X0.8858Y-1.1417
X0.9055Y-0.9961
X0.9055Y-1.4961
X0.9134Y-1.6614
X0.9252Y-1.6929
X0.9646Y-1.4134
X0.9724Y-1.8268
X0.9843Y-1.7323
X0.9843Y-1.7638
X1.0236Y-1.6929
X1.0276Y-1.8583
X1.0394Y-1.2047
X1.0394Y-1.2835
X1.0433Y-0.6693
X1.0433Y-0.8661
X1.0433Y-0.9843
X1.0433Y-1.126
X1.0433Y-1.8386
X1.063Y-2.0079
X1.0866Y-1.6929
X1.122Y-1.063
X1.126Y-1.1181
X1.1339Y-1.8386
X1.1457Y-1.6929
X1.1496Y-1.8583
X1.1614Y-1.3898
X1.1732Y-1.1811
X1.185Y-1.7244
X1.2008Y-0.6693
X1.2008Y-0.8661
X1.2008Y-1.6102
X1.2126Y-1.0551
X1.2126Y-1.7717
X1.2126Y-1.815
X1.2205Y-1.6535
X1.2441Y-0.9764
X1.2441Y-1.1575
X1.252Y-1.7638
X1.2598Y-1.0315
X1.2598Y-1.2205
X1.2677Y-1.3307
X1.2795Y-1.437
X1.2992Y-1.1654
X1.2992Y-1.6378
X1.2992Y-2.0079
X1.3071Y-1.0315
X1.3071Y-1.685
X1.3071Y-1.7165
X1.315Y-0.7677
X1.3189Y-0.8661
X1.3465Y-1.0472
X1.3465Y-1.0945
X1.3583Y-0.6929
X1.3622Y-0.8346
X1.3622Y-1.1732
X1.3622Y-1.6614
X1.3701Y-1.252
X1.3701Y-1.2992
X1.3701Y-1.3622
X1.3701Y-1.4213
X1.378Y-1.7717
X1.3819Y-1.0551
X1.3858Y-0.9528
X1.4016Y-1.2047
X1.4173Y-1.0551
X1.4252Y-0.6929
X1.4252Y-1.5906
X1.4252Y-1.8898
X1.4252Y-1.937
X1.4331Y-0.8346
X1.4331Y-0.9528
X1.4409Y-1.1339
X1.4488Y-1.7559
X1.4567Y-0.7244
X1.4567Y-1.6299
X1.4724Y-0.815
X1.4724Y-1.8346
X1.4724Y-1.9764
X1.4803Y-0.9528
X1.4961Y-1.6142
X1.5Y-1.2008
X1.5039Y-1.378
X1.5039Y-1.4134
X1.5118Y-1.685
X1.5197Y-1.8346
X1.5197Y-1.9764
X1.5236Y-0.8307
X1.5236Y-1.7677
X1.5276Y-0.8701
X1.5276Y-0.9016
X1.5315Y-1.1654
X1.5354Y-1.3499
X1.5433Y-1.122
X1.5472Y-1.063
X1.5669Y-1.7677
X1.5748Y-0.7402
X1.5748Y-1.8425
X1.5748Y-1.9685
X1.5945Y-1.3524
X1.6063Y-0.7717
X1.622Y-1.685
X1.6299Y-1.8189
X1.6339Y-0.6614
X1.6378Y-0.8031
X1.6535Y-1.9606
X1.6614Y-0.8425
X1.6614Y-0.8858
X1.6614Y-0.9449
X1.6693Y-1.685
X1.6929Y-1.9213
X1.7008Y-0.9449
X1.7008Y-1.0709
X1.7008Y-1.1102
X1.7008Y-1.1496
X1.7008Y-1.189
X1.7126Y-1.748
X1.7205Y-1.685
X1.7323Y-0.7874
X1.7323Y-1.8819
X1.7402Y-0.8976
X1.7402Y-1.0551
X1.7618Y-2.0138
X1.7638Y-1.8425
X1.7677Y-1.3563
X1.7717Y-0.6614
X1.7795Y-0.9449
X1.7835Y-1.0079
X1.7953Y-1.252
X1.7953Y-1.2835
X1.7953Y-1.8031
X1.7992Y-1.7283
X1.8031Y-1.063
X1.8031Y-1.1102
X1.8031Y-1.1575
X1.815Y-1.6181
X1.8661Y-2.0118
X1.874Y-1.5591
X1.8898Y-1.7618
X1.9291Y-1.5591
X1.9488Y-0.8268
X1.9764Y-1.2598
X1.9764Y-1.3858
X1.9882Y-1.811
X1.9882Y-2.0079
X1.9921Y-1.4646
X2.0079Y-1.1811
X2.0079Y-1.2205
X2.0236Y-0.6693
X2.0315Y-1.5039
X2.0394Y-1.126
X2.0394Y-1.2598
X2.0394Y-1.3858
X2.0472Y-1.0472
X2.0472Y-1.6339
X2.0472Y-1.7087
X2.1063Y-0.8268
X2.1063Y-1.0315
X2.1063Y-1.6535
X2.1457Y-1.6535
X2.1496Y-1.0315
X2.1969Y-0.6693
X2.2047Y-1.6339
X2.2047Y-1.7087
X2.2205Y-1.0472
X2.2244Y-1.1299
X2.2441Y-1.1811
X2.2441Y-1.2598
X2.2441Y-1.3307
X2.2441Y-1.4173
X2.2441Y-1.4961
X2.2598Y-0.8268
X2.2638Y-1.811
X2.2638Y-2.0079
X2.2677Y-1.6457
X2.3031Y-1.4961
X2.3386Y-1.3898
X2.3425Y-1.2205
X2.3425Y-1.4567
X2.4528Y-1.2087
X2.4606Y-0.9055
X2.4606Y-1.378
X2.4606Y-1.4567
X2.4606Y-1.811
X2.4606Y-2.0079
X2.5197Y-1.1024
X2.5591Y-1.5669
X2.5787Y-1.3091
X2.5787Y-1.3484
X2.6181Y-1.3878
X2.6181Y-1.4272
X2.6181Y-1.6614
X2.6575Y-1.2323
X2.6575Y-1.2598
X2.6575Y-1.4567
X2.7087Y-1.2283
X2.7362Y-1.4567
X2.7559Y-1.5669
X2.7756Y-1.4567
X2.7874Y-1.126
X2.8445Y-1.4567
X2.8543Y-1.6535
X2.8661Y-1.189
X2.874Y-1.4567
T2
X1.3469Y-1.4866
X1.3469Y-1.5331
X1.3701Y-1.5098
X1.3933Y-1.4866
X1.3933Y-1.5331
T3
X1.9918Y-1.5768
X1.9944Y-1.1004
X2.0903Y-1.5768
X2.0928Y-1.1004
X2.169Y-1.5768
X2.1716Y-1.1004
X2.2674Y-1.5768
X2.27Y-1.1004
T4
X0.6526Y-1.5911
X0.8593Y-1.5911
T5
X0.7687Y-1.1388
X0.7687Y-1.3388
X1.1979Y-0.7667
X1.2963Y-1.9085
X1.3979Y-0.7667
X1.4963Y-1.9085
T6
X1.871Y-1.6835
X1.8735Y-0.9937
X2.3883Y-1.6835
X2.3908Y-0.9937
M30
