G04 #@! TF.GenerationSoftware,KiCad,Pcbnew,8.0.6*
G04 #@! TF.CreationDate,2025-03-29T16:44:26-07:00*
G04 #@! TF.ProjectId,RCA Radio Telescope,52434120-5261-4646-996f-2054656c6573,2.2*
G04 #@! TF.SameCoordinates,Original*
G04 #@! TF.FileFunction,Legend,Bot*
G04 #@! TF.FilePolarity,Positive*
%FSLAX46Y46*%
G04 Gerber Fmt 4.6, Leading zero omitted, Abs format (unit mm)*
G04 Created by KiCad (PCBNEW 8.0.6) date 2025-03-29 16:44:26*
%MOMM*%
%LPD*%
G01*
G04 APERTURE LIST*
%ADD10C,0.250000*%
%ADD11C,0.300000*%
%ADD12C,0.150000*%
%ADD13C,0.508000*%
%ADD14C,0.000000*%
%ADD15C,0.120000*%
%ADD16C,1.422400*%
%ADD17C,2.800000*%
%ADD18C,1.360000*%
%ADD19C,1.803400*%
%ADD20C,0.600000*%
%ADD21C,1.000000*%
G04 APERTURE END LIST*
D10*
X61537907Y-16796733D02*
X61537907Y-15546733D01*
X61537907Y-15546733D02*
X61061717Y-15546733D01*
X61061717Y-15546733D02*
X60942669Y-15606257D01*
X60942669Y-15606257D02*
X60883146Y-15665781D01*
X60883146Y-15665781D02*
X60823622Y-15784829D01*
X60823622Y-15784829D02*
X60823622Y-15963400D01*
X60823622Y-15963400D02*
X60883146Y-16082448D01*
X60883146Y-16082448D02*
X60942669Y-16141971D01*
X60942669Y-16141971D02*
X61061717Y-16201495D01*
X61061717Y-16201495D02*
X61537907Y-16201495D01*
X60347431Y-16737210D02*
X60168860Y-16796733D01*
X60168860Y-16796733D02*
X59871241Y-16796733D01*
X59871241Y-16796733D02*
X59752193Y-16737210D01*
X59752193Y-16737210D02*
X59692669Y-16677686D01*
X59692669Y-16677686D02*
X59633146Y-16558638D01*
X59633146Y-16558638D02*
X59633146Y-16439590D01*
X59633146Y-16439590D02*
X59692669Y-16320543D01*
X59692669Y-16320543D02*
X59752193Y-16261019D01*
X59752193Y-16261019D02*
X59871241Y-16201495D01*
X59871241Y-16201495D02*
X60109336Y-16141971D01*
X60109336Y-16141971D02*
X60228384Y-16082448D01*
X60228384Y-16082448D02*
X60287907Y-16022924D01*
X60287907Y-16022924D02*
X60347431Y-15903876D01*
X60347431Y-15903876D02*
X60347431Y-15784829D01*
X60347431Y-15784829D02*
X60287907Y-15665781D01*
X60287907Y-15665781D02*
X60228384Y-15606257D01*
X60228384Y-15606257D02*
X60109336Y-15546733D01*
X60109336Y-15546733D02*
X59811717Y-15546733D01*
X59811717Y-15546733D02*
X59633146Y-15606257D01*
X59097431Y-15546733D02*
X59097431Y-16558638D01*
X59097431Y-16558638D02*
X59037908Y-16677686D01*
X59037908Y-16677686D02*
X58978384Y-16737210D01*
X58978384Y-16737210D02*
X58859336Y-16796733D01*
X58859336Y-16796733D02*
X58621241Y-16796733D01*
X58621241Y-16796733D02*
X58502193Y-16737210D01*
X58502193Y-16737210D02*
X58442670Y-16677686D01*
X58442670Y-16677686D02*
X58383146Y-16558638D01*
X58383146Y-16558638D02*
X58383146Y-15546733D01*
X56835526Y-16141971D02*
X56418860Y-16141971D01*
X56240288Y-16796733D02*
X56835526Y-16796733D01*
X56835526Y-16796733D02*
X56835526Y-15546733D01*
X56835526Y-15546733D02*
X56240288Y-15546733D01*
X54990289Y-16677686D02*
X55049813Y-16737210D01*
X55049813Y-16737210D02*
X55228384Y-16796733D01*
X55228384Y-16796733D02*
X55347432Y-16796733D01*
X55347432Y-16796733D02*
X55526003Y-16737210D01*
X55526003Y-16737210D02*
X55645051Y-16618162D01*
X55645051Y-16618162D02*
X55704574Y-16499114D01*
X55704574Y-16499114D02*
X55764098Y-16261019D01*
X55764098Y-16261019D02*
X55764098Y-16082448D01*
X55764098Y-16082448D02*
X55704574Y-15844352D01*
X55704574Y-15844352D02*
X55645051Y-15725305D01*
X55645051Y-15725305D02*
X55526003Y-15606257D01*
X55526003Y-15606257D02*
X55347432Y-15546733D01*
X55347432Y-15546733D02*
X55228384Y-15546733D01*
X55228384Y-15546733D02*
X55049813Y-15606257D01*
X55049813Y-15606257D02*
X54990289Y-15665781D01*
X54454574Y-16141971D02*
X54037908Y-16141971D01*
X53859336Y-16796733D02*
X54454574Y-16796733D01*
X54454574Y-16796733D02*
X54454574Y-15546733D01*
X54454574Y-15546733D02*
X53859336Y-15546733D01*
X51656956Y-16677686D02*
X51716480Y-16737210D01*
X51716480Y-16737210D02*
X51895051Y-16796733D01*
X51895051Y-16796733D02*
X52014099Y-16796733D01*
X52014099Y-16796733D02*
X52192670Y-16737210D01*
X52192670Y-16737210D02*
X52311718Y-16618162D01*
X52311718Y-16618162D02*
X52371241Y-16499114D01*
X52371241Y-16499114D02*
X52430765Y-16261019D01*
X52430765Y-16261019D02*
X52430765Y-16082448D01*
X52430765Y-16082448D02*
X52371241Y-15844352D01*
X52371241Y-15844352D02*
X52311718Y-15725305D01*
X52311718Y-15725305D02*
X52192670Y-15606257D01*
X52192670Y-15606257D02*
X52014099Y-15546733D01*
X52014099Y-15546733D02*
X51895051Y-15546733D01*
X51895051Y-15546733D02*
X51716480Y-15606257D01*
X51716480Y-15606257D02*
X51656956Y-15665781D01*
X50585527Y-16796733D02*
X50585527Y-16141971D01*
X50585527Y-16141971D02*
X50645051Y-16022924D01*
X50645051Y-16022924D02*
X50764099Y-15963400D01*
X50764099Y-15963400D02*
X51002194Y-15963400D01*
X51002194Y-15963400D02*
X51121241Y-16022924D01*
X50585527Y-16737210D02*
X50704575Y-16796733D01*
X50704575Y-16796733D02*
X51002194Y-16796733D01*
X51002194Y-16796733D02*
X51121241Y-16737210D01*
X51121241Y-16737210D02*
X51180765Y-16618162D01*
X51180765Y-16618162D02*
X51180765Y-16499114D01*
X51180765Y-16499114D02*
X51121241Y-16380067D01*
X51121241Y-16380067D02*
X51002194Y-16320543D01*
X51002194Y-16320543D02*
X50704575Y-16320543D01*
X50704575Y-16320543D02*
X50585527Y-16261019D01*
X49990289Y-15963400D02*
X49990289Y-17213400D01*
X49990289Y-16022924D02*
X49871242Y-15963400D01*
X49871242Y-15963400D02*
X49633147Y-15963400D01*
X49633147Y-15963400D02*
X49514099Y-16022924D01*
X49514099Y-16022924D02*
X49454575Y-16082448D01*
X49454575Y-16082448D02*
X49395051Y-16201495D01*
X49395051Y-16201495D02*
X49395051Y-16558638D01*
X49395051Y-16558638D02*
X49454575Y-16677686D01*
X49454575Y-16677686D02*
X49514099Y-16737210D01*
X49514099Y-16737210D02*
X49633147Y-16796733D01*
X49633147Y-16796733D02*
X49871242Y-16796733D01*
X49871242Y-16796733D02*
X49990289Y-16737210D01*
X48918861Y-16737210D02*
X48799814Y-16796733D01*
X48799814Y-16796733D02*
X48561718Y-16796733D01*
X48561718Y-16796733D02*
X48442671Y-16737210D01*
X48442671Y-16737210D02*
X48383147Y-16618162D01*
X48383147Y-16618162D02*
X48383147Y-16558638D01*
X48383147Y-16558638D02*
X48442671Y-16439590D01*
X48442671Y-16439590D02*
X48561718Y-16380067D01*
X48561718Y-16380067D02*
X48740290Y-16380067D01*
X48740290Y-16380067D02*
X48859337Y-16320543D01*
X48859337Y-16320543D02*
X48918861Y-16201495D01*
X48918861Y-16201495D02*
X48918861Y-16141971D01*
X48918861Y-16141971D02*
X48859337Y-16022924D01*
X48859337Y-16022924D02*
X48740290Y-15963400D01*
X48740290Y-15963400D02*
X48561718Y-15963400D01*
X48561718Y-15963400D02*
X48442671Y-16022924D01*
X48026004Y-15963400D02*
X47549813Y-15963400D01*
X47847432Y-15546733D02*
X47847432Y-16618162D01*
X47847432Y-16618162D02*
X47787909Y-16737210D01*
X47787909Y-16737210D02*
X47668861Y-16796733D01*
X47668861Y-16796733D02*
X47549813Y-16796733D01*
X46954575Y-16796733D02*
X47073623Y-16737210D01*
X47073623Y-16737210D02*
X47133146Y-16677686D01*
X47133146Y-16677686D02*
X47192670Y-16558638D01*
X47192670Y-16558638D02*
X47192670Y-16201495D01*
X47192670Y-16201495D02*
X47133146Y-16082448D01*
X47133146Y-16082448D02*
X47073623Y-16022924D01*
X47073623Y-16022924D02*
X46954575Y-15963400D01*
X46954575Y-15963400D02*
X46776004Y-15963400D01*
X46776004Y-15963400D02*
X46656956Y-16022924D01*
X46656956Y-16022924D02*
X46597432Y-16082448D01*
X46597432Y-16082448D02*
X46537908Y-16201495D01*
X46537908Y-16201495D02*
X46537908Y-16558638D01*
X46537908Y-16558638D02*
X46597432Y-16677686D01*
X46597432Y-16677686D02*
X46656956Y-16737210D01*
X46656956Y-16737210D02*
X46776004Y-16796733D01*
X46776004Y-16796733D02*
X46954575Y-16796733D01*
X46002194Y-15963400D02*
X46002194Y-16796733D01*
X46002194Y-16082448D02*
X45942671Y-16022924D01*
X45942671Y-16022924D02*
X45823623Y-15963400D01*
X45823623Y-15963400D02*
X45645052Y-15963400D01*
X45645052Y-15963400D02*
X45526004Y-16022924D01*
X45526004Y-16022924D02*
X45466480Y-16141971D01*
X45466480Y-16141971D02*
X45466480Y-16796733D01*
X44395052Y-16737210D02*
X44514100Y-16796733D01*
X44514100Y-16796733D02*
X44752195Y-16796733D01*
X44752195Y-16796733D02*
X44871242Y-16737210D01*
X44871242Y-16737210D02*
X44930766Y-16618162D01*
X44930766Y-16618162D02*
X44930766Y-16141971D01*
X44930766Y-16141971D02*
X44871242Y-16022924D01*
X44871242Y-16022924D02*
X44752195Y-15963400D01*
X44752195Y-15963400D02*
X44514100Y-15963400D01*
X44514100Y-15963400D02*
X44395052Y-16022924D01*
X44395052Y-16022924D02*
X44335528Y-16141971D01*
X44335528Y-16141971D02*
X44335528Y-16261019D01*
X44335528Y-16261019D02*
X44930766Y-16380067D01*
X61716479Y-17559163D02*
X61002193Y-17559163D01*
X61359336Y-18809163D02*
X61359336Y-17559163D01*
X60109336Y-18749640D02*
X60228384Y-18809163D01*
X60228384Y-18809163D02*
X60466479Y-18809163D01*
X60466479Y-18809163D02*
X60585526Y-18749640D01*
X60585526Y-18749640D02*
X60645050Y-18630592D01*
X60645050Y-18630592D02*
X60645050Y-18154401D01*
X60645050Y-18154401D02*
X60585526Y-18035354D01*
X60585526Y-18035354D02*
X60466479Y-17975830D01*
X60466479Y-17975830D02*
X60228384Y-17975830D01*
X60228384Y-17975830D02*
X60109336Y-18035354D01*
X60109336Y-18035354D02*
X60049812Y-18154401D01*
X60049812Y-18154401D02*
X60049812Y-18273449D01*
X60049812Y-18273449D02*
X60645050Y-18392497D01*
X58978383Y-18809163D02*
X58978383Y-18154401D01*
X58978383Y-18154401D02*
X59037907Y-18035354D01*
X59037907Y-18035354D02*
X59156955Y-17975830D01*
X59156955Y-17975830D02*
X59395050Y-17975830D01*
X59395050Y-17975830D02*
X59514097Y-18035354D01*
X58978383Y-18749640D02*
X59097431Y-18809163D01*
X59097431Y-18809163D02*
X59395050Y-18809163D01*
X59395050Y-18809163D02*
X59514097Y-18749640D01*
X59514097Y-18749640D02*
X59573621Y-18630592D01*
X59573621Y-18630592D02*
X59573621Y-18511544D01*
X59573621Y-18511544D02*
X59514097Y-18392497D01*
X59514097Y-18392497D02*
X59395050Y-18332973D01*
X59395050Y-18332973D02*
X59097431Y-18332973D01*
X59097431Y-18332973D02*
X58978383Y-18273449D01*
X58383145Y-18809163D02*
X58383145Y-17975830D01*
X58383145Y-18094878D02*
X58323622Y-18035354D01*
X58323622Y-18035354D02*
X58204574Y-17975830D01*
X58204574Y-17975830D02*
X58026003Y-17975830D01*
X58026003Y-17975830D02*
X57906955Y-18035354D01*
X57906955Y-18035354D02*
X57847431Y-18154401D01*
X57847431Y-18154401D02*
X57847431Y-18809163D01*
X57847431Y-18154401D02*
X57787907Y-18035354D01*
X57787907Y-18035354D02*
X57668860Y-17975830D01*
X57668860Y-17975830D02*
X57490288Y-17975830D01*
X57490288Y-17975830D02*
X57371241Y-18035354D01*
X57371241Y-18035354D02*
X57311717Y-18154401D01*
X57311717Y-18154401D02*
X57311717Y-18809163D01*
X55109336Y-18809163D02*
X55823621Y-18809163D01*
X55466478Y-18809163D02*
X55466478Y-17559163D01*
X55466478Y-17559163D02*
X55585526Y-17737735D01*
X55585526Y-17737735D02*
X55704574Y-17856782D01*
X55704574Y-17856782D02*
X55823621Y-17916306D01*
X53918860Y-18809163D02*
X54633145Y-18809163D01*
X54276002Y-18809163D02*
X54276002Y-17559163D01*
X54276002Y-17559163D02*
X54395050Y-17737735D01*
X54395050Y-17737735D02*
X54514098Y-17856782D01*
X54514098Y-17856782D02*
X54633145Y-17916306D01*
X60823622Y-20821593D02*
X61240288Y-20226355D01*
X61537907Y-20821593D02*
X61537907Y-19571593D01*
X61537907Y-19571593D02*
X61061717Y-19571593D01*
X61061717Y-19571593D02*
X60942669Y-19631117D01*
X60942669Y-19631117D02*
X60883146Y-19690641D01*
X60883146Y-19690641D02*
X60823622Y-19809689D01*
X60823622Y-19809689D02*
X60823622Y-19988260D01*
X60823622Y-19988260D02*
X60883146Y-20107308D01*
X60883146Y-20107308D02*
X60942669Y-20166831D01*
X60942669Y-20166831D02*
X61061717Y-20226355D01*
X61061717Y-20226355D02*
X61537907Y-20226355D01*
X59573622Y-20702546D02*
X59633146Y-20762070D01*
X59633146Y-20762070D02*
X59811717Y-20821593D01*
X59811717Y-20821593D02*
X59930765Y-20821593D01*
X59930765Y-20821593D02*
X60109336Y-20762070D01*
X60109336Y-20762070D02*
X60228384Y-20643022D01*
X60228384Y-20643022D02*
X60287907Y-20523974D01*
X60287907Y-20523974D02*
X60347431Y-20285879D01*
X60347431Y-20285879D02*
X60347431Y-20107308D01*
X60347431Y-20107308D02*
X60287907Y-19869212D01*
X60287907Y-19869212D02*
X60228384Y-19750165D01*
X60228384Y-19750165D02*
X60109336Y-19631117D01*
X60109336Y-19631117D02*
X59930765Y-19571593D01*
X59930765Y-19571593D02*
X59811717Y-19571593D01*
X59811717Y-19571593D02*
X59633146Y-19631117D01*
X59633146Y-19631117D02*
X59573622Y-19690641D01*
X59097431Y-20464450D02*
X58502193Y-20464450D01*
X59216479Y-20821593D02*
X58799812Y-19571593D01*
X58799812Y-19571593D02*
X58383146Y-20821593D01*
X56299812Y-20821593D02*
X56716478Y-20226355D01*
X57014097Y-20821593D02*
X57014097Y-19571593D01*
X57014097Y-19571593D02*
X56537907Y-19571593D01*
X56537907Y-19571593D02*
X56418859Y-19631117D01*
X56418859Y-19631117D02*
X56359336Y-19690641D01*
X56359336Y-19690641D02*
X56299812Y-19809689D01*
X56299812Y-19809689D02*
X56299812Y-19988260D01*
X56299812Y-19988260D02*
X56359336Y-20107308D01*
X56359336Y-20107308D02*
X56418859Y-20166831D01*
X56418859Y-20166831D02*
X56537907Y-20226355D01*
X56537907Y-20226355D02*
X57014097Y-20226355D01*
X55228383Y-20821593D02*
X55228383Y-20166831D01*
X55228383Y-20166831D02*
X55287907Y-20047784D01*
X55287907Y-20047784D02*
X55406955Y-19988260D01*
X55406955Y-19988260D02*
X55645050Y-19988260D01*
X55645050Y-19988260D02*
X55764097Y-20047784D01*
X55228383Y-20762070D02*
X55347431Y-20821593D01*
X55347431Y-20821593D02*
X55645050Y-20821593D01*
X55645050Y-20821593D02*
X55764097Y-20762070D01*
X55764097Y-20762070D02*
X55823621Y-20643022D01*
X55823621Y-20643022D02*
X55823621Y-20523974D01*
X55823621Y-20523974D02*
X55764097Y-20404927D01*
X55764097Y-20404927D02*
X55645050Y-20345403D01*
X55645050Y-20345403D02*
X55347431Y-20345403D01*
X55347431Y-20345403D02*
X55228383Y-20285879D01*
X54097431Y-20821593D02*
X54097431Y-19571593D01*
X54097431Y-20762070D02*
X54216479Y-20821593D01*
X54216479Y-20821593D02*
X54454574Y-20821593D01*
X54454574Y-20821593D02*
X54573622Y-20762070D01*
X54573622Y-20762070D02*
X54633145Y-20702546D01*
X54633145Y-20702546D02*
X54692669Y-20583498D01*
X54692669Y-20583498D02*
X54692669Y-20226355D01*
X54692669Y-20226355D02*
X54633145Y-20107308D01*
X54633145Y-20107308D02*
X54573622Y-20047784D01*
X54573622Y-20047784D02*
X54454574Y-19988260D01*
X54454574Y-19988260D02*
X54216479Y-19988260D01*
X54216479Y-19988260D02*
X54097431Y-20047784D01*
X53502193Y-20821593D02*
X53502193Y-19988260D01*
X53502193Y-19571593D02*
X53561717Y-19631117D01*
X53561717Y-19631117D02*
X53502193Y-19690641D01*
X53502193Y-19690641D02*
X53442670Y-19631117D01*
X53442670Y-19631117D02*
X53502193Y-19571593D01*
X53502193Y-19571593D02*
X53502193Y-19690641D01*
X52728384Y-20821593D02*
X52847432Y-20762070D01*
X52847432Y-20762070D02*
X52906955Y-20702546D01*
X52906955Y-20702546D02*
X52966479Y-20583498D01*
X52966479Y-20583498D02*
X52966479Y-20226355D01*
X52966479Y-20226355D02*
X52906955Y-20107308D01*
X52906955Y-20107308D02*
X52847432Y-20047784D01*
X52847432Y-20047784D02*
X52728384Y-19988260D01*
X52728384Y-19988260D02*
X52549813Y-19988260D01*
X52549813Y-19988260D02*
X52430765Y-20047784D01*
X52430765Y-20047784D02*
X52371241Y-20107308D01*
X52371241Y-20107308D02*
X52311717Y-20226355D01*
X52311717Y-20226355D02*
X52311717Y-20583498D01*
X52311717Y-20583498D02*
X52371241Y-20702546D01*
X52371241Y-20702546D02*
X52430765Y-20762070D01*
X52430765Y-20762070D02*
X52549813Y-20821593D01*
X52549813Y-20821593D02*
X52728384Y-20821593D01*
X51002194Y-19571593D02*
X50287908Y-19571593D01*
X50645051Y-20821593D02*
X50645051Y-19571593D01*
X49395051Y-20762070D02*
X49514099Y-20821593D01*
X49514099Y-20821593D02*
X49752194Y-20821593D01*
X49752194Y-20821593D02*
X49871241Y-20762070D01*
X49871241Y-20762070D02*
X49930765Y-20643022D01*
X49930765Y-20643022D02*
X49930765Y-20166831D01*
X49930765Y-20166831D02*
X49871241Y-20047784D01*
X49871241Y-20047784D02*
X49752194Y-19988260D01*
X49752194Y-19988260D02*
X49514099Y-19988260D01*
X49514099Y-19988260D02*
X49395051Y-20047784D01*
X49395051Y-20047784D02*
X49335527Y-20166831D01*
X49335527Y-20166831D02*
X49335527Y-20285879D01*
X49335527Y-20285879D02*
X49930765Y-20404927D01*
X48621241Y-20821593D02*
X48740289Y-20762070D01*
X48740289Y-20762070D02*
X48799812Y-20643022D01*
X48799812Y-20643022D02*
X48799812Y-19571593D01*
X47668860Y-20762070D02*
X47787908Y-20821593D01*
X47787908Y-20821593D02*
X48026003Y-20821593D01*
X48026003Y-20821593D02*
X48145050Y-20762070D01*
X48145050Y-20762070D02*
X48204574Y-20643022D01*
X48204574Y-20643022D02*
X48204574Y-20166831D01*
X48204574Y-20166831D02*
X48145050Y-20047784D01*
X48145050Y-20047784D02*
X48026003Y-19988260D01*
X48026003Y-19988260D02*
X47787908Y-19988260D01*
X47787908Y-19988260D02*
X47668860Y-20047784D01*
X47668860Y-20047784D02*
X47609336Y-20166831D01*
X47609336Y-20166831D02*
X47609336Y-20285879D01*
X47609336Y-20285879D02*
X48204574Y-20404927D01*
X47133145Y-20762070D02*
X47014098Y-20821593D01*
X47014098Y-20821593D02*
X46776002Y-20821593D01*
X46776002Y-20821593D02*
X46656955Y-20762070D01*
X46656955Y-20762070D02*
X46597431Y-20643022D01*
X46597431Y-20643022D02*
X46597431Y-20583498D01*
X46597431Y-20583498D02*
X46656955Y-20464450D01*
X46656955Y-20464450D02*
X46776002Y-20404927D01*
X46776002Y-20404927D02*
X46954574Y-20404927D01*
X46954574Y-20404927D02*
X47073621Y-20345403D01*
X47073621Y-20345403D02*
X47133145Y-20226355D01*
X47133145Y-20226355D02*
X47133145Y-20166831D01*
X47133145Y-20166831D02*
X47073621Y-20047784D01*
X47073621Y-20047784D02*
X46954574Y-19988260D01*
X46954574Y-19988260D02*
X46776002Y-19988260D01*
X46776002Y-19988260D02*
X46656955Y-20047784D01*
X45526002Y-20762070D02*
X45645050Y-20821593D01*
X45645050Y-20821593D02*
X45883145Y-20821593D01*
X45883145Y-20821593D02*
X46002193Y-20762070D01*
X46002193Y-20762070D02*
X46061716Y-20702546D01*
X46061716Y-20702546D02*
X46121240Y-20583498D01*
X46121240Y-20583498D02*
X46121240Y-20226355D01*
X46121240Y-20226355D02*
X46061716Y-20107308D01*
X46061716Y-20107308D02*
X46002193Y-20047784D01*
X46002193Y-20047784D02*
X45883145Y-19988260D01*
X45883145Y-19988260D02*
X45645050Y-19988260D01*
X45645050Y-19988260D02*
X45526002Y-20047784D01*
X44811716Y-20821593D02*
X44930764Y-20762070D01*
X44930764Y-20762070D02*
X44990287Y-20702546D01*
X44990287Y-20702546D02*
X45049811Y-20583498D01*
X45049811Y-20583498D02*
X45049811Y-20226355D01*
X45049811Y-20226355D02*
X44990287Y-20107308D01*
X44990287Y-20107308D02*
X44930764Y-20047784D01*
X44930764Y-20047784D02*
X44811716Y-19988260D01*
X44811716Y-19988260D02*
X44633145Y-19988260D01*
X44633145Y-19988260D02*
X44514097Y-20047784D01*
X44514097Y-20047784D02*
X44454573Y-20107308D01*
X44454573Y-20107308D02*
X44395049Y-20226355D01*
X44395049Y-20226355D02*
X44395049Y-20583498D01*
X44395049Y-20583498D02*
X44454573Y-20702546D01*
X44454573Y-20702546D02*
X44514097Y-20762070D01*
X44514097Y-20762070D02*
X44633145Y-20821593D01*
X44633145Y-20821593D02*
X44811716Y-20821593D01*
X43859335Y-19988260D02*
X43859335Y-21238260D01*
X43859335Y-20047784D02*
X43740288Y-19988260D01*
X43740288Y-19988260D02*
X43502193Y-19988260D01*
X43502193Y-19988260D02*
X43383145Y-20047784D01*
X43383145Y-20047784D02*
X43323621Y-20107308D01*
X43323621Y-20107308D02*
X43264097Y-20226355D01*
X43264097Y-20226355D02*
X43264097Y-20583498D01*
X43264097Y-20583498D02*
X43323621Y-20702546D01*
X43323621Y-20702546D02*
X43383145Y-20762070D01*
X43383145Y-20762070D02*
X43502193Y-20821593D01*
X43502193Y-20821593D02*
X43740288Y-20821593D01*
X43740288Y-20821593D02*
X43859335Y-20762070D01*
X42252193Y-20762070D02*
X42371241Y-20821593D01*
X42371241Y-20821593D02*
X42609336Y-20821593D01*
X42609336Y-20821593D02*
X42728383Y-20762070D01*
X42728383Y-20762070D02*
X42787907Y-20643022D01*
X42787907Y-20643022D02*
X42787907Y-20166831D01*
X42787907Y-20166831D02*
X42728383Y-20047784D01*
X42728383Y-20047784D02*
X42609336Y-19988260D01*
X42609336Y-19988260D02*
X42371241Y-19988260D01*
X42371241Y-19988260D02*
X42252193Y-20047784D01*
X42252193Y-20047784D02*
X42192669Y-20166831D01*
X42192669Y-20166831D02*
X42192669Y-20285879D01*
X42192669Y-20285879D02*
X42787907Y-20404927D01*
X61656955Y-22000690D02*
X61359336Y-22834023D01*
X61359336Y-22834023D02*
X61061717Y-22000690D01*
X60645050Y-21703071D02*
X60585526Y-21643547D01*
X60585526Y-21643547D02*
X60466479Y-21584023D01*
X60466479Y-21584023D02*
X60168860Y-21584023D01*
X60168860Y-21584023D02*
X60049812Y-21643547D01*
X60049812Y-21643547D02*
X59990288Y-21703071D01*
X59990288Y-21703071D02*
X59930765Y-21822119D01*
X59930765Y-21822119D02*
X59930765Y-21941166D01*
X59930765Y-21941166D02*
X59990288Y-22119738D01*
X59990288Y-22119738D02*
X60704574Y-22834023D01*
X60704574Y-22834023D02*
X59930765Y-22834023D01*
X59395050Y-22714976D02*
X59335527Y-22774500D01*
X59335527Y-22774500D02*
X59395050Y-22834023D01*
X59395050Y-22834023D02*
X59454574Y-22774500D01*
X59454574Y-22774500D02*
X59395050Y-22714976D01*
X59395050Y-22714976D02*
X59395050Y-22834023D01*
X58859336Y-21703071D02*
X58799812Y-21643547D01*
X58799812Y-21643547D02*
X58680765Y-21584023D01*
X58680765Y-21584023D02*
X58383146Y-21584023D01*
X58383146Y-21584023D02*
X58264098Y-21643547D01*
X58264098Y-21643547D02*
X58204574Y-21703071D01*
X58204574Y-21703071D02*
X58145051Y-21822119D01*
X58145051Y-21822119D02*
X58145051Y-21941166D01*
X58145051Y-21941166D02*
X58204574Y-22119738D01*
X58204574Y-22119738D02*
X58918860Y-22834023D01*
X58918860Y-22834023D02*
X58145051Y-22834023D01*
X56299813Y-23310214D02*
X56359336Y-23250690D01*
X56359336Y-23250690D02*
X56478384Y-23072119D01*
X56478384Y-23072119D02*
X56537908Y-22953071D01*
X56537908Y-22953071D02*
X56597432Y-22774500D01*
X56597432Y-22774500D02*
X56656955Y-22476880D01*
X56656955Y-22476880D02*
X56656955Y-22238785D01*
X56656955Y-22238785D02*
X56597432Y-21941166D01*
X56597432Y-21941166D02*
X56537908Y-21762595D01*
X56537908Y-21762595D02*
X56478384Y-21643547D01*
X56478384Y-21643547D02*
X56359336Y-21464976D01*
X56359336Y-21464976D02*
X56299813Y-21405452D01*
X55942670Y-21584023D02*
X55168861Y-21584023D01*
X55168861Y-21584023D02*
X55585527Y-22060214D01*
X55585527Y-22060214D02*
X55406956Y-22060214D01*
X55406956Y-22060214D02*
X55287908Y-22119738D01*
X55287908Y-22119738D02*
X55228384Y-22179261D01*
X55228384Y-22179261D02*
X55168861Y-22298309D01*
X55168861Y-22298309D02*
X55168861Y-22595928D01*
X55168861Y-22595928D02*
X55228384Y-22714976D01*
X55228384Y-22714976D02*
X55287908Y-22774500D01*
X55287908Y-22774500D02*
X55406956Y-22834023D01*
X55406956Y-22834023D02*
X55764099Y-22834023D01*
X55764099Y-22834023D02*
X55883146Y-22774500D01*
X55883146Y-22774500D02*
X55942670Y-22714976D01*
X53740289Y-21524500D02*
X54811718Y-23131642D01*
X53383146Y-21703071D02*
X53323622Y-21643547D01*
X53323622Y-21643547D02*
X53204575Y-21584023D01*
X53204575Y-21584023D02*
X52906956Y-21584023D01*
X52906956Y-21584023D02*
X52787908Y-21643547D01*
X52787908Y-21643547D02*
X52728384Y-21703071D01*
X52728384Y-21703071D02*
X52668861Y-21822119D01*
X52668861Y-21822119D02*
X52668861Y-21941166D01*
X52668861Y-21941166D02*
X52728384Y-22119738D01*
X52728384Y-22119738D02*
X53442670Y-22834023D01*
X53442670Y-22834023D02*
X52668861Y-22834023D01*
X52073623Y-22834023D02*
X51835527Y-22834023D01*
X51835527Y-22834023D02*
X51716480Y-22774500D01*
X51716480Y-22774500D02*
X51656956Y-22714976D01*
X51656956Y-22714976D02*
X51537908Y-22536404D01*
X51537908Y-22536404D02*
X51478385Y-22298309D01*
X51478385Y-22298309D02*
X51478385Y-21822119D01*
X51478385Y-21822119D02*
X51537908Y-21703071D01*
X51537908Y-21703071D02*
X51597432Y-21643547D01*
X51597432Y-21643547D02*
X51716480Y-21584023D01*
X51716480Y-21584023D02*
X51954575Y-21584023D01*
X51954575Y-21584023D02*
X52073623Y-21643547D01*
X52073623Y-21643547D02*
X52133146Y-21703071D01*
X52133146Y-21703071D02*
X52192670Y-21822119D01*
X52192670Y-21822119D02*
X52192670Y-22119738D01*
X52192670Y-22119738D02*
X52133146Y-22238785D01*
X52133146Y-22238785D02*
X52073623Y-22298309D01*
X52073623Y-22298309D02*
X51954575Y-22357833D01*
X51954575Y-22357833D02*
X51716480Y-22357833D01*
X51716480Y-22357833D02*
X51597432Y-22298309D01*
X51597432Y-22298309D02*
X51537908Y-22238785D01*
X51537908Y-22238785D02*
X51478385Y-22119738D01*
X50049813Y-21524500D02*
X51121242Y-23131642D01*
X49692670Y-21703071D02*
X49633146Y-21643547D01*
X49633146Y-21643547D02*
X49514099Y-21584023D01*
X49514099Y-21584023D02*
X49216480Y-21584023D01*
X49216480Y-21584023D02*
X49097432Y-21643547D01*
X49097432Y-21643547D02*
X49037908Y-21703071D01*
X49037908Y-21703071D02*
X48978385Y-21822119D01*
X48978385Y-21822119D02*
X48978385Y-21941166D01*
X48978385Y-21941166D02*
X49037908Y-22119738D01*
X49037908Y-22119738D02*
X49752194Y-22834023D01*
X49752194Y-22834023D02*
X48978385Y-22834023D01*
X48204575Y-21584023D02*
X48085528Y-21584023D01*
X48085528Y-21584023D02*
X47966480Y-21643547D01*
X47966480Y-21643547D02*
X47906956Y-21703071D01*
X47906956Y-21703071D02*
X47847432Y-21822119D01*
X47847432Y-21822119D02*
X47787909Y-22060214D01*
X47787909Y-22060214D02*
X47787909Y-22357833D01*
X47787909Y-22357833D02*
X47847432Y-22595928D01*
X47847432Y-22595928D02*
X47906956Y-22714976D01*
X47906956Y-22714976D02*
X47966480Y-22774500D01*
X47966480Y-22774500D02*
X48085528Y-22834023D01*
X48085528Y-22834023D02*
X48204575Y-22834023D01*
X48204575Y-22834023D02*
X48323623Y-22774500D01*
X48323623Y-22774500D02*
X48383147Y-22714976D01*
X48383147Y-22714976D02*
X48442670Y-22595928D01*
X48442670Y-22595928D02*
X48502194Y-22357833D01*
X48502194Y-22357833D02*
X48502194Y-22060214D01*
X48502194Y-22060214D02*
X48442670Y-21822119D01*
X48442670Y-21822119D02*
X48383147Y-21703071D01*
X48383147Y-21703071D02*
X48323623Y-21643547D01*
X48323623Y-21643547D02*
X48204575Y-21584023D01*
X47311718Y-21703071D02*
X47252194Y-21643547D01*
X47252194Y-21643547D02*
X47133147Y-21584023D01*
X47133147Y-21584023D02*
X46835528Y-21584023D01*
X46835528Y-21584023D02*
X46716480Y-21643547D01*
X46716480Y-21643547D02*
X46656956Y-21703071D01*
X46656956Y-21703071D02*
X46597433Y-21822119D01*
X46597433Y-21822119D02*
X46597433Y-21941166D01*
X46597433Y-21941166D02*
X46656956Y-22119738D01*
X46656956Y-22119738D02*
X47371242Y-22834023D01*
X47371242Y-22834023D02*
X46597433Y-22834023D01*
X45466480Y-21584023D02*
X46061718Y-21584023D01*
X46061718Y-21584023D02*
X46121242Y-22179261D01*
X46121242Y-22179261D02*
X46061718Y-22119738D01*
X46061718Y-22119738D02*
X45942671Y-22060214D01*
X45942671Y-22060214D02*
X45645052Y-22060214D01*
X45645052Y-22060214D02*
X45526004Y-22119738D01*
X45526004Y-22119738D02*
X45466480Y-22179261D01*
X45466480Y-22179261D02*
X45406957Y-22298309D01*
X45406957Y-22298309D02*
X45406957Y-22595928D01*
X45406957Y-22595928D02*
X45466480Y-22714976D01*
X45466480Y-22714976D02*
X45526004Y-22774500D01*
X45526004Y-22774500D02*
X45645052Y-22834023D01*
X45645052Y-22834023D02*
X45942671Y-22834023D01*
X45942671Y-22834023D02*
X46061718Y-22774500D01*
X46061718Y-22774500D02*
X46121242Y-22714976D01*
X44990290Y-23310214D02*
X44930766Y-23250690D01*
X44930766Y-23250690D02*
X44811719Y-23072119D01*
X44811719Y-23072119D02*
X44752195Y-22953071D01*
X44752195Y-22953071D02*
X44692671Y-22774500D01*
X44692671Y-22774500D02*
X44633147Y-22476880D01*
X44633147Y-22476880D02*
X44633147Y-22238785D01*
X44633147Y-22238785D02*
X44692671Y-21941166D01*
X44692671Y-21941166D02*
X44752195Y-21762595D01*
X44752195Y-21762595D02*
X44811719Y-21643547D01*
X44811719Y-21643547D02*
X44930766Y-21464976D01*
X44930766Y-21464976D02*
X44990290Y-21405452D01*
D11*
X71888346Y-29477877D02*
X71202632Y-29477877D01*
X71545489Y-30677877D02*
X71545489Y-29477877D01*
X70802631Y-30677877D02*
X70802631Y-29877877D01*
X70802631Y-30106449D02*
X70745488Y-29992163D01*
X70745488Y-29992163D02*
X70688346Y-29935020D01*
X70688346Y-29935020D02*
X70574060Y-29877877D01*
X70574060Y-29877877D02*
X70459774Y-29877877D01*
X69545489Y-29877877D02*
X69545489Y-30677877D01*
X70059774Y-29877877D02*
X70059774Y-30506449D01*
X70059774Y-30506449D02*
X70002631Y-30620735D01*
X70002631Y-30620735D02*
X69888346Y-30677877D01*
X69888346Y-30677877D02*
X69716917Y-30677877D01*
X69716917Y-30677877D02*
X69602631Y-30620735D01*
X69602631Y-30620735D02*
X69545489Y-30563592D01*
X68802632Y-30677877D02*
X68916917Y-30620735D01*
X68916917Y-30620735D02*
X68974060Y-30563592D01*
X68974060Y-30563592D02*
X69031203Y-30449306D01*
X69031203Y-30449306D02*
X69031203Y-30106449D01*
X69031203Y-30106449D02*
X68974060Y-29992163D01*
X68974060Y-29992163D02*
X68916917Y-29935020D01*
X68916917Y-29935020D02*
X68802632Y-29877877D01*
X68802632Y-29877877D02*
X68631203Y-29877877D01*
X68631203Y-29877877D02*
X68516917Y-29935020D01*
X68516917Y-29935020D02*
X68459775Y-29992163D01*
X68459775Y-29992163D02*
X68402632Y-30106449D01*
X68402632Y-30106449D02*
X68402632Y-30449306D01*
X68402632Y-30449306D02*
X68459775Y-30563592D01*
X68459775Y-30563592D02*
X68516917Y-30620735D01*
X68516917Y-30620735D02*
X68631203Y-30677877D01*
X68631203Y-30677877D02*
X68802632Y-30677877D01*
X67888346Y-29877877D02*
X67888346Y-30677877D01*
X67888346Y-29992163D02*
X67831203Y-29935020D01*
X67831203Y-29935020D02*
X67716918Y-29877877D01*
X67716918Y-29877877D02*
X67545489Y-29877877D01*
X67545489Y-29877877D02*
X67431203Y-29935020D01*
X67431203Y-29935020D02*
X67374061Y-30049306D01*
X67374061Y-30049306D02*
X67374061Y-30677877D01*
X66288347Y-29877877D02*
X66288347Y-30849306D01*
X66288347Y-30849306D02*
X66345489Y-30963592D01*
X66345489Y-30963592D02*
X66402632Y-31020735D01*
X66402632Y-31020735D02*
X66516918Y-31077877D01*
X66516918Y-31077877D02*
X66688347Y-31077877D01*
X66688347Y-31077877D02*
X66802632Y-31020735D01*
X66288347Y-30620735D02*
X66402632Y-30677877D01*
X66402632Y-30677877D02*
X66631204Y-30677877D01*
X66631204Y-30677877D02*
X66745489Y-30620735D01*
X66745489Y-30620735D02*
X66802632Y-30563592D01*
X66802632Y-30563592D02*
X66859775Y-30449306D01*
X66859775Y-30449306D02*
X66859775Y-30106449D01*
X66859775Y-30106449D02*
X66802632Y-29992163D01*
X66802632Y-29992163D02*
X66745489Y-29935020D01*
X66745489Y-29935020D02*
X66631204Y-29877877D01*
X66631204Y-29877877D02*
X66402632Y-29877877D01*
X66402632Y-29877877D02*
X66288347Y-29935020D01*
X64231204Y-30677877D02*
X64802632Y-30677877D01*
X64802632Y-30677877D02*
X64802632Y-29477877D01*
X63374060Y-30620735D02*
X63488346Y-30677877D01*
X63488346Y-30677877D02*
X63716918Y-30677877D01*
X63716918Y-30677877D02*
X63831203Y-30620735D01*
X63831203Y-30620735D02*
X63888346Y-30506449D01*
X63888346Y-30506449D02*
X63888346Y-30049306D01*
X63888346Y-30049306D02*
X63831203Y-29935020D01*
X63831203Y-29935020D02*
X63716918Y-29877877D01*
X63716918Y-29877877D02*
X63488346Y-29877877D01*
X63488346Y-29877877D02*
X63374060Y-29935020D01*
X63374060Y-29935020D02*
X63316918Y-30049306D01*
X63316918Y-30049306D02*
X63316918Y-30163592D01*
X63316918Y-30163592D02*
X63888346Y-30277877D01*
X71316917Y-31981239D02*
X71145489Y-32038382D01*
X71145489Y-32038382D02*
X71088346Y-32095525D01*
X71088346Y-32095525D02*
X71031203Y-32209810D01*
X71031203Y-32209810D02*
X71031203Y-32381239D01*
X71031203Y-32381239D02*
X71088346Y-32495525D01*
X71088346Y-32495525D02*
X71145489Y-32552668D01*
X71145489Y-32552668D02*
X71259774Y-32609810D01*
X71259774Y-32609810D02*
X71716917Y-32609810D01*
X71716917Y-32609810D02*
X71716917Y-31409810D01*
X71716917Y-31409810D02*
X71316917Y-31409810D01*
X71316917Y-31409810D02*
X71202632Y-31466953D01*
X71202632Y-31466953D02*
X71145489Y-31524096D01*
X71145489Y-31524096D02*
X71088346Y-31638382D01*
X71088346Y-31638382D02*
X71088346Y-31752668D01*
X71088346Y-31752668D02*
X71145489Y-31866953D01*
X71145489Y-31866953D02*
X71202632Y-31924096D01*
X71202632Y-31924096D02*
X71316917Y-31981239D01*
X71316917Y-31981239D02*
X71716917Y-31981239D01*
X70516917Y-32609810D02*
X70516917Y-31809810D01*
X70516917Y-32038382D02*
X70459774Y-31924096D01*
X70459774Y-31924096D02*
X70402632Y-31866953D01*
X70402632Y-31866953D02*
X70288346Y-31809810D01*
X70288346Y-31809810D02*
X70174060Y-31809810D01*
X69259775Y-32609810D02*
X69259775Y-31981239D01*
X69259775Y-31981239D02*
X69316917Y-31866953D01*
X69316917Y-31866953D02*
X69431203Y-31809810D01*
X69431203Y-31809810D02*
X69659775Y-31809810D01*
X69659775Y-31809810D02*
X69774060Y-31866953D01*
X69259775Y-32552668D02*
X69374060Y-32609810D01*
X69374060Y-32609810D02*
X69659775Y-32609810D01*
X69659775Y-32609810D02*
X69774060Y-32552668D01*
X69774060Y-32552668D02*
X69831203Y-32438382D01*
X69831203Y-32438382D02*
X69831203Y-32324096D01*
X69831203Y-32324096D02*
X69774060Y-32209810D01*
X69774060Y-32209810D02*
X69659775Y-32152668D01*
X69659775Y-32152668D02*
X69374060Y-32152668D01*
X69374060Y-32152668D02*
X69259775Y-32095525D01*
X68174061Y-32609810D02*
X68174061Y-31409810D01*
X68174061Y-32552668D02*
X68288346Y-32609810D01*
X68288346Y-32609810D02*
X68516918Y-32609810D01*
X68516918Y-32609810D02*
X68631203Y-32552668D01*
X68631203Y-32552668D02*
X68688346Y-32495525D01*
X68688346Y-32495525D02*
X68745489Y-32381239D01*
X68745489Y-32381239D02*
X68745489Y-32038382D01*
X68745489Y-32038382D02*
X68688346Y-31924096D01*
X68688346Y-31924096D02*
X68631203Y-31866953D01*
X68631203Y-31866953D02*
X68516918Y-31809810D01*
X68516918Y-31809810D02*
X68288346Y-31809810D01*
X68288346Y-31809810D02*
X68174061Y-31866953D01*
X66059775Y-31466953D02*
X66174061Y-31409810D01*
X66174061Y-31409810D02*
X66345489Y-31409810D01*
X66345489Y-31409810D02*
X66516918Y-31466953D01*
X66516918Y-31466953D02*
X66631203Y-31581239D01*
X66631203Y-31581239D02*
X66688346Y-31695525D01*
X66688346Y-31695525D02*
X66745489Y-31924096D01*
X66745489Y-31924096D02*
X66745489Y-32095525D01*
X66745489Y-32095525D02*
X66688346Y-32324096D01*
X66688346Y-32324096D02*
X66631203Y-32438382D01*
X66631203Y-32438382D02*
X66516918Y-32552668D01*
X66516918Y-32552668D02*
X66345489Y-32609810D01*
X66345489Y-32609810D02*
X66231203Y-32609810D01*
X66231203Y-32609810D02*
X66059775Y-32552668D01*
X66059775Y-32552668D02*
X66002632Y-32495525D01*
X66002632Y-32495525D02*
X66002632Y-32095525D01*
X66002632Y-32095525D02*
X66231203Y-32095525D01*
X65316918Y-32609810D02*
X65431203Y-32552668D01*
X65431203Y-32552668D02*
X65488346Y-32438382D01*
X65488346Y-32438382D02*
X65488346Y-31409810D01*
X64345490Y-32609810D02*
X64345490Y-31981239D01*
X64345490Y-31981239D02*
X64402632Y-31866953D01*
X64402632Y-31866953D02*
X64516918Y-31809810D01*
X64516918Y-31809810D02*
X64745490Y-31809810D01*
X64745490Y-31809810D02*
X64859775Y-31866953D01*
X64345490Y-32552668D02*
X64459775Y-32609810D01*
X64459775Y-32609810D02*
X64745490Y-32609810D01*
X64745490Y-32609810D02*
X64859775Y-32552668D01*
X64859775Y-32552668D02*
X64916918Y-32438382D01*
X64916918Y-32438382D02*
X64916918Y-32324096D01*
X64916918Y-32324096D02*
X64859775Y-32209810D01*
X64859775Y-32209810D02*
X64745490Y-32152668D01*
X64745490Y-32152668D02*
X64459775Y-32152668D01*
X64459775Y-32152668D02*
X64345490Y-32095525D01*
X63259776Y-31809810D02*
X63259776Y-32609810D01*
X63774061Y-31809810D02*
X63774061Y-32438382D01*
X63774061Y-32438382D02*
X63716918Y-32552668D01*
X63716918Y-32552668D02*
X63602633Y-32609810D01*
X63602633Y-32609810D02*
X63431204Y-32609810D01*
X63431204Y-32609810D02*
X63316918Y-32552668D01*
X63316918Y-32552668D02*
X63259776Y-32495525D01*
X62688347Y-32609810D02*
X62688347Y-31409810D01*
X62688347Y-31866953D02*
X62574062Y-31809810D01*
X62574062Y-31809810D02*
X62345490Y-31809810D01*
X62345490Y-31809810D02*
X62231204Y-31866953D01*
X62231204Y-31866953D02*
X62174062Y-31924096D01*
X62174062Y-31924096D02*
X62116919Y-32038382D01*
X62116919Y-32038382D02*
X62116919Y-32381239D01*
X62116919Y-32381239D02*
X62174062Y-32495525D01*
X62174062Y-32495525D02*
X62231204Y-32552668D01*
X62231204Y-32552668D02*
X62345490Y-32609810D01*
X62345490Y-32609810D02*
X62574062Y-32609810D01*
X62574062Y-32609810D02*
X62688347Y-32552668D01*
X61602633Y-32609810D02*
X61602633Y-31809810D01*
X61602633Y-31409810D02*
X61659776Y-31466953D01*
X61659776Y-31466953D02*
X61602633Y-31524096D01*
X61602633Y-31524096D02*
X61545490Y-31466953D01*
X61545490Y-31466953D02*
X61602633Y-31409810D01*
X61602633Y-31409810D02*
X61602633Y-31524096D01*
X61202633Y-31809810D02*
X60745490Y-31809810D01*
X61031204Y-31409810D02*
X61031204Y-32438382D01*
X61031204Y-32438382D02*
X60974061Y-32552668D01*
X60974061Y-32552668D02*
X60859776Y-32609810D01*
X60859776Y-32609810D02*
X60745490Y-32609810D01*
X60459776Y-31809810D02*
X59831205Y-31809810D01*
X59831205Y-31809810D02*
X60459776Y-32609810D01*
X60459776Y-32609810D02*
X59831205Y-32609810D01*
X71716917Y-34541743D02*
X71716917Y-33341743D01*
X71716917Y-33341743D02*
X71431203Y-33341743D01*
X71431203Y-33341743D02*
X71259774Y-33398886D01*
X71259774Y-33398886D02*
X71145489Y-33513172D01*
X71145489Y-33513172D02*
X71088346Y-33627458D01*
X71088346Y-33627458D02*
X71031203Y-33856029D01*
X71031203Y-33856029D02*
X71031203Y-34027458D01*
X71031203Y-34027458D02*
X71088346Y-34256029D01*
X71088346Y-34256029D02*
X71145489Y-34370315D01*
X71145489Y-34370315D02*
X71259774Y-34484601D01*
X71259774Y-34484601D02*
X71431203Y-34541743D01*
X71431203Y-34541743D02*
X71716917Y-34541743D01*
X70002632Y-34541743D02*
X70002632Y-33913172D01*
X70002632Y-33913172D02*
X70059774Y-33798886D01*
X70059774Y-33798886D02*
X70174060Y-33741743D01*
X70174060Y-33741743D02*
X70402632Y-33741743D01*
X70402632Y-33741743D02*
X70516917Y-33798886D01*
X70002632Y-34484601D02*
X70116917Y-34541743D01*
X70116917Y-34541743D02*
X70402632Y-34541743D01*
X70402632Y-34541743D02*
X70516917Y-34484601D01*
X70516917Y-34484601D02*
X70574060Y-34370315D01*
X70574060Y-34370315D02*
X70574060Y-34256029D01*
X70574060Y-34256029D02*
X70516917Y-34141743D01*
X70516917Y-34141743D02*
X70402632Y-34084601D01*
X70402632Y-34084601D02*
X70116917Y-34084601D01*
X70116917Y-34084601D02*
X70002632Y-34027458D01*
X69431203Y-33741743D02*
X69431203Y-34541743D01*
X69431203Y-33856029D02*
X69374060Y-33798886D01*
X69374060Y-33798886D02*
X69259775Y-33741743D01*
X69259775Y-33741743D02*
X69088346Y-33741743D01*
X69088346Y-33741743D02*
X68974060Y-33798886D01*
X68974060Y-33798886D02*
X68916918Y-33913172D01*
X68916918Y-33913172D02*
X68916918Y-34541743D01*
X68345489Y-34541743D02*
X68345489Y-33741743D01*
X68345489Y-33341743D02*
X68402632Y-33398886D01*
X68402632Y-33398886D02*
X68345489Y-33456029D01*
X68345489Y-33456029D02*
X68288346Y-33398886D01*
X68288346Y-33398886D02*
X68345489Y-33341743D01*
X68345489Y-33341743D02*
X68345489Y-33456029D01*
X67888346Y-33741743D02*
X67602632Y-34541743D01*
X67316917Y-33741743D02*
X67602632Y-34541743D01*
X67602632Y-34541743D02*
X67716917Y-34827458D01*
X67716917Y-34827458D02*
X67774060Y-34884601D01*
X67774060Y-34884601D02*
X67888346Y-34941743D01*
X66859774Y-34541743D02*
X66859774Y-33741743D01*
X66859774Y-33341743D02*
X66916917Y-33398886D01*
X66916917Y-33398886D02*
X66859774Y-33456029D01*
X66859774Y-33456029D02*
X66802631Y-33398886D01*
X66802631Y-33398886D02*
X66859774Y-33341743D01*
X66859774Y-33341743D02*
X66859774Y-33456029D01*
X66116917Y-34541743D02*
X66231202Y-34484601D01*
X66231202Y-34484601D02*
X66288345Y-34370315D01*
X66288345Y-34370315D02*
X66288345Y-33341743D01*
X64745488Y-34541743D02*
X64745488Y-33341743D01*
X64059774Y-34541743D02*
X64574060Y-33856029D01*
X64059774Y-33341743D02*
X64745488Y-34027458D01*
X63031203Y-34541743D02*
X63031203Y-33913172D01*
X63031203Y-33913172D02*
X63088345Y-33798886D01*
X63088345Y-33798886D02*
X63202631Y-33741743D01*
X63202631Y-33741743D02*
X63431203Y-33741743D01*
X63431203Y-33741743D02*
X63545488Y-33798886D01*
X63031203Y-34484601D02*
X63145488Y-34541743D01*
X63145488Y-34541743D02*
X63431203Y-34541743D01*
X63431203Y-34541743D02*
X63545488Y-34484601D01*
X63545488Y-34484601D02*
X63602631Y-34370315D01*
X63602631Y-34370315D02*
X63602631Y-34256029D01*
X63602631Y-34256029D02*
X63545488Y-34141743D01*
X63545488Y-34141743D02*
X63431203Y-34084601D01*
X63431203Y-34084601D02*
X63145488Y-34084601D01*
X63145488Y-34084601D02*
X63031203Y-34027458D01*
X62516917Y-34484601D02*
X62402631Y-34541743D01*
X62402631Y-34541743D02*
X62174060Y-34541743D01*
X62174060Y-34541743D02*
X62059774Y-34484601D01*
X62059774Y-34484601D02*
X62002631Y-34370315D01*
X62002631Y-34370315D02*
X62002631Y-34313172D01*
X62002631Y-34313172D02*
X62059774Y-34198886D01*
X62059774Y-34198886D02*
X62174060Y-34141743D01*
X62174060Y-34141743D02*
X62345489Y-34141743D01*
X62345489Y-34141743D02*
X62459774Y-34084601D01*
X62459774Y-34084601D02*
X62516917Y-33970315D01*
X62516917Y-33970315D02*
X62516917Y-33913172D01*
X62516917Y-33913172D02*
X62459774Y-33798886D01*
X62459774Y-33798886D02*
X62345489Y-33741743D01*
X62345489Y-33741743D02*
X62174060Y-33741743D01*
X62174060Y-33741743D02*
X62059774Y-33798886D01*
X61488345Y-34541743D02*
X61488345Y-33341743D01*
X60974060Y-34541743D02*
X60974060Y-33913172D01*
X60974060Y-33913172D02*
X61031202Y-33798886D01*
X61031202Y-33798886D02*
X61145488Y-33741743D01*
X61145488Y-33741743D02*
X61316917Y-33741743D01*
X61316917Y-33741743D02*
X61431202Y-33798886D01*
X61431202Y-33798886D02*
X61488345Y-33856029D01*
X60402631Y-34541743D02*
X60402631Y-33341743D01*
X60288346Y-34084601D02*
X59945488Y-34541743D01*
X59945488Y-33741743D02*
X60402631Y-34198886D01*
X58916917Y-34541743D02*
X58916917Y-33913172D01*
X58916917Y-33913172D02*
X58974059Y-33798886D01*
X58974059Y-33798886D02*
X59088345Y-33741743D01*
X59088345Y-33741743D02*
X59316917Y-33741743D01*
X59316917Y-33741743D02*
X59431202Y-33798886D01*
X58916917Y-34484601D02*
X59031202Y-34541743D01*
X59031202Y-34541743D02*
X59316917Y-34541743D01*
X59316917Y-34541743D02*
X59431202Y-34484601D01*
X59431202Y-34484601D02*
X59488345Y-34370315D01*
X59488345Y-34370315D02*
X59488345Y-34256029D01*
X59488345Y-34256029D02*
X59431202Y-34141743D01*
X59431202Y-34141743D02*
X59316917Y-34084601D01*
X59316917Y-34084601D02*
X59031202Y-34084601D01*
X59031202Y-34084601D02*
X58916917Y-34027458D01*
X58345488Y-33741743D02*
X58345488Y-34541743D01*
X58345488Y-33856029D02*
X58288345Y-33798886D01*
X58288345Y-33798886D02*
X58174060Y-33741743D01*
X58174060Y-33741743D02*
X58002631Y-33741743D01*
X58002631Y-33741743D02*
X57888345Y-33798886D01*
X57888345Y-33798886D02*
X57831203Y-33913172D01*
X57831203Y-33913172D02*
X57831203Y-34541743D01*
X71716917Y-36473676D02*
X71716917Y-35273676D01*
X71716917Y-35273676D02*
X71431203Y-35273676D01*
X71431203Y-35273676D02*
X71259774Y-35330819D01*
X71259774Y-35330819D02*
X71145489Y-35445105D01*
X71145489Y-35445105D02*
X71088346Y-35559391D01*
X71088346Y-35559391D02*
X71031203Y-35787962D01*
X71031203Y-35787962D02*
X71031203Y-35959391D01*
X71031203Y-35959391D02*
X71088346Y-36187962D01*
X71088346Y-36187962D02*
X71145489Y-36302248D01*
X71145489Y-36302248D02*
X71259774Y-36416534D01*
X71259774Y-36416534D02*
X71431203Y-36473676D01*
X71431203Y-36473676D02*
X71716917Y-36473676D01*
X70002632Y-36473676D02*
X70002632Y-35845105D01*
X70002632Y-35845105D02*
X70059774Y-35730819D01*
X70059774Y-35730819D02*
X70174060Y-35673676D01*
X70174060Y-35673676D02*
X70402632Y-35673676D01*
X70402632Y-35673676D02*
X70516917Y-35730819D01*
X70002632Y-36416534D02*
X70116917Y-36473676D01*
X70116917Y-36473676D02*
X70402632Y-36473676D01*
X70402632Y-36473676D02*
X70516917Y-36416534D01*
X70516917Y-36416534D02*
X70574060Y-36302248D01*
X70574060Y-36302248D02*
X70574060Y-36187962D01*
X70574060Y-36187962D02*
X70516917Y-36073676D01*
X70516917Y-36073676D02*
X70402632Y-36016534D01*
X70402632Y-36016534D02*
X70116917Y-36016534D01*
X70116917Y-36016534D02*
X70002632Y-35959391D01*
X69545489Y-35673676D02*
X69259775Y-36473676D01*
X69259775Y-36473676D02*
X68974060Y-35673676D01*
X68631203Y-35673676D02*
X68345489Y-36473676D01*
X68059774Y-35673676D02*
X68345489Y-36473676D01*
X68345489Y-36473676D02*
X68459774Y-36759391D01*
X68459774Y-36759391D02*
X68516917Y-36816534D01*
X68516917Y-36816534D02*
X68631203Y-36873676D01*
X67088346Y-36473676D02*
X67088346Y-35273676D01*
X67088346Y-36416534D02*
X67202631Y-36473676D01*
X67202631Y-36473676D02*
X67431203Y-36473676D01*
X67431203Y-36473676D02*
X67545488Y-36416534D01*
X67545488Y-36416534D02*
X67602631Y-36359391D01*
X67602631Y-36359391D02*
X67659774Y-36245105D01*
X67659774Y-36245105D02*
X67659774Y-35902248D01*
X67659774Y-35902248D02*
X67602631Y-35787962D01*
X67602631Y-35787962D02*
X67545488Y-35730819D01*
X67545488Y-35730819D02*
X67431203Y-35673676D01*
X67431203Y-35673676D02*
X67202631Y-35673676D01*
X67202631Y-35673676D02*
X67088346Y-35730819D01*
X64974060Y-35330819D02*
X65088346Y-35273676D01*
X65088346Y-35273676D02*
X65259774Y-35273676D01*
X65259774Y-35273676D02*
X65431203Y-35330819D01*
X65431203Y-35330819D02*
X65545488Y-35445105D01*
X65545488Y-35445105D02*
X65602631Y-35559391D01*
X65602631Y-35559391D02*
X65659774Y-35787962D01*
X65659774Y-35787962D02*
X65659774Y-35959391D01*
X65659774Y-35959391D02*
X65602631Y-36187962D01*
X65602631Y-36187962D02*
X65545488Y-36302248D01*
X65545488Y-36302248D02*
X65431203Y-36416534D01*
X65431203Y-36416534D02*
X65259774Y-36473676D01*
X65259774Y-36473676D02*
X65145488Y-36473676D01*
X65145488Y-36473676D02*
X64974060Y-36416534D01*
X64974060Y-36416534D02*
X64916917Y-36359391D01*
X64916917Y-36359391D02*
X64916917Y-35959391D01*
X64916917Y-35959391D02*
X65145488Y-35959391D01*
X63888346Y-36473676D02*
X63888346Y-35845105D01*
X63888346Y-35845105D02*
X63945488Y-35730819D01*
X63945488Y-35730819D02*
X64059774Y-35673676D01*
X64059774Y-35673676D02*
X64288346Y-35673676D01*
X64288346Y-35673676D02*
X64402631Y-35730819D01*
X63888346Y-36416534D02*
X64002631Y-36473676D01*
X64002631Y-36473676D02*
X64288346Y-36473676D01*
X64288346Y-36473676D02*
X64402631Y-36416534D01*
X64402631Y-36416534D02*
X64459774Y-36302248D01*
X64459774Y-36302248D02*
X64459774Y-36187962D01*
X64459774Y-36187962D02*
X64402631Y-36073676D01*
X64402631Y-36073676D02*
X64288346Y-36016534D01*
X64288346Y-36016534D02*
X64002631Y-36016534D01*
X64002631Y-36016534D02*
X63888346Y-35959391D01*
X63316917Y-36473676D02*
X63316917Y-35673676D01*
X63316917Y-35787962D02*
X63259774Y-35730819D01*
X63259774Y-35730819D02*
X63145489Y-35673676D01*
X63145489Y-35673676D02*
X62974060Y-35673676D01*
X62974060Y-35673676D02*
X62859774Y-35730819D01*
X62859774Y-35730819D02*
X62802632Y-35845105D01*
X62802632Y-35845105D02*
X62802632Y-36473676D01*
X62802632Y-35845105D02*
X62745489Y-35730819D01*
X62745489Y-35730819D02*
X62631203Y-35673676D01*
X62631203Y-35673676D02*
X62459774Y-35673676D01*
X62459774Y-35673676D02*
X62345489Y-35730819D01*
X62345489Y-35730819D02*
X62288346Y-35845105D01*
X62288346Y-35845105D02*
X62288346Y-36473676D01*
X61831203Y-35673676D02*
X61202632Y-35673676D01*
X61202632Y-35673676D02*
X61831203Y-36473676D01*
X61831203Y-36473676D02*
X61202632Y-36473676D01*
X60231203Y-36473676D02*
X60231203Y-35845105D01*
X60231203Y-35845105D02*
X60288345Y-35730819D01*
X60288345Y-35730819D02*
X60402631Y-35673676D01*
X60402631Y-35673676D02*
X60631203Y-35673676D01*
X60631203Y-35673676D02*
X60745488Y-35730819D01*
X60231203Y-36416534D02*
X60345488Y-36473676D01*
X60345488Y-36473676D02*
X60631203Y-36473676D01*
X60631203Y-36473676D02*
X60745488Y-36416534D01*
X60745488Y-36416534D02*
X60802631Y-36302248D01*
X60802631Y-36302248D02*
X60802631Y-36187962D01*
X60802631Y-36187962D02*
X60745488Y-36073676D01*
X60745488Y-36073676D02*
X60631203Y-36016534D01*
X60631203Y-36016534D02*
X60345488Y-36016534D01*
X60345488Y-36016534D02*
X60231203Y-35959391D01*
X71716917Y-38405609D02*
X71716917Y-37205609D01*
X71716917Y-37205609D02*
X71259774Y-37205609D01*
X71259774Y-37205609D02*
X71145489Y-37262752D01*
X71145489Y-37262752D02*
X71088346Y-37319895D01*
X71088346Y-37319895D02*
X71031203Y-37434181D01*
X71031203Y-37434181D02*
X71031203Y-37605609D01*
X71031203Y-37605609D02*
X71088346Y-37719895D01*
X71088346Y-37719895D02*
X71145489Y-37777038D01*
X71145489Y-37777038D02*
X71259774Y-37834181D01*
X71259774Y-37834181D02*
X71716917Y-37834181D01*
X70002632Y-38405609D02*
X70002632Y-37777038D01*
X70002632Y-37777038D02*
X70059774Y-37662752D01*
X70059774Y-37662752D02*
X70174060Y-37605609D01*
X70174060Y-37605609D02*
X70402632Y-37605609D01*
X70402632Y-37605609D02*
X70516917Y-37662752D01*
X70002632Y-38348467D02*
X70116917Y-38405609D01*
X70116917Y-38405609D02*
X70402632Y-38405609D01*
X70402632Y-38405609D02*
X70516917Y-38348467D01*
X70516917Y-38348467D02*
X70574060Y-38234181D01*
X70574060Y-38234181D02*
X70574060Y-38119895D01*
X70574060Y-38119895D02*
X70516917Y-38005609D01*
X70516917Y-38005609D02*
X70402632Y-37948467D01*
X70402632Y-37948467D02*
X70116917Y-37948467D01*
X70116917Y-37948467D02*
X70002632Y-37891324D01*
X68916918Y-37605609D02*
X68916918Y-38405609D01*
X69431203Y-37605609D02*
X69431203Y-38234181D01*
X69431203Y-38234181D02*
X69374060Y-38348467D01*
X69374060Y-38348467D02*
X69259775Y-38405609D01*
X69259775Y-38405609D02*
X69088346Y-38405609D01*
X69088346Y-38405609D02*
X68974060Y-38348467D01*
X68974060Y-38348467D02*
X68916918Y-38291324D01*
X68174061Y-38405609D02*
X68288346Y-38348467D01*
X68288346Y-38348467D02*
X68345489Y-38234181D01*
X68345489Y-38234181D02*
X68345489Y-37205609D01*
X66802632Y-38405609D02*
X66802632Y-37205609D01*
X66802632Y-37205609D02*
X66116918Y-38405609D01*
X66116918Y-38405609D02*
X66116918Y-37205609D01*
X65031204Y-37605609D02*
X65031204Y-38577038D01*
X65031204Y-38577038D02*
X65088346Y-38691324D01*
X65088346Y-38691324D02*
X65145489Y-38748467D01*
X65145489Y-38748467D02*
X65259775Y-38805609D01*
X65259775Y-38805609D02*
X65431204Y-38805609D01*
X65431204Y-38805609D02*
X65545489Y-38748467D01*
X65031204Y-38348467D02*
X65145489Y-38405609D01*
X65145489Y-38405609D02*
X65374061Y-38405609D01*
X65374061Y-38405609D02*
X65488346Y-38348467D01*
X65488346Y-38348467D02*
X65545489Y-38291324D01*
X65545489Y-38291324D02*
X65602632Y-38177038D01*
X65602632Y-38177038D02*
X65602632Y-37834181D01*
X65602632Y-37834181D02*
X65545489Y-37719895D01*
X65545489Y-37719895D02*
X65488346Y-37662752D01*
X65488346Y-37662752D02*
X65374061Y-37605609D01*
X65374061Y-37605609D02*
X65145489Y-37605609D01*
X65145489Y-37605609D02*
X65031204Y-37662752D01*
X63945490Y-37605609D02*
X63945490Y-38405609D01*
X64459775Y-37605609D02*
X64459775Y-38234181D01*
X64459775Y-38234181D02*
X64402632Y-38348467D01*
X64402632Y-38348467D02*
X64288347Y-38405609D01*
X64288347Y-38405609D02*
X64116918Y-38405609D01*
X64116918Y-38405609D02*
X64002632Y-38348467D01*
X64002632Y-38348467D02*
X63945490Y-38291324D01*
X63488347Y-37605609D02*
X63202633Y-38405609D01*
X62916918Y-37605609D02*
X63202633Y-38405609D01*
X63202633Y-38405609D02*
X63316918Y-38691324D01*
X63316918Y-38691324D02*
X63374061Y-38748467D01*
X63374061Y-38748467D02*
X63488347Y-38805609D01*
X62002632Y-38348467D02*
X62116918Y-38405609D01*
X62116918Y-38405609D02*
X62345490Y-38405609D01*
X62345490Y-38405609D02*
X62459775Y-38348467D01*
X62459775Y-38348467D02*
X62516918Y-38234181D01*
X62516918Y-38234181D02*
X62516918Y-37777038D01*
X62516918Y-37777038D02*
X62459775Y-37662752D01*
X62459775Y-37662752D02*
X62345490Y-37605609D01*
X62345490Y-37605609D02*
X62116918Y-37605609D01*
X62116918Y-37605609D02*
X62002632Y-37662752D01*
X62002632Y-37662752D02*
X61945490Y-37777038D01*
X61945490Y-37777038D02*
X61945490Y-37891324D01*
X61945490Y-37891324D02*
X62516918Y-38005609D01*
X61431204Y-37605609D02*
X61431204Y-38405609D01*
X61431204Y-37719895D02*
X61374061Y-37662752D01*
X61374061Y-37662752D02*
X61259776Y-37605609D01*
X61259776Y-37605609D02*
X61088347Y-37605609D01*
X61088347Y-37605609D02*
X60974061Y-37662752D01*
X60974061Y-37662752D02*
X60916919Y-37777038D01*
X60916919Y-37777038D02*
X60916919Y-38405609D01*
D12*
X54838094Y-33706819D02*
X54266666Y-33706819D01*
X54552380Y-34706819D02*
X54552380Y-33706819D01*
X53933332Y-34706819D02*
X53933332Y-33706819D01*
X53933332Y-33706819D02*
X53552380Y-33706819D01*
X53552380Y-33706819D02*
X53457142Y-33754438D01*
X53457142Y-33754438D02*
X53409523Y-33802057D01*
X53409523Y-33802057D02*
X53361904Y-33897295D01*
X53361904Y-33897295D02*
X53361904Y-34040152D01*
X53361904Y-34040152D02*
X53409523Y-34135390D01*
X53409523Y-34135390D02*
X53457142Y-34183009D01*
X53457142Y-34183009D02*
X53552380Y-34230628D01*
X53552380Y-34230628D02*
X53933332Y-34230628D01*
X52409523Y-34706819D02*
X52980951Y-34706819D01*
X52695237Y-34706819D02*
X52695237Y-33706819D01*
X52695237Y-33706819D02*
X52790475Y-33849676D01*
X52790475Y-33849676D02*
X52885713Y-33944914D01*
X52885713Y-33944914D02*
X52980951Y-33992533D01*
X51790475Y-33706819D02*
X51695237Y-33706819D01*
X51695237Y-33706819D02*
X51599999Y-33754438D01*
X51599999Y-33754438D02*
X51552380Y-33802057D01*
X51552380Y-33802057D02*
X51504761Y-33897295D01*
X51504761Y-33897295D02*
X51457142Y-34087771D01*
X51457142Y-34087771D02*
X51457142Y-34325866D01*
X51457142Y-34325866D02*
X51504761Y-34516342D01*
X51504761Y-34516342D02*
X51552380Y-34611580D01*
X51552380Y-34611580D02*
X51599999Y-34659200D01*
X51599999Y-34659200D02*
X51695237Y-34706819D01*
X51695237Y-34706819D02*
X51790475Y-34706819D01*
X51790475Y-34706819D02*
X51885713Y-34659200D01*
X51885713Y-34659200D02*
X51933332Y-34611580D01*
X51933332Y-34611580D02*
X51980951Y-34516342D01*
X51980951Y-34516342D02*
X52028570Y-34325866D01*
X52028570Y-34325866D02*
X52028570Y-34087771D01*
X52028570Y-34087771D02*
X51980951Y-33897295D01*
X51980951Y-33897295D02*
X51933332Y-33802057D01*
X51933332Y-33802057D02*
X51885713Y-33754438D01*
X51885713Y-33754438D02*
X51790475Y-33706819D01*
D13*
X61238501Y-30049400D02*
G75*
G02*
X60476501Y-30049400I-381000J0D01*
G01*
X60476501Y-30049400D02*
G75*
G02*
X61238501Y-30049400I381000J0D01*
G01*
X19906000Y-37308600D02*
G75*
G02*
X19144000Y-37308600I-381000J0D01*
G01*
X19144000Y-37308600D02*
G75*
G02*
X19906000Y-37308600I381000J0D01*
G01*
X41689600Y-48475001D02*
G75*
G02*
X40927600Y-48475001I-381000J0D01*
G01*
X40927600Y-48475001D02*
G75*
G02*
X41689600Y-48475001I381000J0D01*
G01*
X47773500Y-37950600D02*
G75*
G02*
X47011500Y-37950600I-381000J0D01*
G01*
X47011500Y-37950600D02*
G75*
G02*
X47773500Y-37950600I381000J0D01*
G01*
X39189600Y-19475001D02*
G75*
G02*
X38427600Y-19475001I-381000J0D01*
G01*
X38427600Y-19475001D02*
G75*
G02*
X39189600Y-19475001I381000J0D01*
G01*
D14*
G36*
X31179388Y-37142335D02*
G01*
X31172118Y-37149605D01*
X31164849Y-37142335D01*
X31172118Y-37135066D01*
X31179388Y-37142335D01*
G37*
G36*
X26969948Y-28139902D02*
G01*
X27018099Y-28172088D01*
X27051983Y-28219188D01*
X27064791Y-28276334D01*
X27064566Y-28289766D01*
X27060409Y-28322546D01*
X27048170Y-28352263D01*
X27024178Y-28384206D01*
X26984762Y-28423663D01*
X26926251Y-28475922D01*
X26884791Y-28511494D01*
X26844322Y-28543179D01*
X26813533Y-28561317D01*
X26785918Y-28569537D01*
X26754969Y-28571471D01*
X26696228Y-28563929D01*
X26647332Y-28535833D01*
X26614416Y-28485057D01*
X26603550Y-28451519D01*
X26601865Y-28404800D01*
X26619476Y-28358055D01*
X26658449Y-28306636D01*
X26720854Y-28245891D01*
X26746666Y-28223376D01*
X26796334Y-28183055D01*
X26839101Y-28151996D01*
X26867844Y-28135549D01*
X26914343Y-28127499D01*
X26969948Y-28139902D01*
G37*
G36*
X25865454Y-29148807D02*
G01*
X25915921Y-29173002D01*
X25953712Y-29213645D01*
X25974958Y-29265385D01*
X25975791Y-29322868D01*
X25952343Y-29380741D01*
X25942608Y-29393927D01*
X25912259Y-29429648D01*
X25868917Y-29477220D01*
X25816674Y-29532494D01*
X25759623Y-29591320D01*
X25701854Y-29649547D01*
X25647460Y-29703025D01*
X25600533Y-29747603D01*
X25565163Y-29779132D01*
X25545444Y-29793461D01*
X25511026Y-29804247D01*
X25476432Y-29802954D01*
X25431169Y-29787284D01*
X25405869Y-29772688D01*
X25366299Y-29729027D01*
X25343220Y-29673667D01*
X25342146Y-29617149D01*
X25352501Y-29594621D01*
X25381622Y-29552560D01*
X25424992Y-29498747D01*
X25478547Y-29437443D01*
X25538227Y-29372912D01*
X25599970Y-29309416D01*
X25659714Y-29251216D01*
X25713397Y-29202576D01*
X25756957Y-29167758D01*
X25786332Y-29151025D01*
X25806180Y-29146416D01*
X25865454Y-29148807D01*
G37*
G36*
X28944099Y-35041492D02*
G01*
X28997525Y-35055704D01*
X29046170Y-35088978D01*
X29077961Y-35133255D01*
X29078222Y-35133895D01*
X29092241Y-35176353D01*
X29107924Y-35236459D01*
X29124025Y-35307662D01*
X29139293Y-35383413D01*
X29152482Y-35457160D01*
X29162341Y-35522353D01*
X29167624Y-35572443D01*
X29167082Y-35600878D01*
X29166826Y-35601861D01*
X29148625Y-35639434D01*
X29119378Y-35675114D01*
X29073341Y-35702586D01*
X29016655Y-35711427D01*
X28960207Y-35700842D01*
X28912323Y-35672479D01*
X28881329Y-35627986D01*
X28879562Y-35622816D01*
X28870110Y-35588836D01*
X28856598Y-35534564D01*
X28840562Y-35466316D01*
X28823539Y-35390407D01*
X28806824Y-35312757D01*
X28795313Y-35253879D01*
X28789433Y-35212480D01*
X28788679Y-35183019D01*
X28792546Y-35159953D01*
X28800531Y-35137740D01*
X28801470Y-35135556D01*
X28835703Y-35088265D01*
X28885630Y-35054383D01*
X28940349Y-35041420D01*
X28944099Y-35041492D01*
G37*
G36*
X29878360Y-34328330D02*
G01*
X29933155Y-34349018D01*
X29974377Y-34388806D01*
X29975720Y-34391209D01*
X29986317Y-34420242D01*
X30001119Y-34471992D01*
X30018859Y-34541534D01*
X30038269Y-34623941D01*
X30058083Y-34714287D01*
X30074139Y-34790063D01*
X30100344Y-34913244D01*
X30127828Y-35041960D01*
X30154171Y-35164883D01*
X30176951Y-35270680D01*
X30194226Y-35352597D01*
X30210196Y-35432431D01*
X30222778Y-35499816D01*
X30230984Y-35549443D01*
X30233824Y-35576003D01*
X30229563Y-35609103D01*
X30203848Y-35664802D01*
X30160043Y-35704473D01*
X30148965Y-35709986D01*
X30090749Y-35723077D01*
X30031789Y-35715184D01*
X29980870Y-35688711D01*
X29946779Y-35646066D01*
X29944261Y-35639622D01*
X29933674Y-35603954D01*
X29919514Y-35548182D01*
X29903326Y-35478585D01*
X29886653Y-35401444D01*
X29881444Y-35376467D01*
X29863563Y-35291269D01*
X29841761Y-35187964D01*
X29817643Y-35074125D01*
X29792811Y-34957326D01*
X29768870Y-34845140D01*
X29745066Y-34731866D01*
X29725506Y-34632361D01*
X29712369Y-34554540D01*
X29705405Y-34494980D01*
X29704366Y-34450259D01*
X29709000Y-34416953D01*
X29719060Y-34391639D01*
X29734294Y-34370894D01*
X29763701Y-34346913D01*
X29818904Y-34327407D01*
X29878360Y-34328330D01*
G37*
G36*
X30496412Y-35292607D02*
G01*
X30533645Y-35300932D01*
X30598779Y-35323742D01*
X30670614Y-35355556D01*
X30739238Y-35391871D01*
X30794738Y-35428182D01*
X30811279Y-35442363D01*
X30851653Y-35486295D01*
X30885689Y-35534393D01*
X30924952Y-35601179D01*
X30924952Y-36788803D01*
X30924952Y-37976428D01*
X30882249Y-38021001D01*
X30844536Y-38050359D01*
X30786151Y-38067809D01*
X30725162Y-38058760D01*
X30667110Y-38023156D01*
X30619628Y-37980738D01*
X30615602Y-36999688D01*
X30611575Y-36018638D01*
X30539411Y-36046058D01*
X30524642Y-36051365D01*
X30453444Y-36072259D01*
X30361921Y-36093930D01*
X30256895Y-36115079D01*
X30145187Y-36134406D01*
X30033621Y-36150611D01*
X29929016Y-36162393D01*
X29786598Y-36171689D01*
X29615855Y-36174577D01*
X29438852Y-36170005D01*
X29261423Y-36158478D01*
X29089401Y-36140499D01*
X28928618Y-36116575D01*
X28784908Y-36087210D01*
X28664104Y-36052908D01*
X28649929Y-36048087D01*
X28601035Y-36031604D01*
X28566031Y-36020039D01*
X28551724Y-36015648D01*
X28551392Y-36020001D01*
X28550727Y-36049162D01*
X28549994Y-36103728D01*
X28549212Y-36181330D01*
X28548397Y-36279602D01*
X28547568Y-36396176D01*
X28546742Y-36528684D01*
X28545936Y-36674759D01*
X28545167Y-36832034D01*
X28544454Y-36998141D01*
X28540521Y-37980735D01*
X28493039Y-38023155D01*
X28463696Y-38044745D01*
X28403749Y-38065749D01*
X28344094Y-38060606D01*
X28290486Y-38030419D01*
X28248678Y-37976291D01*
X28246968Y-37972632D01*
X28242985Y-37960184D01*
X28239550Y-37941793D01*
X28236633Y-37915531D01*
X28234200Y-37879470D01*
X28232219Y-37831682D01*
X28230657Y-37770240D01*
X28229482Y-37693214D01*
X28228661Y-37598678D01*
X28228161Y-37484704D01*
X28227950Y-37349363D01*
X28227996Y-37190728D01*
X28228265Y-37006870D01*
X28228725Y-36795863D01*
X28228961Y-36710265D01*
X28229793Y-36502712D01*
X28230939Y-36312799D01*
X28232377Y-36141957D01*
X28234087Y-35991615D01*
X28236048Y-35863202D01*
X28238240Y-35758148D01*
X28240642Y-35677883D01*
X28243233Y-35623837D01*
X28245993Y-35597439D01*
X28248809Y-35587146D01*
X28274574Y-35530855D01*
X28313281Y-35477666D01*
X28321704Y-35468797D01*
X28369433Y-35426733D01*
X28426341Y-35385958D01*
X28484815Y-35351108D01*
X28537244Y-35326817D01*
X28576014Y-35317719D01*
X28588632Y-35318462D01*
X28644094Y-35337121D01*
X28691878Y-35375316D01*
X28721890Y-35425583D01*
X28730579Y-35462248D01*
X28725901Y-35522514D01*
X28693900Y-35574373D01*
X28633996Y-35619102D01*
X28603974Y-35636789D01*
X28573968Y-35656878D01*
X28562345Y-35668255D01*
X28572390Y-35676984D01*
X28602599Y-35693909D01*
X28645930Y-35714619D01*
X28744209Y-35752570D01*
X28893081Y-35794142D01*
X29061221Y-35826587D01*
X29243816Y-35849603D01*
X29436050Y-35862888D01*
X29633112Y-35866140D01*
X29830186Y-35859054D01*
X30022459Y-35841329D01*
X30205118Y-35812662D01*
X30256573Y-35802003D01*
X30354680Y-35778004D01*
X30442657Y-35751774D01*
X30514266Y-35725268D01*
X30563264Y-35700442D01*
X30575741Y-35691159D01*
X30587247Y-35672531D01*
X30576335Y-35653857D01*
X30541038Y-35632958D01*
X30479386Y-35607656D01*
X30450967Y-35595681D01*
X30387242Y-35554552D01*
X30347936Y-35504827D01*
X30334137Y-35449714D01*
X30346932Y-35392422D01*
X30387407Y-35336160D01*
X30399791Y-35324012D01*
X30430515Y-35299174D01*
X30458682Y-35290320D01*
X30496412Y-35292607D01*
G37*
G36*
X33004059Y-38684053D02*
G01*
X32955683Y-38782343D01*
X32942272Y-38808131D01*
X32881382Y-38899601D01*
X32801722Y-38984615D01*
X32700731Y-39065291D01*
X32575851Y-39143749D01*
X32424522Y-39222109D01*
X32415868Y-39226220D01*
X32217007Y-39310226D01*
X31992326Y-39386951D01*
X31744160Y-39455968D01*
X31474841Y-39516851D01*
X31186705Y-39569174D01*
X30882086Y-39612511D01*
X30563317Y-39646436D01*
X30232733Y-39670522D01*
X29892668Y-39684344D01*
X29826301Y-39685659D01*
X29619630Y-39686212D01*
X29397687Y-39682198D01*
X29167848Y-39673983D01*
X28937488Y-39661931D01*
X28713982Y-39646407D01*
X28504706Y-39627776D01*
X28317036Y-39606403D01*
X28060069Y-39569525D01*
X27764310Y-39517233D01*
X27490679Y-39457438D01*
X27239988Y-39390438D01*
X27013048Y-39316531D01*
X26810672Y-39236013D01*
X26633671Y-39149183D01*
X26482858Y-39056337D01*
X26359045Y-38957774D01*
X26263044Y-38853791D01*
X26247283Y-38832995D01*
X26218738Y-38792266D01*
X26196851Y-38753445D01*
X26180750Y-38712106D01*
X26169565Y-38663824D01*
X26162424Y-38604172D01*
X26162335Y-38602476D01*
X26470835Y-38602476D01*
X26480922Y-38629908D01*
X26506471Y-38668304D01*
X26543555Y-38712139D01*
X26588249Y-38755886D01*
X26621895Y-38782474D01*
X26693114Y-38828823D01*
X26782430Y-38878952D01*
X26883955Y-38929954D01*
X26991802Y-38978925D01*
X27100084Y-39022962D01*
X27202914Y-39059158D01*
X27430932Y-39126363D01*
X27706667Y-39193745D01*
X27997375Y-39250238D01*
X28306246Y-39296376D01*
X28636470Y-39332696D01*
X28991237Y-39359734D01*
X29001810Y-39360359D01*
X29097532Y-39364580D01*
X29215334Y-39367806D01*
X29349531Y-39370040D01*
X29494443Y-39371291D01*
X29644386Y-39371562D01*
X29793678Y-39370861D01*
X29936636Y-39369192D01*
X30067579Y-39366561D01*
X30180823Y-39362975D01*
X30270687Y-39358438D01*
X30350704Y-39352879D01*
X30646504Y-39326866D01*
X30929115Y-39293359D01*
X31196966Y-39252781D01*
X31448486Y-39205558D01*
X31682106Y-39152113D01*
X31896254Y-39092869D01*
X32089359Y-39028251D01*
X32259851Y-38958682D01*
X32406160Y-38884586D01*
X32526714Y-38806387D01*
X32619943Y-38724509D01*
X32620415Y-38724010D01*
X32665099Y-38674003D01*
X32687620Y-38641656D01*
X32687660Y-38626790D01*
X32664900Y-38629228D01*
X32619023Y-38648792D01*
X32549708Y-38685305D01*
X32465651Y-38729315D01*
X32265293Y-38818006D01*
X32040601Y-38898195D01*
X31793999Y-38969709D01*
X31527910Y-39032374D01*
X31244759Y-39086018D01*
X30946969Y-39130469D01*
X30636965Y-39165553D01*
X30317171Y-39191097D01*
X29990010Y-39206930D01*
X29657908Y-39212877D01*
X29323286Y-39208766D01*
X28988571Y-39194424D01*
X28656185Y-39169678D01*
X28328553Y-39134356D01*
X28008099Y-39088285D01*
X27697247Y-39031292D01*
X27474332Y-38980909D01*
X27253952Y-38921240D01*
X27047912Y-38855227D01*
X26859891Y-38784152D01*
X26693565Y-38709300D01*
X26552615Y-38631953D01*
X26519958Y-38612982D01*
X26488209Y-38597408D01*
X26473298Y-38594065D01*
X26470835Y-38602476D01*
X26162335Y-38602476D01*
X26158457Y-38528725D01*
X26156792Y-38433057D01*
X26156559Y-38312742D01*
X26156678Y-38256157D01*
X26157257Y-38161546D01*
X26158586Y-38089281D01*
X26161025Y-38034863D01*
X26164933Y-37993790D01*
X26170669Y-37961562D01*
X26178593Y-37933681D01*
X26189065Y-37905644D01*
X26235209Y-37817009D01*
X26308985Y-37722142D01*
X26409627Y-37625432D01*
X26413222Y-37622393D01*
X26471428Y-37580301D01*
X26550776Y-37532067D01*
X26645350Y-37480644D01*
X26749230Y-37428986D01*
X26856497Y-37380045D01*
X26961234Y-37336776D01*
X27057522Y-37302131D01*
X27084480Y-37293458D01*
X27194489Y-37260016D01*
X27309591Y-37227729D01*
X27425672Y-37197516D01*
X27538620Y-37170296D01*
X27644323Y-37146988D01*
X27738668Y-37128508D01*
X27817543Y-37115777D01*
X27876836Y-37109711D01*
X27912433Y-37111229D01*
X27924687Y-37114934D01*
X27976367Y-37147246D01*
X28011450Y-37198000D01*
X28024379Y-37259821D01*
X28024373Y-37262616D01*
X28021663Y-37304481D01*
X28011597Y-37337463D01*
X27990615Y-37363807D01*
X27955156Y-37385757D01*
X27901662Y-37405556D01*
X27826571Y-37425448D01*
X27726325Y-37447677D01*
X27585983Y-37478609D01*
X27397799Y-37525006D01*
X27231093Y-37572970D01*
X27081325Y-37623964D01*
X26943951Y-37679446D01*
X26814429Y-37740878D01*
X26753567Y-37773375D01*
X26639198Y-37845128D01*
X26553687Y-37916182D01*
X26497075Y-37986478D01*
X26469402Y-38055957D01*
X26470709Y-38124561D01*
X26501037Y-38192232D01*
X26538272Y-38238573D01*
X26616970Y-38308074D01*
X26721374Y-38376989D01*
X26849467Y-38444534D01*
X26999233Y-38509923D01*
X27168655Y-38572370D01*
X27355717Y-38631090D01*
X27558401Y-38685298D01*
X27774691Y-38734208D01*
X28002570Y-38777035D01*
X28226728Y-38811632D01*
X28529935Y-38848442D01*
X28840192Y-38875528D01*
X29154981Y-38893090D01*
X29471780Y-38901326D01*
X29788069Y-38900435D01*
X30101327Y-38890616D01*
X30409033Y-38872066D01*
X30708667Y-38844984D01*
X30997708Y-38809569D01*
X31273635Y-38766020D01*
X31533928Y-38714534D01*
X31776067Y-38655311D01*
X31997530Y-38588549D01*
X32195798Y-38514446D01*
X32368348Y-38433201D01*
X32393938Y-38419310D01*
X32510780Y-38347864D01*
X32598888Y-38278332D01*
X32658468Y-38210307D01*
X32689726Y-38143383D01*
X32692867Y-38077152D01*
X32668098Y-38011209D01*
X32615625Y-37945148D01*
X32530071Y-37871381D01*
X32409832Y-37792612D01*
X32263398Y-37717827D01*
X32090221Y-37646807D01*
X31889751Y-37579327D01*
X31661442Y-37515167D01*
X31404746Y-37454103D01*
X31369661Y-37446309D01*
X31300595Y-37429942D01*
X31252256Y-37416034D01*
X31219060Y-37402488D01*
X31195421Y-37387204D01*
X31175753Y-37368085D01*
X31151556Y-37335138D01*
X31134462Y-37279545D01*
X31146361Y-37223610D01*
X31187216Y-37167947D01*
X31192553Y-37162623D01*
X31220961Y-37136587D01*
X31245396Y-37123969D01*
X31276809Y-37121433D01*
X31326149Y-37125645D01*
X31337968Y-37127082D01*
X31391421Y-37135803D01*
X31462711Y-37149593D01*
X31543958Y-37166872D01*
X31627278Y-37186058D01*
X31687999Y-37200912D01*
X31942261Y-37270132D01*
X32168384Y-37344057D01*
X32366866Y-37422953D01*
X32538203Y-37507088D01*
X32682893Y-37596726D01*
X32801434Y-37692136D01*
X32894321Y-37793582D01*
X32962053Y-37901332D01*
X33004059Y-37985610D01*
X33004059Y-38334831D01*
X33004059Y-38626790D01*
X33004059Y-38684053D01*
G37*
G36*
X25665368Y-28077138D02*
G01*
X25664943Y-28081385D01*
X25659097Y-28139639D01*
X25654041Y-28189890D01*
X25650829Y-28221673D01*
X25650767Y-28222287D01*
X25650493Y-28229032D01*
X25652078Y-28236035D01*
X25657058Y-28244279D01*
X25666972Y-28254744D01*
X25683357Y-28268414D01*
X25707751Y-28286269D01*
X25741690Y-28309291D01*
X25786713Y-28338462D01*
X25844356Y-28374763D01*
X25916158Y-28419177D01*
X26003656Y-28472685D01*
X26108386Y-28536269D01*
X26231887Y-28610910D01*
X26375697Y-28697590D01*
X26541352Y-28797290D01*
X26730389Y-28910994D01*
X26781783Y-28941921D01*
X26866870Y-28993168D01*
X26970899Y-29055860D01*
X27090539Y-29127986D01*
X27222458Y-29207537D01*
X27363324Y-29292505D01*
X27509806Y-29380880D01*
X27658573Y-29470654D01*
X27806291Y-29559816D01*
X27903550Y-29618526D01*
X28058735Y-29712193D01*
X28215824Y-29806999D01*
X28370989Y-29900634D01*
X28520401Y-29990788D01*
X28660234Y-30075151D01*
X28786657Y-30151413D01*
X28895845Y-30217266D01*
X28983967Y-30270398D01*
X29106117Y-30344044D01*
X29277594Y-30447499D01*
X29426680Y-30537551D01*
X29554926Y-30615151D01*
X29663881Y-30681250D01*
X29755097Y-30736799D01*
X29830124Y-30782748D01*
X29890513Y-30820048D01*
X29937814Y-30849651D01*
X29973579Y-30872507D01*
X29999356Y-30889567D01*
X30016698Y-30901781D01*
X30027155Y-30910102D01*
X30040151Y-30923691D01*
X30055568Y-30956753D01*
X30059869Y-31006807D01*
X30053484Y-31057079D01*
X30025677Y-31111704D01*
X29978729Y-31146952D01*
X29915824Y-31159450D01*
X29914091Y-31159469D01*
X29906411Y-31159947D01*
X29899750Y-31160519D01*
X29892811Y-31160429D01*
X29884298Y-31158923D01*
X29872914Y-31155245D01*
X29857363Y-31148642D01*
X29836348Y-31138359D01*
X29808573Y-31123640D01*
X29772742Y-31103731D01*
X29727558Y-31077877D01*
X29671725Y-31045324D01*
X29603946Y-31005317D01*
X29522925Y-30957101D01*
X29427365Y-30899921D01*
X29315970Y-30833022D01*
X29187444Y-30755651D01*
X29040490Y-30667051D01*
X28873812Y-30566470D01*
X28686113Y-30453150D01*
X28476097Y-30326339D01*
X28242467Y-30185281D01*
X28228521Y-30176861D01*
X28090085Y-30093290D01*
X27957737Y-30013401D01*
X27833826Y-29938612D01*
X27720703Y-29870341D01*
X27620720Y-29810007D01*
X27536226Y-29759028D01*
X27469573Y-29718824D01*
X27423112Y-29690813D01*
X27399193Y-29676412D01*
X27385801Y-29668355D01*
X27346347Y-29644575D01*
X27286131Y-29608257D01*
X27207649Y-29560907D01*
X27113398Y-29504031D01*
X27005873Y-29439136D01*
X26887570Y-29367728D01*
X26760985Y-29291313D01*
X26628615Y-29211398D01*
X26539195Y-29157415D01*
X26411249Y-29080191D01*
X26291139Y-29007718D01*
X26181301Y-28941464D01*
X26084173Y-28882898D01*
X26002189Y-28833489D01*
X25937788Y-28794706D01*
X25893404Y-28768018D01*
X25871475Y-28754895D01*
X25865381Y-28751281D01*
X25828356Y-28729207D01*
X25774323Y-28696887D01*
X25709553Y-28658075D01*
X25640321Y-28616527D01*
X25623610Y-28606517D01*
X25555054Y-28566387D01*
X25506133Y-28540009D01*
X25472916Y-28525619D01*
X25451472Y-28521456D01*
X25437873Y-28525758D01*
X25372441Y-28570516D01*
X25282330Y-28621352D01*
X25198152Y-28654223D01*
X25112567Y-28679938D01*
X25122068Y-29312682D01*
X25123119Y-29384600D01*
X25124915Y-29513958D01*
X25126946Y-29666621D01*
X25129170Y-29839132D01*
X25131544Y-30028034D01*
X25134025Y-30229871D01*
X25136572Y-30441187D01*
X25139143Y-30658526D01*
X25141694Y-30878431D01*
X25144184Y-31097445D01*
X25146569Y-31312112D01*
X25147391Y-31386856D01*
X25149945Y-31617353D01*
X25152645Y-31858748D01*
X25155440Y-32106600D01*
X25158280Y-32356467D01*
X25161113Y-32603907D01*
X25163888Y-32844478D01*
X25166555Y-33073740D01*
X25169062Y-33287250D01*
X25171358Y-33480566D01*
X25173393Y-33649247D01*
X25174299Y-33725418D01*
X25176079Y-33888405D01*
X25177552Y-34042342D01*
X25178705Y-34184727D01*
X25179526Y-34313056D01*
X25180003Y-34424825D01*
X25180124Y-34517533D01*
X25179877Y-34588674D01*
X25179250Y-34635747D01*
X25178230Y-34656247D01*
X25177110Y-34660800D01*
X25158657Y-34695552D01*
X25128235Y-34728986D01*
X25108956Y-34742912D01*
X25051722Y-34763577D01*
X24993482Y-34760376D01*
X24940809Y-34735838D01*
X24900278Y-34692495D01*
X24878464Y-34632874D01*
X24877847Y-34619953D01*
X24876831Y-34579079D01*
X24875545Y-34512218D01*
X24874011Y-34421072D01*
X24872248Y-34307342D01*
X24870276Y-34172727D01*
X24868115Y-34018930D01*
X24865784Y-33847650D01*
X24863304Y-33660589D01*
X24860695Y-33459447D01*
X24857976Y-33245926D01*
X24855167Y-33021725D01*
X24852290Y-32788547D01*
X24849362Y-32548091D01*
X24846405Y-32302059D01*
X24843438Y-32052151D01*
X24840481Y-31800068D01*
X24837554Y-31547511D01*
X24834677Y-31296181D01*
X24831870Y-31047779D01*
X24829152Y-30804005D01*
X24826545Y-30566560D01*
X24824067Y-30337145D01*
X24821739Y-30117462D01*
X24819580Y-29909209D01*
X24817611Y-29714090D01*
X24815852Y-29533803D01*
X24814321Y-29370051D01*
X24813040Y-29224534D01*
X24812028Y-29098952D01*
X24811306Y-28995007D01*
X24810892Y-28914399D01*
X24810807Y-28858830D01*
X24811214Y-28659125D01*
X24721637Y-28613907D01*
X24660013Y-28577773D01*
X24571089Y-28508939D01*
X24492545Y-28429062D01*
X24433443Y-28346547D01*
X24399756Y-28278459D01*
X24361388Y-28154334D01*
X24347736Y-28026129D01*
X24348096Y-28021757D01*
X24656873Y-28021757D01*
X24672760Y-28114499D01*
X24674712Y-28120902D01*
X24709754Y-28195070D01*
X24762499Y-28263039D01*
X24825890Y-28317251D01*
X24892866Y-28350151D01*
X24995866Y-28367880D01*
X25094713Y-28358379D01*
X25185306Y-28321535D01*
X25265603Y-28257854D01*
X25271354Y-28251807D01*
X25327835Y-28173909D01*
X25356926Y-28088776D01*
X25360058Y-27992392D01*
X25355107Y-27954887D01*
X25325124Y-27857699D01*
X25273577Y-27778311D01*
X25202735Y-27718837D01*
X25114866Y-27681394D01*
X25012238Y-27668094D01*
X24934610Y-27674935D01*
X24844075Y-27706270D01*
X24767876Y-27762898D01*
X24706187Y-27844719D01*
X24704080Y-27848410D01*
X24667013Y-27935475D01*
X24656873Y-28021757D01*
X24348096Y-28021757D01*
X24358233Y-27898490D01*
X24392308Y-27776065D01*
X24449396Y-27663504D01*
X24528927Y-27565452D01*
X24556246Y-27536448D01*
X24578202Y-27507863D01*
X24583787Y-27492222D01*
X24582162Y-27488903D01*
X24588410Y-27483901D01*
X24597473Y-27482513D01*
X24626625Y-27470280D01*
X24665822Y-27449242D01*
X24759069Y-27403671D01*
X24888240Y-27366043D01*
X25019873Y-27354612D01*
X25148685Y-27370243D01*
X25247300Y-27398383D01*
X25331564Y-27436057D01*
X25408125Y-27488206D01*
X25487287Y-27560623D01*
X25589061Y-27663107D01*
X25996159Y-27630989D01*
X26062911Y-27625701D01*
X26160200Y-27617954D01*
X26281754Y-27608248D01*
X26425130Y-27596780D01*
X26587886Y-27583744D01*
X26767580Y-27569339D01*
X26961772Y-27553759D01*
X27168018Y-27537202D01*
X27383878Y-27519864D01*
X27606910Y-27501941D01*
X27834672Y-27483629D01*
X28064722Y-27465125D01*
X28294618Y-27446626D01*
X28521919Y-27428327D01*
X28744184Y-27410425D01*
X28958969Y-27393116D01*
X29163834Y-27376598D01*
X29356337Y-27361065D01*
X29534036Y-27346714D01*
X29694489Y-27333742D01*
X29835255Y-27322346D01*
X29953892Y-27312720D01*
X30061761Y-27304008D01*
X30171131Y-27295538D01*
X30257544Y-27289686D01*
X30324323Y-27286566D01*
X30374793Y-27286296D01*
X30412278Y-27288991D01*
X30440102Y-27294768D01*
X30461591Y-27303741D01*
X30480067Y-27316028D01*
X30498856Y-27331744D01*
X30521409Y-27362202D01*
X30534159Y-27413666D01*
X30529543Y-27470186D01*
X30508644Y-27522356D01*
X30472542Y-27560769D01*
X30470609Y-27562006D01*
X30462057Y-27566647D01*
X30450672Y-27571010D01*
X30434587Y-27575274D01*
X30411932Y-27579623D01*
X30380839Y-27584238D01*
X30339440Y-27589301D01*
X30285867Y-27594992D01*
X30218250Y-27601494D01*
X30134722Y-27608989D01*
X30033415Y-27617657D01*
X29912459Y-27627681D01*
X29769986Y-27639242D01*
X29604129Y-27652521D01*
X29413018Y-27667701D01*
X29194786Y-27684963D01*
X29141787Y-27689156D01*
X28995352Y-27700786D01*
X28829144Y-27714037D01*
X28649688Y-27728387D01*
X28463509Y-27743313D01*
X28277130Y-27758292D01*
X28097077Y-27772801D01*
X27929874Y-27786318D01*
X27863050Y-27791729D01*
X27689767Y-27805750D01*
X27506319Y-27820582D01*
X27319230Y-27835697D01*
X27135025Y-27850569D01*
X26960229Y-27864670D01*
X26801367Y-27877474D01*
X26664963Y-27888454D01*
X26550130Y-27897691D01*
X26414485Y-27908605D01*
X26282676Y-27919213D01*
X26159731Y-27929111D01*
X26050680Y-27937893D01*
X25960555Y-27945155D01*
X25894385Y-27950492D01*
X25676297Y-27968094D01*
X25673862Y-27992392D01*
X25665368Y-28077138D01*
G37*
G36*
X33867321Y-27619153D02*
G01*
X33862782Y-27684159D01*
X33835875Y-27923106D01*
X33792073Y-28167253D01*
X33730473Y-28420451D01*
X33650169Y-28686554D01*
X33550257Y-28969415D01*
X33520914Y-29045713D01*
X33425871Y-29275242D01*
X33317556Y-29514938D01*
X33200192Y-29756012D01*
X33078007Y-29989673D01*
X32955225Y-30207132D01*
X32786845Y-30485446D01*
X32513690Y-30907042D01*
X32225701Y-31315610D01*
X31918338Y-31717495D01*
X31587062Y-32119038D01*
X31518678Y-32198552D01*
X31187658Y-32569390D01*
X30847082Y-32928600D01*
X30498198Y-33275380D01*
X30142251Y-33608927D01*
X29780491Y-33928440D01*
X29414164Y-34233117D01*
X29044517Y-34522156D01*
X28672800Y-34794755D01*
X28300257Y-35050113D01*
X27928139Y-35287428D01*
X27557690Y-35505898D01*
X27190160Y-35704721D01*
X26826796Y-35883095D01*
X26468845Y-36040218D01*
X26117554Y-36175289D01*
X25774171Y-36287506D01*
X25439943Y-36376067D01*
X25116119Y-36440170D01*
X24803944Y-36479013D01*
X24780854Y-36480893D01*
X24515858Y-36490640D01*
X24266386Y-36477635D01*
X24033086Y-36442290D01*
X23816607Y-36385015D01*
X23617598Y-36306224D01*
X23436708Y-36206328D01*
X23274585Y-36085739D01*
X23131879Y-35944868D01*
X23009239Y-35784128D01*
X22982290Y-35736485D01*
X23350023Y-35736485D01*
X23407624Y-35796181D01*
X23443965Y-35831511D01*
X23562973Y-35924249D01*
X23703313Y-36005834D01*
X23860127Y-36074038D01*
X24028560Y-36126633D01*
X24203756Y-36161391D01*
X24367229Y-36177917D01*
X24605717Y-36181369D01*
X24861247Y-36162979D01*
X25132802Y-36122940D01*
X25419362Y-36061448D01*
X25719912Y-35978696D01*
X26033432Y-35874879D01*
X26358906Y-35750190D01*
X26372519Y-35744612D01*
X26551867Y-35667061D01*
X26748589Y-35575297D01*
X26957150Y-35472191D01*
X27172010Y-35360612D01*
X27387634Y-35243431D01*
X27598483Y-35123518D01*
X27799021Y-35003743D01*
X28009149Y-34870810D01*
X28243368Y-34714620D01*
X28485586Y-34545713D01*
X28730939Y-34367752D01*
X28974564Y-34184402D01*
X29211597Y-33999326D01*
X29437175Y-33816188D01*
X29646434Y-33638652D01*
X29834511Y-33470381D01*
X29840137Y-33465200D01*
X29882410Y-33426759D01*
X29934759Y-33379713D01*
X29987173Y-33333067D01*
X30030956Y-33293203D01*
X30096746Y-33231190D01*
X30176311Y-33154662D01*
X30266230Y-33067019D01*
X30363082Y-32971659D01*
X30463444Y-32871984D01*
X30563895Y-32771393D01*
X30661013Y-32673286D01*
X30751376Y-32581064D01*
X30831563Y-32498126D01*
X30898151Y-32427873D01*
X30964065Y-32356463D01*
X31052073Y-32259088D01*
X31146150Y-32153151D01*
X31243448Y-32041994D01*
X31341119Y-31928960D01*
X31436316Y-31817389D01*
X31526189Y-31710623D01*
X31607892Y-31612005D01*
X31678576Y-31524875D01*
X31735393Y-31452575D01*
X31775495Y-31398448D01*
X31784452Y-31386042D01*
X31810127Y-31351201D01*
X31847499Y-31300900D01*
X31893107Y-31239792D01*
X31943495Y-31172525D01*
X32074994Y-30993885D01*
X32323093Y-30636383D01*
X32551663Y-30278617D01*
X32759753Y-29922433D01*
X32946413Y-29569675D01*
X33110692Y-29222188D01*
X33251641Y-28881816D01*
X33368307Y-28550405D01*
X33459742Y-28229800D01*
X33460989Y-28224797D01*
X33491924Y-28096540D01*
X33515439Y-27987212D01*
X33532513Y-27888816D01*
X33544128Y-27793360D01*
X33551263Y-27692848D01*
X33554898Y-27579287D01*
X33556015Y-27444682D01*
X33555908Y-27347400D01*
X33554981Y-27259236D01*
X33552839Y-27190235D01*
X33549109Y-27135116D01*
X33543419Y-27088599D01*
X33535396Y-27045403D01*
X33524669Y-27000250D01*
X33486809Y-26870427D01*
X33415740Y-26692500D01*
X33327311Y-26535666D01*
X33220479Y-26397859D01*
X33168004Y-26339702D01*
X33213141Y-26429942D01*
X33243313Y-26494653D01*
X33308419Y-26676533D01*
X33353949Y-26876509D01*
X33364700Y-26964214D01*
X33371347Y-27079731D01*
X33373005Y-27209571D01*
X33369855Y-27346325D01*
X33362076Y-27482586D01*
X33349848Y-27610947D01*
X33333352Y-27724000D01*
X33293494Y-27918351D01*
X33207555Y-28240313D01*
X33095151Y-28572229D01*
X32956586Y-28913507D01*
X32792160Y-29263557D01*
X32602178Y-29621789D01*
X32386940Y-29987612D01*
X32146749Y-30360435D01*
X31881908Y-30739668D01*
X31592719Y-31124720D01*
X31571714Y-31151731D01*
X31515264Y-31224055D01*
X31464991Y-31288091D01*
X31423800Y-31340161D01*
X31394595Y-31376588D01*
X31380281Y-31393695D01*
X31374094Y-31400598D01*
X31350146Y-31428460D01*
X31313316Y-31471975D01*
X31267322Y-31526742D01*
X31215883Y-31588357D01*
X31160542Y-31654141D01*
X30995573Y-31843633D01*
X30813111Y-32044844D01*
X30617344Y-32253542D01*
X30412458Y-32465493D01*
X30202643Y-32676465D01*
X29992086Y-32882225D01*
X29784974Y-33078541D01*
X29585496Y-33261179D01*
X29397840Y-33425907D01*
X29380779Y-33440514D01*
X29320203Y-33492435D01*
X29265378Y-33539512D01*
X29221756Y-33577061D01*
X29194786Y-33600400D01*
X29170545Y-33620778D01*
X29127586Y-33656056D01*
X29070715Y-33702307D01*
X29004392Y-33755901D01*
X28933080Y-33813212D01*
X28681447Y-34010737D01*
X28314624Y-34284025D01*
X27949007Y-34539297D01*
X27585850Y-34775924D01*
X27226406Y-34993280D01*
X26871929Y-35190738D01*
X26523673Y-35367671D01*
X26182891Y-35523451D01*
X25850836Y-35657452D01*
X25528762Y-35769047D01*
X25217922Y-35857609D01*
X24919570Y-35922510D01*
X24634959Y-35963125D01*
X24573035Y-35968182D01*
X24481907Y-35972802D01*
X24382200Y-35975525D01*
X24281431Y-35976306D01*
X24187114Y-35975102D01*
X24106767Y-35971869D01*
X24047905Y-35966562D01*
X23930465Y-35948181D01*
X23801986Y-35921251D01*
X23685643Y-35887372D01*
X23572044Y-35843721D01*
X23451798Y-35787477D01*
X23350023Y-35736485D01*
X22982290Y-35736485D01*
X22907313Y-35603931D01*
X22826750Y-35404688D01*
X22768199Y-35186812D01*
X22745159Y-35040803D01*
X22731492Y-34868583D01*
X22727795Y-34679548D01*
X22733791Y-34478924D01*
X22749203Y-34271937D01*
X22773751Y-34063813D01*
X22807157Y-33859778D01*
X22849145Y-33665059D01*
X22883799Y-33533559D01*
X22967911Y-33265127D01*
X23072582Y-32983872D01*
X23196310Y-32693221D01*
X23337593Y-32396603D01*
X23494928Y-32097445D01*
X23666814Y-31799176D01*
X23704244Y-31737627D01*
X23775087Y-31623783D01*
X23850796Y-31504968D01*
X23928867Y-31384906D01*
X24006799Y-31267319D01*
X24082090Y-31155933D01*
X24152237Y-31054470D01*
X24214737Y-30966654D01*
X24267089Y-30896208D01*
X24306790Y-30846857D01*
X24323004Y-30828659D01*
X24352375Y-30802462D01*
X24382447Y-30791141D01*
X24425455Y-30788701D01*
X24425823Y-30788701D01*
X24472311Y-30791964D01*
X24504354Y-30805759D01*
X24536161Y-30836182D01*
X24559729Y-30865603D01*
X24576772Y-30899240D01*
X24580727Y-30935093D01*
X24570516Y-30977208D01*
X24545060Y-31029633D01*
X24503280Y-31096414D01*
X24444099Y-31181599D01*
X24358576Y-31303941D01*
X24255765Y-31455837D01*
X24145811Y-31622724D01*
X24032330Y-31799176D01*
X23921161Y-31979800D01*
X23760940Y-32261877D01*
X23612869Y-32549400D01*
X23478666Y-32838384D01*
X23360048Y-33124839D01*
X23258732Y-33404780D01*
X23176436Y-33674219D01*
X23114877Y-33929170D01*
X23098006Y-34026930D01*
X23082827Y-34155041D01*
X23072719Y-34291341D01*
X23067917Y-34428513D01*
X23068657Y-34559240D01*
X23075175Y-34676204D01*
X23087708Y-34772086D01*
X23124549Y-34923025D01*
X23188096Y-35087045D01*
X23272454Y-35230770D01*
X23377650Y-35354226D01*
X23503714Y-35457440D01*
X23650672Y-35540440D01*
X23818555Y-35603251D01*
X24007389Y-35645902D01*
X24050476Y-35652366D01*
X24263758Y-35669169D01*
X24493762Y-35663919D01*
X24739230Y-35637104D01*
X24998908Y-35589211D01*
X25271540Y-35520726D01*
X25555870Y-35432138D01*
X25850642Y-35323932D01*
X26154600Y-35196596D01*
X26466489Y-35050617D01*
X26785053Y-34886483D01*
X27109036Y-34704679D01*
X27437181Y-34505694D01*
X27768235Y-34290015D01*
X28100940Y-34058128D01*
X28138964Y-34030568D01*
X28253493Y-33945796D01*
X28378976Y-33850717D01*
X28511590Y-33748385D01*
X28647512Y-33641856D01*
X28782917Y-33534184D01*
X28913981Y-33428423D01*
X29036883Y-33327627D01*
X29147797Y-33234852D01*
X29242900Y-33153151D01*
X29318369Y-33085580D01*
X29322375Y-33081885D01*
X29360795Y-33046764D01*
X29413531Y-32998917D01*
X29474159Y-32944159D01*
X29536253Y-32888308D01*
X29538743Y-32886070D01*
X29607245Y-32822995D01*
X29691881Y-32742742D01*
X29788899Y-32649042D01*
X29894549Y-32545626D01*
X30005079Y-32436225D01*
X30116739Y-32324570D01*
X30225778Y-32214392D01*
X30328445Y-32109422D01*
X30420989Y-32013390D01*
X30499659Y-31930029D01*
X30716647Y-31691011D01*
X30997310Y-31365329D01*
X31268774Y-31031891D01*
X31522548Y-30700900D01*
X31556714Y-30654642D01*
X31818599Y-30285556D01*
X32056926Y-29922711D01*
X32271333Y-29566841D01*
X32461462Y-29218680D01*
X32626952Y-28878959D01*
X32767444Y-28548413D01*
X32882577Y-28227775D01*
X32971991Y-27917777D01*
X33035327Y-27619153D01*
X33047302Y-27532594D01*
X33057233Y-27412091D01*
X33061847Y-27283492D01*
X33061207Y-27154145D01*
X33055379Y-27031398D01*
X33044428Y-26922601D01*
X33028417Y-26835102D01*
X33025483Y-26823477D01*
X32973393Y-26658822D01*
X32906408Y-26516465D01*
X32822508Y-26392798D01*
X32719671Y-26284217D01*
X32645524Y-26225466D01*
X32545344Y-26161653D01*
X32438095Y-26106205D01*
X32335255Y-26065650D01*
X32220110Y-26036257D01*
X32072791Y-26013385D01*
X31909845Y-26000680D01*
X31737449Y-25998400D01*
X31561781Y-26006803D01*
X31389021Y-26026148D01*
X31270076Y-26045614D01*
X30970359Y-26110947D01*
X30657281Y-26201465D01*
X30331328Y-26316973D01*
X29992986Y-26457276D01*
X29642740Y-26622178D01*
X29281076Y-26811483D01*
X28908480Y-27024996D01*
X28828772Y-27071933D01*
X28755768Y-27112560D01*
X28699349Y-27139900D01*
X28655362Y-27155364D01*
X28619652Y-27160363D01*
X28588065Y-27156309D01*
X28556445Y-27144614D01*
X28541677Y-27135305D01*
X28509539Y-27099110D01*
X28484924Y-27051963D01*
X28475149Y-27006309D01*
X28476839Y-26987999D01*
X28490000Y-26953942D01*
X28518528Y-26918067D01*
X28565185Y-26877791D01*
X28632735Y-26830531D01*
X28723941Y-26773703D01*
X28736127Y-26766388D01*
X29129329Y-26540361D01*
X29511090Y-26340559D01*
X29881312Y-26167024D01*
X30239894Y-26019796D01*
X30586738Y-25898917D01*
X30921744Y-25804427D01*
X31244814Y-25736367D01*
X31340664Y-25721922D01*
X31467635Y-25707136D01*
X31606852Y-25694533D01*
X31751490Y-25684511D01*
X31894720Y-25677464D01*
X32029715Y-25673789D01*
X32149646Y-25673883D01*
X32247687Y-25678143D01*
X32303893Y-25682932D01*
X32536254Y-25714782D01*
X32747652Y-25764942D01*
X32940038Y-25834221D01*
X33115363Y-25923425D01*
X33275579Y-26033365D01*
X33422635Y-26164847D01*
X33425814Y-26168067D01*
X33556453Y-26321479D01*
X33664700Y-26493276D01*
X33750477Y-26683206D01*
X33813705Y-26891012D01*
X33854307Y-27116442D01*
X33872205Y-27359240D01*
X33870599Y-27444682D01*
X33867321Y-27619153D01*
G37*
D15*
X53875000Y-35700000D02*
G75*
G02*
X52325000Y-35700000I-775000J0D01*
G01*
X52325000Y-35700000D02*
G75*
G02*
X53875000Y-35700000I775000J0D01*
G01*
%LPC*%
D16*
X57657501Y-27949400D03*
X55157501Y-27949400D03*
X53157500Y-27949400D03*
D17*
X60727500Y-25239400D03*
D16*
X50657500Y-27949400D03*
D17*
X47587501Y-25239400D03*
D18*
X16575000Y-40415000D03*
X21825000Y-40415000D03*
D19*
X19525000Y-34006600D03*
X19525000Y-28926600D03*
X38006600Y-48475001D03*
X32926600Y-48475001D03*
D16*
X50592500Y-40050600D03*
X53092500Y-40050600D03*
X55092501Y-40050600D03*
D17*
X47522501Y-42760600D03*
D16*
X57592501Y-40050600D03*
D17*
X60662500Y-42760600D03*
D20*
X34210001Y-38939998D03*
X34210001Y-37760001D03*
X35389998Y-37760001D03*
X35389998Y-38939998D03*
X34799999Y-38350000D03*
D19*
X35506600Y-19475001D03*
X30426600Y-19475001D03*
D21*
X53100000Y-35700000D03*
%LPD*%
M02*
