%TF.GenerationSoftware,KiCad,Pcbnew,8.0.6*%
%TF.CreationDate,2025-04-11T13:23:37-07:00*%
%TF.ProjectId,SF_PCB_Rev1-3,53465f50-4342-45f5-9265-76312d332e6b,rev?*%
%TF.SameCoordinates,Original*%
%TF.FileFunction,Copper,L2,Bot*%
%TF.FilePolarity,Positive*%
%FSLAX46Y46*%
G04 Gerber Fmt 4.6, Leading zero omitted, Abs format (unit mm)*
G04 Created by KiCad (PCBNEW 8.0.6) date 2025-04-11 13:23:37*
%MOMM*%
%LPD*%
G01*
G04 APERTURE LIST*
%TA.AperFunction,SMDPad,CuDef*%
%ADD10R,4.191000X2.667000*%
%TD*%
%TA.AperFunction,ViaPad*%
%ADD11C,1.400000*%
%TD*%
G04 APERTURE END LIST*
D10*
%TO.P,J15,4*%
%TO.N,/SMDFilter/GND*%
X240508260Y-52633000D03*
%TO.P,J15,6*%
X240508260Y-45648000D03*
%TD*%
%TO.P,J11,4*%
%TO.N,/SMDFilter/GND*%
X179410000Y-45728000D03*
%TO.P,J11,6*%
X179410000Y-52713000D03*
%TD*%
D11*
%TO.N,/SMDFilter/GND*%
X204281000Y-58780000D03*
X211900000Y-39500000D03*
X211901000Y-58780000D03*
X219521000Y-58780000D03*
X204280000Y-39500000D03*
X208090000Y-39500000D03*
X219520000Y-39500000D03*
X200470000Y-39500000D03*
X208091000Y-58780000D03*
X215711000Y-58780000D03*
X200471000Y-58780000D03*
X215710000Y-39500000D03*
%TD*%
%TA.AperFunction,Conductor*%
%TO.N,/SMDFilter/GND*%
G36*
X240303736Y-20500726D02*
G01*
X240593796Y-20518271D01*
X240608659Y-20520076D01*
X240890798Y-20571780D01*
X240905335Y-20575363D01*
X241179172Y-20660695D01*
X241193163Y-20666000D01*
X241454743Y-20783727D01*
X241467989Y-20790680D01*
X241713465Y-20939075D01*
X241725776Y-20947573D01*
X241951573Y-21124473D01*
X241962781Y-21134403D01*
X242165596Y-21337218D01*
X242175526Y-21348426D01*
X242295481Y-21501538D01*
X242352422Y-21574217D01*
X242360928Y-21586540D01*
X242509316Y-21832004D01*
X242516275Y-21845263D01*
X242633997Y-22106831D01*
X242639306Y-22120832D01*
X242724635Y-22394663D01*
X242728219Y-22409201D01*
X242779923Y-22691340D01*
X242781728Y-22706205D01*
X242799274Y-22996263D01*
X242799500Y-23003750D01*
X242799500Y-43692355D01*
X242779815Y-43759394D01*
X242727011Y-43805149D01*
X242662252Y-43815645D01*
X242651605Y-43814500D01*
X240758260Y-43814500D01*
X240758260Y-47481500D01*
X242651588Y-47481500D01*
X242651601Y-47481499D01*
X242662243Y-47480355D01*
X242731003Y-47492759D01*
X242782141Y-47540369D01*
X242799500Y-47603644D01*
X242799500Y-50677355D01*
X242779815Y-50744394D01*
X242727011Y-50790149D01*
X242662252Y-50800645D01*
X242651605Y-50799500D01*
X240758260Y-50799500D01*
X240758260Y-54466500D01*
X242651588Y-54466500D01*
X242651601Y-54466499D01*
X242662243Y-54465355D01*
X242731003Y-54477759D01*
X242782141Y-54525369D01*
X242799500Y-54588644D01*
X242799500Y-75996249D01*
X242799274Y-76003736D01*
X242781728Y-76293794D01*
X242779923Y-76308659D01*
X242728219Y-76590798D01*
X242724635Y-76605336D01*
X242639306Y-76879167D01*
X242633997Y-76893168D01*
X242516275Y-77154736D01*
X242509316Y-77167995D01*
X242360928Y-77413459D01*
X242352422Y-77425782D01*
X242175526Y-77651573D01*
X242165596Y-77662781D01*
X241962781Y-77865596D01*
X241951573Y-77875526D01*
X241725782Y-78052422D01*
X241713459Y-78060928D01*
X241467995Y-78209316D01*
X241454736Y-78216275D01*
X241193168Y-78333997D01*
X241179167Y-78339306D01*
X240905336Y-78424635D01*
X240890798Y-78428219D01*
X240608659Y-78479923D01*
X240593794Y-78481728D01*
X240303736Y-78499274D01*
X240296249Y-78499500D01*
X179703751Y-78499500D01*
X179696264Y-78499274D01*
X179406205Y-78481728D01*
X179391340Y-78479923D01*
X179109201Y-78428219D01*
X179094663Y-78424635D01*
X178820832Y-78339306D01*
X178806831Y-78333997D01*
X178545263Y-78216275D01*
X178532004Y-78209316D01*
X178286540Y-78060928D01*
X178274217Y-78052422D01*
X178048426Y-77875526D01*
X178037218Y-77865596D01*
X177834403Y-77662781D01*
X177824473Y-77651573D01*
X177647573Y-77425776D01*
X177639075Y-77413465D01*
X177490680Y-77167989D01*
X177483727Y-77154743D01*
X177366000Y-76893163D01*
X177360693Y-76879167D01*
X177275364Y-76605336D01*
X177271780Y-76590798D01*
X177220076Y-76308659D01*
X177218271Y-76293794D01*
X177200726Y-76003736D01*
X177200500Y-75996249D01*
X177200500Y-72859568D01*
X180399500Y-72859568D01*
X180399500Y-73140431D01*
X180430942Y-73419494D01*
X180430945Y-73419512D01*
X180493439Y-73693317D01*
X180493443Y-73693329D01*
X180586200Y-73958411D01*
X180708053Y-74211442D01*
X180708055Y-74211445D01*
X180857477Y-74449248D01*
X181032584Y-74668825D01*
X181231175Y-74867416D01*
X181450752Y-75042523D01*
X181688555Y-75191945D01*
X181941592Y-75313801D01*
X182140680Y-75383465D01*
X182206670Y-75406556D01*
X182206682Y-75406560D01*
X182480491Y-75469055D01*
X182480497Y-75469055D01*
X182480505Y-75469057D01*
X182666547Y-75490018D01*
X182759569Y-75500499D01*
X182759572Y-75500500D01*
X182759575Y-75500500D01*
X183040428Y-75500500D01*
X183040429Y-75500499D01*
X183183055Y-75484429D01*
X183319494Y-75469057D01*
X183319499Y-75469056D01*
X183319509Y-75469055D01*
X183593318Y-75406560D01*
X183858408Y-75313801D01*
X184111445Y-75191945D01*
X184349248Y-75042523D01*
X184568825Y-74867416D01*
X184767416Y-74668825D01*
X184942523Y-74449248D01*
X185091945Y-74211445D01*
X185213801Y-73958408D01*
X185306560Y-73693318D01*
X185369055Y-73419509D01*
X185400500Y-73140425D01*
X185400500Y-72859575D01*
X185400499Y-72859568D01*
X234399500Y-72859568D01*
X234399500Y-73140431D01*
X234430942Y-73419494D01*
X234430945Y-73419512D01*
X234493439Y-73693317D01*
X234493443Y-73693329D01*
X234586200Y-73958411D01*
X234708053Y-74211442D01*
X234708055Y-74211445D01*
X234857477Y-74449248D01*
X235032584Y-74668825D01*
X235231175Y-74867416D01*
X235450752Y-75042523D01*
X235688555Y-75191945D01*
X235941592Y-75313801D01*
X236140680Y-75383465D01*
X236206670Y-75406556D01*
X236206682Y-75406560D01*
X236480491Y-75469055D01*
X236480497Y-75469055D01*
X236480505Y-75469057D01*
X236666547Y-75490018D01*
X236759569Y-75500499D01*
X236759572Y-75500500D01*
X236759575Y-75500500D01*
X237040428Y-75500500D01*
X237040429Y-75500499D01*
X237183055Y-75484429D01*
X237319494Y-75469057D01*
X237319499Y-75469056D01*
X237319509Y-75469055D01*
X237593318Y-75406560D01*
X237858408Y-75313801D01*
X238111445Y-75191945D01*
X238349248Y-75042523D01*
X238568825Y-74867416D01*
X238767416Y-74668825D01*
X238942523Y-74449248D01*
X239091945Y-74211445D01*
X239213801Y-73958408D01*
X239306560Y-73693318D01*
X239369055Y-73419509D01*
X239400500Y-73140425D01*
X239400500Y-72859575D01*
X239369055Y-72580491D01*
X239306560Y-72306682D01*
X239213801Y-72041592D01*
X239091945Y-71788555D01*
X238942523Y-71550752D01*
X238767416Y-71331175D01*
X238568825Y-71132584D01*
X238349248Y-70957477D01*
X238111445Y-70808055D01*
X238111442Y-70808053D01*
X237858411Y-70686200D01*
X237593329Y-70593443D01*
X237593317Y-70593439D01*
X237319512Y-70530945D01*
X237319494Y-70530942D01*
X237040431Y-70499500D01*
X237040425Y-70499500D01*
X236759575Y-70499500D01*
X236759568Y-70499500D01*
X236480505Y-70530942D01*
X236480487Y-70530945D01*
X236206682Y-70593439D01*
X236206670Y-70593443D01*
X235941588Y-70686200D01*
X235688557Y-70808053D01*
X235450753Y-70957476D01*
X235231175Y-71132583D01*
X235032583Y-71331175D01*
X234857476Y-71550753D01*
X234708053Y-71788557D01*
X234586200Y-72041588D01*
X234493443Y-72306670D01*
X234493439Y-72306682D01*
X234430945Y-72580487D01*
X234430942Y-72580505D01*
X234399500Y-72859568D01*
X185400499Y-72859568D01*
X185369055Y-72580491D01*
X185306560Y-72306682D01*
X185213801Y-72041592D01*
X185091945Y-71788555D01*
X184942523Y-71550752D01*
X184767416Y-71331175D01*
X184568825Y-71132584D01*
X184349248Y-70957477D01*
X184111445Y-70808055D01*
X184111442Y-70808053D01*
X183858411Y-70686200D01*
X183593329Y-70593443D01*
X183593317Y-70593439D01*
X183319512Y-70530945D01*
X183319494Y-70530942D01*
X183040431Y-70499500D01*
X183040425Y-70499500D01*
X182759575Y-70499500D01*
X182759568Y-70499500D01*
X182480505Y-70530942D01*
X182480487Y-70530945D01*
X182206682Y-70593439D01*
X182206670Y-70593443D01*
X181941588Y-70686200D01*
X181688557Y-70808053D01*
X181450753Y-70957476D01*
X181231175Y-71132583D01*
X181032583Y-71331175D01*
X180857476Y-71550753D01*
X180708053Y-71788557D01*
X180586200Y-72041588D01*
X180493443Y-72306670D01*
X180493439Y-72306682D01*
X180430945Y-72580487D01*
X180430942Y-72580505D01*
X180399500Y-72859568D01*
X177200500Y-72859568D01*
X177200500Y-54670500D01*
X177220185Y-54603461D01*
X177272989Y-54557706D01*
X177324500Y-54546500D01*
X179160000Y-54546500D01*
X179660000Y-54546500D01*
X181553328Y-54546500D01*
X181553344Y-54546499D01*
X181612872Y-54540098D01*
X181612879Y-54540096D01*
X181747586Y-54489854D01*
X181747593Y-54489850D01*
X181862687Y-54403690D01*
X181862690Y-54403687D01*
X181948850Y-54288593D01*
X181948854Y-54288586D01*
X181999096Y-54153879D01*
X181999098Y-54153872D01*
X182005499Y-54094344D01*
X182005500Y-54094327D01*
X182005500Y-54014344D01*
X237912760Y-54014344D01*
X237919161Y-54073872D01*
X237919163Y-54073879D01*
X237969405Y-54208586D01*
X237969409Y-54208593D01*
X238055569Y-54323687D01*
X238055572Y-54323690D01*
X238170666Y-54409850D01*
X238170673Y-54409854D01*
X238305380Y-54460096D01*
X238305387Y-54460098D01*
X238364915Y-54466499D01*
X238364932Y-54466500D01*
X240258260Y-54466500D01*
X240258260Y-52883000D01*
X237912760Y-52883000D01*
X237912760Y-54014344D01*
X182005500Y-54014344D01*
X182005500Y-52963000D01*
X179660000Y-52963000D01*
X179660000Y-54546500D01*
X179160000Y-54546500D01*
X179160000Y-52463000D01*
X179660000Y-52463000D01*
X182005500Y-52463000D01*
X182005500Y-51331672D01*
X182005499Y-51331655D01*
X181999098Y-51272127D01*
X181999096Y-51272120D01*
X181991463Y-51251655D01*
X237912760Y-51251655D01*
X237912760Y-52383000D01*
X240258260Y-52383000D01*
X240258260Y-50799500D01*
X238364915Y-50799500D01*
X238305387Y-50805901D01*
X238305380Y-50805903D01*
X238170673Y-50856145D01*
X238170666Y-50856149D01*
X238055572Y-50942309D01*
X238055569Y-50942312D01*
X237969409Y-51057406D01*
X237969405Y-51057413D01*
X237919163Y-51192120D01*
X237919161Y-51192127D01*
X237912760Y-51251655D01*
X181991463Y-51251655D01*
X181948854Y-51137413D01*
X181948850Y-51137406D01*
X181862690Y-51022312D01*
X181862687Y-51022309D01*
X181747593Y-50936149D01*
X181747586Y-50936145D01*
X181612879Y-50885903D01*
X181612872Y-50885901D01*
X181553344Y-50879500D01*
X179660000Y-50879500D01*
X179660000Y-52463000D01*
X179160000Y-52463000D01*
X179160000Y-50879500D01*
X177324500Y-50879500D01*
X177257461Y-50859815D01*
X177211706Y-50807011D01*
X177200500Y-50755500D01*
X177200500Y-47685500D01*
X177220185Y-47618461D01*
X177272989Y-47572706D01*
X177324500Y-47561500D01*
X179160000Y-47561500D01*
X179660000Y-47561500D01*
X181553328Y-47561500D01*
X181553344Y-47561499D01*
X181612872Y-47555098D01*
X181612879Y-47555096D01*
X181747586Y-47504854D01*
X181747593Y-47504850D01*
X181862687Y-47418690D01*
X181862690Y-47418687D01*
X181948850Y-47303593D01*
X181948854Y-47303586D01*
X181999096Y-47168879D01*
X181999098Y-47168872D01*
X182005499Y-47109344D01*
X182005500Y-47109327D01*
X182005500Y-47029344D01*
X237912760Y-47029344D01*
X237919161Y-47088872D01*
X237919163Y-47088879D01*
X237969405Y-47223586D01*
X237969409Y-47223593D01*
X238055569Y-47338687D01*
X238055572Y-47338690D01*
X238170666Y-47424850D01*
X238170673Y-47424854D01*
X238305380Y-47475096D01*
X238305387Y-47475098D01*
X238364915Y-47481499D01*
X238364932Y-47481500D01*
X240258260Y-47481500D01*
X240258260Y-45898000D01*
X237912760Y-45898000D01*
X237912760Y-47029344D01*
X182005500Y-47029344D01*
X182005500Y-45978000D01*
X179660000Y-45978000D01*
X179660000Y-47561500D01*
X179160000Y-47561500D01*
X179160000Y-45478000D01*
X179660000Y-45478000D01*
X182005500Y-45478000D01*
X182005500Y-44346672D01*
X182005499Y-44346655D01*
X181999098Y-44287127D01*
X181999096Y-44287120D01*
X181991463Y-44266655D01*
X237912760Y-44266655D01*
X237912760Y-45398000D01*
X240258260Y-45398000D01*
X240258260Y-43814500D01*
X238364915Y-43814500D01*
X238305387Y-43820901D01*
X238305380Y-43820903D01*
X238170673Y-43871145D01*
X238170666Y-43871149D01*
X238055572Y-43957309D01*
X238055569Y-43957312D01*
X237969409Y-44072406D01*
X237969405Y-44072413D01*
X237919163Y-44207120D01*
X237919161Y-44207127D01*
X237912760Y-44266655D01*
X181991463Y-44266655D01*
X181948854Y-44152413D01*
X181948850Y-44152406D01*
X181862690Y-44037312D01*
X181862687Y-44037309D01*
X181747593Y-43951149D01*
X181747586Y-43951145D01*
X181612879Y-43900903D01*
X181612872Y-43900901D01*
X181553344Y-43894500D01*
X179660000Y-43894500D01*
X179660000Y-45478000D01*
X179160000Y-45478000D01*
X179160000Y-43894500D01*
X177324500Y-43894500D01*
X177257461Y-43874815D01*
X177211706Y-43822011D01*
X177200500Y-43770500D01*
X177200500Y-25859568D01*
X180399500Y-25859568D01*
X180399500Y-26140431D01*
X180430942Y-26419494D01*
X180430945Y-26419512D01*
X180493439Y-26693317D01*
X180493443Y-26693329D01*
X180586200Y-26958411D01*
X180708053Y-27211442D01*
X180708055Y-27211445D01*
X180857477Y-27449248D01*
X181032584Y-27668825D01*
X181231175Y-27867416D01*
X181450752Y-28042523D01*
X181688555Y-28191945D01*
X181941592Y-28313801D01*
X182140680Y-28383465D01*
X182206670Y-28406556D01*
X182206682Y-28406560D01*
X182480491Y-28469055D01*
X182480497Y-28469055D01*
X182480505Y-28469057D01*
X182666547Y-28490018D01*
X182759569Y-28500499D01*
X182759572Y-28500500D01*
X182759575Y-28500500D01*
X183040428Y-28500500D01*
X183040429Y-28500499D01*
X183183055Y-28484429D01*
X183319494Y-28469057D01*
X183319499Y-28469056D01*
X183319509Y-28469055D01*
X183593318Y-28406560D01*
X183858408Y-28313801D01*
X184111445Y-28191945D01*
X184349248Y-28042523D01*
X184568825Y-27867416D01*
X184767416Y-27668825D01*
X184942523Y-27449248D01*
X185091945Y-27211445D01*
X185213801Y-26958408D01*
X185306560Y-26693318D01*
X185369055Y-26419509D01*
X185400500Y-26140425D01*
X185400500Y-25859575D01*
X185400499Y-25859568D01*
X234399500Y-25859568D01*
X234399500Y-26140431D01*
X234430942Y-26419494D01*
X234430945Y-26419512D01*
X234493439Y-26693317D01*
X234493443Y-26693329D01*
X234586200Y-26958411D01*
X234708053Y-27211442D01*
X234708055Y-27211445D01*
X234857477Y-27449248D01*
X235032584Y-27668825D01*
X235231175Y-27867416D01*
X235450752Y-28042523D01*
X235688555Y-28191945D01*
X235941592Y-28313801D01*
X236140680Y-28383465D01*
X236206670Y-28406556D01*
X236206682Y-28406560D01*
X236480491Y-28469055D01*
X236480497Y-28469055D01*
X236480505Y-28469057D01*
X236666547Y-28490018D01*
X236759569Y-28500499D01*
X236759572Y-28500500D01*
X236759575Y-28500500D01*
X237040428Y-28500500D01*
X237040429Y-28500499D01*
X237183055Y-28484429D01*
X237319494Y-28469057D01*
X237319499Y-28469056D01*
X237319509Y-28469055D01*
X237593318Y-28406560D01*
X237858408Y-28313801D01*
X238111445Y-28191945D01*
X238349248Y-28042523D01*
X238568825Y-27867416D01*
X238767416Y-27668825D01*
X238942523Y-27449248D01*
X239091945Y-27211445D01*
X239213801Y-26958408D01*
X239306560Y-26693318D01*
X239369055Y-26419509D01*
X239400500Y-26140425D01*
X239400500Y-25859575D01*
X239369055Y-25580491D01*
X239306560Y-25306682D01*
X239213801Y-25041592D01*
X239091945Y-24788555D01*
X238942523Y-24550752D01*
X238767416Y-24331175D01*
X238568825Y-24132584D01*
X238349248Y-23957477D01*
X238111445Y-23808055D01*
X238111442Y-23808053D01*
X237858411Y-23686200D01*
X237593329Y-23593443D01*
X237593317Y-23593439D01*
X237319512Y-23530945D01*
X237319494Y-23530942D01*
X237040431Y-23499500D01*
X237040425Y-23499500D01*
X236759575Y-23499500D01*
X236759568Y-23499500D01*
X236480505Y-23530942D01*
X236480487Y-23530945D01*
X236206682Y-23593439D01*
X236206670Y-23593443D01*
X235941588Y-23686200D01*
X235688557Y-23808053D01*
X235450753Y-23957476D01*
X235231175Y-24132583D01*
X235032583Y-24331175D01*
X234857476Y-24550753D01*
X234708053Y-24788557D01*
X234586200Y-25041588D01*
X234493443Y-25306670D01*
X234493439Y-25306682D01*
X234430945Y-25580487D01*
X234430942Y-25580505D01*
X234399500Y-25859568D01*
X185400499Y-25859568D01*
X185369055Y-25580491D01*
X185306560Y-25306682D01*
X185213801Y-25041592D01*
X185091945Y-24788555D01*
X184942523Y-24550752D01*
X184767416Y-24331175D01*
X184568825Y-24132584D01*
X184349248Y-23957477D01*
X184111445Y-23808055D01*
X184111442Y-23808053D01*
X183858411Y-23686200D01*
X183593329Y-23593443D01*
X183593317Y-23593439D01*
X183319512Y-23530945D01*
X183319494Y-23530942D01*
X183040431Y-23499500D01*
X183040425Y-23499500D01*
X182759575Y-23499500D01*
X182759568Y-23499500D01*
X182480505Y-23530942D01*
X182480487Y-23530945D01*
X182206682Y-23593439D01*
X182206670Y-23593443D01*
X181941588Y-23686200D01*
X181688557Y-23808053D01*
X181450753Y-23957476D01*
X181231175Y-24132583D01*
X181032583Y-24331175D01*
X180857476Y-24550753D01*
X180708053Y-24788557D01*
X180586200Y-25041588D01*
X180493443Y-25306670D01*
X180493439Y-25306682D01*
X180430945Y-25580487D01*
X180430942Y-25580505D01*
X180399500Y-25859568D01*
X177200500Y-25859568D01*
X177200500Y-23003750D01*
X177200726Y-22996263D01*
X177218271Y-22706205D01*
X177220076Y-22691340D01*
X177271780Y-22409201D01*
X177275364Y-22394663D01*
X177352096Y-22148422D01*
X177360696Y-22120822D01*
X177365998Y-22106841D01*
X177483731Y-21845249D01*
X177490676Y-21832016D01*
X177639080Y-21586526D01*
X177647567Y-21574230D01*
X177824480Y-21348417D01*
X177834395Y-21337226D01*
X178037226Y-21134395D01*
X178048417Y-21124480D01*
X178274230Y-20947567D01*
X178286526Y-20939080D01*
X178532016Y-20790676D01*
X178545249Y-20783731D01*
X178806841Y-20665998D01*
X178820822Y-20660696D01*
X179094668Y-20575362D01*
X179109197Y-20571780D01*
X179391344Y-20520075D01*
X179406201Y-20518271D01*
X179696264Y-20500726D01*
X179703751Y-20500500D01*
X179765892Y-20500500D01*
X240234108Y-20500500D01*
X240296249Y-20500500D01*
X240303736Y-20500726D01*
G37*
%TD.AperFunction*%
%TD*%
M02*
